<?xml version="1.0" encoding="utf-8"?>
<!-- Generator: Adobe Illustrator 24.2.1, SVG Export Plug-In . SVG Version: 6.00 Build 0)  -->
<svg version="1.1" id="Layer_1" xmlns="http://www.w3.org/2000/svg" xmlns:xlink="http://www.w3.org/1999/xlink" x="0px" y="0px"
	 viewBox="0 0 500 500" style="enable-background:new 0 0 500 500;" xml:space="preserve">
<style type="text/css">
	.st0{fill:#EBEBEB;}
	.st1{fill:#E0E0E0;}
	.st2{fill:#F5F5F5;}
	.st3{fill:#FAFAFA;}
	.st4{fill:#FFFFFF;}
	.st5{opacity:0.6;}
	.st6{fill:#263238;}
	.st7{fill:#455A64;}
	.st8{fill:#01B4DB;}
	.st9{fill:#FFBE9D;}
	.st10{fill:#EB996E;}
	.st11{opacity:0.3;}
</style>
<g id="freepik--background-complete--inject-45">
	<path class="st0" d="M58.5,322.5c0,0-9.2,7-0.4,16.3c0.2,0.2,0.4,0.2,0.6,0.2l80.5-0.5c0,0,6.9-7.7,1.2-16.6L58.5,322.5z"/>
	<path class="st1" d="M121.4,329.8c0,0.1-10,0.2-22.4,0.2s-22.4-0.1-22.4-0.2s10-0.2,22.4-0.2S121.4,329.7,121.4,329.8z"/>
	<path class="st1" d="M108.8,332.7c0,0.1-4.7,0.2-10.5,0.2s-10.5-0.1-10.5-0.2s4.7-0.2,10.5-0.2S108.8,332.6,108.8,332.7z"/>
	<path class="st1" d="M129.6,338.3c-0.1,0,0.2-0.9,0.4-2.4c0.7-3.9,0.6-7.9-0.1-11.7c-0.3-1.5-0.5-2.4-0.5-2.4
		c0.1,0.2,0.2,0.4,0.2,0.6c0.1,0.4,0.3,1,0.5,1.7c0.9,3.9,0.9,7.9,0.1,11.8c-0.1,0.6-0.3,1.2-0.4,1.8
		C129.8,337.9,129.7,338.1,129.6,338.3z"/>
	<path class="st1" d="M135.6,321.8c0.1,0.2,0.3,0.4,0.4,0.6c0.1,0.2,0.2,0.4,0.4,0.7c0.2,0.3,0.3,0.7,0.4,1c0.3,0.9,0.6,1.8,0.8,2.7
		c0.2,1.1,0.3,2.2,0.4,3.4c0,1.1-0.1,2.3-0.3,3.4c-0.2,0.9-0.4,1.8-0.7,2.7c-0.1,0.4-0.3,0.7-0.4,1c-0.1,0.2-0.2,0.5-0.4,0.7
		c-0.1,0.2-0.2,0.4-0.4,0.6c0,0,0.4-0.9,0.9-2.4c0.3-0.9,0.5-1.8,0.6-2.7c0.2-1.1,0.3-2.2,0.3-3.3c0-1.1-0.1-2.2-0.3-3.3
		c-0.2-0.9-0.4-1.8-0.7-2.6C136,322.7,135.5,321.9,135.6,321.8z"/>
	<path class="st1" d="M71.2,338.4c-0.2-0.2-0.3-0.3-0.4-0.5c-0.1-0.2-0.3-0.4-0.4-0.7c-0.2-0.3-0.3-0.6-0.4-0.9
		c-0.3-0.8-0.6-1.7-0.8-2.5c-0.2-1.1-0.3-2.2-0.3-3.2c0-1.1,0.2-2.2,0.4-3.2c0.2-0.9,0.5-1.7,0.8-2.5c0.1-0.4,0.3-0.6,0.4-0.9
		c0.1-0.2,0.3-0.4,0.4-0.7c0.1-0.2,0.2-0.4,0.4-0.5c0,0-0.5,0.8-1,2.2c-0.3,0.8-0.6,1.6-0.8,2.5c-0.2,1-0.3,2.1-0.4,3.2
		c0,1.1,0.1,2.1,0.3,3.2c0.2,0.9,0.4,1.7,0.7,2.5C70.8,337.5,71.2,338.3,71.2,338.4z"/>
	<path class="st1" d="M62.5,340.3c-0.2-0.2-0.3-0.4-0.4-0.6c-0.2-0.2-0.3-0.5-0.4-0.8c-0.1-0.3-0.3-0.6-0.5-1
		c-0.4-0.9-0.7-1.9-0.9-2.8c-0.3-1.2-0.4-2.4-0.5-3.6c0-1.2,0.1-2.4,0.3-3.6c0.2-1,0.4-1.9,0.8-2.9c0.1-0.4,0.3-0.8,0.4-1.1
		c0.1-0.3,0.2-0.5,0.4-0.8c0.1-0.2,0.2-0.4,0.4-0.6c0.1,0-0.5,1-1,2.5c-0.3,0.9-0.6,1.9-0.7,2.9c-0.2,1.2-0.3,2.4-0.3,3.6
		c0,1.2,0.2,2.4,0.4,3.6c0.2,1,0.5,1.9,0.8,2.8C62,339.4,62.6,340.3,62.5,340.3z"/>
	<path class="st0" d="M136.2,363v15.4h-29.8V363H136.2z"/>
	<path class="st1" d="M40,370.9c0,0.1,0,0.3,0,0.4c0.3,4.7,4.2,8.3,8.9,8.3h88.7v-1.1h-21.1c-4.3,0-7.7-3.4-7.7-7.7l0,0l0,0
		c0-4.3,3.4-7.7,7.7-7.7h0h21.1v-1.6l-88.8,0.3c-4.9,0-8.9,4-8.8,8.9C40,370.7,40,370.8,40,370.9z"/>
	<path class="st1" d="M136.2,370.9c0,0.1-6.1,0.2-13.7,0.2s-13.7-0.1-13.7-0.2s6.1-0.2,13.7-0.2S136.2,370.9,136.2,370.9z"/>
	<path class="st1" d="M135.8,374.4c0,0.1-5.8,0.2-12.9,0.2s-12.9-0.1-12.9-0.2s5.8-0.2,12.9-0.2S135.8,374.3,135.8,374.4z"/>
	<path class="st1" d="M136.2,377.6c0,0.1-5.2,0.2-11.6,0.2s-11.6-0.1-11.6-0.2s5.2-0.2,11.6-0.2C131,377.4,136.2,377.5,136.2,377.6z
		"/>
	<path class="st1" d="M136.2,367.8c0,0.1-6,0.2-13.4,0.2s-13.4-0.1-13.4-0.2s6-0.2,13.4-0.2S136.2,367.7,136.2,367.8z"/>
	<path class="st1" d="M135.8,364.7c0,0.1-5.3,0.2-11.9,0.2s-11.9-0.1-11.9-0.2s5.3-0.2,11.9-0.2S135.8,364.6,135.8,364.7z"/>
	<path class="st2" d="M50.7,362c-0.7,0.7-1.3,1.5-1.9,2.2c-1.3,2-2,4.3-2,6.6c0.1,2.3,0.8,4.6,2.2,6.5c0.6,0.8,1.2,1.5,1.9,2.2
		c-0.2-0.1-0.4-0.3-0.6-0.5c-0.5-0.5-1-1-1.5-1.6c-3-4-3.1-9.4-0.2-13.5c0.4-0.6,0.9-1.1,1.5-1.6C50.3,362.3,50.5,362.1,50.7,362z"
		/>
	<path class="st2" d="M47.7,361.6c-0.7,0.7-1.3,1.5-1.9,2.2c-2.8,4-2.7,9.3,0.2,13.2c0.6,0.8,1.2,1.5,1.9,2.2
		c-0.2-0.1-0.4-0.3-0.6-0.5c-0.5-0.5-1-1-1.5-1.6c-3-4-3.1-9.4-0.2-13.5c0.4-0.6,0.9-1.1,1.5-1.6C47.3,361.9,47.5,361.8,47.7,361.6z
		"/>
	<path class="st2" d="M108,362c-0.7,0.7-1.3,1.5-1.9,2.2c-1.3,2-2,4.3-2,6.6c0.1,2.4,0.8,4.7,2.2,6.6c0.6,0.8,1.2,1.5,1.9,2.2
		c-0.2-0.1-0.4-0.3-0.6-0.5c-0.5-0.5-1-1-1.5-1.6c-3-4-3.1-9.4-0.2-13.5c0.4-0.6,0.9-1.1,1.4-1.6C107.6,362.3,107.8,362.1,108,362z"
		/>
	<path class="st2" d="M105,361.6c-0.7,0.7-1.3,1.5-1.9,2.2c-2.8,4-2.7,9.3,0.2,13.2c0.6,0.8,1.2,1.5,1.9,2.2
		c-0.2-0.1-0.4-0.3-0.6-0.5c-0.5-0.5-1-1-1.5-1.6c-3-4-3.1-9.4-0.2-13.5c0.4-0.6,0.9-1.1,1.4-1.6C104.6,361.9,104.8,361.8,105,361.6
		z"/>
	<path class="st2" d="M60.8,373c0-2.1,0-4.2-0.1-6.3c0-0.5-0.1-1.1-0.2-1.6c-0.2-0.5-0.6-0.9-1.2-1c-0.8-0.4-2,0.3-2.5,1.2
		c-0.5,0.9-0.7,2-0.6,3.1c0,1.6,0.1,3.3,0.2,4.9c0,0.8,0.2,1.6,0.6,2.3c0.4,0.7,1.1,1.2,1.9,1.1c0.8-0.1,1.4-0.7,1.7-1.5
		C60.8,374.6,60.9,373.8,60.8,373z"/>
	<path class="st2" d="M95.3,371.2c0,0.1-6.4,0.2-14.3,0.2s-14.3-0.1-14.3-0.2s6.4-0.2,14.3-0.2S95.3,371.1,95.3,371.2z"/>
	<polygon class="st2" points="54.9,361.3 54.7,346.7 62.7,346.7 62.9,361.3 	"/>
	<path class="st1" d="M62.2,349.3c-1.2,0.2-2.5,0.2-3.7,0.2c-1.2,0.1-2.5,0-3.7-0.2c1.2-0.2,2.5-0.2,3.7-0.2
		C59.7,349.1,61,349.2,62.2,349.3z"/>
	<path class="st1" d="M62.2,351.6c-1.2,0.2-2.5,0.2-3.7,0.2c-1.2,0.1-2.5,0-3.7-0.2c1.2-0.2,2.5-0.2,3.7-0.2
		C59.7,351.4,61,351.4,62.2,351.6z"/>
	<path class="st1" d="M62.2,353.8c-1.2,0.2-2.5,0.2-3.7,0.2c-1.2,0.1-2.5,0-3.7-0.2c1.2-0.2,2.5-0.2,3.7-0.2
		C59.7,353.6,61,353.7,62.2,353.8z"/>
	<path class="st1" d="M62.2,356.1c-1.2,0.2-2.5,0.2-3.7,0.2c-1.2,0.1-2.5,0-3.7-0.2c1.2-0.2,2.5-0.2,3.7-0.2
		C59.7,355.9,61,355.9,62.2,356.1z"/>
	<path class="st1" d="M62.2,358.4c-1.2,0.2-2.5,0.2-3.7,0.2c-1.2,0.1-2.5,0-3.7-0.2c1.2-0.2,2.5-0.2,3.7-0.2
		C59.7,358.1,61,358.2,62.2,358.4z"/>
	<path class="st0" d="M54.3,346.4h88c1,5.2,1,10.6,0,15.8H54.7v-1.1H60c1.4,0,2.5-1.1,2.5-2.5v-8.7c0-1.4-1.1-2.5-2.5-2.5h-5.7
		V346.4z"/>
	<path class="st3" d="M75.1,354.2h1.5c0.1,0,0.1,0,0.2,0c0.1,0.1,0.2,0.2,0.2,0.3c0,0,0,0.1,0,0.1c0,0.1-0.1,0.2-0.1,0.4
		c-0.2,0.6-0.5,1.2-0.9,1.7c-0.3,0.4-0.8,0.6-1.2,0.6h-0.2c-0.4-0.1-0.8-0.3-1-0.7c-0.3-0.5-0.5-1.1-0.4-1.8c0-0.4,0.1-0.9,0.2-1.3
		c0.2-0.6,0.5-1.2,0.9-1.7c0.3-0.4,0.8-0.7,1.3-0.7c0.2,0,0.4,0,0.6,0.1c0.4,0.2,0.7,0.6,0.9,1.1c0,0,0,0.1,0,0.1c0,0,0,0.1,0,0.1
		c-0.1,0.1-0.2,0.2-0.3,0.2h-0.1c-0.1,0-0.2-0.1-0.2-0.2l0,0c0-0.1-0.1-0.2-0.2-0.4c-0.1-0.3-0.4-0.4-0.7-0.4
		c-0.2,0-0.3,0.1-0.5,0.2c-0.4,0.3-0.7,0.7-0.8,1.1c-0.2,0.5-0.3,1.1-0.3,1.7c0,0.4,0.1,0.9,0.2,1.3c0.1,0.3,0.4,0.6,0.8,0.6
		c0.3,0,0.5-0.2,0.7-0.4c0.3-0.4,0.6-0.9,0.8-1.4c-0.7,0-1,0-1.1,0c-0.2,0-0.3-0.1-0.3-0.4c0,0,0-0.1,0-0.1
		C74.8,354.3,75,354.2,75.1,354.2z"/>
	<path class="st3" d="M80.1,351.4v0.1c0.1,0.2,0.4,2,1,5.5c0,0,0,0.1,0,0.1c0,0.1,0,0.1,0,0.2c-0.1,0.1-0.2,0.2-0.3,0.2l0,0
		c-0.1,0-0.2-0.1-0.2-0.2l-0.3-1.8h-1.8l-0.9,1.8v0.1c-0.1,0.1-0.2,0.1-0.3,0.1c-0.1,0-0.1,0-0.2,0c-0.1-0.1-0.1-0.2-0.1-0.3
		c0,0,0-0.1,0-0.1l0.3-0.6c1.3-2.8,2-4.4,2.3-4.9c0-0.1,0.2-0.2,0.3-0.2C80,351.2,80.1,351.3,80.1,351.4z M79.7,352.6l-1,2h1.4
		L79.7,352.6z"/>
	<path class="st3" d="M85,357.4h-2.6c-0.1,0-0.1,0-0.2,0c-0.1-0.1-0.2-0.2-0.2-0.3l0,0c0-0.1,0.2-1.9,0.7-5.4c0.7-5.3,0-0.1,0-0.1
		c0-0.1,0.2-0.2,0.3-0.2c0,0,0.1,0,0.1,0c0.1,0,0.2,0.2,0.2,0.3c0,0.2-0.1,0.7-0.2,1.5c-0.3,2.3-0.5,3.5-0.5,3.7H85
		c0.1,0,0.1,0,0.2,0c0.1,0,0.2,0.2,0.2,0.3c0,0,0,0.1,0,0.1C85.3,357.3,85.2,357.4,85,357.4z"/>
	<path class="st3" d="M88.7,351.4v0.1c0.1,0.2,0.4,2,1,5.5c0,0,0,0.1,0,0.1c0,0.1,0,0.1,0,0.2c0,0.1-0.1,0.2-0.3,0.2h-0.1
		c-0.1,0-0.2-0.1-0.2-0.2l-0.3-1.8H87l-0.9,1.8v0.1c-0.1,0.1-0.2,0.1-0.3,0.1c-0.1,0-0.1,0-0.2,0c-0.1-0.1-0.1-0.2-0.2-0.3
		c0,0,0-0.1,0-0.1l0.3-0.6c1.3-2.8,2-4.4,2.3-4.9c0-0.1,0.2-0.2,0.3-0.2C88.5,351.2,88.6,351.3,88.7,351.4z M88.2,352.6l-1,2h1.4
		L88.2,352.6z"/>
	<path class="st3" d="M92.9,354.5c0.2,0.6,0.4,1,0.5,1.3c0.3,0.8,0.4,1.1,0.4,1.2c0,0.1,0,0.1-0.1,0.2c-0.1,0.1-0.2,0.2-0.3,0.1
		c-0.1,0-0.2-0.1-0.3-0.2c0-0.1,0-0.1,0-0.1c-0.2-0.3-0.4-1-0.7-1.9l-1.5,2c-0.1,0.1-0.2,0.2-0.3,0.2c-0.1,0-0.1,0-0.2,0
		c-0.1-0.1-0.2-0.2-0.2-0.3c0,0,0,0,0-0.1c0-0.1,0.1-0.2,0.2-0.2c0.5-0.6,1.1-1.4,1.7-2.3l-0.2-0.5c-0.6-1.5-0.8-2.3-0.8-2.3
		c0-0.1,0-0.1,0-0.2c0-0.1,0.1-0.2,0.3-0.2c0.1,0,0.2,0.1,0.3,0.2l0.9,2.4l1.8-2.4c0.1-0.1,0.2-0.2,0.3-0.1c0,0,0.1,0,0.2,0
		c0.1,0.1,0.2,0.2,0.2,0.3c0,0,0,0.1,0,0.1L92.9,354.5z"/>
	<path class="st3" d="M99.4,351.2h0.2c0.1,0.1,0.2,0.2,0.2,0.3c-0.4,3.4-0.7,5.3-0.7,5.6c-0.1,0.5-0.3,1-0.6,1.5
		c-0.6,0.8-1.7,1.1-2.6,0.6c-0.4-0.2-0.7-0.5-0.9-0.8c0,0,0-0.1,0-0.1c0-0.1,0-0.1,0-0.2c0.1-0.1,0.2-0.2,0.3-0.2
		c0.1,0,0.2,0.1,0.2,0.1c0.3,0.5,0.8,0.7,1.3,0.8c0.4,0,0.8-0.2,1.1-0.5c0.4-0.5,0.6-1.1,0.6-1.7c-0.1,0.2-0.2,0.3-0.4,0.4
		c-0.3,0.2-0.6,0.3-1,0.3h-0.2c-0.4-0.1-0.8-0.3-1-0.7c-0.3-0.5-0.5-1.1-0.4-1.8c0-0.3,0-0.7,0-1c0-0.5,0.2-1.3,0.4-2.3
		c0-0.2,0.1-0.3,0.3-0.3c0,0,0.1,0,0.2,0c0.1,0,0.2,0.1,0.2,0.2c0,0.4-0.1,0.8-0.2,1.2c-0.1,0.6-0.2,1.2-0.2,1.9
		c0,0.5,0.1,1,0.2,1.4c0.2,0.4,0.4,0.6,0.8,0.6h0.1c0.3-0.1,0.6-0.3,0.8-0.6c0.3-0.4,0.5-0.9,0.7-1.5l0.4-3c0,0,0-0.1,0-0.1
		C99.1,351.3,99.2,351.2,99.4,351.2C99.4,351.2,99.4,351.2,99.4,351.2z"/>
	<path class="st2" d="M139,362.3c-0.1,0-0.2-3.6-0.2-8.1s0.1-8.1,0.2-8.1s0.2,3.6,0.2,8.1S139.1,362.3,139,362.3z"/>
	<path class="st1" d="M67,362.3c-0.1,0-0.2-3.6-0.2-8.1s0.1-8.1,0.2-8.1s0.2,3.6,0.2,8.1S67.1,362.3,67,362.3z"/>
	<path class="st2" d="M140.6,362.3c-0.1,0-0.2-3.6-0.2-8.1s0.1-8.1,0.2-8.1s0.2,3.6,0.2,8.1S140.7,362.3,140.6,362.3z"/>
	<path class="st1" d="M65.5,362.3c-0.1,0-0.2-3.6-0.2-8.1s0.1-8.1,0.2-8.1s0.2,3.6,0.2,8.1S65.6,362.3,65.5,362.3z"/>
	<path class="st1" d="M117.7,348.8L117.7,348.8l9.3,7.5l0.1,0.1H127l-1.2,0.3l-7.9,2.1l0,0l-7.1-3l-2-0.9l-0.5-0.2l-0.1-0.1l0,0l0,0
		l0.1,0.1l0.5,0.2l2,0.8l7.1,3l0,0l7.8-2.1l1.2-0.3v0.1L117.7,348.8L117.7,348.8L117.7,348.8"/>
	<polygon class="st1" points="126.1,355.1 126.6,355.6 127.3,355.5 127,356.1 127.4,356.7 126.7,356.6 126.2,357.1 126.1,356.4 
		125.4,356.2 126.1,355.8 	"/>
	<polygon class="st1" points="117.2,358.1 117.6,358.4 118,358.2 117.8,358.7 118.1,359 117.6,359 117.3,359.4 117.2,358.9 
		116.8,358.8 117.2,358.5 	"/>
	<polygon class="st1" points="107.3,354 107.9,354.1 108.2,353.6 108.4,354.2 108.9,354.4 108.4,354.7 108.4,355.2 108,354.9 
		107.4,355 107.7,354.5 	"/>
	<polygon class="st1" points="130.3,348.9 130.9,349 131.2,348.5 131.3,349.1 131.9,349.3 131.4,349.6 131.4,350.1 130.9,349.8 
		130.4,349.9 130.6,349.4 	"/>
	<polygon class="st1" points="117.2,348.6 117.6,348.6 117.8,348.3 117.9,348.7 118.2,348.8 117.9,349 117.9,349.3 117.6,349.1 
		117.3,349.2 117.4,348.9 	"/>
	<path class="st1" d="M131.1,349.3c0,0-3-0.1-6.7-0.2s-6.7-0.3-6.7-0.4s3,0.1,6.7,0.2S131.1,349.3,131.1,349.3z"/>
	<path class="st1" d="M134.5,346.2H45.2c-1.2-2.6-1.5-5.2,0-7.4h89.3C135.6,341.1,135.6,343.9,134.5,346.2z"/>
	<rect x="63.7" y="340.9" class="st0" width="48.4" height="2.7"/>
	<path class="st1" d="M48.6,346.3c-0.3-0.2-0.5-0.6-0.7-0.9c-0.5-0.8-0.7-1.7-0.8-2.6c-0.1-0.9,0-1.9,0.3-2.7c0.1-0.4,0.3-0.7,0.5-1
		c-0.1,0.4-0.2,0.7-0.3,1.1c-0.5,1.7-0.3,3.6,0.5,5.2C48.3,345.6,48.5,345.9,48.6,346.3z"/>
	<path class="st1" d="M50.5,346.3c-0.3-0.2-0.5-0.5-0.7-0.9c-0.9-1.6-1.1-3.6-0.5-5.4c0.1-0.4,0.3-0.7,0.5-1
		c-0.1,0.4-0.2,0.7-0.3,1.1c-0.2,0.9-0.3,1.8-0.2,2.6c0.1,0.9,0.3,1.8,0.7,2.6C50.2,345.6,50.4,345.9,50.5,346.3z"/>
	<path class="st2" d="M130.9,346.1c0.4-1.2,0.6-2.4,0.6-3.6c0-1.2-0.2-2.5-0.6-3.6C132.1,341.1,132.1,343.8,130.9,346.1L130.9,346.1
		z"/>
	<path class="st2" d="M129.2,346.1c-0.1,0,0.3-1.6,0.3-3.6s-0.4-3.5-0.3-3.6c0.5,1.1,0.7,2.3,0.6,3.6
		C129.8,343.7,129.6,344.9,129.2,346.1z"/>
	<rect x="38.3" y="50.7" class="st4" width="184.2" height="203.1"/>
	<path class="st1" d="M222.6,253.8c0-2-0.1-81.8-0.2-203.1l0.2,0.2L38.3,51l0,0l0.3-0.3c0,74.8,0,144.5,0,203.1l-0.2-0.2
		L222.6,253.8L38.3,254h-0.2v-0.2c0-58.5,0-128.3,0-203.1v-0.3h0.3h184.2h0.2v0.2C222.6,172,222.6,251.8,222.6,253.8z"/>
	<path class="st0" d="M75.2,103.6c0,0-14.9-14.6-14.7-15s17.1,9.5,17.1,9.5L75.2,103.6"/>
	<path class="st1" d="M69.9,93.6c0.2,0.2,0.3,0.5,0.3,0.8c0,0.7,0,1.3-0.2,2C70,96.7,70,97.1,70,97.5c0,0.3,0.1,0.6,0.2,0.8
		c0.1,0.2,0.3,0.5,0.4,0.7c0,0-0.3-0.2-0.6-0.6c-0.1-0.3-0.2-0.6-0.3-0.9c0-0.4,0-0.8,0.1-1.1c0.2-0.7,0.2-1.3,0.2-2
		C70,93.9,69.9,93.6,69.9,93.6z"/>
	<path class="st1" d="M67.2,92c0,0,0.1,0,0.1,0.1c0.1,0.1,0.2,0.3,0.2,0.4c0,0.2-0.1,0.4-0.2,0.7c-0.1,0.2-0.2,0.5-0.2,0.7
		c-0.1,0.6,0,1.3,0.2,1.9c0,0-0.2-0.2-0.3-0.5c-0.1-0.5-0.2-1-0.1-1.4c0.1-0.6,0.4-1,0.4-1.3C67.4,92.3,67.3,92.1,67.2,92z"/>
	<path class="st1" d="M64.9,90.7c-0.1,0.4-0.2,0.8-0.3,1.2c0,0.4,0.1,0.8,0.1,1.2c-0.3-0.4-0.4-0.8-0.3-1.2
		C64.4,91.4,64.5,91,64.9,90.7z"/>
	<path class="st1" d="M62.7,89.6c0,0,0.1,0,0.2,0.2c0.1,0.2,0.1,0.3,0.1,0.5c0,0.2-0.1,0.4-0.2,0.5c-0.1,0.1-0.2,0.1-0.2,0.1
		s0.2-0.3,0.2-0.6S62.7,89.7,62.7,89.6z"/>
	<path class="st4" d="M69.2,96.8c0,0.1-0.5-0.1-0.9-0.5c-0.3-0.2-0.5-0.5-0.5-0.9c0.1,0,0.3,0.3,0.7,0.7S69.3,96.8,69.2,96.8z"/>
	<path class="st4" d="M71.3,98.8c0,0.1-0.3,0-0.5-0.3S70.5,98,70.6,98s0.2,0.2,0.4,0.4S71.3,98.7,71.3,98.8z"/>
	<path class="st4" d="M66.3,93.9c-0.1,0-0.3-0.2-0.7-0.5S65,92.9,65,92.8s0.4,0.1,0.8,0.4S66.3,93.9,66.3,93.9z"/>
	<path class="st4" d="M63.7,91.6c0,0-0.2-0.1-0.3-0.2S63.2,91,63.3,91s0.2,0.1,0.3,0.2S63.8,91.6,63.7,91.6z"/>
	<path class="st4" d="M62,90c0,0.1-0.1,0.1-0.2,0.1c-0.1,0-0.1-0.1-0.1-0.2C61.8,89.9,61.9,89.9,62,90C62,89.9,62,90,62,90z"/>
	<path class="st1" d="M204.4,179.4c-2.1-0.3-4.2,0-6.3-0.2c-2.1,0-4.2-0.9-5.6-2.5c1.7-0.1,3.2-1.1,4-2.6c-2.3,1.5-5.3,1.3-7.6-0.3
		c-2.6-2-3.3-5.5-5.4-7.9c-3-3.3-8-4-11.8-1.7l-2.7,2.5c2.1-0.8,4.4,0.5,5.6,2.4c1,1.9,1.6,4.1,1.6,6.3c0,2.2,0.4,4.3,1.3,6.4l1-2.9
		c1.4,3,3.6,5.6,6.3,7.5c5,3,11.4,2.1,16.8-0.1c2.3-0.9,4.5-2,6.9-2.3s5.2,0.6,6.3,2.7C212.7,182.8,208.8,180.1,204.4,179.4z"/>
	<path class="st1" d="M81.2,94.4c1.3-0.6,2.7-0.9,4.1-0.9c0.4,0,0.9,0.1,1.2-0.2c0.2-0.2,0.3-0.5,0.3-0.8c0.4-1.2,1.8-1.8,3.1-2
		c1-0.1,2-0.1,3,0.1c0.2,0,0.4,0.1,0.6,0.3c0.1,0.2,0.2,0.5,0.1,0.7c-0.1,0.9-0.3,1.9-0.8,2.7c1.2-0.6,1.8-1.9,3-2.6
		c1.6-0.9,3.6-0.3,5.3,0.3c1.3,0.4,2.6,1,3.7,1.8c0.7,0.6,1.3,1.3,2.1,1.8c0.7,0.6,1.6,1,2.5,1c-0.3,0.3-0.6,0.5-1,0.7
		c1,0.4,1.9,1,2.7,1.7c0.8,0.7,1.3,1.6,1.4,2.7c0.1,1.1-0.6,2.1-1.7,2.4l2.4-0.5c1.6,1.4,2.3,3.4,2,5.5c0.6-0.2,1.1-0.5,1.6-0.9
		c-0.4,1-0.8,1.9-1.3,2.7c0.6-0.5,1.4,0,1.9,0.6c0.6,0.6,1.1,1.3,1.6,2c0.5,0.8,1,1.5,1.6,2.2c0.6,0.7,1.5,1,2.4,1
		c-0.5,0.3-1.1,0.5-1.6,0.5c-1-0.3-1.9-0.6-2.8-0.9c2.5,2.3,4.6,5,6.3,7.9c2.4,4.3,0.3,8.1,3.1,9.8c1.4,1,3.1,1.5,4.8,1.4l-3.3,0.9
		l-13.1-8.2l-8.2-11l-4.4-10l-17-8.6l-5-0.7L81.2,94.4z"/>
	<path class="st1" d="M76.6,95.3c-0.5-0.1-1.1-0.1-1.6,0c-1,0.3-1.9,1-2.6,1.8c0.4-0.2,0.8-0.3,1.2-0.2c-2.1,0.8-3.4,2.8-3.4,5
		c0,1.1,0.4,2.1,0.4,3.2c0,1.3-0.7,2.6-1.7,3.4c0.7,0.1,1.4-0.1,1.8-0.7c0.5-0.5,0.8-1.1,1.1-1.7c0,0.7-0.2,1.3-0.6,1.9
		c0.9-0.3,1.3-1.4,1.6-2.3c0.8-1.6,1.7-3.1,2.7-4.6c1.2-1.9,2.4-2.6,3.2-4.7l0.3-0.9C78.6,95.5,77.2,95.3,76.6,95.3z"/>
	<path class="st0" d="M69,155.8c0,0.2,0.9,14.5,0.9,14.5l9.8,5.3l0.9-4.6l-5-1.5l-1.5-2.2c-0.6-1.5-1-3.2-1.2-4.8
		c0.1-1.4,0.3-2.9,0.6-4.3l1.2-1.2l4.7,0.4l6.2,2.2l6.5-3.2l3.4-9l-8.6,1.1l0.8,2.3l-15.5,1.4L69,155.8z"/>
	<path class="st0" d="M141.9,168.7c0.4-0.1,4.1,6.4,4.1,8.3s0.2,5.3,1.1,6.7s12.8,12.8,13.4,13.7s3.3,2.1,4.3,4s2.8,4.1,2.7,5.4
		s-5.4,19-5.2,20.9l6.4-3.2c-0.1-3.3,0.5-6.5,1.8-9.5c2.1-4.2,6.2-13.6,6.2-13.6s-6.1-6.1-7.8-9.2s-2.5-4.8-2.2-6.6
		c0.9-2.5,2-4.9,3.2-7.2c1.6-3.2,2.2-6.8,1.6-10.3l-0.9-5.2l-27.9,5.3L141.9,168.7z"/>
	<path class="st2" d="M171.8,164.6c-0.8-1.8-5.1-7.5-6.8-9.7s-7.5-6.9-14.8-8.9s-18.4-7.6-19.1-8.4s-3.5-2.4-4.6-4.9s-6.3-7.4-9.3-9
		s-5.7-8.7-7.5-12s-4.2-7.4-6.8-9.8c-2.8-2.7-6.4-4.5-10.3-4.9c-3.5-0.5-7-0.5-10.5,0c0,0,1.9-6.7,1-6.6s-6,7-6,7
		s-6.5,11.4-6.6,12.8s0.6,4.1,0,5.3c-1.2,3-2.1,6-2.9,9.1c-0.4,1.4-0.1,2.9,0.8,4.1c1.1,1.5,3.6,2.4,4.8,1.3s1-0.7,1-0.7
		s1.6,0,1.8-0.4c0.2-0.9,0.3-1.8,0.3-2.8c1.8-1.6,3.6-3.2,5.3-4.9c1.1-1.4,1.7-2.3,1.7-2.3c0.8-0.3,1.5-0.8,2.1-1.4
		c0.5-0.8,0.9-1.6,1.2-2.4c0,0,1.4-0.7,1.9-0.1c1,1,1.5,2.4,1.4,3.8c-0.1,2.1,0,14.8,0,14.8s-3,4.7-3.4,7.3s-0.3,6.8,0.1,7.8
		s3.9,4.8,4.4,5.4c-0.1,0.3-0.2,0.5-0.2,0.5s-11.3,7-12.2,7.8s-2.6,5.3-2.6,5.3l4.2,13.5l6,5.4l2-5.6c0,0-1.1,1.4-1.6,0.8
		c-0.4-0.7-0.8-1.5-0.9-2.4c-2-1.6-3.4-3.9-3.8-6.4c-0.2-1.6-0.5-3.2-0.9-4.8l1.7-2.7c0,0,4.9-1.1,7.5-1.6c1.6-0.3,3.1-0.9,4.5-1.8
		c0,0,2.4,0.5,3.6-0.1c0.9-0.3,1.9-0.5,2.8-0.7l7.6,5.6c0,0,16.1,5.6,22,7c3.4,0.7,6.7,1.7,9.9,2.9c-0.2,0.6-0.2,1.3-0.2,1.9
		c0.3,1.7,5.8,17.1,5.9,18.2s2.1,3.3,2.1,5.5s0.7,5,0,6.1s-13.3,14.7-14,16.5h7.1c1.4-3,3.4-5.6,5.9-7.7c3.7-2.9,11.6-9.4,11.6-9.4
		s-2.8-8.1-2.9-11.7s-0.1-5.4,1-6.9c1-1.4,8.4-7.2,9.9-8.4l0,0l0.1-0.1l0.1-0.1l0,0c1.1-0.9,2.1-1.9,2.9-3.1
		c0.7-1.1,1.1-2.4,1.3-3.8C171.9,171,172.3,165.9,171.8,164.6z"/>
	<path class="st1" d="M77.6,109.5c-0.8,0-1.7,0.1-2.5,0.2c-0.3,0.1-0.6,0.2-0.8,0.4c-0.2,0.2-0.3,0.4-0.4,0.7
		c-0.1,0.4-0.3,0.7-0.3,0.7s0.1-0.3,0.2-0.7c0-0.3,0.2-0.5,0.4-0.8c0.3-0.2,0.6-0.4,0.9-0.4c0.6-0.1,1.2-0.1,1.8-0.1
		C77.1,109.4,77.4,109.4,77.6,109.5z"/>
	<path class="st1" d="M79,107.2c0,0-0.2,0.3-0.6,0.7s-0.5,0.7-0.6,0.7s0.1-0.4,0.4-0.8S78.9,107.1,79,107.2z"/>
	<path class="st1" d="M70.5,127.7c-0.1,0.3-0.4,0.2-0.6,0.2c-0.3,0-0.5-0.2-0.6-0.4c-0.1-0.3,0-0.5,0.2-0.8c0.2-0.2,0.3-0.4,0.5-0.7
		c0.2-0.4,0.1-0.8,0.3-1.2c0-0.1,0.1-0.2,0.2-0.1c0,0,0.1,0.1,0.1,0.1c0.1,0.2,0.1,0.5,0.1,0.7L70.5,127.7"/>
	<path class="st1" d="M71.5,124c0,0,0.1,0,0.2,0.1c0.1,0.1,0.2,0.3,0.2,0.5c0,0.5,0,1.1,0,1.6c0,0.5-0.1,1.1-0.2,1.6
		c0,0.2-0.1,0.3-0.2,0.5c-0.1,0.1-0.2,0.1-0.2,0.1s0.2-0.9,0.3-2.2c0-0.6,0.1-1.2,0.1-1.6c0-0.2,0-0.3-0.1-0.4
		C71.6,124.1,71.5,124,71.5,124z"/>
	<path class="st1" d="M75.3,125.4c-0.1,0.2-0.1,0.4-0.2,0.5c-0.1,0.3-0.2,0.8-0.4,1.3s-0.2,1-0.3,1.3c0,0.2-0.1,0.4-0.2,0.5
		c0-0.2,0-0.4,0.1-0.6c0.1-0.3,0.2-0.8,0.3-1.3c0.1-0.4,0.2-0.9,0.4-1.3C75.1,125.6,75.3,125.4,75.3,125.4z"/>
	<path class="st1" d="M82.4,106.2c0,0,0.1,0.1,0.4,0.2l1,0.7l1.4,1.1c0.6,0.4,1.1,1,1.5,1.6c0.4,0.7,0.6,1.4,0.6,2.1
		c0,0.6,0,1.2-0.2,1.8c-0.1,0.4-0.2,0.8-0.4,1.2c0,0.1-0.1,0.3-0.2,0.4c0,0,0.2-0.6,0.4-1.6c0.1-0.6,0.2-1.2,0.2-1.8
		c0-0.7-0.2-1.4-0.6-2c-0.4-0.6-0.9-1.1-1.5-1.6l-1.4-1.1l-0.9-0.8C82.6,106.4,82.5,106.3,82.4,106.2z"/>
	<polygon class="st1" points="88.4,180.8 91.2,182.6 91.2,190 86.4,186.6 	"/>
	<path class="st2" d="M83.3,90.3c-1.5,1.5-3,3.2-4.3,4.9c-0.5,0.6-0.9,1.4-1.1,2.2c-0.2,0.8,0.1,1.7,0.8,2.2l0.4-0.3
		c1.9-0.6,3.5-1.9,4.4-3.7C84.3,93.9,84.2,91.9,83.3,90.3z"/>
	<path class="st1" d="M80.9,98.5c0,0,0.3-0.2,0.7-0.6c0.6-0.5,1.1-1.2,1.4-1.9l0,0c0.3-0.7,0.5-1.4,0.5-2.2c0-0.4,0-0.9-0.1-1.3
		c-0.1-0.5-0.2-0.9-0.4-1.3h0.2c-0.2,0.3-0.3,0.6-0.5,0.8c-0.7,1-1.5,1.9-2.3,2.8c-0.7,0.7-1.3,1.5-1.9,2.3c-0.2,0.3-0.3,0.6-0.4,1
		c-0.1,0.3,0,0.6,0.1,0.8c0.1,0.2,0.2,0.3,0.4,0.3c0.1,0,0.1,0,0.2,0c0,0-0.1,0.1-0.2,0.1c-0.2,0-0.4-0.1-0.4-0.3
		C78,98.7,78,98.4,78,98.1c0.1-0.4,0.2-0.8,0.4-1.1c0.5-0.8,1.2-1.6,1.8-2.3c0.8-0.9,1.6-1.8,2.3-2.8c0.2-0.3,0.3-0.5,0.5-0.8
		l0.1-0.2l0.1,0.2c0.2,0.4,0.3,0.9,0.4,1.4c0.1,0.4,0.1,0.9,0.1,1.3c0,0.4-0.1,0.8-0.2,1.2c-0.1,0.3-0.2,0.7-0.4,1l0,0
		c-0.4,0.8-0.9,1.4-1.5,2c-0.2,0.1-0.4,0.3-0.6,0.4C80.9,98.4,80.9,98.5,80.9,98.5z"/>
	<path class="st1" d="M79,161.9l0.2-0.2l0.8-0.5l2.8-1.8l4.1-2.7l2.4-1.6c0.4-0.3,0.9-0.5,1.3-0.8c0.4-0.3,0.7-0.7,0.9-1.2
		c0.1-0.5,0.1-1,0-1.5c-0.1-0.5-0.3-1-0.5-1.4c-0.5-0.8-0.9-1.7-1.3-2.6c-0.2-0.4-0.2-0.9-0.2-1.4c0-0.4,0.1-0.9,0.3-1.3
		c0.3-0.8,0.6-1.5,0.8-2.1c0.6-1.3,1.1-2.3,1.5-3l0.5-0.8c0.1-0.1,0.1-0.2,0.2-0.3c0,0.1-0.1,0.2-0.1,0.3l-0.4,0.8
		c-0.4,0.7-0.9,1.7-1.4,3c-0.3,0.6-0.5,1.4-0.8,2.1c-0.1,0.4-0.2,0.8-0.2,1.2c0,0.4,0.1,0.9,0.2,1.3c0.4,0.9,0.8,1.7,1.3,2.6
		c0.2,0.5,0.4,0.9,0.5,1.4c0.2,0.5,0.2,1.1,0,1.6c-0.2,0.5-0.5,1-1,1.3c-0.4,0.3-0.9,0.6-1.3,0.8l-2.4,1.6l-4.1,2.6l-2.9,1.8
		l-0.8,0.5L79,161.9z"/>
	<path class="st1" d="M110.9,150.1c0,0.1,0,0.1-0.1,0.2c0,0.1-0.1,0.4-0.2,0.6c-0.2,0.5-0.5,1.3-1,2.2s-1,2-1.6,3.2
		c-0.3,0.6-0.7,1.2-1,1.8c-0.3,0.7-0.8,1.3-1.4,1.8c-0.6,0.4-1.3,0.7-2.1,0.9c-0.7,0.2-1.4,0.2-2.1,0.4c-0.6,0.1-1.2,0.2-1.8,0.4
		c-0.6,0.2-1.1,0.4-1.5,0.6c-0.4,0.2-0.9,0.3-1.3,0.3c-0.3,0-0.7-0.1-1-0.2c-0.2-0.1-0.4-0.1-0.6-0.1h-0.2c0,0,0.1,0,0.2-0.1
		c0.2,0,0.4,0,0.7,0.1c0.3,0.1,0.7,0.2,1,0.2c0.4,0,0.9-0.1,1.3-0.3c0.5-0.2,1-0.4,1.5-0.6c0.6-0.2,1.2-0.3,1.9-0.4
		c0.7-0.1,1.4-0.2,2.1-0.4c0.7-0.2,1.4-0.4,2-0.9c0.6-0.5,1-1.1,1.4-1.7c0.4-0.6,0.7-1.2,1-1.8c0.7-1.2,1.2-2.2,1.6-3.2
		s0.8-1.7,1-2.2l0.3-0.6C110.8,150.2,110.8,150.1,110.9,150.1z"/>
	<path class="st1" d="M159.3,207.8c0-0.1-0.1-0.2-0.1-0.3c-0.1-0.2-0.1-0.5-0.3-0.8c-0.2-0.7-0.5-1.8-0.9-3.1
		c-0.2-0.7-0.4-1.4-0.6-2.2c-0.3-0.8-0.5-1.7-0.6-2.6c-0.3-1.9-0.5-3.9-0.7-6.1l0,0c0.3-1,0.6-1.9,0.9-2.9c0.2-0.5,0.5-1,0.8-1.4
		c0.3-0.4,0.7-0.8,1.1-1.2l6.6-5.3c1-0.8,2-1.6,2.9-2.3c0.8-0.7,1.4-1.6,2-2.4c0.5-0.7,0.8-1.5,1-2.4c0.1-0.6,0.3-1.3,0.3-1.9
		c0.1-0.5,0.1-1,0.1-1.2v-0.3c0-0.1,0-0.1,0-0.1s0,0,0,0.1v0.3c0,0.3-0.1,0.7-0.1,1.3c-0.1,0.7-0.2,1.3-0.3,2
		c-0.2,0.9-0.5,1.7-1,2.4c-0.1,0.2-0.3,0.4-0.4,0.6s-0.3,0.4-0.4,0.6c-0.3,0.5-0.7,0.9-1.1,1.3c-0.9,0.8-1.8,1.5-2.8,2.3l-6.6,5.3
		c-0.4,0.3-0.8,0.7-1.1,1.1c-0.3,0.4-0.6,0.9-0.8,1.3c-0.4,0.9-0.6,1.9-0.9,2.9l0,0c0.2,2.2,0.4,4.3,0.6,6.1
		c0.1,0.9,0.3,1.7,0.6,2.5c0.2,0.8,0.4,1.5,0.6,2.2c0.4,1.3,0.7,2.4,0.9,3.1c0.1,0.4,0.2,0.6,0.2,0.8S159.3,207.8,159.3,207.8z"/>
	<polygon class="st1" points="134.7,225 132.1,229 140.9,229 141.8,225 	"/>
	<path class="st1" d="M74.1,110.2c0.1,0.6,0.5,1.1,1.1,1.3c0.1,0,0.2,0,0.3,0c0.1,0,0.2-0.1,0.2-0.1c0.5-0.4,0.7-1,0.6-1.6
		c0-0.1-0.1-0.2-0.2-0.3c0,0-0.1,0-0.1,0c-0.2,0-0.4,0-0.6,0c-0.3,0-0.5,0.1-0.8,0.2C74.3,109.7,74.1,109.9,74.1,110.2"/>
	<path class="st1" d="M80.4,96.8c0,0-0.6,0.7-1.1,1.5c-0.3,0.5-0.6,0.9-0.8,1.4l-0.1,0.2v-0.2c0-0.2-0.1-0.2-0.1-0.2s0.1,0,0.2,0.2
		h-0.1c0.2-0.5,0.4-1,0.7-1.5C79.4,97.6,79.8,97.1,80.4,96.8z"/>
	<path class="st1" d="M81.2,98c-0.4,0.2-0.8,0.4-1.2,0.6c-0.6,0.5-1,0.9-1,0.9c0.2-0.4,0.5-0.8,0.9-1.1c0.3-0.2,0.6-0.4,0.9-0.4
		C81,97.9,81.2,97.9,81.2,98z"/>
	<polygon class="st1" points="162.6,225.8 160.4,229 168.7,229.2 168.6,224.6 	"/>
	<path class="st1" d="M143.9,188.9c0-0.1-0.1-0.2-0.1-0.3l-0.3-0.8l-1-2.8l-0.7-1.9c-0.2-0.7-0.4-1.4-0.7-2.2l-0.4-1.2l-0.2-0.6
		c-0.1-0.2-0.1-0.4-0.2-0.6c-0.1-0.5,0-0.9,0.1-1.4c0.2-1.4,0.7-2.7,1.4-4c0.2-0.4,0.4-0.8,0.6-1.2c0.2-0.4,0.3-0.8,0.3-1.2
		c0.1-0.8,0.1-1.6,0.2-2.3s0-1.4,0-2c0-1-0.1-2-0.3-2.9c-0.1-0.3-0.1-0.6-0.2-0.8s-0.1-0.3-0.1-0.3c0,0.1,0.1,0.2,0.1,0.3
		c0.1,0.2,0.1,0.4,0.2,0.8c0.2,1,0.3,1.9,0.4,2.9c0,0.6,0,1.3,0,2c0,0.8-0.1,1.6-0.1,2.3c-0.1,0.4-0.2,0.8-0.3,1.2
		c-0.2,0.4-0.4,0.8-0.6,1.2c-0.4,0.8-0.8,1.6-1,2.5c-0.1,0.4-0.2,0.9-0.3,1.4c-0.1,0.4-0.1,0.9-0.1,1.3c0.2,0.9,0.5,1.7,0.7,2.5
		s0.4,1.5,0.7,2.2s0.4,1.3,0.6,1.9c0.4,1.2,0.7,2.1,0.9,2.8l0.2,0.8C143.9,188.7,143.9,188.8,143.9,188.9z"/>
	<path class="st0" d="M165.4,106.2c-0.9-3.1-4.5-5.3-7.6-4.3c-2.7,0.9-5.1,4.6-5.4,7.7c-0.3-2.2-1.3-4.3-2.8-5.9
		c-1.7-1.7-4.1-2.4-6.5-1.9c-2.5,0.9-4.3,3-4.6,5.6c-0.5,2.6,0,5.2,1.3,7.5c2.8,4.2,12.2,12.4,12.2,12.4s8.5-8.1,11.7-12.7
		C165.4,112.2,166.1,109.1,165.4,106.2z"/>
	<path class="st0" d="M172.6,127.2c-0.5-1.7-2.2-2.6-3.9-2.2c-1.6,0.8-2.6,2.3-2.8,4c-0.1-1.1-0.7-2.2-1.5-3.1
		c-0.9-0.9-2.1-1.2-3.3-1c-1.3,0.4-2.2,1.6-2.4,2.9c-0.3,1.3,0,2.7,0.7,3.8c1.5,2.1,6.3,6.4,6.3,6.4c2.2-2,4.2-4.2,6-6.5
		C172.6,130.3,172.9,128.7,172.6,127.2z"/>
	<path class="st0" d="M117.5,193.6c-0.5-1.7-2.2-2.6-3.9-2.2c-1.6,0.8-2.6,2.3-2.8,4c-0.1-1.1-0.7-2.2-1.5-3.1
		c-0.9-0.9-2.1-1.2-3.3-1c-1.3,0.4-2.2,1.6-2.4,2.9c-0.3,1.3,0,2.7,0.7,3.8c1.5,2.1,6.3,6.4,6.3,6.4c2.2-2,4.2-4.2,6-6.5
		C117.5,196.7,117.8,195.2,117.5,193.6z"/>
	<path class="st0" d="M128.8,182.5c-0.3-1.1-1.5-1.8-2.7-1.5c-1.1,0.5-1.8,1.6-1.9,2.7c-0.1-0.8-0.4-1.5-1-2.1
		c-0.6-0.6-1.5-0.9-2.3-0.7c-0.9,0.3-1.5,1.1-1.6,2c-0.2,0.9,0,1.8,0.4,2.6c1.3,1.6,2.7,3.1,4.3,4.4c1.5-1.4,2.9-2.9,4.1-4.5
		C128.8,184.7,129,183.6,128.8,182.5z"/>
	<path class="st0" d="M113.2,183.3c-0.2-0.6-0.8-0.9-1.3-0.8c-0.5,0.3-0.9,0.8-0.9,1.4c-0.1-0.4-0.2-0.7-0.5-1
		c-0.3-0.3-0.7-0.4-1.2-0.4c-0.4,0.2-0.7,0.5-0.8,1c-0.1,0.5,0,0.9,0.2,1.3c0.7,0.8,1.4,1.5,2.2,2.2c0.7-0.7,1.4-1.4,2.1-2.2
		C113.2,184.4,113.4,183.8,113.2,183.3z"/>
	<path class="st0" d="M178,115.2c-0.2-0.6-0.8-0.9-1.3-0.8c-0.5,0.2-0.9,0.8-1,1.4c-0.1-0.4-0.2-0.7-0.5-1c-0.3-0.3-0.7-0.4-1.1-0.3
		c-0.4,0.2-0.7,0.5-0.8,1c-0.1,0.5,0,0.9,0.2,1.3c0.7,0.8,1.4,1.5,2.1,2.2c0.7-0.7,1.4-1.4,2.1-2.2C178,116.2,178.1,115.7,178,115.2
		z"/>
	<rect x="111.4" y="44.9" class="st0" width="38" height="10.1"/>
	<polygon class="st0" points="341.7,273.2 333.8,340.8 377.5,367.3 392.3,367.3 422.1,340.8 420.6,273.9 	"/>
	<g class="st5">
		<path class="st4" d="M402.8,314c-1.8-3.6-6.5-5.1-10.4-4s-6.7,4.5-8.1,8.2c-1.4-3.7-4.4-7-8.2-8.2s-8.6,0.4-10.4,4
			c-0.9,2-1.1,4.4-0.4,6.5c0.7,2.1,1.7,4.1,3,5.9c4.1,5.9,9.6,10.7,16,14l0,0c6.4-3.3,11.9-8.1,16-14c1.3-1.8,2.3-3.8,3-5.9
			C403.9,318.3,403.7,316,402.8,314z"/>
	</g>
	<path class="st1" d="M383.5,367c-0.1,0,0.1-17.3,0.5-38.6s0.7-38.6,0.8-38.6s-0.1,17.3-0.5,38.6S383.6,367,383.5,367z"/>
	<path class="st1" d="M384.4,320.3c-1,0.3-2.1,0.3-3.1-0.1c0.5-0.1,1-0.1,1.5,0C383.4,320.2,383.9,320.2,384.4,320.3z"/>
	<path class="st1" d="M389.1,307.3c-0.6,0.7-1.4,1.2-2.2,1.6c-0.8,0.4-1.7,0.7-2.6,0.7c0-0.1,1.1-0.4,2.5-1S389,307.2,389.1,307.3z"
		/>
	<path class="st1" d="M387.1,311.3c0,0.1-0.6,0.1-1.2,0.1s-1.2-0.2-1.2-0.2s0.6-0.1,1.2-0.1S387.1,311.2,387.1,311.3z"/>
	<path class="st0" d="M320.1,403.5c9.1,4.6,19.4,6.4,29.6,5c10.3-1.2,20.5-6.7,25.4-15.8c2.4-4.5,3.5-9.7,4.4-14.7
		c0.6-4,0.4-8.1-0.6-12c-0.5-2.4-1.6-4.6-3.1-6.4c-6-7.9-13.9-14.1-23.1-17.8c-14.6-4.8-30.4-3.9-44.4,2.4
		c-6.9,3.3-12.5,8.2-15.4,16c-1,3-1.3,6.2-0.9,9.3c0.6,4.8,2.2,9.3,4.8,13.4C300.5,389,305.8,396.2,320.1,403.5z"/>
	<g class="st5">
		<path class="st4" d="M363.5,376.9c-1.3-8.8-7.7-16.1-14.8-21.5c-7.4-5.6-16.2-9.8-25.5-10.1c-8.5-0.3-17.4,3.1-22.6,9.8l0,0
			c-3.7,4.4-5.6,10.8-4.2,16.4s4.7,10.5,8.3,14.9c6.3,7.5,14.6,12.9,24,15.7c9.4,3,20.5,1.7,27.7-5
			C361.9,391.9,364.5,384.4,363.5,376.9z"/>
	</g>
	<path class="st0" d="M348.4,376.7c-1-3.2-4.8-6.8-8.2-7.2c-3.5-0.4-7,0.1-10.2,1.6c-3.2,1.5-5.5,4.4-6.3,7.9
		c-0.5,3.7,1,7.4,3.9,9.7c3,2.2,6.7,3.2,10.4,2.5c3.4-0.5,6.5-2.3,8.6-5C348.7,383.6,349.4,380,348.4,376.7z"/>
	<path class="st0" d="M317.9,377.6c0.2,1.3-0.2,2.5-1.1,3.5c-0.9,0.9-2.1,1.5-3.3,1.8c-2.8,0.8-5.9,0.7-8.1-1.2
		c-0.9-0.7-1.5-1.8-1.7-2.9c-0.7-3.6,2.6-5.8,5.8-5.9c1.9,0,3.7,0.5,5.5,1.2c1.4,0.6,2.6,1.7,3,3.2
		C317.9,377.4,317.9,377.5,317.9,377.6z"/>
	<path class="st0" d="M328.9,363.3c-0.9,0.7-2.1,1-3.1,0.6c-1.1-0.4-2-1-2.8-1.8c-1.8-1.8-3.1-4.2-2.6-6.9c0.2-1,0.7-1.9,1.5-2.6
		c2.5-2.1,5.7-0.4,7,2c0.8,1.5,1.2,3.1,1.4,4.8c0.2,1.4-0.3,2.7-1.2,3.7C329.1,363.1,329,363.2,328.9,363.3z"/>
	<path class="st0" d="M318.5,366.5c0.5-2.7-1-5.1-3.1-6.5c-1.7-1-3.5-1.8-5.4-2.1l0,0c-1.3-0.1-2.6,0.5-3.4,1.5
		c-0.4,0.6-0.7,1.3-0.9,2c-0.2,1.7,0.3,3.4,1.4,4.8c1.1,1.3,2.5,2.4,4.1,3c2.1,0.9,4.6,1.3,6.4-0.6C318,368,318.4,367.3,318.5,366.5
		z"/>
	<path class="st1" d="M379.8,375.1c0-0.2,0-0.4,0-0.7c0-0.4,0-1.1,0-1.9c-0.1-2.3-0.5-4.6-1.1-6.8c-1-3.2-2.4-6.3-4.3-9.2
		c-2.2-3.5-4.9-6.8-8-9.5c-3.1-2.7-6.8-4.8-10.8-6.1c-3.2-1.1-6.6-1.7-10-2c-2.9-0.3-5.3-0.3-6.9-0.4l-1.9-0.1c-0.2,0-0.4,0-0.6-0.1
		c0.2-0.1,0.4-0.1,0.6-0.1l1.9-0.1c1.6,0,4-0.1,6.9,0.1c3.4,0.2,6.8,0.8,10.1,1.9c4,1.3,7.8,3.3,11,6.1c3.1,2.8,5.8,6.1,8,9.7
		c1.8,2.9,3.3,6.1,4.2,9.4c0.6,2.2,1,4.5,0.9,6.9c0,0.6,0,1.3-0.1,1.9C379.8,374.6,379.8,374.9,379.8,375.1z"/>
	<path class="st1" d="M340.5,345.2c0,0,0.1,0,0.2,0l0.6,0.1c0.8,0.1,1.5,0.3,2.2,0.6c2.7,0.8,5.3,1.9,7.8,3.3c0.8,0.5,1.6,1,2.4,1.5
		s1.6,1.1,2.5,1.8c1.8,1.4,3.4,3,4.8,4.6c3.4,3.9,5.9,8.5,7.4,13.4c1.5,4.9,2.2,10.1,2,15.2c-0.1,4.2-1.1,8.4-3,12.1
		c-0.7,1.4-1.7,2.8-2.7,4c-0.8,0.9-1.7,1.7-2.7,2.5c-0.6,0.5-1.3,0.9-1.9,1.3l-0.5,0.3c-0.1,0.1-0.2,0.1-0.2,0.1l0.2-0.1l0.5-0.3
		c0.7-0.4,1.3-0.8,1.9-1.3c1-0.7,1.8-1.6,2.6-2.5c1-1.2,1.9-2.6,2.7-4c1.8-3.8,2.8-7.9,2.9-12c0.2-5.1-0.5-10.2-2-15.1
		c-1.5-4.9-4-9.4-7.3-13.3c-1.4-1.7-3-3.2-4.8-4.6c-0.8-0.7-1.6-1.2-2.4-1.8s-1.6-1-2.4-1.5c-2.4-1.4-5-2.6-7.7-3.4
		c-0.9-0.3-1.7-0.5-2.2-0.6l-0.6-0.1L340.5,345.2z"/>
	<path class="st1" d="M379.5,369.5c-0.3,0.5-0.7,1-1.1,1.4c-1,1-2.1,2-3.3,2.8c-1.2,0.8-2.5,1.5-3.8,2c-0.5,0.2-1.1,0.4-1.7,0.5
		c0.5-0.3,1.1-0.5,1.6-0.7c1.3-0.6,2.5-1.3,3.7-2C376.5,372.2,378,370.9,379.5,369.5z"/>
	<path class="st0" d="M445.9,402.8c-9.1,4.6-19.4,6.4-29.6,5c-10.3-1.2-20.5-6.7-25.4-15.8c-2.5-4.5-3.5-9.7-4.4-14.7
		c-0.6-4-0.4-8.1,0.6-12c0.5-2.3,1.6-4.5,3.1-6.4c5.9-7.9,13-15.4,22.1-19.1c15-3.6,32-2.6,45.4,3.7c6.9,3.3,12.5,8.2,15.4,16
		c1,3,1.3,6.2,0.9,9.3c-0.6,4.8-2.2,9.3-4.8,13.4C465.5,388.2,460.2,395.5,445.9,402.8z"/>
	<g class="st5">
		<path class="st4" d="M402.5,376.1c1.3-8.8,7.7-16.1,14.8-21.5c7.4-5.6,16.2-9.8,25.5-10.1c8.5-0.3,17.4,3.1,22.6,9.8l0,0
			c3.7,4.4,5.6,10.8,4.2,16.4s-4.7,10.5-8.3,14.9c-6.3,7.5-14.6,12.9-24,15.7c-9.4,3-20.5,1.7-27.7-5
			C404.1,391.1,401.4,383.6,402.5,376.1z"/>
	</g>
	<path class="st0" d="M417.5,375.9c1-3.2,4.8-6.8,8.2-7.2c3.5-0.4,7,0.1,10.2,1.6c3.2,1.5,5.5,4.4,6.3,7.9c0.5,3.7-1,7.4-3.9,9.7
		c-3,2.2-6.7,3.2-10.4,2.5c-3.4-0.5-6.5-2.3-8.6-5C417.3,382.8,416.6,379.2,417.5,375.9z"/>
	<path class="st0" d="M448,376.8c-0.2,1.3,0.2,2.5,1.1,3.5c0.9,0.9,2.1,1.5,3.3,1.8c2.7,0.8,5.9,0.7,8.1-1.2
		c0.9-0.8,1.5-1.8,1.7-2.9c0.7-3.6-2.6-5.8-5.8-5.9c-1.9,0-3.8,0.5-5.5,1.3c-1.5,0.5-2.6,1.7-3,3.2
		C448.1,376.6,448.1,376.7,448,376.8z"/>
	<path class="st0" d="M437,362.5c0.9,0.7,2.1,1,3.1,0.6c1.1-0.4,2-1,2.8-1.8c1.8-1.8,3.1-4.3,2.5-6.9c-0.2-1-0.7-1.9-1.5-2.6
		c-2.5-2.1-5.7-0.4-7,1.9c-0.8,1.5-1.2,3.1-1.4,4.8c-0.2,1.4,0.3,2.7,1.2,3.7L437,362.5z"/>
	<path class="st0" d="M447.5,365.7c-0.5-2.7,1-5.1,3.1-6.5c1.7-1,3.5-1.7,5.4-2.1l0,0c1.3-0.1,2.6,0.5,3.4,1.5
		c0.4,0.6,0.7,1.3,0.9,2c0.2,1.7-0.3,3.4-1.4,4.8c-1.1,1.3-2.5,2.3-4.1,3c-2.1,0.9-4.6,1.3-6.4-0.6
		C448,367.2,447.6,366.5,447.5,365.7z"/>
	<path class="st1" d="M386.2,372.6c0-0.2,0-0.4,0-0.6c0-0.4,0-1,0.1-1.7c0.2-2,0.5-4.1,1.1-6c0.8-3,1.9-5.8,3.5-8.5
		c1.8-3.3,4.2-6.2,7-8.7c1.5-1.3,3-2.4,4.7-3.4c4.2-2.5,8.7-4.2,13.5-5.1c2-0.4,4-0.7,6.1-0.8c0.7-0.1,1.5-0.1,2.2,0
		c-0.7,0.1-1.5,0.2-2.2,0.3c-1.4,0.2-3.5,0.4-6,1c-2.9,0.7-5.8,1.6-8.6,2.8c-1.6,0.7-3.2,1.5-4.7,2.5c-1.6,1-3.2,2.1-4.6,3.4
		c-2.8,2.4-5.1,5.3-7,8.5c-1.5,2.6-2.7,5.4-3.5,8.3c-0.6,2-1,4-1.2,6C386.4,371.2,386.3,371.9,386.2,372.6z"/>
	<path class="st1" d="M425.5,344.5c0,0-0.1,0-0.2,0.1l-0.5,0.1l-0.9,0.2c-0.4,0.1-0.8,0.2-1.2,0.4c-2.6,0.8-5,1.8-7.3,3.1
		c-0.8,0.4-1.5,0.9-2.3,1.4s-1.5,1.1-2.3,1.7s-1.6,1.2-2.3,2c-0.4,0.4-0.8,0.7-1.2,1.1l-1.1,1.2c-1.6,1.7-3,3.6-4.2,5.6
		c-3.9,6.3-5.7,13.6-5.2,21c0,0.6,0.1,1.1,0.1,1.6s0.1,1.1,0.2,1.6c0.1,1,0.4,2,0.6,3s0.5,1.9,0.8,2.8s0.5,1.7,0.9,2.5
		c1,2.5,2.2,4.9,3.7,7.1c0.2,0.4,0.5,0.7,0.7,1l0.5,0.7l0.3,0.5l0.1,0.2c0,0,0,0-0.1-0.1s-0.2-0.3-0.4-0.4l-0.6-0.7
		c-0.3-0.3-0.5-0.7-0.7-1c-1.5-2.2-2.8-4.6-3.8-7.1c-0.4-0.8-0.6-1.6-0.9-2.5s-0.5-1.8-0.8-2.8s-0.5-2-0.6-3
		c-0.1-0.5-0.2-1.1-0.2-1.6s-0.1-1.1-0.1-1.7c-0.2-2.3-0.1-4.7,0.2-7c0.3-2.5,0.9-5,1.7-7.4c0.9-2.4,2-4.7,3.3-6.8
		c1.2-2,2.7-3.9,4.3-5.6l1.1-1.2c0.4-0.4,0.8-0.7,1.2-1.1c0.8-0.8,1.6-1.4,2.4-2s1.6-1.2,2.4-1.7s1.5-1,2.3-1.4
		c2.3-1.3,4.8-2.3,7.4-3.1c0.4-0.1,0.8-0.2,1.2-0.3l0.9-0.2l0.6-0.1L425.5,344.5z"/>
	<path class="st1" d="M386.5,368.8c0.5,0.4,0.9,0.8,1.3,1.2c1,1,2.2,1.9,3.4,2.7c1.2,0.8,2.5,1.4,3.8,2c0.6,0.2,1.1,0.4,1.6,0.7
		c-0.6-0.1-1.2-0.3-1.7-0.5c-1.4-0.5-2.7-1.2-3.9-2c-1.2-0.8-2.3-1.7-3.4-2.8C387.3,369.7,386.9,369.2,386.5,368.8z"/>
	<path class="st0" d="M417.1,310.4c2.5-4.3,7.1-8,6.7-12.9c-0.4-5.2-7.9-11.2-12-14.3l6-10.8c13.6,1.9,27.6,10.9,34.5,22.7
		c3.5,5.8,5.4,12.5,5.4,19.3c0,6.8-2.5,13.4-7.1,18.5c-1.9,2-4.1,3.7-6.6,4.9c-8.2,4.1-19.8,2.5-25.9-4.3c-2.2-2.3-3.6-5.3-4.2-8.4
		C413.5,320,414.6,314.8,417.1,310.4z"/>
	<path class="st1" d="M443.2,338.2c0,0-0.1,0-0.2,0.1c-0.2,0.1-0.4,0.2-0.6,0.3c-0.7,0.3-1.5,0.6-2.3,0.8c-1.2,0.3-2.5,0.6-3.8,0.8
		c-1.7,0.2-3.4,0.1-5.1-0.1c-4.4-0.7-8.6-2.5-12.1-5.2c-1-0.8-2-1.7-2.8-2.7c-0.9-1.1-1.6-2.2-2.1-3.5c-0.6-1.3-1-2.6-1.2-4
		c-0.2-1.4-0.3-2.9-0.3-4.3c0.1-2.9,0.9-5.6,2.2-8.1c0.3-0.6,0.7-1.2,1.1-1.8c0.4-0.5,0.8-1.1,1.2-1.6c0.9-1,1.8-1.9,2.7-2.8
		c0.8-0.8,1.6-1.8,2.3-2.8c0.6-0.9,1-2,1.2-3c0.3-2,0-4-0.8-5.9c-0.7-1.5-1.6-2.9-2.8-4.1c-0.9-0.9-1.8-1.8-2.8-2.6l-1.9-1.6
		c-0.2-0.2-0.4-0.4-0.6-0.6c0.3,0.1,0.5,0.3,0.7,0.5c0.5,0.3,1.1,0.8,1.9,1.5c1,0.8,2,1.7,2.9,2.6c1.2,1.2,2.2,2.6,2.9,4.2
		c0.9,1.9,1.3,4,1,6.1c-0.2,1.2-0.7,2.3-1.3,3.3c-0.7,1-1.5,2-2.3,2.9c-0.9,0.9-1.8,1.8-2.6,2.8c-0.4,0.5-0.8,1-1.2,1.5
		c-1.9,2.8-3,6.1-3.2,9.6c-0.1,1.4,0,2.8,0.3,4.2c0.3,1.3,0.6,2.6,1.2,3.9c0.5,1.2,1.2,2.3,2,3.3c0.8,1,1.7,1.8,2.7,2.6
		c3.4,2.7,7.5,4.5,11.8,5.3c1.7,0.3,3.3,0.3,5,0.2c1.3-0.1,2.5-0.4,3.8-0.6c0.8-0.2,1.6-0.4,2.3-0.6
		C442.7,338.4,442.9,338.3,443.2,338.2z"/>
	<g class="st5">
		<path class="st4" d="M421.1,317.3c2.9-5.1,9.6-5.8,11.5-5c3.5,0.3,6.7,2.5,8.3,5.7c1.8,3.3,1.5,7.3-0.6,10.4
			c-2.2,3.1-6.3,4.5-10.1,4.3c-3.1-0.1-6.1-1.3-8.2-3.5C419,326,419,321,421.1,317.3z"/>
	</g>
	<path class="st1" d="M423.7,306.3c0.1-0.1,0.3-0.1,0.5-0.2c0.4-0.2,0.9-0.3,1.3-0.4c1.6-0.4,3.3-0.6,5-0.5c1.2,0,2.3,0.1,3.5,0.4
		c1.3,0.3,2.6,0.6,3.8,1.1c5.8,2.3,10.2,7.2,11.7,13.3c0.3,1.3,0.5,2.6,0.6,4c0.1,1.2,0,2.3-0.1,3.5c-0.2,1.7-0.6,3.3-1.2,4.9
		c-0.2,0.4-0.3,0.8-0.6,1.2c-0.1,0.1-0.1,0.3-0.2,0.4c0-0.1,0.1-0.3,0.2-0.4c0.1-0.3,0.3-0.7,0.5-1.3c0.6-1.6,0.9-3.2,1.1-4.9
		c0.2-2.5,0-4.9-0.6-7.3c-1.5-6-5.8-10.8-11.5-13.1c-2.3-0.9-4.7-1.5-7.2-1.5c-1.7-0.1-3.4,0.1-5,0.4c-0.6,0.1-1,0.3-1.3,0.3
		C423.9,306.3,423.8,306.3,423.7,306.3z"/>
	<path class="st1" d="M448.3,318.3c0-0.1,0.7-0.4,1.3-1s0.9-1.3,1-1.3c0,0.6-0.3,1.1-0.8,1.5C449.4,318,448.9,318.3,448.3,318.3z"/>
	<path class="st1" d="M446.5,315.4c-0.1-0.1,0.8-0.6,1.5-1.5s1.2-1.8,1.3-1.8c-0.1,0.8-0.5,1.4-1,2
		C447.9,314.7,447.3,315.1,446.5,315.4z"/>
	<path class="st1" d="M428.5,308.5c-0.2-1.3,0.4-2.6,1.6-3.3c0.1,0.1-0.6,0.6-1,1.6S428.6,308.5,428.5,308.5z"/>
	<path class="st1" d="M425.5,308.7c-0.3-0.5-0.3-1.1-0.1-1.6c0.3-0.9,0.9-1.3,1-1.2c-0.2,0.4-0.5,0.9-0.6,1.3
		C425.5,308,425.6,308.7,425.5,308.7z"/>
	<path class="st1" d="M432.6,277.3c0.1,0,0.3,0.1,0.4,0.1c0.4,0.1,0.8,0.3,1.1,0.5c1.4,0.7,2.7,1.5,3.9,2.4
		c6.4,4.7,10.2,12,10.4,19.9c0.1,2.2-0.2,4.5-0.7,6.7c-0.3,1.5-0.8,2.9-1.4,4.3c-0.2,0.5-0.4,0.9-0.5,1.1c-0.1,0.1-0.1,0.3-0.2,0.4
		c0-0.1,0.1-0.3,0.1-0.4c0.1-0.3,0.3-0.6,0.5-1.1c0.6-1.4,1-2.8,1.3-4.3c2.2-9.9-1.5-20.2-9.6-26.3c-1.2-0.9-2.4-1.7-3.8-2.4
		c-0.5-0.3-0.9-0.4-1.1-0.5C432.9,277.4,432.8,277.4,432.6,277.3z"/>
	<path class="st0" d="M326.3,189.4c2.5-2,5.5-3.3,8.7-3.6c7.4-0.7,14.5,3.2,17.8,9.9l-21.2,24.7c-5.6-2.9-9.6-8.1-11-14.3
		C319.3,200,321.5,193.6,326.3,189.4z"/>
	<path class="st1" d="M329.3,198.8c0.3-0.9,0.8-1.8,1.6-2.4c3.4-3.5,8.9-4,12.9-1.2c0.8,0.5,1.5,1.2,2,2.1c-0.1,0.1-0.8-0.8-2.2-1.7
		c-1.9-1.2-4.1-1.7-6.4-1.5c-2.2,0.2-4.3,1.2-6,2.7C329.9,197.9,329.4,198.8,329.3,198.8z"/>
	<path class="st0" d="M447.1,196.7c-2.3-2.2-5.3-3.6-8.4-4.2c-7.4-1.2-14.7,2.3-18.5,8.7l19.5,26.1c5.8-2.5,10.1-7.5,11.9-13.5
		C453.4,207.7,451.6,201.2,447.1,196.7z"/>
	<path class="st0" d="M383.8,185.3c0,0-31.6-2.6-47.9,23.8c-10.8,17.4-11,36.3-7.9,45.3c0,0,13,35,53,35.2c0,0,52.6,0,60-44.6
		C447.6,205.2,408.1,184.9,383.8,185.3z"/>
	<path class="st2" d="M412.5,248.6l-0.1-0.1c-4.8-5.7-11.2-9.9-18.4-11.9l-2-0.6c-3.9-1.1-7.9-1.6-12-1.4c-5.2,0.2-10.3,1.2-15.2,3
		c-7,2.7-13.4,7.8-16.5,14.6s-2.6,15.6,2.4,21.3c4.2,4.9,10.2,8,16.4,9.6c6.9,1.7,14,2.3,21,1.7c8.6-0.7,16.7-4.5,22.8-10.7
		c3.2-3.4,5.1-7.8,5.6-12.5C417,257,415.6,252.2,412.5,248.6z"/>
	<path class="st1" d="M393.7,230.7c0,1.4,1.1,2.5,2.5,2.6c1.3,0.1,2.5-0.9,2.6-2.2c0,0,0,0,0-0.1c0-1.4-1.1-2.5-2.5-2.6
		C395,228.3,393.8,229.3,393.7,230.7C393.7,230.7,393.7,230.7,393.7,230.7z"/>
	<path class="st1" d="M361.4,231.7c0,1.4,1.1,2.5,2.5,2.6c1.4,0.1,2.5-0.9,2.6-2.3c0,0,0,0,0-0.1c0-1.4-1.1-2.5-2.5-2.6
		C362.7,229.3,361.5,230.3,361.4,231.7C361.4,231.7,361.4,231.7,361.4,231.7z"/>
	<ellipse class="st1" cx="381.4" cy="244.4" rx="10.8" ry="7.2"/>
	<path class="st1" d="M382.5,247c0,0.4,0,0.8-0.1,1.1c-0.1,0.7-0.1,1.8-0.2,3.1c0,1.5-0.2,3.1-0.5,4.6c-0.2,0.9-0.6,1.8-1,2.6
		c-0.5,0.9-1.2,1.6-2.1,2.2c-0.9,0.5-1.9,0.8-2.9,0.8c-0.9,0-1.9-0.1-2.8-0.4c-1.5-0.5-2.8-1.3-4-2.3c-0.8-0.7-1.5-1.4-2.2-2.2
		c-0.3-0.3-0.5-0.6-0.7-0.9c0.3,0.2,0.6,0.4,0.9,0.7c0.5,0.5,1.3,1.2,2.3,2c1.2,0.9,2.5,1.7,3.9,2.1c1.7,0.6,3.6,0.4,5.2-0.4
		c1.5-1,2.6-2.6,2.9-4.3c0.3-1.5,0.5-3,0.6-4.5c0.1-1,0.2-2.1,0.4-3.1C382.2,247.7,382.3,247.3,382.5,247z"/>
	<path class="st1" d="M396.7,256.1c0,0-0.2,0.3-0.6,0.8c-0.6,0.7-1.2,1.3-1.9,1.9c-1,0.9-2.1,1.7-3.4,2.2c-1.6,0.7-3.3,0.7-4.9,0.2
		c-0.8-0.3-1.6-0.8-2.2-1.5c-0.5-0.6-1-1.3-1.3-2c-0.5-1.3-0.8-2.6-0.8-3.9c0-0.9,0-1.8,0.1-2.7c0.1-0.6,0.1-1,0.2-1
		c0.1,0.3,0.1,0.7,0.1,1c0,0.6,0,1.5,0.1,2.6c0.1,1.3,0.3,2.5,0.9,3.7c0.6,1.4,1.7,2.6,3.1,3.1c1.5,0.5,3.1,0.4,4.5-0.1
		c1.2-0.5,2.3-1.1,3.3-2C395.6,257.1,396.6,256.1,396.7,256.1z"/>
	<path class="st1" d="M385.6,264.6c0,0.1-0.3,0.5-1,0.9c-2,1.2-4.4,1.4-6.5,0.5c-0.8-0.3-1.2-0.7-1.2-0.7s0.5,0.1,1.3,0.3
		c1,0.3,2.1,0.4,3.1,0.3c1.1-0.1,2.1-0.4,3-0.8C385.1,264.8,385.5,264.5,385.6,264.6z"/>
	<path class="st4" d="M381,239.4c0,0.2-0.5,0.5-1.4,0.7c-1.1,0.3-2.2,0.6-3.2,1.1c-1,0.4-1.9,1.1-2.6,1.8c-0.6,0.6-0.9,1.1-1.1,1
		s-0.3-0.7,0.1-1.7c0.6-1.2,1.7-2.1,2.9-2.7c1.2-0.5,2.5-0.8,3.8-0.7C380.4,239,381,239.2,381,239.4z"/>
	<path class="st1" d="M365.2,223.8c0,0.5-0.6,0.8-1.4,1.1s-1.8,0.7-2.8,1.1s-2,0.9-2.8,1.2s-1.4,0.5-1.8,0.2s-0.3-1,0.2-1.9
		c1.6-2.3,4.4-3.4,7.1-2.9C364.8,222.8,365.3,223.3,365.2,223.8z"/>
	<path class="st1" d="M404.8,224.3c-0.3,0.3-1,0.1-1.9-0.2s-2-0.8-3.2-1.2s-2.4-0.7-3.3-1s-1.5-0.6-1.6-1s0.5-1,1.6-1.3
		c1.4-0.3,2.9-0.3,4.3,0.2c1.4,0.5,2.7,1.3,3.6,2.5C405,223.2,405.1,224,404.8,224.3z"/>
	<path class="st1" d="M443.5,205.8c-0.1,0.1-0.6-0.9-1.8-2.2c-3.1-3.4-8.2-4.2-12.2-2c-1.5,0.8-2.3,1.6-2.4,1.5
		c0.5-0.8,1.3-1.5,2.1-1.9c4.2-2.6,9.6-1.7,12.8,2.1C442.8,204,443.3,204.9,443.5,205.8z"/>
	<path class="st1" d="M439.3,222.7c-0.1,0-0.5-1.4-1.3-3.6c-0.5-1.3-1.1-2.5-1.7-3.8c-0.8-1.5-1.6-2.9-2.6-4.3c-1-1.4-2-2.7-3.1-4
		c-1-1.2-2-2.2-2.8-3c-1.7-1.6-2.8-2.6-2.8-2.6s0.3,0.2,0.9,0.6c0.8,0.6,1.5,1.1,2.2,1.8c1.1,0.9,2.1,1.9,3,2.9
		c1.1,1.3,2.2,2.6,3.2,4c1,1.4,1.8,2.9,2.6,4.4c0.6,1.3,1.1,2.5,1.6,3.9c0.3,0.9,0.6,1.8,0.8,2.7C439.3,222,439.3,222.3,439.3,222.7
		z"/>
	<path class="st1" d="M333,216.5c0-0.3,0.1-0.7,0.2-1c0.1-0.4,0.2-0.8,0.3-1.2c0.1-0.4,0.3-1,0.5-1.5c0.5-1.3,1.1-2.6,1.7-3.9
		c0.8-1.5,1.7-3,2.7-4.4c1-1.4,2.1-2.7,3.3-4c1-1,2-2,3.1-2.8c0.5-0.4,0.9-0.7,1.3-1s0.7-0.5,1-0.7c0.3-0.2,0.6-0.4,0.9-0.5
		c0.1,0.1-1.1,0.9-2.9,2.5c-1,0.9-2,1.9-3,2.9c-2.3,2.5-4.3,5.2-5.9,8.2c-0.7,1.2-1.3,2.5-1.8,3.7C333.5,215.1,333,216.5,333,216.5z
		"/>
	<path class="st1" d="M425,274c-0.2,0.2-0.4,0.4-0.7,0.6c-0.5,0.4-1.1,1-2.1,1.7c-2.6,2-5.4,3.8-8.3,5.4c-4.3,2.3-8.9,4.1-13.6,5.4
		c-2.8,0.8-5.6,1.4-8.5,1.8c-3.1,0.5-6.2,0.7-9.3,0.8c-3.1,0-6.2-0.2-9.3-0.7c-2.9-0.4-5.7-1-8.5-1.9c-2.5-0.7-5-1.6-7.4-2.6
		c-1.1-0.5-2.2-1-3.2-1.5l-1.5-0.8c-0.5-0.2-1-0.5-1.4-0.8c-2.9-1.6-5.6-3.5-8-5.8l-0.6-0.6c-0.2-0.2-0.4-0.4-0.5-0.5l-0.8-0.8
		c-0.2-0.2-0.4-0.5-0.6-0.7c0.2,0.2,0.5,0.4,0.7,0.6l0.8,0.8c0.2,0.2,0.3,0.3,0.5,0.5l0.6,0.5c2.5,2.2,5.2,4,8.1,5.6
		c0.5,0.3,0.9,0.5,1.4,0.8s1,0.5,1.5,0.7c1,0.5,2.1,0.9,3.2,1.4c2.4,1,4.9,1.8,7.4,2.5c2.8,0.8,5.6,1.4,8.4,1.8
		c3,0.5,6.1,0.7,9.2,0.7c3.1,0,6.2-0.3,9.2-0.7c2.8-0.4,5.6-1,8.4-1.8c4.7-1.3,9.2-3.1,13.6-5.3c2.9-1.5,5.7-3.2,8.4-5.1
		c1-0.6,1.6-1.2,2.1-1.6C424.5,274.3,424.7,274.2,425,274z"/>
	<path class="st1" d="M381.2,285c0-0.1-0.1-0.2-0.1-0.3c0-0.2-0.1-0.5-0.1-0.9c-0.1-0.8-0.1-1.9-0.1-3.3c-0.1-2.8,0-6.7,0.1-11
		s0.3-8.1,0.5-10.9c0.1-1.4,0.1-2.5,0.2-3.3l0.1-0.9c0-0.1,0-0.2,0-0.3c0,0.1,0,0.2,0,0.3v0.9l-0.1,3.3c-0.1,2.8-0.2,6.7-0.4,10.9
		s-0.2,8.1-0.2,10.9c0,1.4,0,2.5,0,3.3C381.1,284.2,381.2,284.6,381.2,285z"/>
	<path class="st1" d="M331.8,216.9c-0.1,0-0.2-0.1-0.3-0.2c-0.3-0.2-0.6-0.3-0.9-0.5c-1.1-0.7-2-1.5-2.9-2.5c-1.3-1.4-2.4-3-3.2-4.7
		c-2.8-6.1-1.9-13.3,2.4-18.4c0.8-1,1.7-1.9,2.8-2.6c0.3-0.2,0.6-0.4,0.9-0.6c0.1-0.1,0.2-0.1,0.3-0.2c0,0-0.4,0.3-1.1,0.9
		c-2.4,2-4.3,4.6-5.4,7.5c-1.7,4.3-1.5,9.1,0.4,13.3c0.8,1.7,1.8,3.3,3.1,4.7c0.8,0.9,1.8,1.8,2.8,2.5
		C331.4,216.6,331.8,216.9,331.8,216.9z"/>
	<path class="st1" d="M444,194.4c0.1,0,0.2,0.1,0.3,0.1c0.3,0.2,0.5,0.3,0.8,0.5c0.9,0.7,1.7,1.7,2.2,2.7c0.8,1.6,1.4,3.3,1.7,5
		c0.4,2.1,0.3,4.3-0.2,6.4c-0.5,2.1-1.4,4.1-2.5,5.9c-1,1.5-2.1,2.8-3.3,4.1c-1,1.1-1.9,1.9-2.5,2.5l-0.7,0.7
		c-0.2,0.1-0.2,0.2-0.2,0.2s0.1-0.1,0.2-0.3s0.4-0.4,0.6-0.7l2.4-2.6c1.2-1.3,2.2-2.6,3.2-4.1c1.1-1.8,1.9-3.8,2.5-5.8
		c0.5-2,0.6-4.2,0.3-6.3c-0.3-1.7-0.8-3.4-1.6-4.9c-0.5-1-1.3-2-2.1-2.7C444.4,194.7,444,194.5,444,194.4z"/>
	<path class="st1" d="M381.9,189.1c0,0.2,0,0.3,0,0.5c0,0.3,0,0.8-0.1,1.3c-0.1,1.2-0.2,2.8-0.3,4.8c-0.2,4-0.5,9.6-0.5,15.8
		s0,11.8,0.1,15.9c0.1,2,0.1,3.6,0.1,4.8c0,0.5,0,1,0,1.3c0,0.2,0,0.3,0,0.5c0-0.1-0.1-0.3-0.1-0.4c0-0.3,0-0.8-0.1-1.3
		c-0.1-1.1-0.2-2.8-0.3-4.8c-0.2-4.1-0.3-9.7-0.2-15.9s0.4-11.8,0.6-15.8c0.1-2,0.3-3.7,0.4-4.8c0.1-0.5,0.1-1,0.1-1.3
		C381.8,189.4,381.9,189.2,381.9,189.1z"/>
	<path class="st0" d="M343.3,311c-2.9-4-7.7-7.8-7.3-12.7c0.4-5.2,7.9-11.2,12-14.3l-6-10.8c-13.6,1.9-27.6,10.9-34.5,22.7
		c-3.5,5.8-5.4,12.5-5.4,19.3c0,6.8,2.5,13.4,7.1,18.5c1.9,2,4.1,3.7,6.6,4.9c8.2,4.1,19.8,2.5,25.9-4.3c2-2.2,4.4-5.9,4.8-8.9
		C347.2,320.7,346.2,315.1,343.3,311z"/>
	<path class="st1" d="M345.3,286.4c-0.2,0.2-0.4,0.4-0.6,0.5l-1.8,1.5c-0.9,0.8-1.8,1.6-2.7,2.5c-1.1,1.2-2,2.5-2.8,3.9
		c-0.9,1.7-1.3,3.7-1.1,5.6c0.1,1.1,0.4,2.1,1,3c0.6,1,1.2,1.9,2,2.8c1.6,1.7,3.6,3.4,5,5.7c2.9,4.7,3.7,10.5,2,15.8
		c-0.4,1.2-0.9,2.4-1.6,3.6c-0.3,0.5-0.6,1.1-1,1.6c-0.4,0.5-0.8,1-1.2,1.4c-2.9,3.2-6.8,5.4-11,6.3l-0.7,0.1l-0.7,0.1L329,341
		c-0.8,0-1.6,0.1-2.3,0.1l-2-0.1l-1.7-0.2l-0.7-0.1l-0.6-0.1l-1-0.2c-0.3,0-0.5-0.1-0.8-0.2c0.3,0,0.5,0,0.8,0.1l1,0.1l0.6,0.1
		l0.7,0.1l1.7,0.1h2c0.7,0,1.5-0.1,2.3-0.1l1.2-0.2l0.6-0.1l0.6-0.1c4.1-0.9,7.8-3.1,10.6-6.1c0.4-0.4,0.8-0.9,1.1-1.4s0.7-1,1-1.5
		c0.6-1.1,1.2-2.2,1.5-3.4c0.8-2.5,1-5.2,0.7-7.9c-0.3-2.6-1.2-5.2-2.6-7.4c-1.3-2.2-3.3-3.8-4.9-5.6c-0.8-0.9-1.5-1.8-2.1-2.9
		c-0.5-1-0.9-2.1-1-3.2c-0.1-2,0.3-4.1,1.2-5.9c0.8-1.5,1.7-2.8,2.9-4c0.9-0.9,1.8-1.7,2.8-2.5c0.8-0.6,1.4-1.1,1.9-1.4
		C344.8,286.7,345.1,286.5,345.3,286.4z"/>
	<g class="st5">
		<path class="st4" d="M338.8,318.2c-2.9-5.2-9.6-5.8-11.5-5c-3.5,0.3-6.7,2.5-8.3,5.7c-1.8,3.3-1.5,7.3,0.6,10.4
			c2.2,3.1,6.3,4.5,10.1,4.3c3.1-0.1,6.1-1.3,8.2-3.5C340.9,326.9,340.9,322,338.8,318.2z"/>
	</g>
	<path class="st1" d="M336.2,307.2c-0.2,0-0.3-0.1-0.5-0.1c-0.3-0.1-0.7-0.2-1.3-0.3c-1.6-0.4-3.3-0.5-5-0.4
		c-2.5,0.1-4.9,0.6-7.2,1.5c-5.7,2.3-10,7.2-11.5,13.1c-0.3,1.3-0.6,2.6-0.6,3.9c-0.1,1.1-0.1,2.3,0,3.4c0.1,1.7,0.5,3.3,1.1,4.9
		c0.2,0.6,0.4,1,0.5,1.3c0.1,0.1,0.1,0.3,0.2,0.5c-0.1-0.1-0.2-0.3-0.2-0.4c-0.2-0.4-0.4-0.8-0.6-1.2c-0.6-1.6-1-3.2-1.1-4.9
		c-0.1-1.2-0.2-2.3-0.1-3.5c0.1-1.3,0.3-2.7,0.6-4c1.5-6.1,5.8-11,11.7-13.3c2.3-0.9,4.8-1.5,7.3-1.5c1.7,0,3.4,0.1,5,0.5
		c0.4,0.1,0.9,0.2,1.3,0.4C336,307.1,336.1,307.1,336.2,307.2z"/>
	<path class="st1" d="M311.6,319.2c-0.6,0-1.1-0.3-1.5-0.8c-0.5-0.4-0.7-0.9-0.8-1.5c0.1,0,0.4,0.7,1,1.3S311.6,319.1,311.6,319.2z"
		/>
	<path class="st1" d="M313.3,316.3c-0.7-0.3-1.3-0.7-1.8-1.3c-0.5-0.6-0.9-1.2-1-2c0.1,0,0.5,0.9,1.3,1.8S313.4,316.2,313.3,316.3z"
		/>
	<path class="st1" d="M331.4,309.4c-0.1,0-0.1-0.8-0.6-1.8s-1-1.5-1-1.6c0.6,0.3,1,0.8,1.3,1.4C331.4,308.1,331.5,308.8,331.4,309.4
		z"/>
	<path class="st1" d="M334.4,309.6c-0.1,0,0-0.7-0.2-1.5c-0.2-0.5-0.4-0.9-0.6-1.3c0-0.1,0.7,0.4,1,1.2
		C334.7,308.6,334.6,309.1,334.4,309.6z"/>
	<path class="st1" d="M329.2,277.7l-0.4,0.3l-1.1,0.7c-0.9,0.6-2.2,1.6-3.8,2.8c-1.8,1.5-3.5,3.1-5.1,4.8c-1.9,2.1-3.5,4.5-4.8,7
		c-1.3,2.5-2.2,5.2-2.6,8.1c-0.4,2.3-0.4,4.6,0,6.9c0.2,1.5,0.7,3.1,1.2,4.5c0.4,1,0.7,1.6,0.7,1.6c-0.1-0.1-0.2-0.2-0.2-0.4
		c-0.1-0.2-0.3-0.6-0.6-1.1c-0.6-1.5-1.1-3-1.4-4.5c-0.4-2.3-0.4-4.7-0.1-7c0.4-2.8,1.3-5.6,2.6-8.2c1.3-2.5,3-4.9,4.9-7
		c1.6-1.7,3.3-3.3,5.1-4.8c1.2-1,2.5-1.9,3.9-2.7l1.1-0.7C328.9,277.8,329.1,277.7,329.2,277.7z"/>
	
		<rect x="400.1" y="46.4" transform="matrix(1 -5.410494e-03 5.410494e-03 1 -0.381 2.1929)" class="st1" width="10.1" height="50.1"/>
	
		<rect x="312.8" y="46.6" transform="matrix(1 -5.410494e-03 5.410494e-03 1 -0.3223 1.7636)" class="st0" width="26.1" height="27.7"/>
	
		<rect x="338.7" y="46.5" transform="matrix(1 -5.410494e-03 5.410494e-03 1 -0.3212 1.9041)" class="st2" width="26.1" height="27.7"/>
	<path class="st1" d="M312.7,54.3c17.3,0.2,34.7,0,52-0.2c0.2,0,0.3-0.2,0.2-0.3c0-0.1-0.1-0.2-0.2-0.2c-17.3-0.1-34.7,0-52,0.3
		c-0.1,0-0.2,0.2-0.2,0.3C312.5,54.3,312.6,54.3,312.7,54.3z"/>
	
		<rect x="296.5" y="73.9" transform="matrix(1 -5.410494e-03 5.410494e-03 1 -0.4561 1.7336)" class="st0" width="47.4" height="22.6"/>
	
		<rect x="343.6" y="73.6" transform="matrix(1 -5.410494e-03 5.410494e-03 1 -0.4541 1.9888)" class="st2" width="47.4" height="22.6"/>
	<path class="st1" d="M296.4,80.3c31.5,0.3,63.1,0,94.6-0.5c0.2,0,0.3-0.2,0.2-0.3c0-0.1-0.1-0.2-0.2-0.2
		c-31.5-0.2-63.1-0.2-94.6,0.5c-0.1,0-0.2,0.1-0.2,0.2C296.2,80.2,296.3,80.3,296.4,80.3z"/>
	<rect x="278.7" y="96.6" class="st1" width="183.6" height="8.1"/>
	<rect x="308.8" y="100.5" class="st1" width="7.5" height="13.3"/>
	<rect x="420.1" y="100.5" class="st1" width="7.5" height="13.3"/>
	
		<rect x="410" y="27.8" transform="matrix(1 -5.410494e-03 5.410494e-03 1 -0.3306 2.2462)" class="st0" width="10.1" height="68.9"/>
	
		<rect x="420.1" y="40.6" transform="matrix(1 -5.410494e-03 5.410494e-03 1 -0.3646 2.3162)" class="st2" width="15.6" height="55.9"/>
	<path class="st1" d="M435.5,51.3c-2.6,0.3-5.2,0.4-7.8,0.3c-2.6,0.1-5.2,0-7.8-0.3C425,51,430.3,51,435.5,51.3z"/>
	<path class="st1" d="M435.5,49c-2.6,0.3-5.2,0.4-7.8,0.3c-2.6,0.1-5.2,0-7.8-0.3C425,48.6,430.3,48.6,435.5,49z"/>
	<path class="st1" d="M435.5,88c-5.2,0.4-10.4,0.4-15.6,0C425,87.6,430.3,87.6,435.5,88z"/>
	<path class="st1" d="M435.5,85.7c-5.2,0.4-10.4,0.4-15.6,0C425,85.3,430.3,85.3,435.5,85.7z"/>
	<path class="st1" d="M427.9,80.6c-0.1,0-0.3-5.6-0.3-12.6s0.1-12.6,0.3-12.6s0.3,5.6,0.3,12.6S428.1,80.6,427.9,80.6z"/>
	<rect x="435.6" y="54.3" class="st0" width="17" height="42.2"/>
	<path class="st1" d="M417.6,39.5c0,1.6-1.3,2.9-2.9,2.9s-2.9-1.3-2.9-2.9c0-1.6,1.3-2.9,2.9-2.9l0,0
		C416.3,36.6,417.6,37.9,417.6,39.5C417.6,39.5,417.6,39.5,417.6,39.5z"/>
	<rect x="413.8" y="47.5" class="st1" width="1.8" height="41"/>
</g>
<g id="freepik--Floor--inject-45">
	<path class="st6" d="M466.5,406.3c0,0.1-98.3,0.3-219.5,0.3s-219.5-0.1-219.5-0.3S125.8,406,247,406S466.5,406.1,466.5,406.3z"/>
</g>
<g id="freepik--Books--inject-45">
	<path class="st7" d="M157.5,406.6H45.1c-1.9-5-2.1-9.6,0-13.9h112.4C160.1,397,160.1,402.3,157.5,406.6z"/>
	<path class="st2" d="M82.9,396.6h1.2v4.2h2.6v1h-3.8V396.6z"/>
	<path class="st2" d="M90.8,399.5v2.3h-1.1v-0.5c-0.3,0.4-0.7,0.6-1.2,0.6c-0.9,0-1.5-0.5-1.5-1.2s0.5-1.2,1.7-1.2h0.9
		c0-0.5-0.3-0.8-0.9-0.8c-0.4,0-0.8,0.1-1.1,0.4l-0.4-0.8c0.5-0.3,1.1-0.5,1.7-0.5C90.2,397.7,90.8,398.3,90.8,399.5z M89.7,400.5
		v-0.4h-0.8c-0.5,0-0.7,0.2-0.7,0.5s0.2,0.5,0.7,0.5C89.2,401.1,89.6,400.8,89.7,400.5L89.7,400.5z"/>
	<path class="st2" d="M96,399.5v2.3h-1.2v-2.1c0-0.6-0.3-0.9-0.8-0.9s-0.9,0.3-0.9,1.1v2h-1.2v-4H93v0.5c0.3-0.4,0.8-0.5,1.3-0.5
		c0.9-0.1,1.6,0.6,1.7,1.4C96,399.3,96,399.4,96,399.5z"/>
	<path class="st2" d="M101.1,397.8v3.3c0.1,1.1-0.6,2-1.7,2.2c-0.2,0-0.4,0-0.5,0c-0.7,0-1.4-0.2-1.9-0.5l0.5-0.8
		c0.4,0.3,0.9,0.5,1.4,0.5c0.8,0,1.2-0.4,1.2-1.1v-0.2c-0.3,0.3-0.8,0.5-1.2,0.5c-1.1,0-1.9-0.9-1.9-1.9s0.9-1.9,1.9-1.9
		c0,0,0,0,0,0c0.5,0,1,0.2,1.3,0.6v-0.5H101.1z M100,399.6c0-0.6-0.4-1-1-1s-1,0.4-1,1s0.4,1,1,1S100,400.2,100,399.6z"/>
	<path class="st2" d="M106.2,397.8v4h-1.1v-0.5c-0.3,0.3-0.8,0.5-1.2,0.5c-0.9,0.1-1.6-0.6-1.7-1.5c0-0.1,0-0.2,0-0.3v-2.2h1.2v2.1
		c0,0.7,0.3,1,0.8,1s0.9-0.3,0.9-1.1v-2L106.2,397.8z"/>
	<path class="st2" d="M110.8,399.5v2.3h-1.1v-0.5c-0.3,0.4-0.7,0.6-1.2,0.6c-0.9,0-1.5-0.5-1.5-1.2s0.5-1.2,1.7-1.2h0.9
		c0-0.5-0.3-0.8-0.9-0.8c-0.4,0-0.8,0.1-1.1,0.4l-0.4-0.8c0.5-0.3,1.1-0.5,1.7-0.5C110.1,397.7,110.8,398.3,110.8,399.5z
		 M109.6,400.5v-0.4h-0.8c-0.5,0-0.7,0.2-0.7,0.5s0.2,0.5,0.6,0.5C109.1,401.1,109.5,400.8,109.6,400.5L109.6,400.5z"/>
	<path class="st2" d="M115.9,397.8v3.3c0.1,1.1-0.6,2-1.7,2.2c-0.2,0-0.4,0-0.5,0c-0.7,0-1.4-0.2-1.9-0.5l0.5-0.8
		c0.4,0.3,0.9,0.5,1.4,0.5c0.8,0,1.2-0.4,1.2-1.1v-0.2c-0.3,0.3-0.8,0.5-1.3,0.5c-1.1,0-1.9-0.9-1.9-1.9s0.9-1.9,1.9-1.9
		c0,0,0,0,0,0c0.5,0,1,0.2,1.3,0.6v-0.5H115.9z M114.8,399.6c0-0.6-0.4-1-1-1c-0.5-0.1-1.1,0.2-1.2,0.7c-0.1,0.5,0.2,1.1,0.7,1.2
		c0.2,0,0.3,0,0.5,0C114.3,400.6,114.8,400.2,114.8,399.6L114.8,399.6z"/>
	<path class="st2" d="M120.9,400.1h-3c0.1,0.5,0.6,0.9,1.1,0.8c0.4,0,0.7-0.1,1-0.4l0.6,0.7c-0.9,0.9-2.4,0.8-3.3-0.1
		c-0.3-0.4-0.6-0.8-0.6-1.3c0-1.1,0.9-2,2-2c0,0,0.1,0,0.1,0c1.1,0,2,0.8,2.1,1.9c0,0,0,0.1,0,0.1
		C120.9,399.9,120.9,400,120.9,400.1z M117.9,399.4h2c-0.1-0.5-0.5-0.8-1-0.8C118.4,398.5,117.9,398.9,117.9,399.4L117.9,399.4z"/>
	<path class="st2" d="M52.7,399.5h5.2v1.2h-4.2v1h-1L52.7,399.5z"/>
	<polygon class="st6" points="60.5,392.7 65.8,406.6 72.8,406.6 68.4,392.7 	"/>
	<polygon class="st6" points="129.5,392.7 134.8,406.6 141.8,406.6 137.4,392.7 	"/>
	<path class="st8" d="M157.5,392.6H45.1c-1.9-7-2.1-13.5,0-19.5h112.4C160.1,379.3,160.1,386.3,157.5,392.6z"/>
	<path class="st2" d="M78.4,379.2l-1.2,6.1h-0.4l1-5.2l-3.4,4.4h-0.2l-1.7-4.5l-1,5.3H71l1.2-6.1h0.4l1.8,4.7l3.6-4.7H78.4z"/>
	<path class="st2" d="M84.2,380.8l-0.9,4.6h-0.4l0.2-0.9c-0.5,0.6-1.2,0.9-1.9,0.9c-1,0.1-1.9-0.6-2-1.6c0-0.1,0-0.2,0-0.3
		c-0.1-1.4,1-2.6,2.4-2.7c0.1,0,0.1,0,0.2,0c0.8-0.1,1.6,0.4,1.8,1.2l0.2-1.1H84.2z M83.3,382.6c0.1-0.8-0.5-1.5-1.3-1.5
		c-0.1,0-0.2,0-0.3,0c-1.2,0-2.2,1-2.1,2.2c0,0,0,0.1,0,0.1c-0.1,0.8,0.5,1.5,1.3,1.6c0.1,0,0.2,0,0.3,0c1.2,0,2.2-1,2.2-2.2
		C83.3,382.8,83.3,382.7,83.3,382.6z"/>
	<path class="st2" d="M85.9,384c0,0.1,0,0.2,0,0.3c0,0.4,0.2,0.7,0.7,0.7c0.3,0,0.5-0.1,0.8-0.2l0.1,0.3c-0.3,0.2-0.6,0.3-1,0.3
		c-0.5,0-1-0.3-1-0.8c0-0.1,0-0.1,0-0.2c0-0.1,0-0.2,0-0.4l0.6-2.9h-0.8l0.1-0.4h0.8l0.2-1h0.4l-0.2,1H88l-0.1,0.4h-1.5L85.9,384z"
		/>
	<path class="st2" d="M93.2,382.2c0,0.2,0,0.3,0,0.5l-0.5,2.6h-0.4l0.5-2.6c0-0.1,0-0.3,0-0.4c0-0.7-0.4-1.1-1.3-1.1
		c-1,0-1.9,0.7-2,1.7l-0.5,2.5h-0.4l1.3-6.5h0.4l-0.6,2.8c0.4-0.6,1.1-0.9,1.9-0.9C92.7,380.7,93.2,381.3,93.2,382.2z"/>
	<path class="st2" d="M94.8,383.1c0,0.1,0,0.2,0,0.3c0,1,0.6,1.5,1.7,1.5c0.6,0,1.1-0.2,1.6-0.6l0.2,0.3c-0.5,0.5-1.1,0.7-1.8,0.7
		c-1,0.1-1.9-0.6-2.1-1.6c0-0.1,0-0.2,0-0.3c-0.1-1.4,1-2.6,2.4-2.7c0,0,0.1,0,0.1,0c1-0.1,1.9,0.6,2,1.6c0,0.1,0,0.2,0,0.3
		c0,0.2,0,0.3-0.1,0.5L94.8,383.1z M94.8,382.8h3.5c0-0.1,0-0.1,0-0.2c0-0.8-0.5-1.4-1.3-1.5c-0.1,0-0.1,0-0.2,0
		C95.9,381.1,95,381.8,94.8,382.8L94.8,382.8z"/>
	<path class="st2" d="M107.8,382.1c0,0.2,0,0.3,0,0.5l-0.5,2.6h-0.4l0.5-2.6c0-0.1,0-0.3,0-0.5c0-0.7-0.4-1.1-1.2-1.1
		c-1,0-1.8,0.7-1.9,1.6l-0.5,2.6h-0.4l0.5-2.6c0-0.1,0-0.3,0-0.5c0-0.7-0.4-1.1-1.2-1.1c-1,0-1.9,0.7-1.9,1.7l-0.5,2.5h-0.4l0.9-4.6
		h0.4l-0.2,0.9c0.4-0.6,1.1-0.9,1.8-0.9c0.7-0.1,1.3,0.3,1.5,1c0.4-0.7,1.2-1,2-1C107.2,380.7,107.8,381.3,107.8,382.1z"/>
	<path class="st2" d="M114,380.8l-0.9,4.6h-0.4l0.2-0.9c-0.5,0.6-1.2,0.9-1.9,0.9c-1,0.1-1.9-0.6-2-1.6c0-0.1,0-0.2,0-0.3
		c-0.1-1.4,1-2.6,2.4-2.7c0.1,0,0.1,0,0.2,0c0.8-0.1,1.6,0.4,1.8,1.2l0.2-1.1H114z M113.2,382.6c0.1-0.8-0.5-1.5-1.3-1.5
		c-0.1,0-0.2,0-0.3,0c-1.2,0-2.2,1-2.1,2.2c0,0,0,0.1,0,0.1c-0.1,0.8,0.5,1.5,1.3,1.6c0.1,0,0.2,0,0.3,0c1.2,0,2.2-1,2.1-2.2
		C113.1,382.8,113.1,382.7,113.2,382.6L113.2,382.6z"/>
	<path class="st2" d="M115.7,384c0,0.1,0,0.2,0,0.3c0,0.4,0.2,0.7,0.7,0.7c0.3,0,0.5-0.1,0.7-0.2l0.1,0.3c-0.3,0.2-0.6,0.3-1,0.3
		c-0.5,0-1-0.3-1-0.8c0-0.1,0-0.1,0-0.2c0-0.1,0-0.2,0-0.4l0.6-2.9H115l0.1-0.4h0.8l0.2-1h0.4l-0.2,1h1.5l-0.1,0.4h-1.5L115.7,384z"
		/>
	<path class="st2" d="M119.3,380.8h0.4l-0.9,4.6h-0.4L119.3,380.8z M119.4,379.3c0-0.2,0.2-0.4,0.4-0.4c0,0,0,0,0,0
		c0.2,0,0.3,0.1,0.3,0.3c0,0,0,0,0,0c0,0.2-0.2,0.4-0.4,0.4c0,0,0,0,0,0C119.6,379.6,119.4,379.5,119.4,379.3L119.4,379.3z"/>
	<path class="st2" d="M120.6,383.5c-0.1-1.4,1-2.7,2.4-2.7c0.1,0,0.1,0,0.2,0c0.7-0.1,1.4,0.3,1.7,0.9l-0.4,0.2
		c-0.3-0.5-0.8-0.7-1.4-0.7c-1.2,0-2.2,1-2.2,2.2c0,0,0,0.1,0,0.1c-0.1,0.8,0.6,1.5,1.4,1.5c0.1,0,0.2,0,0.3,0
		c0.6,0,1.1-0.2,1.5-0.7l0.3,0.2c-0.5,0.5-1.1,0.8-1.8,0.8c-1,0.1-1.9-0.6-2-1.6C120.6,383.6,120.6,383.5,120.6,383.5z"/>
	<path class="st2" d="M130.4,380.8l-0.9,4.6h-0.4l0.2-0.9c-0.5,0.6-1.2,0.9-1.9,0.9c-1,0.1-1.9-0.6-2-1.6c0-0.1,0-0.2,0-0.3
		c-0.1-1.4,1-2.6,2.4-2.7c0.1,0,0.1,0,0.2,0c0.8-0.1,1.6,0.4,1.8,1.2l0.2-1.1H130.4z M129.6,382.6c0.1-0.8-0.5-1.5-1.3-1.5
		c-0.1,0-0.2,0-0.3,0c-1.2,0-2.2,1-2.1,2.2c0,0,0,0.1,0,0.1c-0.1,0.8,0.5,1.5,1.3,1.5c0.1,0,0.2,0,0.3,0c1.2,0,2.2-1,2.1-2.2
		C129.6,382.7,129.6,382.7,129.6,382.6z"/>
	<path class="st2" d="M132.6,378.8h0.4l-1.3,6.5h-0.4L132.6,378.8z"/>
	<path class="st2" d="M49.8,381.1l6.2,1.2v0.5l-5.7-1.1v1.5l-0.4-0.1L49.8,381.1z"/>
	<path class="st4" d="M64.2,373.1c0.1,0-1.2,4.5-3.1,9.9c-1,3.3-2.2,6.5-3.6,9.7c-0.1,0,1.2-4.5,3.1-9.9
		C61.7,379.5,62.9,376.2,64.2,373.1z"/>
	<path class="st4" d="M68.8,373.1c0.1,0-1.2,4.5-3.1,9.9c-1,3.3-2.2,6.5-3.6,9.7c-0.1,0,1.2-4.5,3.1-9.9
		C66.3,379.5,67.5,376.2,68.8,373.1z"/>
	<path class="st4" d="M143.9,373.1c0.1,0-1.2,4.5-3.1,9.9c-1,3.3-2.2,6.5-3.6,9.7c-0.1,0,1.2-4.5,3.1-9.9
		C141.3,379.5,142.5,376.2,143.9,373.1z"/>
	<path class="st4" d="M148.5,373.1c0.1,0-1.2,4.5-3.1,9.9c-1,3.3-2.2,6.5-3.6,9.7c0.9-3.3,1.9-6.6,3.1-9.9
		C145.9,379.5,147.1,376.2,148.5,373.1z"/>
</g>
<g id="freepik--Character--inject-45">
	<path class="st6" d="M281.6,119c9.4,10.7,13.4,25,15.2,39.1s1.5,28.4,3.5,42.4c1,7.4,2.7,14.7,2.1,22.1s-3.9,15.1-10.4,18.7
		c-3.8,2.1-9.2,2.4-12.1-0.8c-2.1-2.3-2.4-5.6-2.7-8.7L268,115.6"/>
	<path class="st9" d="M227.7,219.3l6.9-1.9l42.6-2.2l9.5,2c0,0-17.1,19.3-31.6,19.4C228.5,236.8,227.7,219.3,227.7,219.3z"/>
	<path class="st8" d="M209.4,174.6c-3.1-9.4-7.8-25.6-6-35.3s6.6-19.1,14.5-25c10.8-8.2,25.5-9.3,38.8-7.2
		c9.2,1.4,18.6,4.4,24.9,11.2c4,4.4,6.5,10,7.8,15.8c1.2,5.8,1.9,11.7,2.1,17.7c0.2,3.6-0.7,11.1-2.7,14.6"/>
	<path class="st6" d="M288,163.9c0,0,3.9-33.4-17.8-46.2c-21.2-12.6-43.3-7.8-51.2,2.3c-15.2,19.5-11.4,33.2-11.4,33.2l75.7,17.7
		L288,163.9z"/>
	<path class="st9" d="M207.8,152.4c0-0.2,0-0.4,0-0.6c0.2-19.3,15.9-35.1,35.1-34.9c0.9,0,1.9,0,2.9,0.1c1.5,0.1,3,0.2,4.5,0.4
		c16.7,2.6,28.9,17.4,29.1,34.3c0.2,13.8,0.3,32.1-0.3,37.6c-1.1,9.1-0.8,12.3-0.8,12.3v21.1c0,12.4-9.7,22.7-22.1,23.3l0,0
		c-12.8,0.6-23.8-9.2-24.4-22.1c0-0.2,0-0.4,0-0.5l-0.3-10.9c-14.4-1.5-21.4-15.1-22.7-31.7C208.1,172.2,207.6,171.5,207.8,152.4z"
		/>
	<path class="st9" d="M278.8,163.7c0.4-0.2,15.3-5.1,15.3,10.3s-15.4,12.2-15.5,11.8S278.8,163.7,278.8,163.7z"/>
	<path class="st10" d="M283.3,179.9c0.1-0.1,0.3,0.2,0.7,0.4c0.6,0.3,1.4,0.3,2,0c1.6-0.6,3-3.2,3.1-6c0-1.3-0.2-2.6-0.8-3.8
		c-0.3-1-1-1.7-2-2.1c-0.6-0.2-1.3,0.1-1.6,0.7c-0.2,0.4-0.1,0.7-0.2,0.8s-0.3-0.2-0.2-0.9c0.1-0.4,0.3-0.7,0.6-1
		c0.4-0.3,1-0.5,1.5-0.4c1.3,0.3,2.4,1.2,2.8,2.4c0.7,1.3,1,2.8,0.9,4.3c-0.1,3.1-1.7,6-3.9,6.6c-0.8,0.2-1.7,0.1-2.5-0.4
		C283.3,180.3,283.3,180,283.3,179.9z"/>
	<path class="st6" d="M214.7,159.8c0.5,0.4,2.8-1.8,6.3-2.2c3.6-0.4,6.4,1.1,6.8,0.6c0.2-0.2-0.3-1-1.6-1.7c-1.7-0.9-3.6-1.3-5.5-1
		c-1.9,0.2-3.6,1-5,2.3C214.8,158.8,214.5,159.6,214.7,159.8z"/>
	<path class="st6" d="M247.7,158c0.3,0.5,3.1-1,6.7-0.5c3.6,0.5,5.9,2.7,6.4,2.3c0.2-0.2-0.1-1-1.1-2c-1.4-1.3-3.1-2.1-5-2.4
		c-1.9-0.3-3.7,0-5.4,0.9C248,157,247.6,157.8,247.7,158z"/>
	<path class="st6" d="M248.6,146.8c0.3,0.9,3.3,0.9,6.7,1.6s6,1.9,6.8,1.2c0.4-0.3,0.1-1.2-0.9-2.1c-1.4-1.2-3.1-2.1-4.9-2.4
		c-1.9-0.4-3.8-0.4-5.7,0.2C249.1,145.7,248.4,146.3,248.6,146.8z"/>
	<path class="st6" d="M227.4,145c-1-0.9-4.5-1-7.9-0.2s-5.4,2.2-4.4,3.1s4.5,1,7.9,0.2S228.4,145.9,227.4,145z"/>
	<path class="st6" d="M248.5,187.8c0.1-0.2-0.2-0.7-1.1-1.2c-1.2-0.6-2.5-0.7-3.7-0.3c-1.2,0.4-2.3,1.2-2.9,2.3
		c-0.5,0.8-0.4,1.5-0.2,1.5c0.4,0.2,1.5-1.6,3.6-2.3S248.4,188.2,248.5,187.8z"/>
	<path class="st10" d="M231.5,212.6c0,0,18.4-0.2,22.7-3.5c0,0-3,9-22.6,8.6L231.5,212.6z"/>
	<path class="st6" d="M224.3,165.1c0.2,1.7-1,3.2-2.6,3.4c-1.6,0.3-3.2-0.8-3.5-2.4c-0.2-1.7,1-3.2,2.6-3.4
		C222.5,162.3,224,163.4,224.3,165.1z"/>
	<path class="st6" d="M255.8,165.4c0.2,1.7-1,3.2-2.6,3.4c-1.6,0.3-3.1-0.7-3.4-2.3c0,0,0-0.1,0-0.1c-0.2-1.7,1-3.2,2.6-3.4
		C254,162.7,255.5,163.8,255.8,165.4z"/>
	<path class="st6" d="M238.5,177.6c-0.1-0.2-1.1,0-2.6-0.2c-0.4-0.1-0.8-0.1-1.2-0.3c-0.4-0.1-0.8-0.3-1.2-0.5
		c-0.1-0.1-0.1-0.1-0.1-0.2c0-0.2,0.1-0.3,0.2-0.5l0.7-1.7c1.9-4.7,3.2-8.6,2.8-8.7s-2.3,3.5-4.2,8.1c-0.2,0.6-0.5,1.2-0.7,1.7
		c-0.2,0.4-0.2,0.8-0.2,1.2c0.1,0.5,0.3,0.9,0.8,1.2c0.3,0.2,0.6,0.3,0.9,0.4c0.3,0.1,0.5,0.1,0.8,0.2c0.5,0.1,1,0.1,1.5,0.1
		C237.6,178.4,238.5,177.8,238.5,177.6z"/>
	<path class="st8" d="M306.4,127.2c-2-4.6-4.8-9.2-4.6-14.2c0.1-2.2,0.6-5-1.2-6.3c-0.7-0.4-1.4-0.6-2.2-0.7
		c-10.6-1.5-21.3-1.3-31.8,0.7c0-0.5,0-1-0.2-1.5c-0.7-2.1-2.5-3.7-4.6-4c-1.8-0.2-3.6,0.3-5,1.4c-7.4-7.9-17.2-13.1-27.9-14.9
		c-3-0.5-6.3-0.7-9,0.8c-4.2,2.2-5.7,7.3-6.8,12c-0.4,1.8-0.9,3.8,0.1,5.4c1.3,2.2,4.3,2.4,6.9,2.3c11.5-0.2,22.9-0.6,34.4-1.2
		l0.2-0.1c0,0.3,0.1,0.6,0.2,0.9l-0.1-0.9l0,0c0.4,2.1,1.7,3.9,3.7,4.8c2,0.9,4.3,0.7,6.1-0.6c0.2-0.2,0.4-0.3,0.6-0.5
		c10.8,8.7,22.4,16.5,35.3,21.6c2.1,0.9,5.1,1.4,6.3-0.6C307.5,130.2,307,128.6,306.4,127.2z"/>
	<path class="st6" d="M217.9,118.1c8.5-6.6,23.5-9.7,34-7.3s20.4,13.1,24.9,22.9c4.7,10.4,4.2,22.4,2,33.6c-0.4,1.9-1,4-2.8,4.6
		c-1.4,0.3-2.8-0.3-3.6-1.4c-0.8-1.1-1.4-2.3-1.7-3.7c-1.7-5.3-3.3-10.5-5-15.8c-0.8-2.6-1.8-5.4-3.8-7.2c-1.2-1-2.6-1.8-4-2.4
		c-8.9-4.8-14.9-13.6-16-23.6c-1,6.5-5.1,12-11,14.9c-3.4,1.7-7.4,2.4-10.2,5c-3.6,3.4-6.3,7.6-8,12.3c-1.5,4.6-4,11.4-4.9,17.7
		c-0.4-4.1-1.8-13.6-2.2-17.7C205.5,150,203,129.6,217.9,118.1z"/>
	<path class="st6" d="M266.3,108.1c0,0.3-0.1,0.5-0.2,0.8c-0.3,0.7-0.7,1.3-1.2,1.8c-0.8,0.8-1.8,1.3-2.8,1.5
		c-1.3,0.3-2.7,0-3.9-0.6c-1.2-0.7-2.1-1.7-2.6-3c-0.4-1-0.4-2.2-0.2-3.2c0.2-0.7,0.5-1.4,0.9-2c0.3-0.4,0.5-0.6,0.6-0.6
		c-0.5,0.8-0.9,1.7-1.1,2.6c-0.2,1-0.1,2,0.3,3c1,2.4,3.5,3.7,6,3.3c1-0.2,1.9-0.7,2.7-1.3C265.3,109.7,265.9,108.9,266.3,108.1z"/>
	<path class="st6" d="M264.3,110.2c-0.2-0.5-0.3-1-0.3-1.5c-0.3-1.2-0.8-2.2-1.5-3.2c-0.7-1-1.6-1.8-2.6-2.4
		c-0.8-0.5-1.3-0.7-1.3-0.8c0.5,0,1,0.2,1.5,0.5c1.1,0.6,2.1,1.4,2.8,2.4c0.7,1,1.2,2.2,1.4,3.4
		C264.5,109.2,264.4,109.7,264.3,110.2z"/>
	<path class="st6" d="M266.1,104.3c0,0.2-0.9,0.1-1.8,0.4s-1.6,0.9-1.7,0.8s0.4-0.9,1.5-1.3S266.1,104.2,266.1,104.3z"/>
	<path class="st6" d="M285.2,110.2c-0.9-0.1-1.8-0.3-2.8-0.5c-2.2-0.4-4.4-0.7-6.7-0.9c-2.2-0.1-4.5-0.1-6.7,0.1
		c-0.9,0.1-1.9,0.2-2.8,0.2c0.9-0.3,1.8-0.5,2.8-0.6c2.3-0.3,4.5-0.4,6.8-0.3c2.3,0.1,4.5,0.4,6.7,1
		C283.4,109.4,284.3,109.7,285.2,110.2z"/>
	<path class="st6" d="M282,114.3c-0.8-0.3-1.6-0.6-2.3-1c-3.7-1.7-7.5-2.9-11.5-3.6c-0.8-0.1-1.7-0.2-2.5-0.5c0.8-0.1,1.7,0,2.5,0.1
		c2,0.2,4,0.7,6,1.3c1.9,0.6,3.8,1.4,5.6,2.3C280.7,113.3,281.4,113.8,282,114.3z"/>
	<path class="st6" d="M255.4,107.7c-0.2,0-0.4,0-0.6,0h-1.6l-5.9-0.1c-5,0-11.8,0-19.4,0.4l-5.5,0.3c-1.7,0.2-3.5,0.2-5.2,0.1
		c-1.6-0.1-3.1-0.9-4.1-2.2c-0.4-0.6-0.6-1.4-0.6-2.1c0-0.7,0-1.3,0.2-2c0.4-1.9,0.9-3.8,1.5-5.7c0.2-0.7,0.4-1.2,0.6-1.5
		c0.1-0.2,0.1-0.3,0.2-0.5c0,0.2-0.1,0.4-0.1,0.5c-0.1,0.3-0.3,0.9-0.4,1.5c-0.4,1.3-0.9,3.3-1.4,5.7c-0.4,1.3-0.2,2.6,0.4,3.8
		c0.9,1.2,2.3,1.9,3.9,2c1.7,0.1,3.4,0.1,5.1-0.1c1.8-0.1,3.6-0.2,5.5-0.3c7.6-0.4,14.4-0.4,19.4-0.3c2.5,0.1,4.5,0.2,5.9,0.2
		l1.6,0.1C255,107.6,255.2,107.6,255.4,107.7z"/>
	<path class="st6" d="M291.1,128.1c-0.4-0.1-0.8-0.3-1.2-0.5c-0.7-0.3-1.8-0.8-3.1-1.5c-2.6-1.3-6-3.3-9.7-5.7s-6.9-4.8-9.1-6.6
		c-1.1-0.9-2-1.7-2.6-2.2c-0.3-0.3-0.6-0.6-0.9-0.9c0.4,0.2,0.7,0.4,1,0.7l2.7,2.1c2.3,1.7,5.5,4.1,9.2,6.4s7.1,4.4,9.6,5.8l3,1.6
		C290.5,127.6,290.8,127.8,291.1,128.1z"/>
	<path class="st6" d="M237.2,100.4c0.9-0.2,1.9-0.3,2.9-0.3c2.3,0,4.6,0.3,6.9,0.8c2.2,0.6,4.4,1.4,6.4,2.5c0.9,0.4,1.7,0.9,2.4,1.6
		c0,0.1-1-0.5-2.6-1.3c-2.1-1-4.2-1.8-6.4-2.3c-2.2-0.6-4.5-0.9-6.7-1C239.1,100.6,238.2,100.5,237.2,100.4z"/>
	<g class="st11">
		<path d="M255.6,104.6c-1.5-2.1-3.9-3.4-6.2-4.6c-1.8-1-3.7-1.7-5.7-2.3c-2-0.5-4.1-0.5-6.1,0.2c-0.4,0.1-0.7,0.4-0.9,0.7
			c-0.2,0.5,0.1,1,0.6,1.2c0.5,0.2,1,0.3,1.5,0.2c5.8,0.1,11.5,1.8,16.6,4.8"/>
	</g>
	<g class="st11">
		<path d="M266.1,109.3c4-0.3,8.1,0,12,0.8c1.4,0.2,2.8,0.7,4.1,1.4c1.3,0.7,2.2,2,2.5,3.4c0.1,0.2,0,0.4-0.1,0.6
			c-0.2,0.2-0.6,0.1-0.9-0.1c-5.3-3.1-11.2-5.1-17.3-6"/>
	</g>
	<path class="st7" d="M196.3,427.1l31,10c0,0,0.3,34.9,5.9,37.3l21.4-59.5L207,397.4L196.3,427.1z"/>
	<path class="st1" d="M231.4,417.8c0.8-1.1,2.2-1.3,3.4-0.7c1.1,0.7,1.4,2.2,0.7,3.3c-0.8,1.1-2.4,1.4-3.6,0.7
		c-1-0.8-1.3-2.7-0.4-3.6"/>
	<g class="st5">
		<path class="st4" d="M254.6,414.9l-4.9-1.6L231,470.9c0,0,0.2,3.1,2.2,3.4L254.6,414.9z"/>
	</g>
	<path class="st6" d="M226.7,437.9c0.3,0.1,0.9-1.3,2.4-2.4s2.9-1.4,2.9-1.7s-1.9-0.5-3.6,0.9S226.4,437.9,226.7,437.9z"/>
	<path class="st6" d="M227,445.1c0.2,0.2,1.2-0.9,2.8-1.5s3-0.4,3.1-0.6s-1.5-1.1-3.4-0.4S226.7,445,227,445.1z"/>
	<path class="st6" d="M233.2,451.3c0.2-0.2-1.1-1.2-3-1s-3,1.3-2.8,1.5s1.4-0.3,2.9-0.4S233.1,451.6,233.2,451.3z"/>
	<path class="st6" d="M219.9,434.9c0.3,0,0.4-1.5,1.1-3.1s1.7-2.7,1.5-2.9s-1.7,0.6-2.5,2.5S219.6,434.9,219.9,434.9z"/>
	<path class="st7" d="M312,430.9l-31,10c0,0-0.3,34.9-5.9,37.3l-21.5-59.5l47.7-17.5L312,430.9z"/>
	<path class="st1" d="M276.9,421.6c-0.8-1.1-2.2-1.3-3.4-0.7c-1.1,0.8-1.4,2.2-0.7,3.3c0.8,1.1,2.4,1.4,3.6,0.7
		c1-0.8,1.3-2.7,0.4-3.6"/>
	<g class="st5">
		<path class="st4" d="M253.6,418.7l4.9-1.6l18.8,57.6c0,0-0.2,3.1-2.2,3.4L253.6,418.7z"/>
	</g>
	<path class="st6" d="M281.6,441.8c-0.3,0.1-1-1.3-2.4-2.4s-2.9-1.4-2.9-1.7s1.9-0.5,3.6,0.9S281.9,441.7,281.6,441.8z"/>
	<path class="st6" d="M281.3,448.9c-0.3,0.2-1.2-0.9-2.8-1.5s-3-0.4-3.1-0.6s1.5-1.1,3.4-0.4S281.5,448.8,281.3,448.9z"/>
	<path class="st6" d="M275.1,455.1c-0.1-0.2,1.1-1.2,3-1s3,1.3,2.8,1.5s-1.4-0.3-2.9-0.4S275.2,455.4,275.1,455.1z"/>
	<path class="st6" d="M288.4,438.7c-0.3,0-0.4-1.5-1.1-3.1s-1.7-2.7-1.5-2.9s1.7,0.6,2.5,2.5S288.7,438.8,288.4,438.7z"/>
	<path class="st6" d="M209.8,358.9c-1.1,0-67.7-14-74.3-14.3s-23.6,5.7-24.8,20.4s-0.9,25,9.7,31.9s94.2,47.6,94.2,47.6l10.9-34
		l17,6.4l15.9-54.8L209.8,358.9z"/>
	<path class="st7" d="M204.2,395.1c-0.2-0.1-0.5-0.2-0.7-0.4l-1.9-1.1c-1.6-1-4-2.4-6.9-4.1c-7.7-4.6-14.9-9.8-21.6-15.7
		c-3.9-3.5-7.7-6.6-11.2-9.5c-1.8-1.4-3.4-2.8-5-4c-1.5-1.1-3.1-2.1-4.7-3c-2.4-1.3-4.9-2.2-7.5-2.8c-0.9-0.2-1.7-0.3-2.2-0.4
		c-0.3,0-0.5-0.1-0.8-0.1c0.3,0,0.5,0,0.8,0c0.7,0,1.5,0.1,2.2,0.3c2.7,0.5,5.2,1.4,7.6,2.7c1.7,0.9,3.3,1.8,4.8,2.9
		c1.6,1.2,3.3,2.5,5.1,3.9c3.5,2.8,7.4,6,11.3,9.5c6.7,5.9,13.8,11.2,21.4,15.8l6.9,4.3l1.9,1.2C203.8,394.7,204,394.9,204.2,395.1z
		"/>
	<path class="st7" d="M155,351.7c0.8,0.4,1.5,0.9,2.2,1.5c1.7,1.3,3.1,2.9,4.3,4.6c1.2,1.7,2.1,3.7,2.6,5.8c0.3,0.8,0.4,1.7,0.4,2.6
		c-0.2,0.1-0.6-4-3.4-8S154.9,351.9,155,351.7z"/>
	<path class="st6" d="M283.5,359.5c1.1,0,67.6-14,74.3-14.3s23.6,5.7,24.8,20.4s0.9,25-9.7,31.9s-94.2,47.6-94.2,47.6l-10.9-34
		l-17,6.4l-15.9-54.8L283.5,359.5z"/>
	<path class="st7" d="M289,395.7c0.2-0.2,0.4-0.3,0.6-0.4l1.9-1.2l6.9-4.3c7.6-4.6,14.8-9.9,21.4-15.8c3.9-3.5,7.8-6.6,11.3-9.5
		c1.8-1.4,3.4-2.8,5.1-4c1.5-1.1,3.1-2.1,4.8-2.9c2.4-1.3,5-2.2,7.6-2.7c0.7-0.1,1.5-0.2,2.2-0.3c0.3,0,0.5,0,0.8,0
		c-0.2,0.1-0.5,0.1-0.8,0.1c-0.5,0.1-1.2,0.2-2.2,0.4c-2.6,0.6-5.2,1.5-7.5,2.8c-1.6,0.9-3.2,1.9-4.7,3c-1.6,1.2-3.3,2.6-5,4
		c-3.5,2.9-7.4,6-11.2,9.5c-6.7,5.9-13.9,11.2-21.6,15.7c-2.9,1.8-5.3,3.2-7,4.1l-1.9,1.1C289.5,395.5,289.2,395.6,289,395.7z"/>
	<path class="st7" d="M338.2,352.3c0.1,0.1-3.3,2.3-6,6.3s-3.2,8.1-3.4,8c0-0.9,0.1-1.7,0.4-2.6c0.5-2.1,1.4-4,2.6-5.8
		c1.2-1.7,2.6-3.3,4.3-4.6C336.7,353.1,337.5,352.7,338.2,352.3z"/>
	<path class="st8" d="M193.6,233.8l-34.9,53.8c0,0-19.3,9.9-21.6,23s-2.8,22.5,3.8,26.8c1.2,0.7,2.5,1.3,3.8,1.6
		c11.2,3.1,23.2-1.4,29.5-11.3l24.9-38.5l8.1-62.6C207.2,226.6,200.1,226.7,193.6,233.8z"/>
	<path class="st9" d="M160.8,314.1h-5.9c0,0-12.9,4.9-12,16.1c0,0,1.9,7.7,14.1,6.3l15.8-4.5l1.9-16.8L160.8,314.1z"/>
	<path class="st8" d="M312.7,230.4L285,215.2c0,0-14.7,16-34.1,15.5s-23.2-11.5-23.2-11.5l-24.8,8.2l0,0l-3.8,61.7
		c0,0,0.1,71.5,1.1,71.5s102.7,2.2,102.7,2.2l-1.4-47.8L312.7,230.4z"/>
	<path class="st8" d="M311.4,229.7c0,0,12.7,5.2,20.6,27.1c3.1,8.6,19.5,42.5,26.2,56.4c2.7,5.4,3.8,11.6,3,17.6
		c-0.4,2.8-1.1,5.4-2.6,7c-3.2,3.4-36.6,15-36.6,15l-13.4-21.2l10.6-7.8l-15.3-27c0,0,0.8-31.5,1.5-40.2S311.4,229.7,311.4,229.7z"
		/>
	<path class="st6" d="M196.9,248.8c0.1,0,0.9,14,1.8,31.3s1.4,31.3,1.2,31.3s-0.9-14-1.8-31.3S196.8,248.9,196.9,248.8z"/>
	<path class="st6" d="M311.4,246.5c0.1,0-2,15.1-4.7,33.6s-5,33.5-5.2,33.5s2-15.1,4.7-33.6S311.3,246.5,311.4,246.5z"/>
	<path class="st6" d="M172.5,301.9c-0.1,0.1-2.3-2.8-5.7-5.7s-6.7-4.5-6.6-4.7c0.8,0.2,1.5,0.6,2.2,1c1.7,0.9,3.3,2.1,4.8,3.3
		c1.5,1.2,2.8,2.6,4.1,4.1C171.7,300.5,172.1,301.2,172.5,301.9z"/>
	<path class="st6" d="M342.8,316.8c0,0.1-1.4-0.1-3.7-0.1c-3,0-6,0.4-8.8,1.2c-2.9,0.8-5.6,2.1-8.1,3.6c-1.9,1.2-3,2.1-3.1,2.1
		s0.2-0.3,0.7-0.7c0.7-0.6,1.4-1.2,2.2-1.7c5.1-3.4,11.1-5.1,17.2-4.9c0.9,0,1.8,0.1,2.7,0.3C342.2,316.6,342.5,316.7,342.8,316.8z"
		/>
	<path class="st6" d="M338,308c0,0.1-1.4,0.4-3.5,1.2c-1.2,0.5-2.4,1.1-3.6,1.7c-1.4,0.8-2.7,1.8-4,2.8c-2.3,1.9-4.3,4.1-5.9,6.6
		c-1.2,1.9-1.8,3.2-1.9,3.2c0.1-0.3,0.2-0.6,0.3-1c0.4-0.8,0.8-1.7,1.2-2.4c0.7-1.2,1.5-2.3,2.4-3.3c1.1-1.3,2.3-2.4,3.5-3.5
		c1.3-1,2.7-2,4.1-2.8c1.2-0.7,2.4-1.2,3.7-1.7c0.9-0.3,1.7-0.6,2.6-0.8C337.4,308.1,337.7,308,338,308z"/>
	<g class="st11">
		<path d="M303.7,296.9c4.6-4.2,6.7-10.5,7.1-16.7s-0.8-12.4-1.9-18.5"/>
	</g>
	<g class="st11">
		<path d="M319.1,323.4c5.4-7.9,15.7-10.9,24.5-7c-8.6-1-17.4,1.4-24.2,6.8"/>
	</g>
	<g class="st11">
		<path d="M173,302c-0.7-4.5-3.7-8.4-7.9-10.3c-1.2-0.5-2.8-0.8-3.5,0.2c4.5,2.6,8.4,6.2,11.4,10.5"/>
	</g>
	<path class="st6" d="M141.4,320.3c0-0.3,0.1-0.6,0.2-0.9c0.3-0.7,0.7-1.4,1.2-2.1c1.7-2,4.1-3.4,6.7-3.9c2.6-0.5,5.2-0.5,7.8-0.1
		c1,0.1,1.8,0.3,2.3,0.4c0.3,0,0.6,0.1,0.8,0.2c-1.1,0-2.2-0.1-3.2-0.3c-2.6-0.3-5.1-0.2-7.7,0.2c-2.5,0.5-4.8,1.8-6.6,3.7
		C142.5,318.4,141.9,319.3,141.4,320.3z"/>
	<path class="st3" d="M253.2,274.5c-0.5-6.5-4-12.5-9.3-16.2c-2-1.5-4.3-2.4-6.8-2.6c-2.5-0.2-4.9,0.8-6.5,2.7
		c-2.2,2.9-1.5,7.3,0.9,10s6,4.2,9.5,4.9s7.2,1,10.7,2.1c-3.9,0.9-7.9,1.9-11.3,4.1s-6.1,5.9-6.1,9.9s3.7,8,7.7,7.5
		c3.1-0.4,5.3-3.1,6.8-5.8C251.7,286,253.3,280.3,253.2,274.5"/>
	<path class="st6" d="M253.2,274.5c0.1,1.6,0.1,3.3-0.2,4.9c-0.6,4.5-2.2,8.8-4.6,12.6c-0.8,1.3-1.8,2.5-2.9,3.4
		c-1.3,1.1-2.9,1.7-4.6,1.7c-1.8-0.1-3.5-0.9-4.7-2.3c-1.3-1.4-2.1-3.2-2.3-5.1c-0.1-2,0.4-4,1.4-5.7c1.1-1.8,2.5-3.3,4.2-4.5
		c3.4-2.4,7.7-3.5,11.9-4.5v0.5c-0.6-0.2-1.2-0.4-1.8-0.5c-4.3-1-8.8-1.2-12.8-2.8c-2-0.7-3.8-1.9-5.3-3.4c-1.4-1.5-2.3-3.4-2.6-5.4
		c-0.3-2,0.2-4,1.4-5.5c1.2-1.4,2.9-2.3,4.7-2.6c1.7-0.2,3.4,0,5,0.6c1.5,0.5,2.8,1.3,4.1,2.2c2.2,1.6,4,3.5,5.5,5.7
		c1.1,1.7,2,3.5,2.6,5.4c0.4,1.2,0.7,2.4,0.8,3.7c0.1,0.4,0.1,0.8,0.1,1C253.2,274.3,253.2,274.4,253.2,274.5c0-0.1-0.1-0.2-0.1-0.3
		c0-0.2-0.1-0.6-0.1-1c-0.2-1.2-0.5-2.5-0.9-3.6c-0.6-1.9-1.5-3.7-2.6-5.3c-1.5-2.2-3.3-4.1-5.4-5.6c-1.2-0.9-2.6-1.6-4-2.1
		c-1.5-0.6-3.2-0.7-4.8-0.5c-1.7,0.2-3.3,1.1-4.4,2.4c-1.1,1.5-1.6,3.3-1.3,5.2c0.3,1.9,1.2,3.7,2.5,5.1c1.5,1.4,3.2,2.5,5.1,3.2
		c3.9,1.5,8.3,1.8,12.7,2.8c0.6,0.1,1.3,0.3,1.9,0.5l0.9,0.3l-1,0.2c-4.2,1-8.4,2.1-11.8,4.4c-1.6,1.1-3,2.6-4,4.3
		c-1,1.6-1.5,3.5-1.4,5.4c0.2,3.6,3.2,6.8,6.5,7c1.6,0,3.1-0.6,4.3-1.6c1.1-0.9,2.1-2.1,2.8-3.3c2.4-3.8,3.9-8,4.7-12.4
		c0.2-1.2,0.3-2.4,0.3-3.6c0-0.4,0-0.7,0-0.9C253.1,274.7,253.2,274.6,253.2,274.5z"/>
	<path class="st3" d="M255.5,274.5c0.5-6.5,4-12.5,9.3-16.2c2-1.5,4.3-2.4,6.8-2.6c2.5-0.2,4.9,0.8,6.5,2.7c2.2,2.9,1.5,7.3-0.9,10
		s-6,4.2-9.5,4.9s-7.2,1-10.7,2.1c3.9,0.9,7.9,1.9,11.3,4.1s6.1,5.9,6.1,9.9s-3.7,8-7.7,7.5c-3.1-0.4-5.3-3.1-6.8-5.8
		C256.9,286,255.4,280.3,255.5,274.5"/>
	<path class="st6" d="M255.5,274.5c0,0.1,0,0.2,0,0.3c0,0.2,0,0.5,0,0.9c0,1.2,0.2,2.4,0.3,3.6c0.7,4.4,2.3,8.6,4.7,12.4
		c0.8,1.3,1.7,2.4,2.8,3.3c1.2,1,2.7,1.6,4.3,1.6c3.3-0.1,6.3-3.3,6.5-7c0.1-1.9-0.4-3.8-1.4-5.4c-1-1.7-2.4-3.2-4-4.3
		c-3.4-2.3-7.5-3.4-11.8-4.4l-1-0.2l0.9-0.3c0.6-0.2,1.2-0.4,1.9-0.5c4.4-1,8.8-1.2,12.7-2.8c1.9-0.7,3.7-1.8,5.1-3.2
		c1.4-1.4,2.2-3.2,2.5-5.1c0.3-1.8-0.2-3.7-1.3-5.2c-1.1-1.3-2.7-2.2-4.4-2.4c-1.6-0.2-3.3-0.1-4.8,0.5c-1.4,0.5-2.8,1.2-4,2.1
		c-2.1,1.5-4,3.4-5.4,5.6c-1.1,1.7-2,3.4-2.6,5.3c-0.4,1.2-0.7,2.4-0.9,3.6c-0.1,0.4-0.1,0.7-0.1,1
		C255.5,274.3,255.5,274.4,255.5,274.5c-0.1-0.1-0.1-0.2-0.1-0.3c0-0.2,0-0.5,0.1-1c0.2-1.3,0.4-2.5,0.8-3.7
		c0.6-1.9,1.5-3.7,2.6-5.4c1.5-2.2,3.3-4.2,5.5-5.7c1.2-0.9,2.6-1.7,4.1-2.2c1.6-0.6,3.3-0.8,5-0.6c1.8,0.3,3.5,1.2,4.7,2.6
		c1.2,1.6,1.7,3.6,1.4,5.5c-0.3,2-1.2,3.9-2.6,5.4c-1.5,1.5-3.3,2.6-5.3,3.4c-4,1.6-8.5,1.8-12.8,2.8c-0.6,0.1-1.3,0.3-1.8,0.5v-0.5
		c4.2,1,8.5,2.1,11.9,4.5c1.7,1.2,3.1,2.7,4.2,4.5c1,1.7,1.5,3.7,1.4,5.7c-0.2,1.9-1,3.7-2.3,5.1c-1.2,1.3-2.9,2.2-4.7,2.3
		c-1.7,0-3.3-0.6-4.6-1.7c-1.1-1-2.1-2.1-2.9-3.4c-2.4-3.8-3.9-8.1-4.6-12.6C255.4,277.8,255.3,276.1,255.5,274.5z"/>
	<path class="st6" d="M254.3,291.6L254.3,291.6c-0.6,0-1.1-0.5-1.1-1.1v-21.7c0-0.6,0.5-1.1,1.1-1.1l0,0c0.6,0,1.1,0.5,1.1,1.1v21.8
		C255.5,291.1,255,291.6,254.3,291.6z"/>
	<path class="st6" d="M254.3,291.6c-0.6,0-1.2-0.5-1.2-1.1v-21.8c0-0.6,0.5-1.2,1.2-1.2s1.2,0.5,1.2,1.2v21.8
		C255.5,291.1,255,291.6,254.3,291.6z M254.3,267.6c-0.6,0-1.1,0.5-1.1,1.1v21.8c0,0.6,0.5,1.1,1.1,1.1s1.1-0.5,1.1-1.1l0,0v-21.8
		C255.5,268.1,255,267.6,254.3,267.6L254.3,267.6L254.3,267.6z"/>
	<path class="st6" d="M248.1,255.9c0.6,0.5,1.2,1.1,1.6,1.7c1.2,1.5,2.1,3.2,2.8,5c0.7,1.8,1.2,3.6,1.4,5.5c0.1,0.8,0.1,1.6,0,2.4
		C253.5,265.2,251.4,260.2,248.1,255.9L248.1,255.9z"/>
	<path class="st6" d="M260.5,256c-1.4,2-2.7,4.1-3.7,6.3c-0.9,2.3-1.6,4.6-2.1,7c-0.1-0.7,0-1.5,0.1-2.2c0.6-3.5,2-6.8,4.2-9.6
		C259.4,257,259.9,256.5,260.5,256z"/>
	<path class="st6" d="M253.7,276.6c-0.1,0-0.6-1-1.6-2.6c-2.7-4.1-6.5-7.3-11-9.3c-1.7-0.8-2.8-1.1-2.8-1.2s0.3,0,0.8,0.1
		c0.7,0.2,1.4,0.4,2.1,0.7c4.6,1.9,8.6,5.2,11.2,9.5c0.4,0.6,0.7,1.3,1.1,2C253.6,276.1,253.7,276.4,253.7,276.6z"/>
	<path class="st6" d="M253.8,274.5c-0.4,0.9-0.8,1.8-1.4,2.6c-1.2,2-2.6,4-4.1,5.8c-1.5,1.9-3.1,3.6-4.9,5.3
		c-0.7,0.7-1.4,1.4-2.3,1.9c0.6-0.8,1.3-1.5,2-2.2c1.3-1.3,2.9-3.2,4.7-5.3s3.2-4.2,4.2-5.7C252.6,276.1,253.2,275.3,253.8,274.5z"
		/>
	<path class="st6" d="M266.7,264.8c-0.7,0.6-1.4,1.1-2.2,1.5c-1.8,1.2-3.4,2.5-5,4c-1.6,1.5-3,3-4.3,4.7c-0.5,0.7-1.1,1.4-1.7,2.1
		c0.4-0.8,0.8-1.6,1.4-2.3c1.3-1.8,2.7-3.4,4.3-4.9c1.6-1.5,3.3-2.8,5.1-3.9C265,265.5,265.8,265.1,266.7,264.8z"/>
	<path class="st6" d="M266.5,289.7c-0.8-0.4-1.6-0.9-2.3-1.5c-3.5-2.8-6.3-6.4-8.2-10.4c-0.4-0.8-0.7-1.7-0.9-2.6
		c0.5,0.8,0.9,1.6,1.3,2.5c2,3.9,4.8,7.4,8.2,10.3C265.2,288.5,265.9,289.1,266.5,289.7z"/>
	<path class="st6" d="M281.3,303.6c0,0.1-11.5,0.3-25.8,0.3s-25.8-0.1-25.8-0.3s11.6-0.3,25.8-0.3
		C269.7,303.3,281.3,303.4,281.3,303.6z"/>
	<path class="st6" d="M208.3,175.8c-5.8,10.4,4.4,24.3-0.9,34.9c-1.5,3-4.3,5.7-4.3,9.1s2.7,6.2,2.3,9.5c-0.4,2.5-2.5,4.3-3.8,6.5
		c-2.6,4.2-2.2,9.9,0.3,14.2c4.7,8.1,15.1,10.9,23.2,6.2c3.3-1.9,5.8-4.8,7.3-8.3c2.2-5.4,0.6-11.3,0.3-17.1
		c-0.2-5.9-1.1-12.9-1.2-18c0,0-16.2-1.7-20.7-20.3c-1-4.1-1.7-8.2-2.1-12.4C208.4,176.7,208.3,175.8,208.3,175.8z"/>
	<polygon class="st9" points="308.9,331.9 287.5,339.3 290.8,346.6 299,357.3 321,351 	"/>
	<polygon class="st7" points="261.6,347.2 235.9,314.8 164.4,314.8 227.3,394.5 293.9,388.4 	"/>
	<polygon class="st1" points="164.9,315.4 160.4,321.3 224.8,401.8 286.1,395.9 290.6,388.7 227.3,394.5 	"/>
	<path class="st6" d="M243.7,324.1c0.4-0.6,0.6-1.2,0.8-1.9c0.2-0.7,0.2-1.5,0-2.2c-0.5-1.8-2.2-3-4-3c-0.7,0-1.5,0.2-2.1,0.5
		c-0.6,0.4-1.1,0.8-1.6,1.3c-0.1,0,0.2-0.9,1.4-1.6c1.6-1,3.6-0.9,5.1,0.2c0.8,0.6,1.4,1.5,1.7,2.5c0.2,0.8,0.2,1.6-0.1,2.4
		C244.7,323,244.3,323.7,243.7,324.1z"/>
	<path class="st6" d="M247.2,327.6c0.4-0.6,0.6-1.2,0.9-1.9c0.2-0.7,0.2-1.5,0-2.2c-0.3-0.9-0.8-1.6-1.5-2.2
		c-0.7-0.5-1.6-0.9-2.5-0.9c-0.7,0-1.5,0.2-2.1,0.5c-0.6,0.4-1.1,0.8-1.6,1.3c0.3-0.7,0.8-1.3,1.4-1.6c0.7-0.4,1.5-0.7,2.2-0.7
		c2.5-0.1,4.5,1.9,4.6,4.4c0,0.5-0.1,1-0.2,1.4C248.2,326.5,247.8,327.2,247.2,327.6z"/>
	<path class="st6" d="M250.8,331.1c0.4-0.6,0.6-1.2,0.9-1.9c0.2-0.7,0.2-1.5,0-2.2c-0.5-1.8-2.2-3-4-3c-0.7,0-1.5,0.2-2.1,0.5
		c-0.6,0.4-1.1,0.8-1.6,1.3c-0.1,0,0.2-0.9,1.4-1.6c2.1-1.3,4.9-0.7,6.2,1.4c0.2,0.4,0.4,0.8,0.5,1.2c0.2,0.8,0.2,1.6-0.1,2.4
		C251.8,330.1,251.4,330.7,250.8,331.1z"/>
	<path class="st6" d="M254.3,334.7c0.4-0.6,0.6-1.2,0.9-1.9c0.2-0.7,0.2-1.5,0-2.2c-0.5-1.8-2.2-3-4-3c-0.7,0-1.5,0.2-2.1,0.5
		c-0.6,0.4-1.1,0.8-1.6,1.3c-0.1,0,0.2-0.9,1.4-1.6c2.1-1.3,4.9-0.7,6.2,1.5c0.2,0.4,0.4,0.8,0.5,1.2c0.2,0.8,0.2,1.6-0.1,2.4
		C255.4,333.6,254.9,334.3,254.3,334.7z"/>
	<path class="st6" d="M240.8,404.1c0-0.6-39.5-48.7-52.7-67.1l2.1-5.1l64.1-6l5.5,1.7l46.8,68.9L240.8,404.1z"/>
	<path class="st9" d="M159.9,318.4c0,0,0.1-0.3,0.1-0.7c0.6-2.6,2.5-11.3,3.6-12.2c1.4-1,6.2-2.5,6.2-2.5h2.4c0,0,8.1-5.9,9.8-5.9
		s5.4,0.9,5.7,2.8c0.2,0.9,0.2,1.8,0.1,2.8c0,0,5.3-0.9,6.3,1.6c0,0,4.1,1,5,4.5s1.1,12.6,1.1,12.6s-2,2-3.5,0.9
		c-0.3,1.1-1.4,1.7-2.5,1.4c0,0-0.1,0-0.1,0c-2.3-0.7-4.1-2.6-4.5-5c-0.1-2.1-0.8-5.7-0.8-5.7l-1.2,0.8c0,0,0.3,3.1-2.6,3.3
		s-2.9-1.7-2.9-1.7l-17.3-0.1l-2.4,3L159.9,318.4z"/>
	<path class="st10" d="M187.9,301.1c0.2,2.2,0.3,4.5,0.1,6.7c0,2.2-0.1,4.5-0.4,6.7c-0.2-2.2-0.3-4.5-0.1-6.7
		C187.5,305.6,187.6,303.3,187.9,301.1z"/>
	<path class="st10" d="M193.6,303.6c0,0,0.2,0.2,0.5,0.6c0.4,0.6,0.7,1.2,1,1.8c0.9,2.1,1.4,4.4,1.7,6.6c0.3,2.3,0.3,4.6,0.2,6.9
		c0,1-0.2,1.9-0.4,2.8c0-0.9,0-1.9,0.1-2.8c0-2.3-0.1-4.5-0.4-6.8c-0.2-2.2-0.7-4.5-1.5-6.6C194.1,304.5,193.5,303.6,193.6,303.6z"
		/>
	<path class="st10" d="M178.4,307.9c0.9-1.1,1.9-2.1,3-3.1l0.5-0.4l-0.1,0.6c-0.1,0.9-0.2,2-0.2,3.2c-0.1,4.1,0.5,7.4,0.3,7.5
		c-0.3-0.7-0.5-1.4-0.5-2.1c-0.3-1.8-0.4-3.5-0.3-5.3c0-1.1,0.1-2.1,0.2-3.2l0.4,0.2C180.7,306.1,179.6,307,178.4,307.9z"/>
	<path class="st10" d="M168,309.4c0,0,0-0.1,0.1-0.3c0.2-0.2,0.4-0.4,0.7-0.4c0.5-0.1,0.9,0.1,1.2,0.4c0.4,0.5,0.6,1,0.6,1.6
		c0.1,0.6,0,1.3,0,2c0,0.7,0.2,1.4,0.6,2c0.5,0.6,1.3,0.9,2,0.6c0.8-0.2,1.4-0.8,1.5-1.6c0.2-3.6,1.1-7.1-0.4-9
		c-0.5-0.8-1.4-1.2-2.3-1.2c-0.3,0-0.7,0.1-1,0.2c0,0,0.1-0.1,0.2-0.2c0.2-0.1,0.5-0.2,0.8-0.2c1-0.1,2,0.4,2.6,1.2
		c0.8,1.2,1.2,2.7,1.1,4.2c-0.1,1.6-0.2,3.3-0.4,5.2c-0.1,0.5-0.3,1-0.6,1.4c-0.7,0.7-1.7,1-2.7,0.7c-0.4-0.1-0.8-0.4-1.1-0.8
		c-0.4-0.7-0.7-1.5-0.6-2.3c0-0.7,0.1-1.4,0-2c0-0.5-0.1-1-0.4-1.4c-0.3-0.3-0.6-0.4-1-0.4C168.5,308.9,168.2,309.1,168,309.4z"/>
	<path class="st8" d="M222.1,440.8c-3-2.3-5.7-5.1-9.3-6.6c-3.8-1.5-15.9-1.9-19.7-3.3c-7.1-2.6-5.3-9.2-1.8-17.9
		c2.8-7,6.6-13.7,12.9-17.9l-8.9-13.1c-6.7,10.7-12.4,22.1-17.1,33.9c-2.1,5.3-4,11-2.7,16.5c1.5,5.8,6.2,10.2,12.1,11.3
		c6.2,1,12.9-1.9,18.8,0.3c2.9,1,5.3,3.2,7.8,5c7.3,5.1,16.1,7.3,24.9,6.3c3.3-0.4,7.2-2,7.5-5.2
		C238.2,448.1,229.2,446.1,222.1,440.8z"/>
	<g class="st11">
		<path d="M204,432.7c-1.3-0.1-3.6-0.5-6.1-0.8c-5-0.6-8.7-2-9.5-5.9c-1.3-6.3,6-19.8,6-19.8s7.2-10.4,10-11l-7.5-8.3
			c-5.4,7.9-9.6,16.5-12.6,25.5c-1.1,3-1.8,6.2-2,9.4c-0.2,3.2,0.7,6.4,2.5,9.1c3.2,4.4,9.2,4.7,14.6,5.6c4.5,0.8,6.3,0.4,11.7,2.7
			c5.1,2.2,9.5,6.1,14.4,8.7c0,0,10.9,6.4,19.6,5.1c0,0,1.9-1.7,1.8-3.1c0,0-13.2-3-16.1-4.4s-7-3.3-10.3-6S214.9,433.2,204,432.7z"
			/>
	</g>
	<path class="st6" d="M245,453.2c-0.4,0.1-0.7,0.2-1.1,0.2c-1.1,0.1-2.1,0.1-3.2,0c-3.9-0.6-7.7-1.7-11.3-3.2
		c-2.5-1-4.9-2.3-7.1-3.9c-2.5-1.6-5.1-3.3-7.9-5c-0.7-0.4-1.4-0.9-2.1-1.2c-0.8-0.4-1.5-0.7-2.3-0.9c-1.6-0.5-3.3-0.9-5.1-1.3
		c-3.5-0.7-7.2-1.3-10.9-1.9l0,0l-1.8-0.4c-1.9-0.4-3.8-1.1-5.4-2.1c-0.8-0.5-1.5-1.2-2.1-2c-0.6-0.8-1-1.6-1.4-2.5
		c-1.3-3.4-1.5-7.1-0.6-10.6c1.3-5.9,3.2-11.6,5.8-17.1c1.7-3.7,3.7-7.2,6-10.6c0.8-1.2,1.4-2.1,1.9-2.7l0.5-0.7
		c0.1-0.1,0.1-0.2,0.2-0.2l-0.1,0.3l-0.5,0.7c-0.4,0.6-1,1.6-1.8,2.8c-2.2,3.4-4.1,7-5.8,10.7c-2.5,5.4-4.4,11.1-5.7,17
		c-0.9,3.4-0.7,7,0.6,10.3c0.3,0.8,0.8,1.6,1.3,2.4c0.6,0.7,1.2,1.4,2,1.9c1.6,1,3.4,1.7,5.3,2.1l1.8,0.4l0,0
		c3.8,0.5,7.5,1.1,11,1.9c1.8,0.4,3.5,0.8,5.1,1.3c0.8,0.3,1.6,0.6,2.4,1c0.8,0.4,1.5,0.8,2.2,1.3c2.8,1.7,5.4,3.5,7.8,5.1
		c2.2,1.5,4.6,2.9,7.1,3.9c3.6,1.6,7.3,2.7,11.2,3.4c1,0.2,2.1,0.2,3.1,0.1C244.6,453.2,245,453.1,245,453.2z"/>
	<path class="st8" d="M265.7,338.5c0,0-12.1-7.8-21.4-4.9c-10.2,3.1-20.4,10.9-21.9,28.6c-1.2,14,3.6,27.6,3.6,27.6l-31.4-25.5
		c0,0-1.7,15,2.6,22.9c1,1.9,7.3,8.2,15.9,15.5c18,15.3,44.3,36.1,44.3,36.1s47.1,28.2,56.9,29.8s61.1-20,61.1-20s9.2-19.5,8.4-25.3
		s-69.5-56.8-76.5-60.6S265.7,338.5,265.7,338.5z"/>
	<path class="st6" d="M318.5,444.5c0.1,0-0.7,1.1-1.7,3c-1.3,2.5-2.3,5.1-2.9,7.9c-0.3,1.5-0.5,3-0.6,4.6c0,1.3,0,2.5,0.1,3.8
		c0.2,2.1,0.6,3.4,0.5,3.5c-0.2-0.3-0.3-0.6-0.3-0.9c-0.2-0.8-0.4-1.7-0.5-2.5c-0.2-1.3-0.3-2.5-0.2-3.8c0-1.6,0.2-3.1,0.5-4.7
		c0.6-2.8,1.6-5.5,3-7.9c0.4-0.7,0.9-1.5,1.4-2.1C318.3,444.7,318.5,444.5,318.5,444.5z"/>
	<path class="st6" d="M257.3,418.4c-0.5-0.3-0.9-0.6-1.4-1c-0.9-0.6-2.1-1.6-3.6-2.8c-3-2.4-7-5.9-11.2-10s-8-7.7-10.8-10.4
		l-3.2-3.2c-0.4-0.4-0.8-0.8-1.1-1.2c0.5,0.3,0.9,0.7,1.3,1.1c0.8,0.7,1.9,1.8,3.4,3.1l10.9,10.3c4.3,4,8.2,7.5,11.1,10l3.5,3
		C256.5,417.6,256.9,418,257.3,418.4z"/>
	<path class="st6" d="M269.6,404.7c-0.3,0.3-0.6,0.7-1,0.9c-0.3,0.3-0.7,0.6-1.2,1.1s-1,0.9-1.5,1.5c-2.9,2.9-5.6,6-8,9.4
		c-2.4,3.4-4.3,7-5.8,10.8c-1.1,3-1.5,4.9-1.6,4.9c0-0.5,0.1-0.9,0.2-1.4c0.1-0.5,0.2-1.1,0.4-1.6c0.2-0.7,0.4-1.3,0.6-2
		c1.4-3.9,3.3-7.6,5.7-11c2.4-3.4,5.1-6.5,8.1-9.3c0.6-0.5,1.1-1,1.6-1.4s0.9-0.8,1.3-1C268.9,405.2,269.2,404.9,269.6,404.7z"/>
	<path class="st6" d="M381.8,422.2c0,0.1-14.1,5.2-31.6,11.4s-31.7,11-31.8,10.9s14.1-5.2,31.6-11.4S381.8,422.1,381.8,422.2z"/>
	<path class="st6" d="M312.7,371.3c-0.1-0.1-0.3-0.1-0.4-0.2l-1.1-0.6l-4.2-2.5l-15.4-9.4l-5.1-3.1c-1.8-1.1-3.6-2.2-5.5-3.5
		c-3.7-2.5-7.6-5.3-11.8-7.9c-4.4-2.9-9.3-4.8-14.4-5.7c-2.7-0.4-5.5-0.3-8.2,0.3c-2.8,0.7-5.3,1.9-7.6,3.6
		c-4.4,3.5-7.5,8.4-8.8,13.9c-1.2,5.1-0.9,10.4,0.7,15.4c1.4,4.5,3.6,8.8,6.4,12.6c1.3,1.8,2.7,3.4,4.1,5s2.7,3,4,4.4
		c5.1,5.6,9.6,9.9,12.7,12.7c1.6,1.4,2.8,2.5,3.7,3.2l1,0.8c0.1,0.1,0.2,0.2,0.3,0.3c-0.1-0.1-0.2-0.2-0.4-0.2l-1-0.8
		c-0.9-0.7-2.1-1.8-3.7-3.1c-3.2-2.8-7.7-7-12.9-12.6c-1.3-1.4-2.6-2.9-4-4.4c-1.5-1.6-2.9-3.3-4.1-5c-2.9-3.8-5.1-8.1-6.5-12.7
		c-1.6-5.1-1.9-10.5-0.7-15.7c1.3-5.6,4.5-10.6,8.9-14.2c2.3-1.8,5-3,7.8-3.7c2.8-0.6,5.6-0.7,8.4-0.3c5.2,0.9,10.2,2.8,14.6,5.8
		c4.3,2.7,8.1,5.5,11.8,8c1.9,1.3,3.7,2.4,5.5,3.5l5.1,3.1l15.3,9.5l4.1,2.6l1.1,0.7L312.7,371.3z"/>
	<path class="st6" d="M312.7,366.4c-0.2-0.1-0.5-0.3-0.7-0.4l-2-1.2c-1.7-1.1-4.2-2.6-7.3-4.5c-6.2-3.8-15-8.7-24.5-14.4
		c-2.4-1.4-4.7-2.9-6.9-4.2s-4.5-2.6-6.6-3.6s-4.2-2.1-6.2-2.9c-1.8-0.8-3.7-1.4-5.6-1.7c-2.8-0.5-5.7-0.4-8.5,0.3
		c-1,0.3-2,0.7-3,1.1c0.9-0.6,1.9-1,2.9-1.3c2.8-0.8,5.7-1,8.6-0.5c2,0.3,3.9,0.9,5.7,1.7c2,0.8,4.1,1.8,6.2,2.9s4.4,2.3,6.6,3.6
		l6.9,4.2c9.5,5.7,18.3,10.7,24.4,14.5c3.1,1.9,5.6,3.5,7.2,4.7c0.9,0.6,1.5,1,1.9,1.3C312.3,366.1,312.5,366.2,312.7,366.4z"/>
	<path class="st9" d="M277.4,335.4l-15.5,6c0,0-0.7,1.5,1.6,3s6.1,0.5,6.1,0.5l-3,11.5c0,0,0,3.1,3,3.1c1.7,0.1,3.3-0.7,4.3-2
		c-0.3,2.1,0.7,4.1,2.5,5.1c1.2,0.8,2.9,0.6,3.7-0.7c0.2-0.3,0.3-0.6,0.4-0.9c0,0,2,2.3,3.4,2.1s8-9.9,8-9.9l2.3,1.3l4.7,2.7
		c1.1-2.5,1.7-5.3,1.5-8c-0.4-4.2-4.3-8.4-8.9-7.7c0,0-3.3-3.1-5.8-3.5s-3.5,0.7-3.5,0.7C281.5,336.7,279.6,335.4,277.4,335.4z"/>
	<path class="st10" d="M284,363.1h-0.3c-0.3,0-0.5-0.1-0.8-0.2c-0.9-0.5-1.7-1.1-2.4-1.9h0.2c-0.2,0.7-0.7,1.4-1.3,1.8
		c-0.8,0.5-1.8,0.5-2.6,0c-1-0.4-1.8-1.1-2.4-2c-0.6-1-0.8-2.2-0.7-3.4l0.3,0.1c-1,1.3-2.5,2.1-4.2,2.1c-0.9,0.1-1.8-0.2-2.5-0.8
		c-0.7-0.7-1.1-1.6-1.1-2.5v-0.1c0.9-3.5,1.9-7.4,3-11.5l0.3,0.3c-1.6,0.4-3.4,0.4-5,0c-0.8-0.2-1.6-0.7-2.2-1.3
		c-0.8-0.6-1.1-1.6-0.8-2.6v-0.1h0.1l3.6-1.4l12-4.6h0h0c1.1,0,2.2,0.3,3.2,1c0.9,0.6,1.6,1.5,2,2.5l-0.4-0.1
		c0.8-0.6,1.8-0.9,2.8-0.8c0.5,0,0.9,0.1,1.4,0.2c0.4,0.1,0.9,0.3,1.3,0.5c1.5,0.8,2.9,1.8,4.1,2.9l-0.2-0.1
		c1.6-0.2,3.2,0.1,4.6,0.9c1.2,0.7,2.2,1.7,3,2.9c0.7,1,1.1,2.2,1.4,3.4c0.2,1,0.2,2.1,0.1,3.1c-0.2,1.4-0.5,2.8-1,4.2
		c-0.2,0.5-0.3,0.8-0.4,1c0,0.1-0.1,0.2-0.2,0.3c0-0.1,0.1-0.2,0.1-0.4c0.1-0.2,0.2-0.6,0.4-1.1c0.4-1.3,0.7-2.7,0.9-4.1
		c0.1-1,0-2-0.1-3c-0.5-2.5-2-4.7-4.3-6c-1.3-0.8-2.8-1.1-4.3-0.9h-0.1l-0.1-0.1c-1.2-1.1-2.6-2.1-4-2.9c-0.8-0.4-1.6-0.6-2.5-0.6
		c-0.9-0.1-1.7,0.2-2.4,0.7l-0.3,0.2l-0.1-0.3c-0.4-0.9-1-1.7-1.8-2.3c-0.8-0.6-1.9-0.9-2.9-0.9h0.1l-12,4.6l-3.4,1.4l0.1-0.1
		c-0.2,0.7,0.1,1.5,0.7,2c0.6,0.6,1.2,1,2,1.2c1.5,0.4,3.1,0.4,4.7,0l0.4-0.1l-0.1,0.4c-1.1,4.1-2.1,8-3.1,11.5v-0.1
		c0,0.8,0.3,1.6,0.9,2.2c0.6,0.5,1.4,0.7,2.2,0.7c1.5,0,2.9-0.7,3.9-1.9l0.4-0.6l-0.1,0.7c-0.2,1.1,0,2.2,0.6,3.2
		c0.5,0.8,1.3,1.5,2.2,1.9c0.7,0.4,1.7,0.4,2.4,0c0.6-0.4,1-1,1.2-1.7l0.1-0.2l0.1,0.1c0.6,0.8,1.4,1.4,2.3,1.9
		C283.3,363,283.6,363.1,284,363.1z"/>
	<path class="st10" d="M281,340c-2.1,0.9-4.2,1.7-6.4,2.3l-2.5,0.8c-0.7,0.1-1.3,0.4-1.9,0.9c-0.3,0.4-0.5,0.8-0.6,1.2
		c-0.1,0.3-0.2,0.5-0.2,0.5s0-0.2,0-0.5c0.1-0.5,0.2-1,0.5-1.5c0.6-0.5,1.2-0.9,2-1.1l2.5-0.8C276.6,341.1,278.8,340.5,281,340z"/>
	<path class="st10" d="M285.3,343.9c-0.9,0.3-1.8,0.6-2.8,0.8c-1,0.3-1.9,0.6-2.8,1.1c-1.1,0.6-2,1.4-2.7,2.4
		c-0.3,0.5-0.5,1.1-0.7,1.8l-0.5,1.8c-0.3,1.1-0.6,2.1-0.8,3c-0.2,0.9-0.6,1.8-1,2.7c0.2-0.9,0.4-1.9,0.7-2.8c0.2-0.9,0.5-1.9,0.7-3
		c0.1-0.6,0.3-1.2,0.4-1.8c0.1-0.7,0.4-1.3,0.7-1.9c0.7-1.1,1.7-2,2.9-2.6c1-0.5,2-0.8,3-1.1C283.4,344.1,284.4,343.9,285.3,343.9z"
		/>
	<path class="st10" d="M290,347.8c0,0.1-1,0.3-2.5,0.7c-0.9,0.3-1.7,0.7-2.5,1.2c-0.9,0.7-1.6,1.6-2,2.7c-0.9,2.2-1.1,4.5-1.5,6.1
		c-0.2,0.9-0.5,1.7-1,2.4c-0.1,0,0.4-0.9,0.7-2.5c0.2-0.8,0.3-1.7,0.5-2.8c0.2-1.2,0.5-2.3,0.9-3.4c0.4-1.1,1.2-2.1,2.1-2.9
		c0.8-0.6,1.7-1,2.6-1.2C288.2,347.9,289.1,347.8,290,347.8z"/>
	<path class="st1" d="M327.8,372.8c-3.5-2.6-8.3-4.2-12.8-2.5c-10.3,3.9-32.3,17.2-41,23.6c-2.5,1.8-4.3,4.5-5,7.5l-0.6,2.3
		c0,0,45.9,32.9,52,33.4s53.4-20.1,53.4-20.1s2.9-7.3-1.6-11.1C353.2,389.7,340.9,382.7,327.8,372.8z"/>
	<path class="st6" d="M319.4,427c-0.1,0.5-0.2,1.1-0.4,1.6c-0.4,1.2-0.6,2.5-0.6,3.8c0,1.3,0.4,2.5,1,3.6c0.3,0.4,0.6,0.9,0.9,1.4
		c0,0-0.5-0.3-1.2-1.2c-0.8-1.1-1.2-2.4-1.2-3.8c0-1.3,0.3-2.6,0.8-3.9C318.8,427.9,319.1,427.4,319.4,427z"/>
	<path class="st6" d="M319.4,427c0.2-0.1,0.3-0.2,0.5-0.2l1.5-0.6l5.6-2c4.8-1.7,11.3-4.2,18.5-7l18.4-7.1l5.6-2.1l1.5-0.6
		c0.2-0.1,0.4-0.1,0.5-0.2c-0.2,0.1-0.3,0.2-0.5,0.3l-1.5,0.6l-5.5,2.3c-4.7,1.9-11.2,4.5-18.4,7.3s-13.8,5.2-18.6,6.8
		c-2.4,0.8-4.3,1.5-5.7,1.9l-1.6,0.5C319.8,426.9,319.6,427,319.4,427z"/>
	<path class="st6" d="M318.6,427c-0.2,0-0.4-0.1-0.6-0.1c-0.4-0.1-0.9-0.3-1.5-0.6c-1.9-0.8-3.7-1.6-5.5-2.6
		c-4.5-2.4-10.5-6.2-17-10.5s-12.6-7.8-16.9-10.7c-2.1-1.5-3.7-2.7-4.8-3.7c-0.6-0.5-1-0.8-1.2-1.1s-0.4-0.4-0.4-0.4
		s0.2,0.1,0.5,0.3l1.3,1c1.1,0.9,2.8,2.1,4.9,3.5c4.2,2.8,10.4,6.2,16.9,10.5s12.4,8.2,16.9,10.6c2.2,1.2,4.1,2.1,5.4,2.7
		S318.6,427,318.6,427z"/>
	<path class="st8" d="M289.4,399.1c-0.4-0.5-0.9-0.9-1.4-1.2l-3.8-2.6l-1.4,1c1,1.5,2.1,2.9,3.4,4.1c0.4,0.5,1,0.8,1.6,1
		c0.6,0.2,1.3,0,1.7-0.5C289.8,400.3,289.8,399.6,289.4,399.1z"/>
	<path class="st6" d="M326.7,372.1c-0.2,0.1-0.3,0.2-0.5,0.3l-1.5,0.8L319,376c-4.8,2.4-11.4,5.6-18.5,9.6c-3.5,2-6.9,4-9.9,5.8
		s-5.6,3.6-7.8,5.1c-1.1,0.8-2.1,1.5-2.9,2.1s-1.6,1.1-2.2,1.6l-1.4,1c-0.3,0.2-0.5,0.3-0.5,0.3c0.1-0.2,0.3-0.3,0.4-0.4l1.3-1.1
		c0.6-0.5,1.3-1,2.1-1.7s1.8-1.4,2.9-2.1c2.2-1.6,4.8-3.3,7.8-5.2s6.3-3.9,9.9-5.9c7.1-3.9,13.8-7.2,18.6-9.5c2.4-1.1,4.4-2,5.8-2.6
		l1.6-0.7C326.3,372.2,326.5,372.2,326.7,372.1z"/>
	<path class="st6" d="M316,444.8c-0.2,0-0.4,0-0.6,0c-0.6,0-1.2-0.1-1.8-0.2c-2.1-0.4-4.2-1.1-6.2-2c-2.9-1.4-5.7-3.1-8.2-5.1
		c-2.9-2.2-6-4.7-9.4-7.2c-3.2-2.2-6.6-4.2-10.1-6c-2.9-1.5-5.6-3.3-8.1-5.3c-1.7-1.4-3.2-3-4.4-4.8c-0.3-0.5-0.7-1-0.9-1.5
		c-0.1-0.2-0.2-0.4-0.2-0.6c0,0,0.4,0.7,1.3,2c1.3,1.7,2.8,3.3,4.5,4.6c2.5,1.9,5.2,3.7,8.1,5.1c3.5,1.8,6.9,3.8,10.2,6
		c3.4,2.4,6.4,5,9.3,7.2c2.5,2,5.2,3.7,8.1,5.1c1.9,1,4,1.7,6.1,2.1C315.2,444.6,316,444.7,316,444.8z"/>
	<path class="st6" d="M211.9,401.8c-0.3-0.2-0.6-0.4-0.9-0.6l-2.3-1.8c-2.5-2-5-4.1-7.3-6.4c-2.4-2.2-4.3-4.9-5.6-7.9
		c-0.2-0.5-0.4-1.1-0.5-1.6c-0.1-0.4-0.2-0.8-0.2-1.2c0-0.4,0-0.7,0-1.1c0.3,1.3,0.6,2.6,1.1,3.8c1.4,2.9,3.3,5.5,5.6,7.7
		c2.6,2.7,5.3,4.8,7.1,6.5c0.9,0.8,1.7,1.5,2.2,2C211.5,401.3,211.7,401.5,211.9,401.8z"/>
	<path class="st8" d="M326.2,391.4c-0.6-0.5-1.4-0.7-2.1-0.6c-0.8,0-1.5,1.3-1.6,2.1c-0.1,1.4,0.2,2.7,0.8,4c-1-0.7-2-1.2-3.2-1.5
		c-0.9-0.3-2-0.4-3-0.2c-1,0.2-1.8,1-2,2c-0.1,1,0.3,2,1.1,2.7c0.8,0.6,1.7,1.1,2.7,1.4c4.6,1.7,9.2,3.2,13.8,4.7
		C332,400.5,330.1,395.4,326.2,391.4z"/>
	<path class="st6" d="M240.1,448.5c0,0,19.2,2.7,23.6,0c4.1-2.5,4.4-3.4,4.4-3.4l4.4,2.5c-2.5,3-6.1,5.1-10,5.7
		c-10,1.6-23.7-0.6-23.7-0.6L240.1,448.5z"/>
	<path class="st6" d="M255.6,452.1c0,0,0.1,0.2,0.2,0.7c0,0.3,0,0.6-0.1,0.9c-0.1,0.4-0.4,0.8-0.8,1c-0.4,0.2-0.9,0.4-1.4,0.5
		c-0.5,0.2-1.1,0.2-1.7,0c-0.3-0.1-0.6-0.3-0.8-0.6c-0.2-0.3-0.3-0.6-0.3-1c0-0.6,0-1.2,0-1.9c0-0.6,0-1.3,0.2-1.9
		c0.2-0.6,0.8-1.1,1.4-1.3c0.6-0.1,1.1-0.1,1.7,0c0.3,0.1,0.5,0.2,0.7,0.3c0.2,0.1,0.4,0.3,0.5,0.5c0.1,0.4,0.2,0.8,0.2,1.2
		c0,0.3,0.1,0.6,0.1,0.9C255.6,451.6,255.6,451.9,255.6,452.1c0,0-0.1-0.2-0.2-0.7c-0.1-0.3-0.1-0.5-0.2-0.8c0-0.3-0.1-0.7-0.3-1
		c-0.2-0.3-0.6-0.6-1-0.6c-0.5-0.1-1-0.1-1.4,0c-0.5,0.1-0.9,0.5-1.1,1c-0.1,0.6-0.2,1.2-0.1,1.8c0.1,1.2-0.3,2.7,0.8,3
		c0.5,0.2,1,0.2,1.4,0.1c0.4,0,0.9-0.2,1.2-0.4c0.5-0.3,0.9-0.9,0.8-1.5C255.5,452.6,255.5,452.3,255.6,452.1z"/>
	<g class="st11">
		<path d="M369.3,438.6c-0.8-0.4-1.6-0.5-2.5-0.3c-14.2,2.1-33.2,6.9-40.1,15.7c11.9-6.2,25-10,38.4-10.9c1.4,0,2.7-0.3,3.9-1
			C370,441.3,370.4,439.5,369.3,438.6z"/>
	</g>
</g>
</svg>
