<svg width="642" height="484" viewBox="0 0 642 484" fill="none" xmlns="http://www.w3.org/2000/svg">
<path d="M218.477 114.895C218.155 114.894 217.837 114.822 217.545 114.686C217.254 114.549 216.995 114.35 216.788 114.104C216.58 113.857 216.429 113.568 216.345 113.257C216.261 112.946 216.245 112.62 216.3 112.303L217.035 108.068C217.056 107.928 217.044 107.785 216.999 107.65C216.955 107.516 216.88 107.393 216.781 107.293L213.694 104.287C213.398 103.999 213.187 103.634 213.088 103.233C212.988 102.832 213.004 102.411 213.132 102.019C213.26 101.626 213.496 101.277 213.813 101.012C214.129 100.747 214.514 100.576 214.924 100.519L219.186 99.9044C219.325 99.8815 219.457 99.826 219.571 99.7424C219.684 99.6588 219.777 99.5495 219.84 99.4234L221.737 95.5623C221.917 95.1829 222.201 94.8624 222.556 94.638C222.911 94.4136 223.322 94.2944 223.741 94.2944C224.161 94.2944 224.572 94.4136 224.927 94.638C225.282 94.8624 225.566 95.1829 225.746 95.5623L227.643 99.4234C227.707 99.5512 227.802 99.6615 227.918 99.7452C228.034 99.8289 228.169 99.8835 228.311 99.9044L232.559 100.559C232.969 100.616 233.354 100.787 233.67 101.052C233.987 101.317 234.223 101.666 234.351 102.059C234.479 102.452 234.495 102.872 234.395 103.273C234.296 103.674 234.085 104.039 233.788 104.327L230.662 107.239C230.562 107.339 230.488 107.462 230.446 107.597C230.404 107.732 230.396 107.875 230.422 108.014L231.143 112.249C231.214 112.656 231.169 113.074 231.014 113.457C230.859 113.839 230.599 114.17 230.265 114.412C229.931 114.655 229.536 114.798 229.124 114.827C228.712 114.855 228.301 114.768 227.937 114.574L224.129 112.57C224.004 112.501 223.864 112.465 223.721 112.465C223.579 112.465 223.439 112.501 223.314 112.57L219.506 114.561C219.197 114.756 218.843 114.871 218.477 114.895V114.895ZM223.728 95.6691C223.564 95.6638 223.402 95.7064 223.262 95.7919C223.122 95.8773 223.01 96.0018 222.94 96.1501L221.029 100.011C220.873 100.333 220.64 100.612 220.351 100.824C220.063 101.036 219.727 101.174 219.373 101.227L215.111 101.842C214.95 101.865 214.799 101.932 214.675 102.037C214.551 102.142 214.458 102.279 214.408 102.433C214.358 102.588 214.352 102.753 214.391 102.911C214.431 103.068 214.513 103.212 214.63 103.325L217.716 106.331C217.972 106.583 218.163 106.893 218.272 107.235C218.381 107.577 218.406 107.941 218.344 108.295L217.622 112.53C217.594 112.69 217.611 112.854 217.671 113.004C217.732 113.155 217.833 113.286 217.964 113.381C218.094 113.477 218.249 113.535 218.411 113.547C218.573 113.56 218.734 113.527 218.878 113.452L222.699 111.448C223.015 111.283 223.365 111.197 223.721 111.197C224.077 111.197 224.428 111.283 224.743 111.448L228.565 113.452C228.706 113.541 228.869 113.588 229.036 113.587C229.203 113.585 229.366 113.536 229.506 113.444C229.646 113.353 229.756 113.223 229.823 113.07C229.891 112.917 229.913 112.748 229.887 112.583L229.166 108.348C229.107 107.994 229.133 107.632 229.242 107.29C229.352 106.949 229.541 106.638 229.794 106.384L232.88 103.378C233 103.266 233.085 103.122 233.125 102.964C233.165 102.805 233.159 102.638 233.107 102.483C233.056 102.328 232.963 102.191 232.837 102.087C232.712 101.984 232.56 101.917 232.399 101.895L228.137 101.281C227.783 101.228 227.447 101.089 227.158 100.877C226.87 100.666 226.637 100.387 226.48 100.065L224.543 96.1501C224.471 95.9975 224.355 95.87 224.21 95.7842C224.064 95.6985 223.897 95.6584 223.728 95.6691V95.6691Z" fill="#EDEDED"/>
<path opacity="0.5" d="M218.477 114.895C218.155 114.894 217.837 114.822 217.545 114.686C217.254 114.549 216.995 114.35 216.788 114.104C216.58 113.857 216.429 113.568 216.345 113.257C216.261 112.946 216.245 112.62 216.3 112.303L217.035 108.068C217.056 107.928 217.044 107.785 216.999 107.65C216.955 107.516 216.88 107.393 216.781 107.293L213.694 104.287C213.398 103.999 213.187 103.634 213.088 103.233C212.988 102.832 213.004 102.411 213.132 102.019C213.26 101.626 213.496 101.277 213.813 101.012C214.129 100.747 214.514 100.576 214.924 100.519L219.186 99.9044C219.325 99.8815 219.457 99.826 219.571 99.7424C219.684 99.6588 219.777 99.5495 219.84 99.4234L221.737 95.5623C221.917 95.1829 222.201 94.8624 222.556 94.638C222.911 94.4136 223.322 94.2944 223.741 94.2944C224.161 94.2944 224.572 94.4136 224.927 94.638C225.282 94.8624 225.566 95.1829 225.746 95.5623L227.643 99.4234C227.707 99.5512 227.802 99.6615 227.918 99.7452C228.034 99.8289 228.169 99.8835 228.311 99.9044L232.559 100.559C232.969 100.616 233.354 100.787 233.67 101.052C233.987 101.317 234.223 101.666 234.351 102.059C234.479 102.452 234.495 102.872 234.395 103.273C234.296 103.674 234.085 104.039 233.788 104.327L230.662 107.239C230.562 107.339 230.488 107.462 230.446 107.597C230.404 107.732 230.396 107.875 230.422 108.014L231.143 112.249C231.214 112.656 231.169 113.074 231.014 113.457C230.859 113.839 230.599 114.17 230.265 114.412C229.931 114.655 229.536 114.798 229.124 114.827C228.712 114.855 228.301 114.768 227.937 114.574L224.129 112.57C224.004 112.501 223.864 112.465 223.721 112.465C223.579 112.465 223.439 112.501 223.314 112.57L219.506 114.561C219.197 114.756 218.843 114.871 218.477 114.895V114.895ZM223.728 95.6691C223.564 95.6638 223.402 95.7064 223.262 95.7919C223.122 95.8773 223.01 96.0018 222.94 96.1501L221.029 100.011C220.873 100.333 220.64 100.612 220.351 100.824C220.063 101.036 219.727 101.174 219.373 101.227L215.111 101.842C214.95 101.865 214.799 101.932 214.675 102.037C214.551 102.142 214.458 102.279 214.408 102.433C214.358 102.588 214.352 102.753 214.391 102.911C214.431 103.068 214.513 103.212 214.63 103.325L217.716 106.331C217.972 106.583 218.163 106.893 218.272 107.235C218.381 107.577 218.406 107.941 218.344 108.295L217.622 112.53C217.594 112.69 217.611 112.854 217.671 113.004C217.732 113.155 217.833 113.286 217.964 113.381C218.094 113.477 218.249 113.535 218.411 113.547C218.573 113.56 218.734 113.527 218.878 113.452L222.699 111.448C223.015 111.283 223.365 111.197 223.721 111.197C224.077 111.197 224.428 111.283 224.743 111.448L228.565 113.452C228.706 113.541 228.869 113.588 229.036 113.587C229.203 113.585 229.366 113.536 229.506 113.444C229.646 113.353 229.756 113.223 229.823 113.07C229.891 112.917 229.913 112.748 229.887 112.583L229.166 108.348C229.107 107.994 229.133 107.632 229.242 107.29C229.352 106.949 229.541 106.638 229.794 106.384L232.88 103.378C233 103.266 233.085 103.122 233.125 102.964C233.165 102.805 233.159 102.638 233.107 102.483C233.056 102.328 232.963 102.191 232.837 102.087C232.712 101.984 232.56 101.917 232.399 101.895L228.137 101.281C227.783 101.228 227.447 101.089 227.158 100.877C226.87 100.666 226.637 100.387 226.48 100.065L224.543 96.1501C224.471 95.9975 224.355 95.87 224.21 95.7842C224.064 95.6985 223.897 95.6584 223.728 95.6691V95.6691Z" fill="white"/>
<path d="M294.886 75.8289L295.273 84.0723C295.288 84.5451 295.417 85.0072 295.65 85.4191C295.883 85.8309 296.212 86.1802 296.609 86.437L303.61 90.7925C304.076 91.0843 304.451 91.5004 304.694 91.9939C304.936 92.4875 305.036 93.0389 304.982 93.5861C304.927 94.1333 304.722 94.6544 304.387 95.0909C304.053 95.5274 303.603 95.8618 303.089 96.0565L295.38 98.9691C294.933 99.135 294.533 99.4082 294.217 99.7646C293.9 100.121 293.675 100.55 293.563 101.013L291.586 109.029C291.455 109.565 291.177 110.053 290.783 110.439C290.39 110.824 289.896 111.092 289.358 111.212C288.82 111.331 288.259 111.298 287.739 111.115C287.219 110.933 286.76 110.608 286.415 110.178L281.258 103.739C280.963 103.362 280.579 103.065 280.14 102.874C279.702 102.683 279.223 102.603 278.746 102.643L270.53 103.231C269.983 103.268 269.436 103.151 268.951 102.895C268.467 102.638 268.063 102.252 267.786 101.779C267.508 101.306 267.368 100.765 267.381 100.217C267.394 99.6686 267.559 99.1348 267.858 98.6752L272.387 91.7812C272.642 91.3899 272.8 90.9429 272.847 90.4778C272.893 90.0127 272.827 89.5433 272.654 89.1091L269.554 81.467C269.336 80.9559 269.265 80.3933 269.352 79.8442C269.439 79.295 269.679 78.7815 270.045 78.3627C270.41 77.944 270.887 77.637 271.42 77.4771C271.952 77.3172 272.519 77.3108 273.055 77.4589L281.004 79.6366C281.464 79.7615 281.947 79.7732 282.412 79.6709C282.878 79.5685 283.311 79.355 283.676 79.0488L289.982 73.7046C290.403 73.3341 290.92 73.0909 291.474 73.0035C292.027 72.916 292.594 72.9879 293.108 73.2106C293.622 73.4334 294.063 73.7979 294.377 74.2615C294.692 74.7252 294.868 75.2688 294.886 75.8289V75.8289Z" fill="#EDEDED"/>
<path opacity="0.2" d="M294.886 75.8289L295.273 84.0723C295.288 84.5451 295.417 85.0072 295.65 85.4191C295.883 85.8309 296.212 86.1802 296.609 86.437L303.61 90.7925C304.076 91.0843 304.451 91.5004 304.694 91.9939C304.936 92.4875 305.036 93.0389 304.982 93.5861C304.927 94.1333 304.722 94.6544 304.387 95.0909C304.053 95.5274 303.603 95.8618 303.089 96.0565L295.38 98.9691C294.933 99.135 294.533 99.4082 294.217 99.7646C293.9 100.121 293.675 100.55 293.563 101.013L291.586 109.029C291.455 109.565 291.177 110.053 290.783 110.439C290.39 110.824 289.896 111.092 289.358 111.212C288.82 111.331 288.259 111.298 287.739 111.115C287.219 110.933 286.76 110.608 286.415 110.178L281.258 103.739C280.963 103.362 280.579 103.065 280.14 102.874C279.702 102.683 279.223 102.603 278.746 102.643L270.53 103.231C269.983 103.268 269.436 103.151 268.951 102.895C268.467 102.638 268.063 102.252 267.786 101.779C267.508 101.306 267.368 100.765 267.381 100.217C267.394 99.6686 267.559 99.1348 267.858 98.6752L272.387 91.7812C272.642 91.3899 272.8 90.9429 272.847 90.4778C272.893 90.0127 272.827 89.5433 272.654 89.1091L269.554 81.467C269.336 80.9559 269.265 80.3933 269.352 79.8442C269.439 79.295 269.679 78.7815 270.045 78.3627C270.41 77.944 270.887 77.637 271.42 77.4771C271.952 77.3172 272.519 77.3108 273.055 77.4589L281.004 79.6366C281.464 79.7615 281.947 79.7732 282.412 79.6709C282.878 79.5685 283.311 79.355 283.676 79.0488L289.982 73.7046C290.403 73.3341 290.92 73.0909 291.474 73.0035C292.027 72.916 292.594 72.9879 293.108 73.2106C293.622 73.4334 294.063 73.7979 294.377 74.2615C294.692 74.7252 294.868 75.2688 294.886 75.8289V75.8289Z" fill="black"/>
<path d="M465.204 217.97C464.709 217.964 464.221 217.857 463.768 217.657C463.316 217.456 462.909 217.166 462.572 216.804C462.235 216.442 461.974 216.015 461.807 215.55C461.639 215.084 461.568 214.59 461.597 214.096L462.158 205.866C462.183 205.498 462.119 205.129 461.97 204.791C461.821 204.454 461.592 204.158 461.303 203.928L454.85 198.798C454.321 198.38 453.919 197.823 453.689 197.189C453.46 196.556 453.412 195.87 453.551 195.211C453.69 194.551 454.01 193.944 454.475 193.456C454.941 192.969 455.533 192.621 456.186 192.452L464.202 190.448C464.562 190.362 464.895 190.188 465.17 189.94C465.446 189.693 465.655 189.38 465.778 189.032L468.664 181.309C468.902 180.678 469.31 180.126 469.844 179.715C470.379 179.303 471.017 179.049 471.688 178.981C472.359 178.913 473.035 179.034 473.641 179.33C474.247 179.625 474.758 180.084 475.117 180.655L479.5 187.642C479.694 187.956 479.962 188.218 480.281 188.405C480.601 188.591 480.961 188.696 481.33 188.711L489.573 189.072C490.251 189.093 490.909 189.304 491.473 189.681C492.036 190.058 492.483 190.585 492.761 191.204C493.04 191.822 493.139 192.506 493.048 193.177C492.956 193.849 492.678 194.482 492.245 195.004L486.901 201.323C486.65 201.607 486.474 201.948 486.388 202.316C486.301 202.685 486.308 203.069 486.407 203.434L488.611 211.384C488.795 212.033 488.792 212.72 488.603 213.367C488.413 214.015 488.046 214.596 487.542 215.044C487.039 215.495 486.419 215.796 485.754 215.914C485.088 216.032 484.403 215.962 483.775 215.712L476.133 212.626C475.79 212.488 475.419 212.436 475.051 212.473C474.683 212.51 474.33 212.636 474.022 212.84L467.155 217.396C466.571 217.767 465.895 217.966 465.204 217.97ZM472.085 180.294H471.844C471.418 180.33 471.012 180.488 470.673 180.749C470.335 181.009 470.078 181.361 469.934 181.764L467.048 189.486C466.846 190.038 466.512 190.532 466.073 190.923C465.635 191.315 465.107 191.592 464.536 191.73L456.52 193.734C456.105 193.837 455.728 194.054 455.431 194.361C455.133 194.667 454.928 195.051 454.837 195.468C454.747 195.885 454.775 196.32 454.919 196.722C455.063 197.124 455.317 197.477 455.651 197.743L462.104 202.873C462.56 203.238 462.92 203.709 463.152 204.244C463.385 204.78 463.484 205.364 463.44 205.946L462.879 214.176C462.844 214.6 462.931 215.026 463.13 215.402C463.329 215.778 463.631 216.09 464.001 216.3C464.362 216.525 464.779 216.645 465.204 216.645C465.629 216.645 466.046 216.525 466.406 216.3L473.287 211.744C473.774 211.421 474.333 211.22 474.914 211.16C475.496 211.099 476.084 211.181 476.627 211.397L484.283 214.483C484.672 214.634 485.095 214.676 485.507 214.603C485.918 214.53 486.302 214.346 486.616 214.071C486.93 213.795 487.163 213.439 487.288 213.041C487.414 212.642 487.428 212.217 487.329 211.811L485.124 203.862C484.967 203.297 484.949 202.703 485.072 202.131C485.195 201.558 485.456 201.024 485.832 200.575L491.177 194.255C491.447 193.927 491.62 193.53 491.678 193.108C491.736 192.687 491.676 192.258 491.504 191.868C491.332 191.479 491.056 191.145 490.705 190.904C490.355 190.663 489.945 190.523 489.52 190.501L481.29 190.154C480.703 190.127 480.132 189.959 479.625 189.664C479.118 189.368 478.69 188.954 478.377 188.457L474.008 181.47C473.82 181.121 473.543 180.829 473.205 180.623C472.867 180.416 472.48 180.303 472.085 180.294Z" fill="#EDEDED"/>
<path opacity="0.5" d="M465.204 217.97C464.709 217.964 464.221 217.857 463.768 217.657C463.316 217.456 462.909 217.166 462.572 216.804C462.235 216.442 461.974 216.015 461.807 215.55C461.639 215.084 461.568 214.59 461.597 214.096L462.158 205.866C462.183 205.498 462.119 205.129 461.97 204.791C461.821 204.454 461.592 204.158 461.303 203.928L454.85 198.798C454.321 198.38 453.919 197.823 453.689 197.189C453.46 196.556 453.412 195.87 453.551 195.211C453.69 194.551 454.01 193.944 454.475 193.456C454.941 192.969 455.533 192.621 456.186 192.452L464.202 190.448C464.562 190.362 464.895 190.188 465.17 189.94C465.446 189.693 465.655 189.38 465.778 189.032L468.664 181.309C468.902 180.678 469.31 180.126 469.844 179.715C470.379 179.303 471.017 179.049 471.688 178.981C472.359 178.913 473.035 179.034 473.641 179.33C474.247 179.625 474.758 180.084 475.117 180.655L479.5 187.642C479.694 187.956 479.962 188.218 480.281 188.405C480.601 188.591 480.961 188.696 481.33 188.711L489.573 189.072C490.251 189.093 490.909 189.304 491.473 189.681C492.036 190.058 492.483 190.585 492.761 191.204C493.04 191.822 493.139 192.506 493.048 193.177C492.956 193.849 492.678 194.482 492.245 195.004L486.901 201.323C486.65 201.607 486.474 201.948 486.388 202.316C486.301 202.685 486.308 203.069 486.407 203.434L488.611 211.384C488.795 212.033 488.792 212.72 488.603 213.367C488.413 214.015 488.046 214.596 487.542 215.044C487.039 215.495 486.419 215.796 485.754 215.914C485.088 216.032 484.403 215.962 483.775 215.712L476.133 212.626C475.79 212.488 475.419 212.436 475.051 212.473C474.683 212.51 474.33 212.636 474.022 212.84L467.155 217.396C466.571 217.767 465.895 217.966 465.204 217.97ZM472.085 180.294H471.844C471.418 180.33 471.012 180.488 470.673 180.749C470.335 181.009 470.078 181.361 469.934 181.764L467.048 189.486C466.846 190.038 466.512 190.532 466.073 190.923C465.635 191.315 465.107 191.592 464.536 191.73L456.52 193.734C456.105 193.837 455.728 194.054 455.431 194.361C455.133 194.667 454.928 195.051 454.837 195.468C454.747 195.885 454.775 196.32 454.919 196.722C455.063 197.124 455.317 197.477 455.651 197.743L462.104 202.873C462.56 203.238 462.92 203.709 463.152 204.244C463.385 204.78 463.484 205.364 463.44 205.946L462.879 214.176C462.844 214.6 462.931 215.026 463.13 215.402C463.329 215.778 463.631 216.09 464.001 216.3C464.362 216.525 464.779 216.645 465.204 216.645C465.629 216.645 466.046 216.525 466.406 216.3L473.287 211.744C473.774 211.421 474.333 211.22 474.914 211.16C475.496 211.099 476.084 211.181 476.627 211.397L484.283 214.483C484.672 214.634 485.095 214.676 485.507 214.603C485.918 214.53 486.302 214.346 486.616 214.071C486.93 213.795 487.163 213.439 487.288 213.041C487.414 212.642 487.428 212.217 487.329 211.811L485.124 203.862C484.967 203.297 484.949 202.703 485.072 202.131C485.195 201.558 485.456 201.024 485.832 200.575L491.177 194.255C491.447 193.927 491.62 193.53 491.678 193.108C491.736 192.687 491.676 192.258 491.504 191.868C491.332 191.479 491.056 191.145 490.705 190.904C490.355 190.663 489.945 190.523 489.52 190.501L481.29 190.154C480.703 190.127 480.132 189.959 479.625 189.664C479.118 189.368 478.69 188.954 478.377 188.457L474.008 181.47C473.82 181.121 473.543 180.829 473.205 180.623C472.867 180.416 472.48 180.303 472.085 180.294Z" fill="white"/>
<path d="M471.43 272.32L470.334 276.435C470.276 276.667 470.275 276.91 470.33 277.142C470.386 277.375 470.498 277.591 470.655 277.771L473.42 281.004C473.606 281.221 473.727 281.485 473.769 281.766C473.812 282.048 473.775 282.336 473.662 282.597C473.55 282.859 473.366 283.084 473.132 283.246C472.898 283.408 472.623 283.502 472.338 283.516L468.09 283.743C467.843 283.76 467.604 283.835 467.393 283.963C467.181 284.091 467.003 284.267 466.874 284.478L464.656 288.112C464.501 288.337 464.288 288.517 464.04 288.633C463.792 288.748 463.518 288.796 463.245 288.77C462.973 288.744 462.712 288.646 462.491 288.486C462.269 288.325 462.094 288.109 461.984 287.858L460.461 283.85C460.369 283.621 460.225 283.416 460.039 283.254C459.853 283.091 459.631 282.975 459.392 282.915L455.25 281.926C454.971 281.862 454.716 281.721 454.513 281.519C454.311 281.317 454.17 281.062 454.105 280.783C454.041 280.504 454.057 280.212 454.151 279.942C454.245 279.672 454.413 279.433 454.636 279.254L457.949 276.582C458.144 276.422 458.296 276.216 458.391 275.983C458.487 275.75 458.523 275.496 458.497 275.246L458.163 270.997C458.154 270.72 458.22 270.446 458.355 270.205C458.491 269.963 458.689 269.762 458.929 269.625C459.17 269.488 459.443 269.418 459.72 269.425C459.997 269.431 460.267 269.513 460.501 269.661L464.082 271.973C464.29 272.105 464.527 272.187 464.774 272.21C465.02 272.233 465.268 272.197 465.498 272.106L469.426 270.463C469.691 270.367 469.978 270.345 470.254 270.401C470.531 270.457 470.787 270.588 470.994 270.78C471.201 270.972 471.351 271.217 471.428 271.489C471.505 271.76 471.506 272.048 471.43 272.32V272.32Z" fill="#EDEDED"/>
<path opacity="0.2" d="M471.43 272.32L470.334 276.435C470.276 276.667 470.275 276.91 470.33 277.142C470.386 277.375 470.498 277.591 470.655 277.771L473.42 281.004C473.606 281.221 473.727 281.485 473.769 281.766C473.812 282.048 473.775 282.336 473.662 282.597C473.55 282.859 473.366 283.084 473.132 283.246C472.898 283.408 472.623 283.502 472.338 283.516L468.09 283.743C467.843 283.76 467.604 283.835 467.393 283.963C467.181 284.091 467.003 284.267 466.874 284.478L464.656 288.112C464.501 288.337 464.288 288.517 464.04 288.633C463.792 288.748 463.518 288.796 463.245 288.77C462.973 288.744 462.712 288.646 462.491 288.486C462.269 288.325 462.094 288.109 461.984 287.858L460.461 283.85C460.369 283.621 460.225 283.416 460.039 283.254C459.853 283.091 459.631 282.975 459.392 282.915L455.25 281.926C454.971 281.862 454.716 281.721 454.513 281.519C454.311 281.317 454.17 281.062 454.105 280.783C454.041 280.504 454.057 280.212 454.151 279.942C454.245 279.672 454.413 279.433 454.636 279.254L457.949 276.582C458.144 276.422 458.296 276.216 458.391 275.983C458.487 275.75 458.523 275.496 458.497 275.246L458.163 270.997C458.154 270.72 458.22 270.446 458.355 270.205C458.491 269.963 458.689 269.762 458.929 269.625C459.17 269.488 459.443 269.418 459.72 269.425C459.997 269.431 460.267 269.513 460.501 269.661L464.082 271.973C464.29 272.105 464.527 272.187 464.774 272.21C465.02 272.233 465.268 272.197 465.498 272.106L469.426 270.463C469.691 270.367 469.978 270.345 470.254 270.401C470.531 270.457 470.787 270.588 470.994 270.78C471.201 270.972 471.351 271.217 471.428 271.489C471.505 271.76 471.506 272.048 471.43 272.32V272.32Z" fill="black"/>
<path d="M222.125 277.705L221.377 280.497C221.337 280.659 221.336 280.827 221.373 280.99C221.41 281.152 221.484 281.304 221.591 281.432L223.474 283.596C223.598 283.744 223.679 283.924 223.707 284.115C223.735 284.306 223.71 284.501 223.634 284.678C223.557 284.855 223.433 285.008 223.276 285.119C223.118 285.23 222.932 285.295 222.74 285.307L219.854 285.467C219.687 285.475 219.526 285.525 219.384 285.611C219.241 285.697 219.123 285.818 219.039 285.961L217.529 288.42C217.43 288.585 217.286 288.72 217.114 288.808C216.942 288.895 216.749 288.933 216.557 288.916C216.365 288.9 216.181 288.829 216.027 288.713C215.873 288.597 215.754 288.44 215.685 288.259L214.643 285.587C214.584 285.429 214.488 285.288 214.362 285.177C214.236 285.065 214.085 284.986 213.922 284.946L211.116 284.278C210.928 284.234 210.756 284.139 210.619 284.002C210.483 283.866 210.388 283.694 210.344 283.506C210.301 283.317 210.312 283.121 210.375 282.939C210.438 282.756 210.551 282.595 210.702 282.474L212.933 280.657C213.065 280.553 213.169 280.418 213.236 280.264C213.304 280.111 213.333 279.943 213.32 279.775L213.08 276.89C213.067 276.697 213.107 276.504 213.197 276.333C213.287 276.162 213.423 276.019 213.589 275.921C213.755 275.822 213.946 275.772 214.139 275.776C214.332 275.779 214.521 275.836 214.683 275.941L217.101 277.504C217.242 277.597 217.403 277.655 217.571 277.671C217.738 277.687 217.908 277.662 218.063 277.598L220.735 276.489C220.913 276.415 221.107 276.392 221.297 276.423C221.487 276.454 221.664 276.538 221.809 276.664C221.953 276.791 222.06 276.955 222.116 277.139C222.171 277.323 222.175 277.519 222.125 277.705V277.705Z" fill="#EDEDED"/>
<path opacity="0.2" d="M222.125 277.705L221.377 280.497C221.337 280.659 221.336 280.827 221.373 280.99C221.41 281.152 221.484 281.304 221.591 281.432L223.474 283.596C223.598 283.744 223.679 283.924 223.707 284.115C223.735 284.306 223.71 284.501 223.634 284.678C223.557 284.855 223.433 285.008 223.276 285.119C223.118 285.23 222.932 285.295 222.74 285.307L219.854 285.467C219.687 285.475 219.526 285.525 219.384 285.611C219.241 285.697 219.123 285.818 219.039 285.961L217.529 288.42C217.43 288.585 217.286 288.72 217.114 288.808C216.942 288.895 216.749 288.933 216.557 288.916C216.365 288.9 216.181 288.829 216.027 288.713C215.873 288.597 215.754 288.44 215.685 288.259L214.643 285.587C214.584 285.429 214.488 285.288 214.362 285.177C214.236 285.065 214.085 284.986 213.922 284.946L211.116 284.278C210.928 284.234 210.756 284.139 210.619 284.002C210.483 283.866 210.388 283.694 210.344 283.506C210.301 283.317 210.312 283.121 210.375 282.939C210.438 282.756 210.551 282.595 210.702 282.474L212.933 280.657C213.065 280.553 213.169 280.418 213.236 280.264C213.304 280.111 213.333 279.943 213.32 279.775L213.08 276.89C213.067 276.697 213.107 276.504 213.197 276.333C213.287 276.162 213.423 276.019 213.589 275.921C213.755 275.822 213.946 275.772 214.139 275.776C214.332 275.779 214.521 275.836 214.683 275.941L217.101 277.504C217.242 277.597 217.403 277.655 217.571 277.671C217.738 277.687 217.908 277.662 218.063 277.598L220.735 276.489C220.913 276.415 221.107 276.392 221.297 276.423C221.487 276.454 221.664 276.538 221.809 276.664C221.953 276.791 222.06 276.955 222.116 277.139C222.171 277.323 222.175 277.519 222.125 277.705V277.705Z" fill="black"/>
<path d="M474.195 338.654C440.674 338.654 405.269 324.947 383.131 301.526C360.792 277.878 354.807 247.977 366.283 217.355L371.28 219.226C360.592 247.857 366.15 275.78 387.019 297.865C415.196 327.686 465.845 341.033 504.791 328.901C547.918 315.541 564.645 283.717 580.825 252.988C598.941 218.571 616.003 186.065 668.108 186.065V191.41C619.289 191.41 603.658 221.096 585.554 255.473C569.642 285.68 551.619 319.923 506.381 333.992C495.948 337.156 485.097 338.728 474.195 338.654V338.654Z" fill="#EDEDED"/>
<path opacity="0.5" d="M474.195 338.654C440.674 338.654 405.269 324.947 383.131 301.526C360.792 277.878 354.807 247.977 366.283 217.355L371.28 219.226C360.592 247.857 366.15 275.78 387.019 297.865C415.196 327.686 465.845 341.033 504.791 328.901C547.918 315.541 564.645 283.717 580.825 252.988C598.941 218.571 616.003 186.065 668.108 186.065V191.41C619.289 191.41 603.658 221.096 585.554 255.473C569.642 285.68 551.619 319.923 506.381 333.992C495.948 337.156 485.097 338.728 474.195 338.654V338.654Z" fill="white"/>
<path d="M357.078 181.349L355.275 182.057L353.605 182.685L350.265 183.821C348.033 184.556 345.789 185.157 343.584 185.811C338.977 187.036 334.302 187.986 329.583 188.657C324.547 189.402 319.452 189.679 314.365 189.486C311.503 189.344 308.656 188.968 305.855 188.363C303.007 187.72 300.221 186.826 297.531 185.691C287.097 181.082 279.588 173.801 273.656 166.198C270.748 162.404 268.147 158.383 265.88 154.174C264.771 152.09 263.716 150.019 262.767 147.881C262.286 146.813 261.832 145.73 261.431 144.648C261.031 143.566 260.63 142.497 260.162 141.201L272.026 135.336L273.83 137.607C274.471 138.395 275.099 139.184 275.767 139.959C277.103 141.522 278.439 143.058 279.775 144.541C282.414 147.479 285.22 150.263 288.179 152.878C290.939 155.36 293.912 157.596 297.064 159.558C298.515 160.452 300.014 161.268 301.553 162.003C302.988 162.653 304.471 163.193 305.988 163.62C308.765 164.459 311.686 164.713 314.566 164.368C318.137 164.091 321.682 163.551 325.174 162.751C328.888 161.95 332.696 160.961 336.49 159.839C338.401 159.318 340.298 158.717 342.195 158.129L345.535 156.913L357.078 181.349Z" fill="#EDEDED"/>
<path opacity="0.6" d="M357.078 181.349L355.275 182.057L353.605 182.685L350.265 183.821C348.033 184.556 345.789 185.157 343.584 185.811C338.977 187.036 334.302 187.986 329.583 188.657C324.547 189.402 319.452 189.679 314.365 189.486C311.503 189.344 308.656 188.968 305.855 188.363C303.007 187.72 300.221 186.826 297.531 185.691C287.097 181.082 279.588 173.801 273.656 166.198C270.748 162.404 268.147 158.383 265.88 154.174C264.771 152.09 263.716 150.019 262.767 147.881C262.286 146.813 261.832 145.73 261.431 144.648C261.031 143.566 260.63 142.497 260.162 141.201L272.026 135.336L273.83 137.607C274.471 138.395 275.099 139.184 275.767 139.959C277.103 141.522 278.439 143.058 279.775 144.541C282.414 147.479 285.22 150.263 288.179 152.878C290.939 155.36 293.912 157.596 297.064 159.558C298.515 160.452 300.014 161.268 301.553 162.003C302.988 162.653 304.471 163.193 305.988 163.62C308.765 164.459 311.686 164.713 314.566 164.368C318.137 164.091 321.682 163.551 325.174 162.751C328.888 161.95 332.696 160.961 336.49 159.839C338.401 159.318 340.298 158.717 342.195 158.129L345.535 156.913L357.078 181.349Z" fill="white"/>
<path d="M345.401 156.913C345.401 156.913 321.646 180.254 312.722 237.69L369.69 260.189C373.111 252.64 381.715 214.069 404.427 181.135C399.039 176.888 393.185 173.266 386.979 170.34C379.071 166.746 370.986 163.554 362.756 160.774C357.066 159.092 351.268 157.802 345.401 156.913V156.913Z" fill="#EDEDED"/>
<path opacity="0.6" d="M345.401 156.913C345.401 156.913 321.646 180.254 312.722 237.69L369.69 260.189C373.111 252.64 381.715 214.069 404.427 181.135C399.039 176.888 393.185 173.266 386.979 170.34C379.071 166.746 370.986 163.554 362.756 160.774C357.066 159.092 351.268 157.802 345.401 156.913V156.913Z" fill="white"/>
<path d="M391.107 144.207C387.099 150.54 380.74 162.564 383.732 169.044C383.732 169.044 382.089 171.89 370.505 167.28C361.046 163.513 362.422 160.6 362.422 160.6C370.786 161.789 372.83 156.044 373.605 150.179L391.107 144.207Z" fill="#E4897B"/>
<path d="M383.973 146.666L373.619 150.206C373.449 151.563 373.168 152.904 372.777 154.214C375.863 154.936 381.14 153.319 382.664 150.38C383.318 149.229 383.761 147.972 383.973 146.666V146.666Z" fill="#CE6F64"/>
<path d="M384.868 111.247C379.524 110.472 368.835 122.63 372.55 128.616C376.264 134.601 394.955 112.77 384.868 111.247Z" fill="#263238"/>
<path d="M396.291 136.886C390.052 144.715 386.805 149.605 379.737 150.901C369.049 152.865 361.634 142.043 365.402 132.517C368.795 123.94 378.428 112.583 388.716 114.948C390.984 115.458 393.085 116.539 394.819 118.089C396.552 119.639 397.861 121.607 398.62 123.805C399.379 126.003 399.563 128.359 399.155 130.648C398.748 132.937 397.762 135.085 396.291 136.886Z" fill="#E4897B"/>
<path d="M390.105 144.501C384.547 143.245 388.088 122.216 402.45 126.09C419.845 130.78 399.097 146.518 390.105 144.501Z" fill="#263238"/>
<path d="M402.864 131.595C396.184 129.123 377.867 119.785 381.22 108.495C382.864 103.004 393.352 103.872 400.633 107.76C388.809 108.188 394.741 113.812 402.477 116.244C415.062 120.199 411.802 134.935 402.864 131.595Z" fill="#263238"/>
<path d="M404.588 128.749C404.588 128.749 411.696 127.814 410.213 134.267C409.824 132.944 409.103 131.742 408.118 130.777C407.134 129.811 405.918 129.113 404.588 128.749V128.749Z" fill="#263238"/>
<path d="M404.908 128.162C404.908 128.162 409.251 133.853 412.791 128.269C411.577 128.923 410.215 129.256 408.836 129.237C407.457 129.219 406.105 128.848 404.908 128.162V128.162Z" fill="#263238"/>
<path d="M393.659 148.483C392.509 148.959 391.276 149.205 390.032 149.205C388.787 149.205 387.554 148.959 386.404 148.483C383.318 147.147 383.839 143.953 386.404 142.123C388.729 140.48 393.084 139.17 395.382 141.509C397.68 143.847 396.491 147.32 393.659 148.483Z" fill="#E4897B"/>
<path d="M312.722 237.69C312.722 237.69 267.991 271.371 254.043 298.774C239.574 327.298 225.946 385.135 225.946 385.135L247.149 392.831C247.149 392.831 264.878 343.731 280.991 316.77C298.56 287.377 327.672 280.63 350.211 252.426L312.722 237.69Z" fill="#EDEDED"/>
<path opacity="0.6" d="M312.722 237.69C312.722 237.69 267.991 271.371 254.043 298.774C239.574 327.298 225.946 385.135 225.946 385.135L247.149 392.831C247.149 392.831 264.878 343.731 280.991 316.77C298.56 287.377 327.672 280.63 350.211 252.426L312.722 237.69Z" fill="white"/>
<path d="M332.976 245.666C332.976 245.666 303.583 293.576 299.575 323.036C295.233 355.288 305.547 415.971 305.547 415.971L326.657 410.907C326.657 410.907 321.607 366.912 328.955 336.169C336.971 302.768 360.405 283.676 369.691 260.189L332.976 245.666Z" fill="#EDEDED"/>
<path opacity="0.6" d="M332.976 245.666C332.976 245.666 303.583 293.576 299.575 323.036C295.233 355.288 305.547 415.971 305.547 415.971L326.657 410.907C326.657 410.907 321.607 366.912 328.955 336.169C336.971 302.768 360.405 283.676 369.691 260.189L332.976 245.666Z" fill="white"/>
<path d="M382.289 130.473C381.822 131.141 381.087 131.435 380.659 131.127C380.232 130.82 380.245 130.045 380.659 129.377C381.074 128.709 381.862 128.415 382.289 128.722C382.717 129.03 382.757 129.818 382.289 130.473Z" fill="#263238"/>
<path d="M374.767 125.195C374.3 125.863 373.565 126.157 373.137 125.85C372.71 125.543 372.723 124.768 373.137 124.1C373.552 123.432 374.34 123.138 374.767 123.445C375.195 123.752 375.235 124.607 374.767 125.195Z" fill="#263238"/>
<path d="M376.932 127.28C374.711 128.757 372.296 129.922 369.757 130.74C370.158 132.664 372.51 133.573 372.51 133.573L376.932 127.28Z" fill="#DE5753"/>
<path d="M377.292 138.048C375.811 138.045 374.367 137.578 373.164 136.712C373.135 136.695 373.11 136.672 373.09 136.645C373.07 136.618 373.056 136.587 373.049 136.554C373.042 136.521 373.042 136.487 373.049 136.454C373.056 136.421 373.07 136.39 373.089 136.363C373.109 136.335 373.134 136.312 373.164 136.296C373.193 136.279 373.225 136.268 373.259 136.265C373.292 136.261 373.326 136.264 373.358 136.275C373.39 136.285 373.42 136.302 373.445 136.325C374.26 136.924 375.205 137.322 376.204 137.487C377.202 137.652 378.225 137.579 379.19 137.273C379.248 137.254 379.312 137.258 379.369 137.282C379.425 137.307 379.471 137.351 379.497 137.407C379.519 137.465 379.517 137.53 379.493 137.588C379.468 137.645 379.421 137.69 379.363 137.714C378.699 137.95 377.997 138.063 377.292 138.048V138.048Z" fill="#263238"/>
<path d="M386.538 129.725C386.415 129.725 386.296 129.678 386.207 129.593C386.117 129.509 386.064 129.393 386.057 129.27C386.052 128.671 385.906 128.081 385.63 127.55C385.353 127.018 384.955 126.559 384.467 126.211C384.357 126.145 384.278 126.039 384.247 125.915C384.215 125.791 384.235 125.659 384.3 125.55C384.366 125.44 384.472 125.36 384.596 125.329C384.72 125.298 384.852 125.317 384.961 125.383C385.583 125.815 386.093 126.39 386.449 127.059C386.804 127.729 386.995 128.473 387.006 129.23C387.011 129.293 387.004 129.357 386.983 129.417C386.963 129.476 386.93 129.531 386.888 129.578C386.845 129.624 386.793 129.661 386.735 129.687C386.677 129.712 386.615 129.725 386.551 129.725H386.538Z" fill="#263238"/>
<path d="M373.565 120.399C373.478 120.398 373.392 120.374 373.317 120.33C373.242 120.285 373.18 120.221 373.137 120.145C373.08 120.035 373.067 119.906 373.102 119.787C373.136 119.667 373.216 119.566 373.325 119.504C373.979 119.12 374.716 118.898 375.473 118.856C376.231 118.815 376.987 118.954 377.68 119.263C377.736 119.293 377.786 119.333 377.827 119.382C377.868 119.431 377.898 119.488 377.917 119.549C377.936 119.61 377.942 119.674 377.936 119.737C377.929 119.8 377.911 119.862 377.88 119.918C377.821 120.028 377.72 120.111 377.601 120.149C377.481 120.186 377.351 120.175 377.239 120.118C376.689 119.878 376.089 119.771 375.49 119.809C374.89 119.846 374.308 120.025 373.792 120.332C373.724 120.374 373.645 120.397 373.565 120.399V120.399Z" fill="#263238"/>
<path d="M404.481 181.135L405.363 182.004L406.365 183.34L408.275 186.012C409.491 187.802 410.68 189.606 411.802 191.449C412.925 193.293 414.007 195.177 415.049 197.101C416.091 199.025 417.053 200.975 418.002 202.966C419.922 207.047 421.556 211.257 422.892 215.565C423.239 216.647 423.546 217.783 423.827 218.932L424.268 220.642L424.375 221.069L424.508 221.684L424.775 222.9C425.306 225.771 425.481 228.697 425.296 231.611C424.946 236.387 424.05 241.107 422.624 245.679C421.358 249.844 419.837 253.927 418.069 257.904C416.358 261.805 414.461 265.546 412.444 269.207C410.426 272.868 408.289 276.355 405.764 279.895L393.9 274.017C395.93 266.682 398.041 259.08 399.631 251.772C400.379 248.098 401.114 244.477 401.528 240.99C401.742 239.226 401.889 237.543 402.009 235.913C402.098 234.404 402.098 232.892 402.009 231.384C401.919 230.307 401.704 229.244 401.368 228.217L401.274 227.99V227.87L401.154 227.603L400.673 226.467C400.353 225.719 400.032 224.957 399.645 224.196C398.174 221.043 396.546 217.967 394.768 214.977C393.886 213.427 392.964 211.891 391.989 210.354C391.014 208.818 390.079 207.282 389.063 205.758C388.048 204.235 387.059 202.712 386.044 201.203L383.131 196.901L404.481 181.135Z" fill="#EDEDED"/>
<path opacity="0.6" d="M404.481 181.135L405.363 182.004L406.365 183.34L408.275 186.012C409.491 187.802 410.68 189.606 411.802 191.449C412.925 193.293 414.007 195.177 415.049 197.101C416.091 199.025 417.053 200.975 418.002 202.966C419.922 207.047 421.556 211.257 422.892 215.565C423.239 216.647 423.546 217.783 423.827 218.932L424.268 220.642L424.375 221.069L424.508 221.684L424.775 222.9C425.306 225.771 425.481 228.697 425.296 231.611C424.946 236.387 424.05 241.107 422.624 245.679C421.358 249.844 419.837 253.927 418.069 257.904C416.358 261.805 414.461 265.546 412.444 269.207C410.426 272.868 408.289 276.355 405.764 279.895L393.9 274.017C395.93 266.682 398.041 259.08 399.631 251.772C400.379 248.098 401.114 244.477 401.528 240.99C401.742 239.226 401.889 237.543 402.009 235.913C402.098 234.404 402.098 232.892 402.009 231.384C401.919 230.307 401.704 229.244 401.368 228.217L401.274 227.99V227.87L401.154 227.603L400.673 226.467C400.353 225.719 400.032 224.957 399.645 224.196C398.174 221.043 396.546 217.967 394.768 214.977C393.886 213.427 392.964 211.891 391.989 210.354C391.014 208.818 390.079 207.282 389.063 205.758C388.048 204.235 387.059 202.712 386.044 201.203L383.131 196.901L404.481 181.135Z" fill="white"/>
<path opacity="0.1" d="M399.61 169.312C418.982 160.997 427.946 138.552 419.631 119.18C411.316 99.8082 388.871 90.8446 369.499 99.1595C350.127 107.474 341.164 129.919 349.479 149.291C357.794 168.663 380.238 177.627 399.61 169.312Z" fill="#EDEDED"/>
<path d="M384.574 173.76C378.805 173.751 373.108 172.483 367.88 170.047C362.651 167.61 358.017 164.063 354.299 159.652C354.187 159.517 354.102 159.361 354.05 159.193C353.998 159.025 353.98 158.849 353.996 158.674C354.012 158.499 354.062 158.329 354.144 158.173C354.226 158.018 354.338 157.88 354.473 157.768C354.608 157.656 354.764 157.571 354.932 157.519C355.099 157.467 355.276 157.449 355.451 157.465C355.626 157.481 355.796 157.531 355.951 157.613C356.107 157.695 356.244 157.807 356.357 157.942C360.444 162.797 365.715 166.516 371.659 168.739C377.604 170.963 384.022 171.615 390.292 170.634C390.646 170.579 391.008 170.667 391.297 170.879C391.587 171.091 391.78 171.409 391.835 171.763C391.89 172.117 391.802 172.479 391.59 172.768C391.379 173.058 391.061 173.251 390.706 173.306C388.677 173.618 386.627 173.769 384.574 173.76V173.76Z" fill="#263238"/>
<path d="M329.476 415.223L303.597 421.863L301.686 396.452L326.897 393.285L329.476 415.223Z" fill="#EDEDED"/>
<path opacity="0.2" d="M329.476 415.223L303.597 421.863L301.686 396.452L326.897 393.285L329.476 415.223Z" fill="black"/>
<path d="M304.933 416.519L327.057 411.575C327.378 411.519 327.708 411.573 327.995 411.728C328.281 411.883 328.506 412.131 328.634 412.43L334.432 426.192C334.57 426.528 334.63 426.891 334.607 427.253C334.585 427.616 334.482 427.968 334.305 428.285C334.128 428.602 333.881 428.875 333.584 429.084C333.287 429.293 332.947 429.432 332.589 429.492C326.242 430.534 323.103 430.721 315.14 432.164C310.237 433.059 300.216 435.41 293.456 436.639C286.696 437.869 284.772 431.723 287.243 430.227C296.315 424.695 299.174 422.277 302.501 417.975C303.107 417.21 303.972 416.692 304.933 416.519Z" fill="#EDEDED"/>
<path opacity="0.2" d="M304.933 416.519L327.057 411.575C327.378 411.519 327.708 411.573 327.995 411.728C328.281 411.883 328.506 412.131 328.634 412.43L334.432 426.192C334.57 426.528 334.63 426.891 334.607 427.253C334.585 427.616 334.482 427.968 334.305 428.285C334.128 428.602 333.881 428.875 333.584 429.084C333.287 429.293 332.947 429.432 332.589 429.492C326.242 430.534 323.103 430.721 315.14 432.164C310.237 433.059 300.216 435.41 293.456 436.639C286.696 437.869 284.772 431.723 287.243 430.227C296.315 424.695 299.174 422.277 302.501 417.975C303.107 417.21 303.972 416.692 304.933 416.519Z" fill="black"/>
<path d="M246.748 396.799L220.776 390.493L229.38 367.272L254.778 376.224L246.748 396.799Z" fill="#EDEDED"/>
<path opacity="0.2" d="M246.748 396.799L220.776 390.493L229.38 367.272L254.778 376.224L246.748 396.799Z" fill="black"/>
<path d="M224.543 386.471L246.387 392.524C246.697 392.62 246.964 392.82 247.144 393.09C247.324 393.36 247.406 393.684 247.376 394.007L246.04 408.877C246.005 409.239 245.889 409.589 245.7 409.9C245.51 410.21 245.253 410.474 244.947 410.671C244.64 410.868 244.294 410.992 243.932 411.036C243.571 411.079 243.204 411.04 242.86 410.921C236.768 408.863 233.909 407.554 226.187 405.082C221.444 403.573 211.49 400.941 204.957 398.843C198.424 396.746 199.613 390.426 202.485 390.266C213.093 389.651 216.754 388.863 221.711 386.632C222.604 386.235 223.611 386.178 224.543 386.471V386.471Z" fill="#EDEDED"/>
<path opacity="0.2" d="M224.543 386.471L246.387 392.524C246.697 392.62 246.964 392.82 247.144 393.09C247.324 393.36 247.406 393.684 247.376 394.007L246.04 408.877C246.005 409.239 245.889 409.589 245.7 409.9C245.51 410.21 245.253 410.474 244.947 410.671C244.64 410.868 244.294 410.992 243.932 411.036C243.571 411.079 243.204 411.04 242.86 410.921C236.768 408.863 233.909 407.554 226.187 405.082C221.444 403.573 211.49 400.941 204.957 398.843C198.424 396.746 199.613 390.426 202.485 390.266C213.093 389.651 216.754 388.863 221.711 386.632C222.604 386.235 223.611 386.178 224.543 386.471V386.471Z" fill="black"/>
<path d="M370.172 264.277C332.014 254.163 309.529 240.228 308.594 239.654L312.842 232.854C313.056 233 335.328 246.748 372.229 256.528L370.172 264.277Z" fill="#EDEDED"/>
<path opacity="0.2" d="M370.172 264.277C332.014 254.163 309.529 240.228 308.594 239.654L312.842 232.854C313.056 233 335.328 246.748 372.229 256.528L370.172 264.277Z" fill="black"/>
<path d="M255.873 313.203C255.119 313.209 254.373 313.04 253.695 312.709C251.758 311.72 250.596 309.489 250.436 306.416C250.451 303.008 251.267 299.651 252.817 296.615C254.367 293.58 256.608 290.951 259.36 288.94C261.925 287.27 264.424 286.896 266.361 287.885C268.298 288.874 269.474 291.105 269.634 294.164C269.69 297.595 268.871 300.984 267.256 304.011V304.011C265.752 307.127 263.447 309.788 260.576 311.72C259.175 312.638 257.547 313.151 255.873 313.203V313.203ZM264.036 287.604C262.422 287.679 260.864 288.217 259.547 289.154C256.837 291.142 254.631 293.738 253.106 296.734C251.582 299.73 250.781 303.041 250.77 306.402C250.917 309.342 252.012 311.479 253.856 312.415C255.7 313.35 257.864 312.896 260.362 311.373C263.198 309.474 265.476 306.855 266.962 303.784C268.55 300.815 269.354 297.49 269.3 294.124C269.14 291.185 268.045 289.047 266.214 288.112C265.538 287.774 264.792 287.6 264.036 287.604V287.604Z" fill="#EDEDED"/>
<path opacity="0.2" d="M255.873 313.203C255.119 313.209 254.373 313.04 253.695 312.709C251.758 311.72 250.596 309.489 250.436 306.416C250.451 303.008 251.267 299.651 252.817 296.615C254.367 293.58 256.608 290.951 259.36 288.94C261.925 287.27 264.424 286.896 266.361 287.885C268.298 288.874 269.474 291.105 269.634 294.164C269.69 297.595 268.871 300.984 267.256 304.011V304.011C265.752 307.127 263.447 309.788 260.576 311.72C259.175 312.638 257.547 313.151 255.873 313.203V313.203ZM264.036 287.604C262.422 287.679 260.864 288.217 259.547 289.154C256.837 291.142 254.631 293.738 253.106 296.734C251.582 299.73 250.781 303.041 250.77 306.402C250.917 309.342 252.012 311.479 253.856 312.415C255.7 313.35 257.864 312.896 260.362 311.373C263.198 309.474 265.476 306.855 266.962 303.784C268.55 300.815 269.354 297.49 269.3 294.124C269.14 291.185 268.045 289.047 266.214 288.112C265.538 287.774 264.792 287.6 264.036 287.604V287.604Z" fill="black"/>
<path d="M304.559 340.271H304.238C299.776 339.91 296.636 333.377 297.25 325.708C297.838 318.24 301.74 312.348 306.055 312.348H306.429C310.891 312.695 314.018 319.228 313.417 326.897C312.722 335.074 308.393 340.271 304.559 340.271ZM306.042 312.735C301.9 312.735 298.146 318.44 297.571 325.735C296.997 333.03 299.976 339.59 304.251 339.937C307.939 340.231 312.455 334.967 313.083 326.951C313.67 319.469 310.678 313.096 306.402 312.762L306.042 312.735Z" fill="#EDEDED"/>
<path opacity="0.2" d="M304.559 340.271H304.238C299.776 339.91 296.636 333.377 297.25 325.708C297.838 318.24 301.74 312.348 306.055 312.348H306.429C310.891 312.695 314.018 319.228 313.417 326.897C312.722 335.074 308.393 340.271 304.559 340.271ZM306.042 312.735C301.9 312.735 298.146 318.44 297.571 325.735C296.997 333.03 299.976 339.59 304.251 339.937C307.939 340.231 312.455 334.967 313.083 326.951C313.67 319.469 310.678 313.096 306.402 312.762L306.042 312.735Z" fill="black"/>
<path d="M352.429 212.492C350.815 212.497 349.216 212.179 347.726 211.557C340.271 208.444 337.332 198.45 341.153 189.258C342.864 184.971 345.99 181.398 350.011 179.131C351.738 178.07 353.692 177.436 355.713 177.28C357.734 177.124 359.763 177.451 361.632 178.234C363.501 179.017 365.157 180.234 366.463 181.784C367.769 183.334 368.688 185.172 369.143 187.147C370.351 191.58 370.016 196.291 368.194 200.508V200.508C366.483 204.795 363.357 208.368 359.336 210.635C357.226 211.824 354.851 212.462 352.429 212.492V212.492ZM356.905 177.621C354.562 177.657 352.266 178.277 350.224 179.425C346.269 181.656 343.195 185.173 341.513 189.392C337.759 198.41 340.632 208.217 347.913 211.249C349.744 211.968 351.714 212.26 353.674 212.105C355.635 211.95 357.534 211.351 359.229 210.354C363.185 208.123 366.258 204.606 367.94 200.387L368.087 200.454L367.94 200.387C369.744 196.227 370.074 191.575 368.875 187.201C368.391 185.293 367.479 183.521 366.208 182.019C364.938 180.517 363.341 179.323 361.541 178.53C360.071 177.923 358.495 177.615 356.905 177.621V177.621Z" fill="#EDEDED"/>
<path opacity="0.2" d="M352.429 212.492C350.815 212.497 349.216 212.179 347.726 211.557C340.271 208.444 337.332 198.45 341.153 189.258C342.864 184.971 345.99 181.398 350.011 179.131C351.738 178.07 353.692 177.436 355.713 177.28C357.734 177.124 359.763 177.451 361.632 178.234C363.501 179.017 365.157 180.234 366.463 181.784C367.769 183.334 368.688 185.172 369.143 187.147C370.351 191.58 370.016 196.291 368.194 200.508V200.508C366.483 204.795 363.357 208.368 359.336 210.635C357.226 211.824 354.851 212.462 352.429 212.492V212.492ZM356.905 177.621C354.562 177.657 352.266 178.277 350.224 179.425C346.269 181.656 343.195 185.173 341.513 189.392C337.759 198.41 340.632 208.217 347.913 211.249C349.744 211.968 351.714 212.26 353.674 212.105C355.635 211.95 357.534 211.351 359.229 210.354C363.185 208.123 366.258 204.606 367.94 200.387L368.087 200.454L367.94 200.387C369.744 196.227 370.074 191.575 368.875 187.201C368.391 185.293 367.479 183.521 366.208 182.019C364.938 180.517 363.341 179.323 361.541 178.53C360.071 177.923 358.495 177.615 356.905 177.621V177.621Z" fill="black"/>
<path d="M261.191 147.48L276.729 139.852C276.729 139.852 268.298 119.156 259.494 120.987C250.396 122.871 253.014 131.795 261.191 147.48Z" fill="#EDEDED"/>
<path opacity="0.2" d="M261.191 147.48L276.729 139.852C276.729 139.852 268.298 119.156 259.494 120.987C250.396 122.871 253.014 131.795 261.191 147.48Z" fill="black"/>
<path d="M268.632 134.294L275.58 138.302C275.58 138.302 276.088 123.739 272.667 123.071C269.247 122.403 267.858 126.465 268.632 134.294Z" fill="#EDEDED"/>
<path opacity="0.2" d="M268.632 134.294L275.58 138.302C275.58 138.302 276.088 123.739 272.667 123.071C269.247 122.403 267.858 126.465 268.632 134.294Z" fill="black"/>
<path d="M411.161 273.135L395.65 265.426C395.65 265.426 384.347 284.718 391.161 290.597C398.228 296.676 403.679 289.167 411.161 273.135Z" fill="#EDEDED"/>
<path opacity="0.2" d="M411.161 273.135L395.65 265.426C395.65 265.426 384.347 284.718 391.161 290.597C398.228 296.676 403.679 289.167 411.161 273.135Z" fill="black"/>
<path d="M396.184 275.273L395.182 267.256C395.182 267.256 383.305 275.713 384.868 278.826C386.431 281.939 390.412 280.617 396.184 275.273Z" fill="#EDEDED"/>
<path opacity="0.2" d="M396.184 275.273L395.182 267.256C395.182 267.256 383.305 275.713 384.868 278.826C386.431 281.939 390.412 280.617 396.184 275.273Z" fill="black"/>
<path d="M414.685 201.805L402.749 207.837L406.618 215.493L418.554 209.461L414.685 201.805Z" fill="#EDEDED"/>
<path opacity="0.2" d="M414.685 201.805L402.749 207.837L406.618 215.493L418.554 209.461L414.685 201.805Z" fill="black"/>
<path d="M369.69 242.807C369.514 242.788 369.347 242.715 369.214 242.597C369.081 242.479 368.988 242.322 368.948 242.149C368.908 241.976 368.923 241.794 368.991 241.63C369.059 241.466 369.176 241.327 369.327 241.232C369.477 241.138 369.654 241.093 369.831 241.103C370.009 241.114 370.179 241.179 370.317 241.291C370.456 241.402 370.556 241.554 370.604 241.725C370.652 241.896 370.646 242.078 370.586 242.246C370.538 242.437 370.418 242.602 370.251 242.707C370.084 242.811 369.883 242.847 369.69 242.807V242.807Z" fill="#EDEDED"/>
<path d="M368.501 246.107C368.342 246.001 368.222 245.845 368.162 245.663C368.102 245.482 368.104 245.285 368.169 245.105C368.234 244.925 368.357 244.772 368.519 244.67C368.681 244.568 368.872 244.524 369.062 244.544C369.222 244.649 369.341 244.805 369.402 244.987C369.462 245.169 369.459 245.365 369.395 245.545C369.33 245.725 369.207 245.879 369.045 245.98C368.883 246.082 368.692 246.127 368.501 246.107V246.107Z" fill="#EDEDED"/>
<path d="M367.312 249.394C367.135 249.377 366.967 249.306 366.831 249.19C366.696 249.073 366.601 248.917 366.559 248.744C366.517 248.57 366.53 248.388 366.597 248.222C366.664 248.057 366.78 247.916 366.931 247.821C367.081 247.725 367.258 247.679 367.436 247.688C367.615 247.698 367.785 247.763 367.924 247.875C368.064 247.986 368.165 248.139 368.213 248.31C368.261 248.482 368.255 248.665 368.194 248.832C368.15 249.023 368.032 249.188 367.868 249.293C367.703 249.397 367.504 249.434 367.312 249.394Z" fill="#EDEDED"/>
<path d="M370.88 245.105C370.702 245.089 370.534 245.018 370.399 244.901C370.263 244.784 370.168 244.628 370.126 244.455C370.084 244.282 370.097 244.099 370.164 243.934C370.231 243.768 370.348 243.628 370.498 243.532C370.649 243.436 370.825 243.39 371.004 243.4C371.182 243.409 371.352 243.475 371.492 243.586C371.631 243.698 371.732 243.85 371.78 244.022C371.829 244.194 371.822 244.376 371.761 244.544C371.717 244.734 371.599 244.899 371.435 245.004C371.27 245.109 371.071 245.145 370.88 245.105V245.105Z" fill="#EDEDED"/>
<path d="M369.691 248.392C369.513 248.375 369.345 248.304 369.21 248.188C369.074 248.071 368.979 247.915 368.937 247.742C368.895 247.568 368.908 247.386 368.975 247.221C369.042 247.055 369.159 246.915 369.309 246.819C369.46 246.723 369.636 246.677 369.815 246.686C369.993 246.696 370.163 246.761 370.303 246.873C370.442 246.984 370.543 247.137 370.591 247.308C370.64 247.48 370.633 247.663 370.572 247.831C370.528 248.021 370.41 248.186 370.246 248.291C370.081 248.395 369.882 248.432 369.691 248.392Z" fill="#EDEDED"/>
<path d="M368.501 251.692C368.327 251.6 368.195 251.444 368.135 251.257C368.075 251.069 368.092 250.865 368.181 250.69C368.192 250.592 368.225 250.498 368.278 250.415C368.331 250.332 368.402 250.262 368.485 250.21C368.569 250.158 368.663 250.125 368.761 250.115C368.859 250.104 368.958 250.116 369.05 250.149C369.143 250.182 369.227 250.235 369.296 250.305C369.366 250.375 369.418 250.46 369.45 250.553C369.482 250.646 369.493 250.745 369.481 250.843C369.469 250.94 369.436 251.034 369.383 251.117C369.341 251.31 369.225 251.478 369.06 251.586C368.895 251.693 368.694 251.731 368.501 251.692V251.692Z" fill="#EDEDED"/>
<g opacity="0.2">
<path opacity="0.2" d="M369.691 242.807C369.514 242.788 369.347 242.715 369.214 242.597C369.081 242.479 368.988 242.322 368.948 242.149C368.908 241.976 368.923 241.794 368.991 241.63C369.059 241.466 369.176 241.327 369.327 241.232C369.478 241.138 369.654 241.093 369.831 241.103C370.009 241.114 370.179 241.179 370.317 241.291C370.456 241.402 370.556 241.554 370.604 241.725C370.652 241.896 370.646 242.078 370.586 242.246C370.538 242.437 370.418 242.602 370.251 242.707C370.084 242.811 369.883 242.847 369.691 242.807V242.807Z" fill="black"/>
<path opacity="0.2" d="M368.502 246.107C368.342 246.001 368.223 245.845 368.162 245.663C368.102 245.482 368.105 245.285 368.169 245.105C368.234 244.925 368.357 244.772 368.519 244.67C368.681 244.568 368.872 244.524 369.063 244.544C369.222 244.649 369.342 244.805 369.402 244.987C369.462 245.169 369.46 245.365 369.395 245.545C369.33 245.725 369.207 245.879 369.045 245.98C368.883 246.082 368.692 246.127 368.502 246.107V246.107Z" fill="black"/>
<path opacity="0.2" d="M367.312 249.394C367.135 249.377 366.967 249.306 366.831 249.19C366.696 249.073 366.601 248.917 366.559 248.744C366.517 248.57 366.53 248.388 366.597 248.222C366.664 248.057 366.78 247.916 366.931 247.821C367.081 247.725 367.258 247.679 367.436 247.688C367.615 247.698 367.785 247.763 367.924 247.875C368.064 247.986 368.165 248.139 368.213 248.31C368.261 248.482 368.255 248.665 368.194 248.832C368.15 249.023 368.032 249.188 367.868 249.293C367.703 249.397 367.504 249.434 367.312 249.394Z" fill="black"/>
<path opacity="0.2" d="M370.88 245.105C370.702 245.089 370.534 245.018 370.399 244.901C370.263 244.784 370.168 244.628 370.126 244.455C370.084 244.282 370.097 244.099 370.164 243.934C370.231 243.768 370.348 243.628 370.498 243.532C370.649 243.436 370.825 243.39 371.004 243.4C371.182 243.409 371.352 243.475 371.492 243.586C371.631 243.698 371.732 243.85 371.78 244.022C371.829 244.194 371.822 244.376 371.761 244.544C371.717 244.734 371.599 244.899 371.435 245.004C371.27 245.109 371.071 245.145 370.88 245.105V245.105Z" fill="black"/>
<path opacity="0.2" d="M369.691 248.392C369.513 248.375 369.345 248.304 369.21 248.188C369.074 248.071 368.979 247.915 368.937 247.742C368.895 247.568 368.908 247.386 368.975 247.221C369.042 247.055 369.159 246.915 369.309 246.819C369.46 246.723 369.636 246.677 369.815 246.686C369.993 246.696 370.163 246.761 370.303 246.873C370.442 246.984 370.543 247.137 370.591 247.308C370.64 247.48 370.633 247.663 370.572 247.831C370.528 248.021 370.41 248.186 370.246 248.291C370.081 248.395 369.882 248.432 369.691 248.392Z" fill="black"/>
<path opacity="0.2" d="M368.501 251.692C368.327 251.6 368.195 251.444 368.135 251.257C368.075 251.069 368.092 250.865 368.181 250.69C368.192 250.592 368.225 250.498 368.278 250.415C368.331 250.332 368.402 250.262 368.485 250.21C368.569 250.158 368.663 250.125 368.761 250.115C368.859 250.104 368.958 250.116 369.05 250.149C369.143 250.182 369.227 250.235 369.296 250.305C369.366 250.375 369.418 250.46 369.45 250.553C369.482 250.646 369.493 250.745 369.481 250.843C369.469 250.94 369.436 251.034 369.383 251.117C369.341 251.31 369.225 251.478 369.06 251.586C368.895 251.693 368.694 251.731 368.501 251.692V251.692Z" fill="black"/>
</g>
</svg>
