<svg width="493" height="415" viewBox="0 0 493 415" fill="none" xmlns="http://www.w3.org/2000/svg">
<path d="M97.5086 298.849L85.9026 287.974L87.9504 299.849L97.7831 301.642L97.5086 298.849Z" fill="#263238"/>
<path opacity="0.2" d="M97.5086 298.849L85.9026 287.974L87.9504 299.849L97.7831 301.642L97.5086 298.849Z" fill="white"/>
<path opacity="0.4" d="M97.2206 298.924L85.974 288.39L87.9504 299.85L97.5461 301.599L97.2206 298.924Z" fill="white"/>
<path d="M82.9065 304.249L77.0972 278.668L83.6018 279.854L88.5351 305.726L82.9065 304.249Z" fill="#263238"/>
<path opacity="0.2" d="M82.9065 304.249L77.0972 278.668L83.6018 279.854L88.5351 305.726L82.9065 304.249Z" fill="white"/>
<path opacity="0.4" d="M82.9061 304.25L77.1458 278.884L83.4607 280.035L88.339 305.671L82.9061 304.25Z" fill="white"/>
<path d="M82.5234 304.092L76.802 278.458L71.2147 277.292L76.6864 302.146L82.5234 304.092Z" fill="#263238"/>
<path opacity="0.2" d="M82.5234 304.092L76.802 278.458L71.2147 277.292L76.6864 302.146L82.5234 304.092Z" fill="white"/>
<path opacity="0.4" d="M82.4131 304.052L76.6227 278.582L71.2457 277.445L76.6864 302.146L82.4131 304.052Z" fill="white"/>
<path d="M70.9183 277.091L65.5533 275.996L71.1245 300.142L76.3685 301.902L70.9183 277.091Z" fill="#263238"/>
<path opacity="0.2" d="M70.9183 277.091L65.5533 275.996L71.1245 300.142L76.3685 301.902L70.9183 277.091Z" fill="white"/>
<path opacity="0.4" d="M70.7977 277.216L65.5819 276.109L71.1247 300.142L76.2489 301.86L70.7977 277.216Z" fill="white"/>
<path d="M65.2119 275.934L60.5159 274.931L65.8253 298.363L70.8452 300.062L65.2119 275.934Z" fill="#263238"/>
<path opacity="0.2" d="M65.2119 275.934L60.5159 274.931L65.8253 298.363L70.8452 300.062L65.2119 275.934Z" fill="white"/>
<path opacity="0.4" d="M65.0889 276.019L60.5307 275.011L65.8256 298.363L70.6989 300.006L65.0889 276.019Z" fill="white"/>
<path d="M102.529 302.586L106.665 326.921L91.9279 319.787L88.2805 296.265L102.529 302.586Z" fill="#EDEDED"/>
<path opacity="0.2" d="M102.529 302.586L106.665 326.921L91.9279 319.787L88.2805 296.265L102.529 302.586Z" fill="black"/>
<path d="M126.505 293.867L102.529 302.585L106.665 326.921L130.34 316.737L126.505 293.867Z" fill="#EDEDED"/>
<path opacity="0.05" d="M126.505 293.867L102.529 302.585L106.665 326.921L130.34 316.737L126.505 293.867Z" fill="black"/>
<path d="M126.505 293.867L110.743 289.72L88.2809 296.265L102.529 302.585L126.505 293.867Z" fill="#EDEDED"/>
<path opacity="0.4" d="M126.505 293.867L110.743 289.72L88.2809 296.265L102.529 302.585L126.505 293.867Z" fill="white"/>
<path d="M100.454 280.38L99.7904 280.582L102.417 295.355L103.228 295.258L100.454 280.38Z" fill="#263238"/>
<path opacity="0.4" d="M100.454 280.38L100.195 280.46L102.958 295.287L103.228 295.258L100.454 280.38Z" fill="white"/>
<path opacity="0.2" d="M99.7906 280.581L100.195 280.459L102.959 295.286L102.417 295.354L99.7906 280.581Z" fill="white"/>
<path d="M174.041 299.987L178.388 336.656L166.448 332.5L161.674 297.262L174.041 299.987Z" fill="#263238"/>
<path opacity="0.2" d="M174.041 299.987L178.388 336.656L166.448 332.5L161.674 297.262L174.041 299.987Z" fill="white"/>
<path opacity="0.4" d="M173.815 300.152L178.129 336.57L166.448 332.501L161.719 297.555L173.815 300.152Z" fill="white"/>
<path d="M161.144 297.165L165.756 332.374L154.469 328.563L149.708 294.6L161.144 297.165Z" fill="#263238"/>
<path opacity="0.2" d="M161.144 297.165L165.756 332.374L154.469 328.563L149.708 294.6L161.144 297.165Z" fill="white"/>
<path opacity="0.4" d="M160.894 297.404L165.49 332.276L154.469 328.563L149.728 294.81L160.894 297.404Z" fill="white"/>
<path d="M149.242 294.525L154.015 328.205L143.698 324.933L138.729 292.324L149.242 294.525Z" fill="#263238"/>
<path opacity="0.2" d="M149.242 294.525L154.015 328.205L143.698 324.933L138.729 292.324L149.242 294.525Z" fill="white"/>
<path opacity="0.4" d="M149.065 294.689L153.737 328.116L143.698 324.934L138.775 292.607L149.065 294.689Z" fill="white"/>
<path d="M138.352 291.972L143.412 324.725L133.649 321.475L128.705 289.86L138.352 291.972Z" fill="#263238"/>
<path opacity="0.2" d="M138.352 291.972L143.412 324.725L133.649 321.475L128.705 289.86L138.352 291.972Z" fill="white"/>
<path opacity="0.4" d="M138.202 292.15L143.181 324.653L133.65 321.475L128.737 290.062L138.202 292.15Z" fill="white"/>
<path d="M116.504 304.82L117.099 308.7L132.158 314.659L129.47 298.454L116.504 304.82Z" fill="#263238"/>
<path opacity="0.2" d="M116.504 304.82L117.099 308.7L132.158 314.659L129.47 298.454L116.504 304.82Z" fill="white"/>
<path opacity="0.4" d="M116.563 305.144L117.1 308.7L131.885 314.55L129.301 298.737L116.563 305.144Z" fill="white"/>
<path d="M87.6474 297.805L97.4837 328.274C101.812 327.104 103.899 315.816 102.114 308.789C99.5919 301.824 92.0106 297.248 87.6474 297.805Z" fill="#263238"/>
<g opacity="0.2">
<path opacity="0.2" d="M96.6965 325.819L97.1217 327.141C101.445 324.333 102.95 314.301 102.113 308.79C102.892 320.424 96.6965 325.819 96.6965 325.819Z" fill="black"/>
</g>
<g opacity="0.3">
<path opacity="0.3" d="M87.6474 297.805L97.4837 328.274C101.812 327.104 103.899 315.816 102.114 308.789C99.5919 301.824 92.0106 297.248 87.6474 297.805Z" fill="white"/>
</g>
<path opacity="0.2" d="M101.341 307.758C96.3902 301.545 92.3461 299.975 88.4675 300.346L88.0741 299.118C92.7386 299.38 96.7955 301.256 101.341 307.758Z" fill="white"/>
<path d="M98.9342 310.699C101.913 319.079 101.497 326.841 97.9983 328.084C94.4995 329.327 89.2531 323.551 86.264 315.227C83.2749 306.903 83.701 299.085 87.1981 297.851C90.6952 296.617 95.9485 302.356 98.9342 310.699Z" fill="#EDEDED"/>
<path opacity="0.4" d="M98.9342 310.699C101.913 319.079 101.497 326.841 97.9983 328.084C94.4995 329.327 89.2531 323.551 86.264 315.227C83.2749 306.903 83.701 299.085 87.1981 297.851C90.6952 296.617 95.9485 302.356 98.9342 310.699Z" fill="white"/>
<path opacity="0.2" d="M98.967 310.411C99.5345 312.058 99.9501 313.754 100.209 315.477C100.329 316.135 100.228 316.815 99.9207 317.409C99.6138 318.004 99.1184 318.48 98.5122 318.763C96.836 319.359 94.3124 316.597 92.8772 312.593C91.4421 308.588 91.6447 304.844 93.3226 304.239C94.3072 303.889 95.9629 304.534 96.9458 306.182C97.7485 307.527 98.4252 308.942 98.967 310.411V310.411Z" fill="black"/>
<path d="M90.5242 311.527L94.7798 310.647L97.4747 308.601C97.9855 308.868 98.3825 309.311 98.5925 309.848C98.8025 310.385 98.8113 310.98 98.6172 311.523L95.3808 311.971L91.7226 314.841L90.5242 311.527Z" fill="#263238"/>
<path opacity="0.2" d="M90.5242 311.527L94.7798 310.647L97.4747 308.601C97.9855 308.868 98.3825 309.311 98.5925 309.848C98.8025 310.385 98.8113 310.98 98.6172 311.523L95.3808 311.971L91.7226 314.841L90.5242 311.527Z" fill="white"/>
<path d="M91.8228 312.948C92.1525 313.88 92.1047 314.734 91.7141 314.888C91.3235 315.042 90.7471 314.388 90.4157 313.466C90.0842 312.543 90.1338 311.68 90.5244 311.526C90.9149 311.372 91.4913 312.026 91.8228 312.948Z" fill="#263238"/>
<path opacity="0.4" d="M91.8228 312.948C92.1525 313.88 92.1047 314.734 91.7141 314.888C91.3235 315.042 90.7471 314.388 90.4157 313.466C90.0842 312.543 90.1338 311.68 90.5244 311.526C90.9149 311.372 91.4913 312.026 91.8228 312.948Z" fill="white"/>
<path opacity="0.2" d="M98.5619 309.837C98.7487 310.394 98.7655 310.994 98.6102 311.56L95.3738 312.009L91.7156 314.878C92.1467 314.663 92.0887 313.477 91.7614 312.8C91.7614 312.8 93.0927 312.269 98.5619 309.837Z" fill="black"/>
<path opacity="0.2" d="M90.7951 311.546L94.8584 310.807L97.6706 308.763L97.8119 308.847L94.9196 310.848L90.9994 311.661L90.7951 311.546Z" fill="white"/>
<g opacity="0.2">
<path opacity="0.2" d="M91.6125 313.028C91.8905 313.813 91.854 314.551 91.5289 314.668C91.2039 314.785 90.6955 314.242 90.4122 313.485C90.129 312.728 90.1707 311.962 90.4975 311.835C90.8243 311.709 91.3361 312.233 91.6125 313.028Z" fill="black"/>
<path opacity="0.4" d="M91.6125 313.028C91.8905 313.813 91.854 314.551 91.5289 314.668C91.2039 314.785 90.6955 314.242 90.4122 313.485C90.129 312.728 90.1707 311.962 90.4975 311.835C90.8243 311.709 91.3361 312.233 91.6125 313.028Z" fill="black"/>
</g>
<path d="M95.7578 325.863L95.5129 326.132L85.613 318.85L85.8071 318.592L95.7578 325.863Z" fill="#263238"/>
<path opacity="0.1" d="M95.7578 325.863L95.5129 326.132L85.613 318.85L85.8071 318.592L95.7578 325.863Z" fill="white"/>
<path d="M85.2461 303.128L84.9616 303.077L82.9227 312.541L83.3019 312.61L85.2461 303.128Z" fill="#263238"/>
<path opacity="0.1" d="M85.2461 303.128L84.9616 303.077L82.9227 312.541L83.3019 312.61L85.2461 303.128Z" fill="white"/>
<path d="M97.5757 307.776L82.9227 312.54L83.0441 312.788L97.7773 308.067L97.5757 307.776Z" fill="#263238"/>
<path opacity="0.1" d="M97.5757 307.776L82.9227 312.54L83.0441 312.788L97.7773 308.067L97.5757 307.776Z" fill="white"/>
<path d="M97.9867 308.801L97.811 308.475L85.5943 318.416L85.7045 318.671L97.9867 308.801Z" fill="#263238"/>
<path opacity="0.1" d="M97.9867 308.801L97.811 308.475L85.5943 318.416L85.7045 318.671L97.9867 308.801Z" fill="white"/>
<path d="M85.5606 315.432C86.1994 317.302 86.1348 319.054 85.3528 319.313C84.5707 319.572 83.3808 318.307 82.7136 316.431C82.0464 314.556 82.1395 312.81 82.9215 312.55C83.7035 312.291 84.8839 313.555 85.5606 315.432Z" fill="#263238"/>
<path opacity="0.2" d="M85.5606 315.432C86.1994 317.302 86.1348 319.054 85.3528 319.313C84.5707 319.572 83.3808 318.307 82.7136 316.431C82.0464 314.556 82.1395 312.81 82.9215 312.55C83.7035 312.291 84.8839 313.555 85.5606 315.432Z" fill="white"/>
<path opacity="0.1" d="M85.2671 315.535C85.8706 317.222 85.7819 318.783 85.0792 319.037C84.3765 319.291 83.2866 318.123 82.7098 316.45C82.133 314.777 82.1967 313.192 82.8994 312.938C83.6021 312.684 84.6636 313.848 85.2671 315.535Z" fill="black"/>
<path opacity="0.2" d="M117.1 308.7L130.34 316.738L129.824 313.655L117.1 308.7Z" fill="black"/>
<path d="M139.658 114.727C125.713 112.184 116.469 98.8184 119.012 84.873C121.554 70.9277 134.92 61.6838 148.865 64.2262C162.811 66.7686 172.054 80.1345 169.512 94.0798C166.97 108.025 153.604 117.269 139.658 114.727Z" fill="#EDEDED"/>
<path opacity="0.4" d="M139.658 114.727C125.713 112.184 116.469 98.8184 119.012 84.873C121.554 70.9277 134.92 61.6838 148.865 64.2262C162.811 66.7686 172.054 80.1345 169.512 94.0798C166.97 108.025 153.604 117.269 139.658 114.727Z" fill="white"/>
<path opacity="0.4" d="M139.658 114.727C125.713 112.184 116.469 98.8184 119.012 84.873C121.554 70.9277 134.92 61.6838 148.865 64.2262C162.811 66.7686 172.054 80.1345 169.512 94.0798C166.97 108.025 153.604 117.269 139.658 114.727Z" fill="white"/>
<path opacity="0.2" d="M168.689 81.5564C168.74 84.5047 166.55 85.3398 162.261 84.3033C152.095 81.8569 142.549 77.3206 134.231 70.9832C132.471 69.2418 132.557 67.641 133.62 66.1105C119.585 73.6132 116.358 86.4762 119.873 97.4528C120.813 99.6602 122.498 101.468 124.633 102.563C130.709 106.333 137.266 109.265 144.127 111.28C150.43 113.409 154.31 113.675 156.078 112.254C168.686 105.705 172.009 92.7424 168.689 81.5564Z" fill="white"/>
<path opacity="0.2" d="M169.512 94.0799C168.651 98.9447 166.33 103.432 162.856 106.945C161.182 108.599 156.818 108.195 150.285 106.034C141.736 103.548 133.57 99.8971 126.018 95.1833C121.898 92.6296 119.365 89.8655 118.614 86.8384C119.136 82.3034 120.842 77.9856 123.561 74.3185C123.314 77.8787 125.176 81.2063 129.591 84.2351C138.35 89.4689 147.688 93.6668 157.417 96.7439C163.627 98.6305 168.188 98.3844 169.512 94.0799Z" fill="white"/>
<path opacity="0.1" d="M158.469 69.1023C156.23 67.7324 153.857 66.5941 151.387 65.705C148.103 64.7534 147.42 65.2169 147.63 66.1661C148.438 67.3666 149.465 68.4046 150.657 69.2262C152.517 70.4694 154.559 71.4137 156.711 72.0247C158.226 72.3694 159.84 72.7029 160.888 72.169C161.493 71.427 160.287 70.3058 158.469 69.1023Z" fill="black"/>
<path d="M105.741 69.6387C107.711 65.9811 116.206 66.4032 127.506 70.0405C126.244 71.0978 125.1 72.2887 124.095 73.5923C119.922 72.9981 117.002 73.4846 116.071 75.2057C113.787 79.4623 124.477 89.6604 139.959 97.979C155.44 106.297 169.836 109.608 172.12 105.351C173.101 103.571 172.002 100.95 168.859 97.5557C168.906 97.5643 168.639 97.3099 168.681 97.347C169.17 95.8121 169.516 94.2355 169.716 92.6372C179.252 100.195 184.478 107.212 182.479 110.923C179.34 116.748 159.619 112.232 138.421 100.824C117.223 89.4156 102.602 75.4639 105.741 69.6387Z" fill="#EDEDED"/>
<path opacity="0.3" d="M105.741 69.6387C107.711 65.9811 116.206 66.4032 127.506 70.0405C126.244 71.0978 125.1 72.2887 124.095 73.5923C119.922 72.9981 117.002 73.4846 116.071 75.2057C113.787 79.4623 124.477 89.6604 139.959 97.979C155.44 106.297 169.836 109.608 172.12 105.351C173.101 103.571 172.002 100.95 168.859 97.5557C168.906 97.5643 168.639 97.3099 168.681 97.347C169.17 95.8121 169.516 94.2355 169.716 92.6372C179.252 100.195 184.478 107.212 182.479 110.923C179.34 116.748 159.619 112.232 138.421 100.824C117.223 89.4156 102.602 75.4639 105.741 69.6387Z" fill="white"/>
<path d="M373.893 205.325C362.081 188.247 366.351 164.827 383.43 153.015C400.508 141.204 423.928 145.473 435.74 162.552C447.551 179.63 443.281 203.05 426.203 214.862C409.124 226.673 385.704 222.404 373.893 205.325Z" fill="#EDEDED"/>
<path opacity="0.4" d="M373.893 205.325C362.081 188.247 366.351 164.827 383.43 153.015C400.508 141.204 423.928 145.473 435.74 162.552C447.551 179.63 443.281 203.05 426.203 214.862C409.124 226.673 385.704 222.404 373.893 205.325Z" fill="white"/>
<path opacity="0.2" d="M377.746 181.949L378.568 182.226C378.673 182.264 378.786 182.278 378.898 182.268C379.009 182.258 379.118 182.224 379.215 182.168L380.79 181.27C380.858 181.234 380.929 181.204 381.002 181.181L385.297 180.191C385.442 180.157 385.574 180.082 385.679 179.976L388.505 177.21C388.631 177.082 388.79 176.992 388.964 176.95L390.393 176.584C390.458 176.566 390.525 176.558 390.593 176.561L392.024 176.607C392.223 176.608 392.419 176.563 392.597 176.476L395.963 174.778C396.099 174.712 396.25 174.682 396.4 174.691L398.624 174.802C398.769 174.809 398.909 174.855 399.03 174.935L399.572 175.299C399.663 175.359 399.765 175.4 399.873 175.42C399.98 175.439 400.091 175.437 400.197 175.413L403.004 174.69C403.17 174.642 403.348 174.654 403.507 174.723L405.708 175.653C405.846 175.715 405.96 175.818 406.037 175.948L406.795 177.164C406.859 177.268 406.95 177.353 407.059 177.411C407.167 177.469 407.288 177.497 407.411 177.492L409.38 177.439L413.697 176.385L415.366 174.592C415.491 174.451 415.56 174.268 415.557 174.079L415.56 172.453L415.023 170.023C415.016 169.999 415.016 169.974 415.023 169.95C415.03 169.926 415.043 169.904 415.061 169.887C415.079 169.87 415.102 169.858 415.127 169.854C415.151 169.849 415.177 169.851 415.2 169.859L416.842 170.365C416.945 170.397 417.04 170.454 417.118 170.529C417.196 170.605 417.255 170.697 417.292 170.799L417.629 171.742C417.668 171.848 417.729 171.945 417.806 172.026C417.884 172.108 417.978 172.173 418.082 172.217L420.283 173.147C420.383 173.193 420.498 173.199 420.603 173.164C420.708 173.128 420.795 173.054 420.847 172.956L421.288 172.145L422.225 170.983C422.309 170.89 422.365 170.774 422.388 170.651C422.41 170.527 422.398 170.399 422.353 170.282L421.518 168.415L421.281 167.186C421.252 167.027 421.172 166.882 421.053 166.773L419.718 165.55C419.582 165.428 419.409 165.355 419.227 165.342L417.759 165.281C417.666 165.277 417.575 165.255 417.491 165.214C417.407 165.174 417.333 165.116 417.273 165.045L416.777 164.484C416.686 164.388 416.57 164.319 416.441 164.286L414.86 163.88C414.73 163.849 414.595 163.851 414.467 163.887L413.531 164.128C413.441 164.153 413.359 164.204 413.296 164.274C413.233 164.344 413.191 164.43 413.175 164.523L413.035 165.291C413.013 165.412 412.944 165.519 412.843 165.589C412.742 165.659 412.617 165.685 412.497 165.663L412.241 165.617C412.159 165.601 412.082 165.568 412.013 165.521C411.945 165.474 411.887 165.413 411.842 165.343C411.798 165.272 411.769 165.193 411.757 165.111C411.744 165.029 411.749 164.945 411.77 164.865L411.967 164.215L412.364 162.896C412.403 162.771 412.403 162.636 412.362 162.512C412.322 162.387 412.244 162.277 412.139 162.199L410.743 161.15L409.136 158.575L408.145 156.268L405.767 155.021C405.666 154.97 405.585 154.888 405.535 154.787C405.485 154.686 405.468 154.572 405.487 154.461L405.711 153.228C405.732 153.119 405.716 153.006 405.664 152.908C405.613 152.81 405.529 152.732 405.428 152.687L403.834 151.975C403.691 151.912 403.576 151.801 403.509 151.661L403.003 150.511C402.985 150.472 402.976 150.429 402.978 150.386C402.979 150.343 402.99 150.3 403.01 150.262C403.03 150.224 403.059 150.191 403.094 150.166C403.129 150.141 403.169 150.125 403.212 150.118L406.46 149.554L408.885 148.879C408.99 148.85 409.1 148.85 409.205 148.878C409.31 148.905 409.406 148.96 409.483 149.037L411.966 151.537C412.054 151.623 412.161 151.684 412.279 151.716C412.397 151.747 412.521 151.748 412.639 151.719L414.869 151.146L416.544 150.716C416.577 150.709 416.607 150.691 416.63 150.667C416.654 150.642 416.669 150.612 416.675 150.578C416.681 150.545 416.678 150.511 416.665 150.48C416.651 150.449 416.629 150.422 416.601 150.403L415.132 149.597C415.066 149.563 415.008 149.515 414.961 149.458L413.162 147.288C418.411 148.533 423.327 150.899 427.573 154.226C428.582 159.372 429.007 164.616 428.838 169.857C428.83 169.978 428.794 170.096 428.732 170.201C428.671 170.305 428.585 170.394 428.483 170.459L421.645 174.973C421.523 175.052 421.379 175.088 421.234 175.074L419.029 174.917C418.92 174.906 418.809 174.923 418.707 174.966L409.448 178.461C409.338 178.5 409.241 178.57 409.17 178.663C409.099 178.757 409.057 178.869 409.049 178.986L408.318 187.562C408.297 187.884 408.166 188.189 407.945 188.425L402.688 194.158C402.619 194.231 402.538 194.293 402.449 194.339L398.881 196.177C398.795 196.222 398.723 196.289 398.671 196.371C398.62 196.453 398.592 196.547 398.59 196.644L398.461 203.693L398.667 214.655C398.199 216.039 396.509 214.83 394.188 212.349L392.323 207.483L390.154 206.108L384.941 200.739L381.668 195.312L380.345 189.996C380.321 189.911 380.286 189.829 380.242 189.752L378.458 186.752L377.235 184.913C377.124 184.745 377.081 184.541 377.114 184.342L377.525 182.085C377.528 182.06 377.536 182.036 377.55 182.015C377.563 181.994 377.581 181.976 377.602 181.963C377.624 181.95 377.648 181.942 377.673 181.939C377.698 181.937 377.723 181.94 377.746 181.949V181.949Z" fill="black"/>
<path d="M393.647 151.803L393.694 151.812C393.693 151.792 393.697 151.773 393.705 151.755L393.647 151.803Z" fill="white"/>
<path d="M233.516 221.226C230.127 222.293 201.16 245.012 205.22 259.066C208.233 269.413 237.06 279.224 237.06 279.224L242.185 271.801C242.185 271.801 221.89 260.166 221.224 256.566C220.558 252.967 248.203 239.49 248.203 239.49L233.516 221.226Z" fill="#EDEDED"/>
<path opacity="0.3" d="M233.516 221.226C230.127 222.293 201.16 245.012 205.22 259.066C208.233 269.413 237.06 279.224 237.06 279.224L242.185 271.801C242.185 271.801 221.89 260.166 221.224 256.566C220.558 252.967 248.203 239.49 248.203 239.49L233.516 221.226Z" fill="white"/>
<path opacity="0.2" d="M229.187 263.671C229.39 266.961 231.205 269.799 235.574 271.948L231.68 277.185L232.246 277.415L238.33 269.511L229.187 263.671Z" fill="black"/>
<path d="M239.539 267.88L231.026 278.946L242.635 283.894C242.801 283.961 242.951 284.062 243.075 284.191C243.2 284.32 243.296 284.473 243.358 284.641C243.42 284.809 243.445 284.988 243.433 285.167C243.422 285.346 243.372 285.52 243.289 285.679L241.037 289.863C240.845 290.239 240.781 290.667 240.856 291.082C240.931 291.498 241.139 291.877 241.451 292.162L242.295 292.904C242.551 293.126 242.882 293.242 243.22 293.227C243.558 293.212 243.877 293.068 244.112 292.824L257.414 278.976C257.498 278.889 257.56 278.783 257.597 278.668C257.634 278.553 257.644 278.43 257.626 278.311C257.608 278.191 257.563 278.077 257.494 277.978C257.425 277.878 257.334 277.796 257.228 277.737L239.539 267.88Z" fill="#EDEDED"/>
<g opacity="0.2">
<path opacity="0.2" d="M239.539 267.88L231.026 278.946L242.635 283.894C242.801 283.961 242.951 284.062 243.075 284.191C243.2 284.32 243.296 284.473 243.358 284.641C243.42 284.809 243.445 284.988 243.433 285.167C243.422 285.346 243.372 285.52 243.289 285.679L241.037 289.863C240.845 290.239 240.781 290.667 240.856 291.082C240.931 291.498 241.139 291.877 241.451 292.162L242.295 292.904C242.551 293.126 242.882 293.242 243.22 293.227C243.558 293.212 243.877 293.068 244.112 292.824L257.414 278.976C257.498 278.889 257.56 278.783 257.597 278.668C257.634 278.553 257.644 278.43 257.626 278.311C257.608 278.191 257.563 278.077 257.494 277.978C257.425 277.878 257.334 277.796 257.228 277.737L239.539 267.88Z" fill="white"/>
</g>
<path opacity="0.2" d="M250.017 273.708C245.36 274.028 240.683 273.507 236.21 272.171L239.548 267.832L250.017 273.708Z" fill="black"/>
<path opacity="0.2" d="M229.607 249.493L227.284 250.951C226.591 243.251 231.53 236.902 234.45 227.765L236.114 228.578C233.165 235.283 230.983 242.299 229.607 249.493Z" fill="black"/>
<path d="M273.686 309.609L289.7 319.358L297.541 294.619L281.774 284.701L273.686 309.609Z" fill="#EDEDED"/>
<path opacity="0.2" d="M273.686 309.609L289.7 319.358L297.541 294.619L281.774 284.701L273.686 309.609Z" fill="black"/>
<path d="M289.069 286.707C282.645 263.855 275.124 246.857 265.136 242.96L190.826 206.095C172.532 199.821 154.547 202.283 136.87 214.069C135.351 238.148 144.539 252.608 159.894 261.462L237.115 297.564C244.185 300.753 260.435 297.818 289.069 286.707Z" fill="#EDEDED"/>
<path d="M310.476 293.265L285.225 275.23C277.136 278.653 275.078 285.587 276.299 291.57L302.646 305.906C309.32 303.42 311.272 299.7 310.476 293.265Z" fill="#EDEDED"/>
<path d="M330.979 290.536L342.087 293.61C345.51 294.556 348.533 296.589 350.7 299.403L379.85 337.321L331.889 332.722C329.311 332.477 326.828 331.625 324.642 330.235L316.271 324.888C313.999 323.438 312.12 321.45 310.8 319.101C309.481 316.752 308.761 314.113 308.704 311.419L308.665 309.589C308.613 306.8 309.274 304.044 310.586 301.583L312.192 298.574C313.208 296.665 314.591 294.976 316.263 293.604V293.604C318.293 291.956 320.688 290.817 323.248 290.283C325.808 289.749 328.459 289.836 330.979 290.536V290.536Z" fill="#EDEDED"/>
<path opacity="0.19" d="M330.979 290.536L342.087 293.61C345.51 294.556 348.533 296.589 350.7 299.403L379.85 337.321L331.889 332.722C329.311 332.477 326.828 331.625 324.642 330.235L316.271 324.888C313.999 323.438 312.12 321.45 310.8 319.101C309.481 316.752 308.761 314.113 308.704 311.419L308.665 309.589C308.613 306.8 309.274 304.044 310.586 301.583L312.192 298.574C313.208 296.665 314.591 294.976 316.263 293.604V293.604C318.293 291.956 320.688 290.817 323.248 290.283C325.808 289.749 328.459 289.836 330.979 290.536V290.536Z" fill="white"/>
<path opacity="0.29" d="M322.468 297.293L328.128 298.863C329.862 299.347 331.392 300.379 332.491 301.804L347.339 321.117L322.907 318.799C321.595 318.672 320.331 318.237 319.219 317.529L314.957 314.792C313.8 314.053 312.843 313.04 312.17 311.843C311.498 310.645 311.132 309.301 311.104 307.928L311.088 306.994C311.058 305.575 311.391 304.172 312.057 302.919L312.875 301.383C313.393 300.4 314.101 299.53 314.959 298.824V298.824C315.996 297.986 317.22 297.409 318.527 297.143C319.833 296.877 321.185 296.928 322.468 297.293V297.293Z" fill="white"/>
<path d="M319.621 300.33L323.165 301.309C324.254 301.615 325.215 302.264 325.904 303.161L335.185 315.237L319.911 313.785C319.089 313.704 318.296 313.432 317.597 312.991L314.967 311.297C314.244 310.833 313.647 310.198 313.229 309.448C312.81 308.699 312.582 307.857 312.566 306.999L312.554 306.419C312.539 305.533 312.749 304.658 313.165 303.875L313.674 302.91C313.99 302.305 314.421 301.768 314.942 301.329C315.586 300.802 316.347 300.436 317.161 300.262C317.974 300.089 318.818 300.112 319.621 300.33V300.33Z" fill="#EDEDED"/>
<path opacity="0.1" d="M289.069 286.707C282.645 263.855 275.124 246.857 264.543 242.665L190.283 205.849C172.58 199.829 154.587 202.329 136.91 214.116C135.391 238.194 144.58 252.655 159.934 261.508L237.156 297.61C244.185 300.753 260.435 297.818 289.069 286.707Z" fill="black"/>
<path d="M310.476 293.265L285.225 275.23C285.588 283.182 280.644 288.59 276.299 291.57L302.646 305.906C309.32 303.42 311.272 299.7 310.476 293.265Z" fill="#EDEDED"/>
<path d="M307.037 336.361L282.486 321.471L283.507 288.788L301.872 299.993L307.037 336.361Z" fill="#EDEDED"/>
<path opacity="0.3" d="M307.037 336.361L282.486 321.471L283.507 288.788L301.872 299.993L307.037 336.361Z" fill="white"/>
<path d="M341.468 277.44L314.304 263.454L287.062 279.875L308.05 293.351L341.468 277.44Z" fill="#EDEDED"/>
<path opacity="0.3" d="M341.468 277.44L314.304 263.454L287.062 279.875L308.05 293.351L341.468 277.44Z" fill="white"/>
<path opacity="0.7" d="M202.205 211.765L198.449 209.905C199.649 211.088 200.579 212.518 201.176 214.094C201.773 215.67 202.022 217.357 201.908 219.039C202.048 237.992 194.431 253.925 180.197 266.329C177.945 267.937 174.756 267.855 172.14 267.211L175.372 268.722C178.913 269.612 180.788 268.729 183.211 267.212C196.921 258.16 206.122 236.815 205.037 219.874C204.996 215.909 203.768 212.54 202.205 211.765Z" fill="white"/>
<path opacity="0.7" d="M210.768 216.011L207.174 214.229C209.392 215.711 210.721 219.921 210.639 223.325C210.77 242.277 203.164 257.986 188.929 270.615C186.968 272.129 183.595 271.984 180.958 271.347L184.34 272.894C187.881 273.785 189.601 273.217 191.92 271.513C205.63 262.462 214.841 241.118 213.756 224.178C213.884 220.253 211.837 216.539 210.768 216.011Z" fill="white"/>
<path d="M139.779 213.375C140.151 215.471 139.546 216.909 137.55 217.378L114.426 205.52C111.031 203.344 109.85 202.139 115.185 203.827L139.779 213.375Z" fill="#EDEDED"/>
<path opacity="0.3" d="M139.779 213.375C140.151 215.471 139.546 216.909 137.55 217.378L114.426 205.52C111.031 203.344 109.85 202.139 115.185 203.827L139.779 213.375Z" fill="black"/>
<path opacity="0.2" d="M279.063 289.36C262.314 292.185 243.245 296.614 236.156 292.99L159.972 257.107C149.704 253.618 143.747 231.322 138.826 216.826C145.151 230.5 150.524 249.927 162.598 254.793L236.72 289.899C245.237 294.558 263.813 290.518 279.063 289.36Z" fill="black"/>
<path opacity="0.4" d="M198.078 211.885C199.411 213.302 200.158 215.171 200.171 217.116L187.567 211.017C175.557 206.016 151.998 210.244 139.807 215.046C150.824 208.355 176.215 202.462 187.257 207.345L198.078 211.885Z" fill="white"/>
<path opacity="0.3" d="M139.339 216.322L138.078 217.219L111.728 203.549L139.339 216.322Z" fill="black"/>
<path opacity="0.2" d="M239.277 230.143L233.066 268.081L259.731 273.09C244.845 275.911 230.681 274.984 228.052 268.931C223.704 257.361 226.597 243.056 233.673 227.348L239.277 230.143Z" fill="black"/>
<path opacity="0.2" d="M232.933 228.937L212.848 219.162C213.456 220.345 213.762 221.659 213.737 222.988L231.719 231.831L232.933 228.937Z" fill="#E6E6E6"/>
<path opacity="0.2" d="M255.41 241.068L265.509 246.446C267.795 248.094 269.745 250.162 271.257 252.54L275.834 260.32L271.683 260.465L267.89 253.973C266.735 252.006 265.19 250.297 263.348 248.952L253.779 243.456L255.41 241.068Z" fill="#E0E0E0"/>
<path d="M285.246 193.917L268.836 202.349L245.095 201.077L236.775 165.193L245.256 157.099L278.069 151.706C283.807 164.137 284.931 178.498 285.246 193.917Z" fill="#EDEDED"/>
<path opacity="0.2" d="M285.246 193.917L268.836 202.349L245.095 201.077L236.775 165.193L245.256 157.099L278.069 151.706C283.01 162.6 285.239 176.918 285.246 193.917Z" fill="white"/>
<path opacity="0.3" d="M285.246 193.917L268.838 202.34L260.653 162.815C265.973 160.934 271.761 157.287 278.069 151.706C282.658 160.714 284.928 175.079 285.246 193.917Z" fill="black"/>
<path d="M239.389 222.326C236.918 224.814 222.162 258.677 232.383 269.142C239.896 276.831 269.97 271.851 269.97 271.851L270.987 262.886C270.987 262.886 247.593 262.236 245.302 259.379C243.011 256.521 259.292 237.241 261 231.576C262.709 225.911 239.389 222.326 239.389 222.326Z" fill="#EDEDED"/>
<path opacity="0.3" d="M239.389 222.326C236.918 224.814 222.162 258.677 232.383 269.142C239.896 276.831 269.97 271.851 269.97 271.851L270.987 262.886C270.987 262.886 247.593 262.236 245.302 259.379C243.011 256.521 259.292 237.241 261 231.576C262.709 225.911 239.389 222.326 239.389 222.326Z" fill="white"/>
<path d="M261.13 260.795L259.505 274.655L272.013 272.948C272.191 272.925 272.372 272.939 272.544 272.99C272.716 273.042 272.875 273.129 273.011 273.246C273.147 273.364 273.257 273.508 273.333 273.671C273.409 273.834 273.449 274.011 273.452 274.19L273.665 278.932C273.694 279.353 273.86 279.754 274.138 280.072C274.416 280.39 274.792 280.608 275.206 280.692L276.306 280.892C276.639 280.954 276.983 280.884 277.267 280.699C277.55 280.514 277.752 280.226 277.829 279.897L282.144 261.177C282.171 261.059 282.171 260.935 282.143 260.816C282.115 260.698 282.06 260.587 281.983 260.493C281.905 260.4 281.806 260.325 281.695 260.275C281.584 260.226 281.462 260.203 281.341 260.208L261.13 260.795Z" fill="#EDEDED"/>
<path d="M228.648 164.632C228.648 164.632 220.484 184.962 216.762 188.663C213.041 192.363 195.381 203.839 195.381 203.839L195.998 208.517C195.998 208.517 221.268 198.125 223.195 196.37C225.121 194.615 239.287 176.722 239.287 176.722L228.648 164.632Z" fill="#EDEDED"/>
<path d="M225.686 139.717C225.686 139.717 225.824 145.944 230.23 148.109C234.636 150.274 232.26 136.546 232.26 136.546L228.202 134.728L225.686 139.717Z" fill="#263238"/>
<path d="M223.594 154.389C218.205 146.596 220.153 135.909 227.946 130.52C235.738 125.13 246.425 127.079 251.814 134.871C257.204 142.664 255.256 153.351 247.463 158.74C239.67 164.13 228.984 162.181 223.594 154.389Z" fill="#263238"/>
<path opacity="0.2" d="M223.594 154.389C218.205 146.596 220.153 135.909 227.946 130.52C235.738 125.13 246.425 127.079 251.814 134.871C257.204 142.664 255.256 153.351 247.463 158.74C239.67 164.13 228.984 162.181 223.594 154.389Z" fill="white"/>
<path opacity="0.7" d="M231.147 156.887C227.754 155.533 225.01 152.929 223.48 149.611L224.919 149.08C226.798 152.004 229.308 154.47 232.264 156.298L231.147 156.887Z" fill="white"/>
<path opacity="0.7" d="M223.197 148.64L224.659 148.25C224.413 147.844 224.278 147.38 224.267 146.905L222.889 147.32C222.844 147.781 222.952 148.245 223.197 148.64Z" fill="white"/>
<path d="M247.994 159.44C248.307 163.092 237.402 166.16 234.529 162.04C236.686 160.954 237.452 159.546 237.481 158.042C237.468 157.125 237.27 156.219 236.899 155.379C236.712 154.902 236.496 154.438 236.251 153.988L242.129 145.928C242.302 149.977 242.674 159.116 247.994 159.44Z" fill="#E4897B"/>
<path opacity="0.2" d="M241.489 150.083C242.595 154.762 239.211 157.202 237.481 158.043C237.467 157.125 237.269 156.219 236.899 155.379L241.489 150.083Z" fill="black"/>
<path d="M242.598 152.01C241.994 153.37 240.957 154.491 239.65 155.201C238.342 155.91 236.836 156.168 235.367 155.933C233.457 155.675 231.718 154.695 230.508 153.195C230.337 152.991 230.18 152.776 230.037 152.551C227.331 148.374 225.358 140.598 229.617 136.8C230.552 135.956 231.687 135.367 232.914 135.088C234.142 134.809 235.42 134.85 236.628 135.207C237.835 135.564 238.93 136.224 239.809 137.126C240.688 138.027 241.32 139.139 241.646 140.354C243.14 145.545 244.253 148.52 242.598 152.01Z" fill="#E4897B"/>
<path d="M234.446 144.489C234.496 144.564 234.529 144.649 234.545 144.738C234.561 144.827 234.558 144.918 234.538 145.006C234.517 145.094 234.479 145.177 234.425 145.249C234.372 145.322 234.304 145.383 234.226 145.428C233.944 145.524 233.6 145.314 233.469 144.85C233.338 144.385 233.423 144.028 233.699 143.912C233.975 143.795 234.292 144.098 234.446 144.489Z" fill="#263238"/>
<path d="M229.779 146.175C229.873 146.33 229.901 146.515 229.858 146.691C229.815 146.867 229.704 147.018 229.549 147.113C229.279 147.2 228.944 146.943 228.793 146.534C228.642 146.124 228.748 145.703 229.023 145.596C229.297 145.489 229.636 145.776 229.779 146.175Z" fill="#263238"/>
<path d="M231.322 145.878C231.282 147.315 231.039 148.738 230.6 150.106C230.956 150.209 231.33 150.233 231.696 150.177C232.061 150.12 232.41 149.983 232.718 149.777L231.322 145.878Z" fill="#DE5753"/>
<path d="M235.357 142.499C235.313 142.515 235.265 142.519 235.218 142.511C235.172 142.502 235.128 142.482 235.092 142.451C234.828 142.268 234.524 142.149 234.205 142.104C233.887 142.06 233.562 142.091 233.258 142.195C233.198 142.21 233.135 142.204 233.079 142.177C233.024 142.15 232.98 142.105 232.955 142.049C232.93 141.992 232.926 141.929 232.943 141.87C232.96 141.811 232.998 141.76 233.049 141.726C233.432 141.585 233.844 141.539 234.249 141.59C234.654 141.642 235.04 141.79 235.376 142.023C235.434 142.059 235.475 142.118 235.49 142.185C235.506 142.252 235.494 142.322 235.457 142.38V142.38C235.432 142.426 235.398 142.466 235.357 142.499Z" fill="#263238"/>
<path d="M234.15 151.645C234.773 151.527 235.358 151.261 235.856 150.869C236.353 150.478 236.749 149.972 237.01 149.394C237.022 149.359 237.02 149.32 237.005 149.286C236.989 149.252 236.961 149.226 236.926 149.212C236.893 149.2 236.857 149.202 236.825 149.216C236.793 149.23 236.768 149.256 236.755 149.289C236.505 149.818 236.137 150.283 235.678 150.646C235.219 151.009 234.683 151.262 234.11 151.383C234.093 151.386 234.077 151.391 234.063 151.4C234.048 151.409 234.036 151.421 234.026 151.434C234.016 151.448 234.009 151.464 234.006 151.48C234.002 151.497 234.002 151.514 234.005 151.531V151.531C234.012 151.566 234.032 151.596 234.061 151.616C234.091 151.636 234.127 151.644 234.162 151.638L234.15 151.645Z" fill="#263238"/>
<path d="M227.2 145.274C227.162 145.308 227.114 145.327 227.063 145.328C227.029 145.325 226.996 145.316 226.966 145.301C226.936 145.286 226.909 145.265 226.887 145.239C226.865 145.213 226.849 145.183 226.839 145.15C226.829 145.118 226.826 145.084 226.83 145.05V145.05C226.868 144.643 227.003 144.252 227.224 143.908C227.445 143.565 227.746 143.28 228.1 143.077C228.13 143.061 228.163 143.052 228.196 143.049C228.23 143.046 228.263 143.05 228.295 143.06C228.327 143.071 228.357 143.088 228.382 143.11C228.407 143.132 228.428 143.158 228.443 143.189V143.189C228.471 143.25 228.473 143.32 228.451 143.383C228.428 143.447 228.382 143.499 228.322 143.529V143.529C228.049 143.701 227.819 143.934 227.65 144.209C227.481 144.483 227.377 144.793 227.347 145.115C227.335 145.15 227.316 145.182 227.29 145.21C227.265 145.237 227.234 145.259 227.2 145.274Z" fill="#263238"/>
<path d="M244.188 143.718C243.999 138.844 242.945 135.115 241.408 134.031C239.872 132.948 234.671 137.937 234.671 137.937C234.964 137.763 235.298 137.67 235.639 137.668C235.98 137.666 236.315 137.754 236.611 137.923C236.907 138.092 237.152 138.337 237.323 138.633C237.493 138.928 237.582 139.263 237.58 139.604C237.418 141.729 239.397 144.363 241.221 145.107C241.221 145.107 241.012 144.266 241.773 144.228C242.534 144.191 243.634 148.584 242.89 151.054C242.886 151.073 244.415 148.599 244.188 143.718Z" fill="#263238"/>
<path d="M245.298 143.753C245.14 145.099 244.454 146.327 243.392 147.168C241.985 148.273 240.588 147.176 240.408 145.478C240.262 143.972 240.793 141.541 242.497 141.117C242.868 141.023 243.257 141.025 243.628 141.122C243.999 141.218 244.339 141.406 244.618 141.669C244.897 141.932 245.106 142.26 245.225 142.624C245.343 142.989 245.369 143.377 245.298 143.753V143.753Z" fill="#E4897B"/>
<path d="M242.457 136.554C242.457 136.554 239.877 132.165 233.402 131.513C225.48 130.745 224.55 141.754 225.793 142.461C226.795 142.82 226.856 137.922 227.884 138.57C228.621 139.361 228.53 139.864 229.436 139.941C229.939 140.032 230.74 139.022 231.554 137.946C232.941 136.945 234.906 141.32 236.741 142.487C238.634 142.313 240.833 138.795 242.457 136.554Z" fill="#263238"/>
<path d="M268.01 207.959C266.924 217.029 263.704 228.189 259.658 234.426L236.093 228.583L228.163 224.629C230.033 223.294 235.184 215.406 235.178 201.572L268.01 207.959Z" fill="#EDEDED"/>
<g opacity="0.3">
<path opacity="0.3" d="M268.01 207.959C266.924 217.029 263.704 228.189 259.658 234.426L236.093 228.583L228.163 224.629C230.273 223.054 235.04 215.39 235.178 201.572L268.01 207.959Z" fill="white"/>
</g>
<path opacity="0.2" d="M236.093 228.583L235.607 223.782L230.434 225.768L236.093 228.583Z" fill="black"/>
<path d="M242.144 146.489L242.043 148.764C242.013 149.467 241.801 150.151 241.427 150.748L241.221 151.073C240.845 151.671 240.321 152.161 239.698 152.494C239.075 152.827 238.377 152.992 237.671 152.973L236.199 152.93L236.076 153.603L238.038 153.588C238.711 153.581 239.372 153.406 239.961 153.081C240.55 152.756 241.05 152.29 241.415 151.725L241.894 150.98C242.323 150.311 242.547 149.531 242.538 148.736L242.516 146.44L242.144 146.489Z" fill="#263238"/>
<path opacity="0.2" d="M242.144 146.489L242.043 148.764C242.013 149.467 241.801 150.151 241.427 150.748L241.221 151.073C240.845 151.671 240.321 152.161 239.698 152.494C239.075 152.827 238.377 152.992 237.671 152.973L236.199 152.93L236.076 153.603L238.038 153.588C238.711 153.581 239.372 153.406 239.961 153.081C240.55 152.756 241.05 152.29 241.415 151.725L241.894 150.98C242.323 150.311 242.547 149.531 242.538 148.736L242.516 146.44L242.144 146.489Z" fill="white"/>
<path d="M235.181 152.333L236.196 152.518C236.5 152.573 236.701 152.864 236.646 153.168L236.521 153.851C236.466 154.155 236.175 154.356 235.871 154.3L234.856 154.116C234.553 154.06 234.351 153.769 234.407 153.465L234.531 152.783C234.586 152.479 234.878 152.278 235.181 152.333Z" fill="#263238"/>
<path d="M242.43 143.475L243.179 143.612C243.509 143.672 243.727 143.988 243.667 144.318L243.289 146.395C243.228 146.725 242.912 146.943 242.582 146.883L241.833 146.746C241.503 146.686 241.285 146.37 241.345 146.04L241.723 143.964C241.784 143.634 242.1 143.415 242.43 143.475Z" fill="#263238"/>
<path opacity="0.15" d="M228.648 164.632C228.648 164.632 220.484 184.962 216.762 188.663C213.041 192.363 194.59 204.361 194.59 204.361L196.662 208.207C196.662 208.207 221.249 198.122 223.172 196.385C225.095 194.649 239.287 176.722 239.287 176.722L228.648 164.632Z" fill="white"/>
<path opacity="0.2" d="M233.346 180.939L227.964 190.794L233.761 183.66L233.346 180.939Z" fill="black"/>
<path d="M267.67 210.788L234.761 206.924C234.761 206.924 236.384 176.526 227.69 165.105L233.851 161.672L248.973 159.335C248.973 159.335 256.272 160.46 260.373 162.148C261.397 164.015 262.288 165.951 263.039 167.944C264.54 171.82 265.726 175.81 266.585 179.877C268.73 190.04 269.097 200.499 267.67 210.788V210.788Z" fill="#EDEDED"/>
<path opacity="0.2" d="M234.812 205.571L246.59 200.077C248.819 198.602 256.424 186.87 261.921 179.183L234.814 201.907L234.812 205.571Z" fill="black"/>
<path opacity="0.2" d="M254.104 160.319L252.909 160.101L230.426 163.585L229.413 164.145C229.551 164.885 229.973 165.542 230.588 165.976L231.704 166.787C239.975 165.375 247.695 163.98 254.104 160.319Z" fill="#263238"/>
<path d="M251.248 166.793C251.248 166.793 241.617 186.248 237.895 189.949C234.174 193.65 210.685 209.53 210.685 209.53L213.216 213.704C213.216 213.704 242.914 200.788 244.841 199.033C246.768 197.278 261.66 179.753 261.66 179.753C266.218 171.952 257.594 156.919 251.248 166.793Z" fill="#EDEDED"/>
<path opacity="0.15" d="M251.248 166.793C251.248 166.793 241.617 186.248 237.895 189.949C234.174 193.65 210.685 209.53 210.685 209.53L213.216 213.704C213.216 213.704 242.914 200.788 244.841 199.033C246.768 197.278 261.66 179.753 261.66 179.753C266.218 171.952 257.594 156.919 251.248 166.793Z" fill="white"/>
<path d="M259.19 177.342L256.219 181.386C255.921 177.648 254.601 175.213 252.167 174.162L255.614 169.549C257.778 171.58 259.062 174.377 259.19 177.342V177.342Z" fill="#EDEDED"/>
<g opacity="0.2">
<path opacity="0.2" d="M261.13 260.795L259.505 274.655L272.013 272.948C272.191 272.925 272.372 272.939 272.544 272.99C272.716 273.042 272.875 273.129 273.011 273.246C273.147 273.364 273.257 273.508 273.333 273.671C273.409 273.834 273.449 274.011 273.452 274.19L273.665 278.932C273.694 279.353 273.86 279.754 274.138 280.072C274.416 280.39 274.792 280.608 275.206 280.692L276.306 280.892C276.639 280.954 276.983 280.884 277.267 280.699C277.55 280.514 277.752 280.226 277.829 279.897L282.144 261.177C282.171 261.059 282.171 260.935 282.143 260.816C282.115 260.698 282.06 260.587 281.983 260.493C281.905 260.4 281.806 260.325 281.695 260.275C281.584 260.226 281.462 260.203 281.341 260.208L261.13 260.795Z" fill="white"/>
</g>
<path d="M218.421 202.191L224.875 211.656L212.835 214.664L209.212 220.028C209.144 220.129 209.052 220.211 208.945 220.268C208.838 220.326 208.718 220.356 208.597 220.357C208.475 220.358 208.355 220.329 208.247 220.274C208.139 220.218 208.046 220.137 207.976 220.038L203.44 213.588C203.383 213.507 203.343 213.416 203.324 213.319C203.304 213.223 203.306 213.123 203.328 213.027C203.35 212.931 203.392 212.841 203.452 212.762C203.512 212.684 203.588 212.619 203.674 212.572L209.625 209.219L218.421 202.191Z" fill="#EDEDED"/>
<path opacity="0.3" d="M218.421 202.191L224.875 211.656L212.835 214.664L209.212 220.028C209.144 220.129 209.052 220.211 208.945 220.268C208.838 220.326 208.718 220.356 208.597 220.357C208.475 220.358 208.355 220.329 208.247 220.274C208.139 220.218 208.046 220.137 207.976 220.038L203.44 213.588C203.383 213.507 203.343 213.416 203.324 213.319C203.304 213.223 203.306 213.123 203.328 213.027C203.35 212.931 203.392 212.841 203.452 212.762C203.512 212.684 203.588 212.619 203.674 212.572L209.625 209.219L218.421 202.191Z" fill="white"/>
<path d="M209.472 206.35L203.144 196.134L194.627 202.977L189.355 204.544C189.281 204.567 189.212 204.605 189.153 204.656C189.094 204.707 189.046 204.769 189.012 204.839C188.979 204.909 188.959 204.985 188.956 205.063C188.953 205.141 188.966 205.218 188.994 205.291L189.085 205.543L196.897 209.122L197.613 208.528L209.472 206.35Z" fill="#EDEDED"/>
<g opacity="0.3">
<path opacity="0.3" d="M209.472 206.35L203.144 196.134L194.627 202.977L189.355 204.544C189.281 204.567 189.212 204.605 189.153 204.656C189.094 204.707 189.046 204.769 189.012 204.839C188.979 204.909 188.959 204.985 188.956 205.063C188.953 205.141 188.966 205.218 188.994 205.291L189.085 205.543L196.897 209.122L197.613 208.528L209.472 206.35Z" fill="white"/>
</g>
<path d="M220.824 141.555C221.281 139.028 222.3 136.636 223.804 134.556C225.309 132.475 227.261 130.759 229.517 129.533C231.774 128.307 234.276 127.604 236.84 127.474C239.405 127.345 241.966 127.792 244.334 128.784C246.702 129.776 248.817 131.287 250.524 133.205C252.231 135.124 253.485 137.401 254.194 139.868C254.904 142.336 255.05 144.931 254.623 147.463C254.196 149.995 253.206 152.399 251.726 154.497L252.509 154.071C253.967 155.317 254.528 157.075 254.03 159.482C247.03 162.984 239.426 165.115 231.626 165.763C231.017 165.012 230.568 164.145 230.306 163.215C230.044 162.284 229.976 161.31 230.104 160.352L230.843 160.33C227.303 158.785 224.389 156.091 222.571 152.683C220.753 149.276 220.137 145.355 220.824 141.555V141.555ZM232.487 158.19C234.912 158.632 237.413 158.345 239.675 157.366C241.937 156.386 243.857 154.758 245.194 152.687C246.53 150.616 247.222 148.195 247.183 145.73C247.143 143.266 246.374 140.869 244.972 138.841C243.57 136.814 241.598 135.248 239.306 134.342C237.014 133.435 234.505 133.228 232.095 133.748C229.686 134.267 227.485 135.49 225.77 137.26C224.055 139.031 222.904 141.27 222.462 143.695C221.868 146.94 222.586 150.289 224.458 153.005C226.331 155.722 229.205 157.584 232.449 158.183L232.487 158.19Z" fill="#EDEDED"/>
<path opacity="0.3" d="M220.824 141.555C221.281 139.028 222.3 136.636 223.804 134.556C225.309 132.475 227.261 130.759 229.517 129.533C231.774 128.307 234.276 127.604 236.84 127.474C239.405 127.345 241.966 127.792 244.334 128.784C246.702 129.776 248.817 131.287 250.524 133.205C252.231 135.124 253.485 137.401 254.194 139.868C254.904 142.336 255.05 144.931 254.623 147.463C254.196 149.995 253.206 152.399 251.726 154.497L252.509 154.071C253.967 155.317 254.528 157.075 254.03 159.482C247.03 162.984 239.426 165.115 231.626 165.763C231.017 165.012 230.568 164.145 230.306 163.215C230.044 162.284 229.976 161.31 230.104 160.352L230.843 160.33C227.303 158.785 224.389 156.091 222.571 152.683C220.753 149.276 220.137 145.355 220.824 141.555V141.555ZM232.487 158.19C234.912 158.632 237.413 158.345 239.675 157.366C241.937 156.386 243.857 154.758 245.194 152.687C246.53 150.616 247.222 148.195 247.183 145.73C247.143 143.266 246.374 140.869 244.972 138.841C243.57 136.814 241.598 135.248 239.306 134.342C237.014 133.435 234.505 133.228 232.095 133.748C229.686 134.267 227.485 135.49 225.77 137.26C224.055 139.031 222.904 141.27 222.462 143.695C221.868 146.94 222.586 150.289 224.458 153.005C226.331 155.722 229.205 157.584 232.449 158.183L232.487 158.19Z" fill="white"/>
<path opacity="0.2" d="M250.959 154.729L245.256 157.099C249.55 155.041 252.454 151.416 253.869 146.021C253.764 149.145 252.753 152.17 250.959 154.729V154.729Z" fill="black"/>
<path opacity="0.2" d="M236.183 129.268C233.507 129.505 230.922 130.356 228.628 131.754C226.334 133.152 224.394 135.06 222.956 137.329C224.183 135.147 225.84 133.237 227.827 131.715C229.813 130.193 232.089 129.09 234.515 128.474L236.183 129.268Z" fill="white"/>
<path opacity="0.2" d="M235.593 128.258L237.15 129.228L238.659 129.229L238.489 128.012C237.518 127.86 236.524 127.944 235.593 128.258Z" fill="white"/>
<path opacity="0.2" d="M260.953 262.359L259.749 273.044L259.123 273.096L260.258 262.301L260.953 262.359Z" fill="#263238"/>
</svg>
