<svg width="544" height="503" viewBox="0 0 544 503" fill="none" xmlns="http://www.w3.org/2000/svg">
<path d="M194.692 233.418L182.339 248.159C175.053 256.854 176.194 269.809 184.889 277.095L235.23 319.283C243.925 326.57 256.88 325.428 264.166 316.734L276.52 301.993C283.806 293.298 282.665 280.343 273.97 273.057L223.629 230.869C214.934 223.582 201.979 224.724 194.692 233.418Z" fill="#EDEDED"/>
<path opacity="0.4" d="M194.608 233.232L182.255 247.972C174.969 256.667 176.11 269.622 184.805 276.909L235.146 319.097C243.841 326.383 256.796 325.242 264.082 316.547L276.436 301.806C283.722 293.112 282.581 280.157 273.886 272.87L223.545 230.682C214.85 223.396 201.895 224.537 194.608 233.232Z" fill="black"/>
<path d="M335.995 386.975C335.871 387.188 335.718 387.383 335.541 387.554L334.076 389.147C333.438 389.845 332.542 390.647 331.538 391.63L329.816 393.091C329.209 393.624 328.521 394.145 327.782 394.679C324.23 397.338 320.361 399.545 316.265 401.249C310.834 403.554 305.043 404.896 299.151 405.215C295.735 405.391 292.31 405.218 288.929 404.701C285.259 404.046 281.683 402.945 278.281 401.421C270.725 398.06 264.202 392.744 259.387 386.021C256.789 382.388 254.793 378.359 253.477 374.091C252.114 369.619 251.605 364.93 251.977 360.27C252.373 355.461 253.598 350.757 255.6 346.367C257.645 341.824 260.524 337.705 264.088 334.224C267.698 330.749 272.003 328.078 276.72 326.387C279.042 325.564 281.475 325.096 283.936 325C286.399 324.897 288.852 325.358 291.11 326.349C293.345 327.33 295.277 328.893 296.704 330.874C298.128 332.846 298.836 335.245 298.712 337.674C298.664 338.854 298.438 340.02 298.041 341.131C297.674 342.221 297.182 343.264 296.574 344.24C295.393 346.143 293.932 347.857 292.239 349.324C286.167 354.186 278.686 356.955 270.912 357.218C263.138 357.482 255.487 355.227 249.099 350.788C246.551 348.962 244.282 346.775 242.362 344.296C237.858 338.584 235.16 331.657 234.613 324.403C234.415 321.607 234.565 318.798 235.057 316.038C235.246 315.094 235.447 314.39 235.57 313.919C235.615 313.674 235.687 313.436 235.787 313.208C235.787 313.458 235.757 313.706 235.697 313.948C235.627 314.433 235.469 315.147 235.323 316.082C234.339 323.2 235.495 330.449 238.646 336.907C239.828 339.36 241.288 341.669 242.999 343.788C244.885 346.178 247.11 348.28 249.604 350.026C255.381 354.009 262.239 356.128 269.256 356.099C273.143 356.131 277.009 355.519 280.696 354.287C284.58 352.994 288.188 350.985 291.332 348.362C292.92 346.975 294.29 345.356 295.393 343.559C295.955 342.661 296.407 341.699 296.74 340.693C297.095 339.696 297.295 338.65 297.331 337.592C297.435 335.451 296.807 333.338 295.549 331.602C294.247 329.82 292.497 328.414 290.475 327.528C288.4 326.628 286.148 326.211 283.889 326.308C281.573 326.389 279.282 326.816 277.093 327.575C272.575 329.211 268.452 331.779 264.991 335.113C258.206 341.852 254.062 350.801 253.312 360.334C252.937 364.83 253.415 369.356 254.722 373.674C255.985 377.815 257.906 381.726 260.412 385.256C265.079 391.827 271.408 397.039 278.75 400.362C282.061 401.869 285.543 402.967 289.12 403.632C292.431 404.187 295.79 404.405 299.146 404.28C302.199 404.126 305.233 403.711 308.216 403.041C315.152 401.392 321.704 398.417 327.51 394.279C328.232 393.771 328.955 393.262 329.561 392.749L331.307 391.344C332.333 390.408 333.234 389.641 333.917 388.98L335.46 387.457C335.623 387.28 335.802 387.118 335.995 386.975V386.975Z" fill="#263238"/>
<path d="M236.499 296.273C236.527 296.336 235.769 297.106 234.636 298.486C231.685 302.079 229.529 306.257 228.31 310.744C227.836 312.458 227.655 313.551 227.578 313.547C227.554 313.283 227.571 313.017 227.627 312.758C227.717 312.064 227.846 311.375 228.013 310.695C229.084 306.082 231.292 301.811 234.437 298.271C234.905 297.734 235.404 297.226 235.933 296.749C236.096 296.563 236.287 296.402 236.499 296.273V296.273Z" fill="#263238"/>
<path d="M234.103 310.08C234.103 310.08 234.103 309.758 234.385 309.283C234.801 308.606 235.466 308.118 236.238 307.926C236.818 307.802 237.422 307.838 237.984 308.03C238.545 308.222 239.044 308.564 239.427 309.018C239.886 309.592 240.151 310.298 240.183 311.033C240.214 311.767 240.011 312.493 239.603 313.105C239.187 313.754 238.543 314.224 237.799 314.422C237.123 314.611 236.406 314.598 235.738 314.385C235.165 314.216 234.654 313.884 234.266 313.431C233.877 312.977 233.629 312.421 233.55 311.829C233.423 311.052 233.569 310.255 233.964 309.573C234.092 309.318 234.289 309.103 234.533 308.953C234.533 308.953 234.347 309.196 234.123 309.655C233.811 310.315 233.72 311.059 233.866 311.775C233.96 312.293 234.195 312.775 234.547 313.166C234.899 313.558 235.352 313.843 235.858 313.991C236.464 314.194 237.12 314.195 237.728 313.996C238.335 313.796 238.862 313.405 239.23 312.881C239.582 312.348 239.76 311.719 239.741 311.08C239.722 310.442 239.505 309.824 239.122 309.313C238.845 308.967 238.492 308.689 238.089 308.503C237.687 308.316 237.247 308.225 236.804 308.237C236.361 308.249 235.926 308.364 235.535 308.573C235.144 308.781 234.806 309.078 234.549 309.439C234.225 309.799 234.145 310.09 234.103 310.08Z" fill="#263238"/>
<path d="M194.692 233.418L182.339 248.159C175.053 256.854 176.194 269.809 184.889 277.095L235.23 319.283C243.925 326.57 256.88 325.428 264.166 316.734L276.52 301.993C283.806 293.298 282.665 280.343 273.97 273.057L223.629 230.869C214.934 223.582 201.979 224.724 194.692 233.418Z" fill="#EDEDED"/>
<path opacity="0.4" d="M194.608 233.232L182.255 247.972C174.969 256.667 176.11 269.622 184.805 276.909L235.146 319.097C243.841 326.383 256.796 325.242 264.082 316.547L276.436 301.806C283.722 293.112 282.581 280.157 273.886 272.87L223.545 230.682C214.85 223.396 201.895 224.537 194.608 233.232Z" fill="black"/>
<path d="M335.995 386.975C335.871 387.188 335.718 387.383 335.541 387.554L334.076 389.147C333.438 389.845 332.542 390.647 331.538 391.63L329.816 393.091C329.209 393.624 328.521 394.145 327.782 394.679C324.23 397.338 320.361 399.545 316.265 401.249C310.834 403.554 305.043 404.896 299.151 405.215C295.735 405.391 292.31 405.218 288.929 404.701C285.259 404.046 281.683 402.945 278.281 401.421C270.725 398.06 264.202 392.744 259.387 386.021C256.789 382.388 254.793 378.359 253.477 374.091C252.114 369.619 251.605 364.93 251.977 360.27C252.373 355.461 253.598 350.757 255.6 346.367C257.645 341.824 260.524 337.705 264.088 334.224C267.698 330.749 272.003 328.078 276.72 326.387C279.042 325.564 281.475 325.096 283.936 325C286.399 324.897 288.852 325.358 291.11 326.349C293.345 327.33 295.277 328.893 296.704 330.874C298.128 332.846 298.836 335.245 298.712 337.674C298.664 338.854 298.438 340.02 298.041 341.131C297.674 342.221 297.182 343.264 296.574 344.24C295.393 346.143 293.932 347.857 292.239 349.324C286.167 354.186 278.686 356.955 270.912 357.218C263.138 357.482 255.487 355.227 249.099 350.788C246.551 348.962 244.282 346.775 242.362 344.296C237.858 338.584 235.16 331.657 234.613 324.403C234.415 321.607 234.565 318.798 235.057 316.038C235.246 315.094 235.447 314.39 235.57 313.919C235.615 313.674 235.687 313.436 235.787 313.208C235.787 313.458 235.757 313.706 235.697 313.948C235.627 314.433 235.469 315.147 235.323 316.082C234.339 323.2 235.495 330.449 238.646 336.907C239.828 339.36 241.288 341.669 242.999 343.788C244.885 346.178 247.11 348.28 249.604 350.026C255.381 354.009 262.239 356.128 269.256 356.099C273.143 356.131 277.009 355.519 280.696 354.287C284.58 352.994 288.188 350.985 291.332 348.362C292.92 346.975 294.29 345.356 295.393 343.559C295.955 342.661 296.407 341.699 296.74 340.693C297.095 339.696 297.295 338.65 297.331 337.592C297.435 335.451 296.807 333.338 295.549 331.602C294.247 329.82 292.497 328.414 290.475 327.528C288.4 326.628 286.148 326.211 283.889 326.308C281.573 326.389 279.282 326.816 277.093 327.575C272.575 329.211 268.452 331.779 264.991 335.113C258.206 341.852 254.062 350.801 253.312 360.334C252.937 364.83 253.415 369.356 254.722 373.674C255.985 377.815 257.906 381.726 260.412 385.256C265.079 391.827 271.408 397.039 278.75 400.362C282.061 401.869 285.543 402.967 289.12 403.632C292.431 404.187 295.79 404.405 299.146 404.28C302.199 404.126 305.233 403.711 308.216 403.041C315.152 401.392 321.704 398.417 327.51 394.279C328.232 393.771 328.955 393.262 329.561 392.749L331.307 391.344C332.333 390.408 333.234 389.641 333.917 388.98L335.46 387.457C335.623 387.28 335.802 387.118 335.995 386.975V386.975Z" fill="#263238"/>
<path d="M236.499 296.273C236.527 296.336 235.769 297.106 234.636 298.486C231.685 302.079 229.529 306.257 228.31 310.744C227.836 312.458 227.655 313.551 227.578 313.547C227.554 313.283 227.571 313.017 227.627 312.758C227.717 312.064 227.846 311.375 228.013 310.695C229.084 306.082 231.292 301.811 234.437 298.271C234.905 297.734 235.404 297.226 235.933 296.749C236.096 296.563 236.287 296.402 236.499 296.273V296.273Z" fill="#263238"/>
<path d="M234.103 310.08C234.103 310.08 234.103 309.758 234.385 309.283C234.801 308.606 235.466 308.118 236.238 307.926C236.818 307.802 237.422 307.838 237.984 308.03C238.545 308.222 239.044 308.564 239.427 309.018C239.886 309.592 240.151 310.298 240.183 311.033C240.214 311.767 240.011 312.493 239.603 313.105C239.187 313.754 238.543 314.224 237.799 314.422C237.123 314.611 236.406 314.598 235.738 314.385C235.165 314.216 234.654 313.884 234.266 313.431C233.877 312.977 233.629 312.421 233.55 311.829C233.423 311.052 233.569 310.255 233.964 309.573C234.092 309.318 234.289 309.103 234.533 308.953C234.533 308.953 234.347 309.196 234.123 309.655C233.811 310.315 233.72 311.059 233.866 311.775C233.96 312.293 234.195 312.775 234.547 313.166C234.899 313.558 235.352 313.843 235.858 313.991C236.464 314.194 237.12 314.195 237.728 313.996C238.335 313.796 238.862 313.405 239.23 312.881C239.582 312.348 239.76 311.719 239.741 311.08C239.722 310.442 239.505 309.824 239.122 309.313C238.845 308.967 238.492 308.689 238.089 308.503C237.687 308.316 237.247 308.225 236.804 308.237C236.361 308.249 235.926 308.364 235.535 308.573C235.144 308.781 234.806 309.078 234.549 309.439C234.225 309.799 234.145 310.09 234.103 310.08Z" fill="#263238"/>
<path d="M209.362 230.738C206.494 228.378 203.945 226.248 203.945 226.248C203.945 226.248 208.103 220.228 202.917 215.191C197.731 210.154 184.817 199.639 184.817 199.639L171.294 205.457L170.172 223.718L197.057 245.748C199.019 247.342 201.526 248.107 204.045 247.88C206.563 247.653 208.893 246.451 210.538 244.531C211.377 243.553 212.014 242.418 212.41 241.191C212.806 239.965 212.954 238.672 212.844 237.387C212.735 236.103 212.371 234.854 211.773 233.712C211.175 232.57 210.355 231.559 209.362 230.738Z" fill="#FFBE9D"/>
<path d="M192.972 208.743C193.109 208.861 193.208 209.018 193.256 209.192C193.305 209.367 193.3 209.552 193.244 209.724C193.187 209.896 193.081 210.048 192.938 210.16C192.796 210.271 192.623 210.339 192.442 210.353C192.262 210.366 192.081 210.327 191.923 210.238C191.765 210.149 191.636 210.016 191.554 209.855C191.472 209.693 191.439 209.511 191.46 209.331C191.481 209.151 191.555 208.981 191.672 208.843C191.75 208.751 191.846 208.675 191.954 208.62C192.062 208.565 192.18 208.532 192.301 208.522C192.422 208.513 192.543 208.528 192.658 208.565C192.774 208.603 192.88 208.664 192.972 208.743V208.743Z" fill="#263238"/>
<path d="M192.799 207.408C192.807 207.575 191.924 207.719 191.234 208.43C190.545 209.142 190.417 210.031 190.254 210.027C190.092 210.023 190.091 209.787 190.134 209.389C190.201 208.87 190.436 208.387 190.804 208.014C191.168 207.639 191.642 207.39 192.157 207.304C192.551 207.253 192.792 207.327 192.799 207.408Z" fill="#263238"/>
<path d="M186.002 216.864C186.177 217.027 186.281 217.252 186.294 217.49C186.307 217.729 186.227 217.963 186.071 218.144C185.915 218.325 185.696 218.439 185.458 218.462C185.22 218.485 184.983 218.415 184.795 218.267C184.697 218.19 184.615 218.094 184.556 217.984C184.496 217.874 184.459 217.753 184.447 217.629C184.435 217.505 184.448 217.379 184.486 217.26C184.523 217.141 184.585 217.031 184.666 216.936C184.748 216.841 184.848 216.764 184.96 216.709C185.072 216.653 185.194 216.621 185.319 216.615C185.444 216.608 185.569 216.627 185.686 216.669C185.804 216.712 185.911 216.778 186.002 216.864V216.864Z" fill="#263238"/>
<path d="M185.605 215.771C185.624 215.943 184.737 216.078 184.051 216.798C183.366 217.517 183.234 218.398 183.068 218.387C182.902 218.375 182.905 218.146 182.951 217.757C183.016 217.235 183.251 216.749 183.618 216.374C183.983 215.999 184.458 215.753 184.974 215.671C185.365 215.612 185.609 215.694 185.605 215.771Z" fill="#263238"/>
<path d="M194.316 218.523C194.568 218.038 194.876 217.585 195.234 217.172C195.383 216.973 195.526 216.759 195.417 216.599C195.229 216.392 194.983 216.247 194.712 216.181L192.709 215.352C191.291 214.757 190.011 214.195 189.094 213.767C188.58 213.575 188.092 213.32 187.641 213.007C188.179 213.112 188.702 213.281 189.199 213.512C190.151 213.868 191.483 214.398 192.858 214.983L194.856 215.843C195.194 215.932 195.491 216.135 195.697 216.418C195.741 216.503 195.764 216.598 195.764 216.694C195.763 216.79 195.739 216.884 195.694 216.969C195.629 217.099 195.544 217.219 195.444 217.325C195.119 217.77 194.741 218.172 194.316 218.523V218.523Z" fill="#263238"/>
<path d="M192.896 221.63C194.556 221.17 196.067 220.284 197.28 219.061C197.428 219.67 197.364 220.311 197.097 220.877C196.831 221.444 196.379 221.903 195.816 222.178C193.778 223.2 192.896 221.63 192.896 221.63Z" fill="white"/>
<path d="M203.9 226.211C201.552 228.718 198.539 230.505 195.212 231.361C195.212 231.361 200.775 233.07 205.262 227.389L203.9 226.211Z" fill="#EB996E"/>
<path d="M167.718 235.763L167.8 235.651C166.888 234.703 166.023 233.711 165.21 232.677C156.356 219.888 162.846 208.021 164.555 206.037C166.386 203.903 168.416 199.174 178.715 198.594C180.284 198.492 181.86 198.623 183.391 198.982C185.907 199.079 188.365 199.768 190.564 200.993C192.516 202.091 193.45 203.136 193.425 203.186C193.399 203.235 192.287 202.41 190.335 201.483C189.194 200.929 187.994 200.506 186.759 200.221C189.267 201.554 191.295 203.637 192.56 206.18L190.938 206.366L181.989 212.597C180.379 210.108 176.89 208.742 175.191 208.195L175.111 208.23C181.935 216.871 175.026 226.631 175.026 226.631L190.088 240.059C178.605 248.743 167.718 235.763 167.718 235.763Z" fill="#263238"/>
<path d="M183.035 234.568C182.924 235.253 182.579 235.878 182.06 236.339C181.54 236.799 180.878 237.066 180.184 237.094C179.491 237.096 178.807 236.934 178.187 236.622C177.568 236.31 177.031 235.857 176.618 235.299C176.063 234.661 175.77 233.836 175.799 232.991C175.956 232.447 176.245 231.949 176.64 231.542C177.035 231.135 177.523 230.831 178.063 230.657L183.035 234.568Z" fill="#FFBE9D"/>
<path d="M181.044 235.011C181.006 234.924 180.696 235.165 180.217 235.282C179.897 235.362 179.561 235.357 179.243 235.266C178.926 235.176 178.637 235.003 178.408 234.765C178.178 234.528 178.015 234.234 177.935 233.913C177.856 233.593 177.862 233.257 177.953 232.94C178.094 232.423 178.34 232.144 178.273 232.079C178.207 232.013 177.838 232.186 177.542 232.78C177.364 233.178 177.309 233.621 177.384 234.05C177.46 234.48 177.662 234.877 177.966 235.19C178.269 235.503 178.659 235.719 179.086 235.808C179.513 235.897 179.957 235.857 180.36 235.692C180.919 235.435 181.108 235.049 181.044 235.011Z" fill="#EB996E"/>
<path d="M207.084 197.933C207.084 197.933 206.978 197.799 206.79 197.523C206.601 197.246 206.297 196.794 205.95 196.285C205.761 196.008 205.562 195.708 205.33 195.375C205.098 195.042 204.775 194.673 204.496 194.342C203.82 193.469 203.081 192.647 202.284 191.882C200.161 189.722 197.721 187.898 195.049 186.472C191.154 184.358 186.854 183.093 182.435 182.759C178.015 182.426 173.575 183.032 169.406 184.538C168.157 184.986 166.942 185.522 165.77 186.143C165.173 186.464 164.562 186.752 163.971 187.108L162.249 188.246C161.96 188.449 161.657 188.621 161.383 188.837L160.572 189.507C160.023 189.958 159.464 190.384 158.929 190.867C157.877 191.868 156.891 192.936 155.976 194.063C155.034 195.21 154.165 196.415 153.376 197.672C152.996 198.313 152.664 198.998 152.295 199.663C151.917 200.329 151.59 201.024 151.319 201.741C150.051 204.613 149.266 207.675 148.996 210.802L148.869 211.994L148.842 213.199L148.827 214.408C148.812 214.812 148.826 215.217 148.869 215.619C148.931 216.425 149.005 217.235 149.074 218.056C149.143 218.878 149.369 219.668 149.516 220.474C150.912 227.068 154.423 233.026 159.514 237.443C160.152 237.966 160.787 238.481 161.417 239.008C162.047 239.534 162.765 239.918 163.445 240.365C163.777 240.595 164.125 240.802 164.485 240.985L165.551 241.556L166.617 242.127L167.719 242.587C169.175 243.206 170.671 243.729 172.196 244.151C173.706 244.526 175.239 244.798 176.786 244.964C177.54 245.073 178.301 245.127 179.062 245.124C179.822 245.13 180.576 245.166 181.33 245.136C182.812 245.061 184.288 244.887 185.747 244.615C187.17 244.349 188.576 243.994 189.955 243.554C190.629 243.322 191.278 243.036 191.934 242.784L192.901 242.357C193.217 242.218 193.534 242.078 193.838 241.887L195.668 240.928C196.266 240.588 196.82 240.192 197.388 239.828C198.497 239.104 199.554 238.303 200.55 237.429C204.222 234.241 207.09 230.231 208.921 225.726C210.449 222.02 211.25 218.054 211.281 214.046C211.322 211.026 210.91 208.017 210.058 205.12C209.772 204.056 209.41 203.013 208.974 202.001C208.779 201.558 208.648 201.133 208.484 200.76L207.987 199.787C207.725 199.192 207.47 198.765 207.311 198.447C207.152 198.13 207.105 197.98 207.105 197.98C207.2 198.123 207.287 198.271 207.367 198.423C207.507 198.74 207.78 199.187 208.079 199.737C208.212 200.038 208.41 200.357 208.602 200.708C208.795 201.058 208.952 201.5 209.141 201.928C209.592 202.942 209.968 203.987 210.266 205.056C211.164 207.971 211.607 211.007 211.579 214.056C211.572 218.536 210.612 222.964 208.762 227.044C206.912 231.124 204.215 234.764 200.85 237.722C199.838 238.605 198.768 239.419 197.647 240.158C197.071 240.526 196.52 240.93 195.915 241.273L194.065 242.251C193.74 242.394 193.44 242.593 193.111 242.728L192.137 243.158C191.487 243.445 190.83 243.735 190.129 243.95C188.734 244.399 187.312 244.758 185.871 245.025C184.39 245.316 182.89 245.5 181.382 245.577C180.617 245.602 179.855 245.569 179.087 245.567C178.313 245.568 177.54 245.514 176.773 245.406C175.21 245.249 173.661 244.984 172.135 244.613C170.588 244.193 169.072 243.667 167.597 243.038L166.455 242.596L165.378 242.02L164.3 241.445C163.933 241.262 163.58 241.05 163.245 240.813L161.179 239.434L159.25 237.853C154.083 233.376 150.522 227.333 149.109 220.644C148.962 219.819 148.808 218.997 148.665 218.18L148.457 215.716C148.409 215.308 148.395 214.896 148.416 214.485L148.432 213.257L148.452 212.036L148.591 210.83C148.862 207.658 149.661 204.554 150.955 201.646C151.227 200.923 151.549 200.221 151.921 199.544C152.298 198.876 152.637 198.187 153.029 197.531C154.605 195.012 156.504 192.71 158.678 190.684C159.217 190.19 159.792 189.757 160.341 189.306L161.169 188.629C161.443 188.413 161.753 188.238 162.042 188.035L163.799 186.89C164.387 186.527 165.017 186.239 165.61 185.911C166.8 185.286 168.031 184.743 169.294 184.285C173.511 182.773 178.001 182.177 182.466 182.535C186.931 182.893 191.269 184.198 195.19 186.362C197.873 187.816 200.316 189.675 202.432 191.874C203.221 192.653 203.953 193.488 204.622 194.371C204.922 194.75 205.202 195.062 205.444 195.419C205.687 195.776 205.863 196.067 206.044 196.347C206.389 196.895 206.657 197.307 206.847 197.611C207.038 197.915 207.084 197.933 207.084 197.933Z" fill="#263238"/>
<path d="M160.829 216.531C161.249 215.994 161.536 215.366 161.667 214.696C161.799 214.027 161.77 213.337 161.584 212.681C161.398 212.025 161.059 211.423 160.596 210.922C160.133 210.422 159.558 210.038 158.919 209.802C156.58 208.941 153.811 210.324 152.546 212.52C151.433 214.79 151.259 217.407 152.061 219.805C152.4 221.217 153.103 222.515 154.101 223.571C154.602 224.094 155.227 224.483 155.917 224.703C156.608 224.922 157.342 224.965 158.054 224.827C158.82 224.577 159.508 224.133 160.052 223.538C160.595 222.943 160.976 222.217 161.156 221.432C161.5 219.851 161.563 218.221 161.34 216.618" fill="#263238"/>
<path d="M189.284 190.824C189.257 190.912 187.768 190.348 185.268 189.852C183.805 189.569 182.324 189.388 180.835 189.31C179.016 189.229 177.192 189.293 175.383 189.501C173.574 189.736 171.787 190.11 170.037 190.621C168.61 191.052 167.216 191.585 165.866 192.216C163.558 193.291 162.251 194.19 162.2 194.118C162.472 193.861 162.773 193.636 163.097 193.448C163.454 193.194 163.825 192.961 164.208 192.749C164.647 192.499 165.146 192.193 165.737 191.923C167.086 191.246 168.488 190.679 169.928 190.224C171.693 189.679 173.502 189.286 175.335 189.049C177.172 188.837 179.024 188.786 180.871 188.897C182.376 188.994 183.872 189.208 185.345 189.534C185.979 189.661 186.532 189.843 187.018 189.979C187.504 190.115 187.927 190.259 188.263 190.376C188.62 190.485 188.962 190.636 189.284 190.824Z" fill="#455A64"/>
<path d="M193.731 193.992C193.612 194.045 193.106 193.52 192.351 193.011C191.596 192.502 190.897 192.204 190.934 192.074C190.971 191.944 191.776 192.072 192.602 192.635C193.427 193.198 193.841 193.943 193.731 193.992Z" fill="#455A64"/>
<path d="M153 219.466C153.475 220.373 153.713 221.384 153.692 222.407C153.724 223.476 153.896 224.536 154.203 225.561C154.402 226.14 154.734 226.665 155.173 227.092C155.629 227.542 156.235 227.807 156.874 227.837C157.515 227.825 158.13 227.58 158.605 227.149C159.071 226.743 159.455 226.252 159.737 225.702C160.203 224.748 160.465 223.707 160.508 222.646C160.509 221.655 160.391 220.668 160.157 219.705C160.312 219.931 160.423 220.184 160.485 220.45C160.706 221.164 160.814 221.909 160.806 222.656C160.809 223.776 160.564 224.883 160.088 225.898C159.798 226.499 159.393 227.038 158.895 227.484C158.339 227.991 157.616 228.277 156.864 228.286C156.112 228.264 155.398 227.952 154.87 227.415C154.386 226.938 154.023 226.351 153.813 225.705C153.509 224.639 153.359 223.535 153.369 222.427C153.36 221.699 153.289 220.973 153.159 220.257C153.091 219.997 153.038 219.733 153 219.466V219.466Z" fill="#263238"/>
<path d="M186.072 258.604C186.072 258.604 249.168 307.198 258.096 311.748L295.939 270.037L245.803 233.651C241.268 230.328 235.988 228.164 230.425 227.35C224.862 226.535 219.184 227.094 213.886 228.978L213.553 229.125C202.038 233.336 183.007 256.228 186.072 258.604Z" fill="#EDEDED"/>
<path d="M270.856 251.832L270.736 251.989L270.354 252.432L268.843 254.112L263.134 260.351L254.435 269.785L249.172 275.468L247.782 276.972C247.517 277.244 247.194 277.454 246.838 277.585C246.481 277.716 246.1 277.766 245.721 277.73C244.979 277.651 244.262 277.416 243.618 277.039C242.971 276.675 242.367 276.241 241.816 275.743C238.27 273.285 234.547 270.555 230.815 267.612C227.895 265.285 225.068 262.955 222.396 260.632C221.071 259.475 219.78 258.322 218.522 257.174C217.254 256.06 216.172 254.752 215.316 253.298C214.518 251.862 214.256 250.189 214.577 248.579C214.918 247.105 215.495 245.697 216.286 244.408C219.599 238.7 224.257 233.889 229.854 230.392C231.021 229.669 231.96 229.16 232.604 228.838L233.396 228.488C233.479 228.441 233.567 228.402 233.657 228.373L233.404 228.484L232.679 228.88C232.046 229.226 231.125 229.755 229.977 230.499C226.734 232.599 223.801 235.143 221.263 238.055C219.513 240.064 217.965 242.24 216.643 244.553C215.882 245.811 215.325 247.182 214.99 248.614C214.698 250.125 214.95 251.69 215.701 253.033C216.54 254.443 217.598 255.711 218.835 256.789C220.079 257.935 221.381 259.083 222.714 260.236C225.371 262.547 228.178 264.876 231.114 267.196C234.843 270.131 238.546 272.86 242.081 275.314C243.085 276.292 244.362 276.943 245.744 277.18C246.063 277.215 246.385 277.175 246.686 277.063C246.987 276.952 247.257 276.772 247.477 276.538L248.879 275.039L254.155 269.388L262.925 260.027L268.73 253.878L270.297 252.239L270.705 251.832C270.804 251.864 270.852 251.824 270.856 251.832Z" fill="#263238"/>
<g opacity="0.7">
<path opacity="0.7" d="M228.197 249.562C228.388 249.996 228.447 250.477 228.365 250.944C228.283 251.412 228.064 251.844 227.737 252.187C227.409 252.53 226.987 252.769 226.524 252.872C226.061 252.975 225.578 252.939 225.135 252.767C224.693 252.596 224.311 252.297 224.039 251.909C223.766 251.52 223.615 251.06 223.604 250.586C223.593 250.111 223.723 249.644 223.978 249.244C224.232 248.844 224.6 248.528 225.034 248.336C225.616 248.079 226.276 248.064 226.869 248.294C227.462 248.524 227.94 248.98 228.197 249.562V249.562Z" fill="white"/>
</g>
<g opacity="0.7">
<path opacity="0.7" d="M236.743 257.044C236.934 257.478 236.993 257.959 236.911 258.427C236.829 258.894 236.611 259.327 236.283 259.67C235.955 260.013 235.533 260.251 235.07 260.354C234.607 260.457 234.124 260.421 233.682 260.25C233.239 260.078 232.858 259.779 232.585 259.391C232.313 259.003 232.161 258.542 232.15 258.068C232.14 257.594 232.27 257.127 232.524 256.726C232.778 256.326 233.146 256.01 233.58 255.819C234.162 255.562 234.822 255.547 235.415 255.776C236.008 256.006 236.486 256.462 236.743 257.044V257.044Z" fill="white"/>
</g>
<g opacity="0.7">
<path opacity="0.7" d="M244.831 267.048C246.043 266.513 246.592 265.097 246.057 263.885C245.522 262.673 244.106 262.124 242.894 262.659C241.682 263.194 241.133 264.61 241.668 265.822C242.203 267.034 243.619 267.583 244.831 267.048Z" fill="white"/>
</g>
<path d="M238.902 235.902C238.572 236.486 238.178 237.031 237.727 237.528C236.959 238.491 235.885 239.789 234.612 241.193C233.339 242.598 232.186 243.826 231.319 244.691C230.883 245.198 230.385 245.647 229.836 246.027C230.194 245.464 230.615 244.942 231.089 244.471L234.249 240.908L237.413 237.354C237.852 236.814 238.352 236.327 238.902 235.902Z" fill="#263238"/>
<path d="M248.683 242.621C248.265 243.22 247.786 243.774 247.254 244.274L243.663 248.103L240.096 251.967C239.639 252.533 239.126 253.052 238.564 253.514C238.93 252.882 239.365 252.293 239.862 251.758C240.715 250.71 241.93 249.303 243.328 247.796C244.727 246.289 246.05 244.976 247.029 244.042C247.53 243.512 248.084 243.036 248.683 242.621V242.621Z" fill="#263238"/>
<path d="M256.779 251.4C255.574 253.061 254.244 254.629 252.801 256.09C251.473 257.656 250.033 259.124 248.492 260.481C249.698 258.82 251.028 257.252 252.47 255.791C253.8 254.226 255.24 252.759 256.779 251.4V251.4Z" fill="#263238"/>
<path d="M193.287 246.494C192.836 245.932 192.569 245.246 192.521 244.527C192.473 243.808 192.647 243.092 193.019 242.476C194.253 240.038 207.816 229.508 207.816 229.508C207.816 229.508 211.726 227.044 213.86 228.961L193.287 246.494Z" fill="#EDEDED"/>
<path opacity="0.2" d="M247.805 288.433L276.393 255.843L273.014 253.397L247.805 288.433Z" fill="black"/>
<g opacity="0.2">
<path opacity="0.2" d="M213.807 229.827C213.695 230.149 213.536 230.453 213.333 230.727C212.814 231.493 212.217 232.204 211.552 232.847C210.722 233.668 209.656 234.555 208.484 235.546C207.312 236.536 206.005 237.586 204.629 238.714C202.267 240.611 199.777 242.342 197.177 243.897C196.179 244.489 195.348 244.922 194.764 245.208C194.47 245.376 194.16 245.514 193.837 245.617C194.096 245.401 194.381 245.218 194.685 245.072C195.24 244.742 196.05 244.262 197.026 243.642C199.554 242.003 201.997 240.236 204.344 238.348L208.213 235.211C209.403 234.241 210.484 233.385 211.328 232.596C212.236 231.75 213.065 230.823 213.807 229.827V229.827Z" fill="black"/>
</g>
<g opacity="0.2">
<path opacity="0.2" d="M198.161 242.847C197.784 242.779 197.43 242.617 197.13 242.378C196.831 242.138 196.597 241.827 196.448 241.474C196.23 241.159 196.094 240.795 196.053 240.414C196.013 240.033 196.068 239.649 196.215 239.295C196.362 239.969 196.574 240.627 196.846 241.26C197.238 241.826 197.678 242.357 198.161 242.847V242.847Z" fill="black"/>
</g>
<g opacity="0.2">
<path opacity="0.2" d="M203.4 239.768C202.541 239.614 201.758 239.177 201.177 238.525C200.595 237.874 200.25 237.046 200.196 236.175C200.592 236.885 201.033 237.569 201.516 238.223C202.105 238.784 202.734 239.301 203.4 239.768V239.768Z" fill="black"/>
</g>
<g opacity="0.2">
<path opacity="0.2" d="M208.235 235.002C208.116 235.055 207.484 234.245 206.441 233.513C205.399 232.78 204.416 232.419 204.453 232.289C204.49 232.159 205.599 232.332 206.719 233.134C207.427 233.561 207.964 234.222 208.235 235.002Z" fill="black"/>
</g>
<path d="M288.221 276.7C288.221 276.7 368.075 258.672 373.204 266.11C378.333 273.548 406.876 346.688 406.876 346.688L385.833 356.487L355.936 294.991L257.693 310.837L288.221 276.7Z" fill="#EDEDED"/>
<path opacity="0.2" d="M288.221 276.7C288.221 276.7 368.075 258.672 373.204 266.11C378.333 273.548 406.876 346.688 406.876 346.688L385.833 356.487L355.936 294.991L257.693 310.837L288.221 276.7Z" fill="black"/>
<path d="M400.128 329.619L406.694 344.26C406.694 344.26 418.18 336.142 419.392 341.675C419.894 343.971 391.692 367.872 390.993 367.641L381.277 347.149L400.128 329.619Z" fill="#EDEDED"/>
<path opacity="0.4" d="M400.128 329.619L406.694 344.26C406.694 344.26 418.18 336.142 419.392 341.675C419.894 343.971 391.692 367.872 390.993 367.641L381.277 347.149L400.128 329.619Z" fill="black"/>
<path d="M418.929 342.665C418.539 342.274 418.07 341.971 417.553 341.776C417.036 341.581 416.483 341.499 415.932 341.536C415.146 341.589 414.378 341.791 413.667 342.129C409.608 344.36 405.829 347.066 402.412 350.192C398.981 353.317 395.891 356.797 393.194 360.574C392.167 362.021 391.39 363.263 390.835 364.066C390.59 364.529 390.307 364.97 389.989 365.387C390.191 364.912 390.428 364.453 390.698 364.013C391.194 363.141 391.943 361.902 392.945 360.419C395.594 356.575 398.68 353.053 402.142 349.923C405.582 346.76 409.423 344.063 413.565 341.899C414.318 341.56 415.131 341.375 415.956 341.355C416.581 341.342 417.2 341.47 417.768 341.729C418.125 341.888 418.448 342.116 418.717 342.399C418.801 342.476 418.873 342.565 418.929 342.665V342.665Z" fill="#263238"/>
<path d="M401.851 333.61C401.687 333.902 401.489 334.173 401.262 334.419C400.853 334.93 400.233 335.649 399.458 336.531C397.912 338.302 395.707 340.685 393.174 343.223C390.64 345.761 388.255 347.969 386.486 349.516C385.607 350.292 384.88 350.916 384.371 351.33C384.121 351.562 383.846 351.765 383.551 351.938C383.757 351.664 383.993 351.414 384.254 351.193L386.253 349.288C387.966 347.68 390.303 345.446 392.836 342.908C395.37 340.37 397.595 338.035 399.201 336.313L401.144 334.281C401.352 334.03 401.589 333.804 401.851 333.61V333.61Z" fill="#263238"/>
<path d="M392.254 347.85C392.254 347.85 392.194 347.716 392.333 347.494C392.424 347.349 392.547 347.226 392.692 347.136C392.838 347.045 393.002 346.989 393.172 346.972C393.418 346.939 393.667 346.976 393.892 347.08C394.145 347.211 394.349 347.419 394.476 347.674C394.609 347.961 394.661 348.279 394.626 348.593C394.591 348.908 394.471 349.206 394.278 349.457C394.086 349.708 393.828 349.901 393.533 350.016C393.239 350.131 392.918 350.163 392.607 350.108C392.326 350.041 392.076 349.881 391.896 349.655C391.753 349.456 391.669 349.221 391.653 348.977C391.632 348.807 391.649 348.634 391.704 348.471C391.758 348.308 391.847 348.159 391.966 348.034C392.144 347.88 392.299 347.887 392.291 347.891C392.283 347.894 392.201 347.987 392.104 348.153C391.958 348.386 391.908 348.666 391.965 348.934C391.991 349.122 392.075 349.297 392.206 349.434C392.336 349.572 392.506 349.665 392.692 349.702C392.927 349.74 393.169 349.714 393.39 349.626C393.612 349.538 393.805 349.392 393.95 349.202C394.095 349.013 394.185 348.788 394.212 348.551C394.239 348.314 394.201 348.075 394.103 347.858C394.029 347.684 393.903 347.538 393.742 347.44C393.582 347.341 393.395 347.294 393.207 347.307C392.935 347.318 392.677 347.431 392.486 347.625C392.323 347.706 392.292 347.852 392.254 347.85Z" fill="#263238"/>
<path d="M394.566 365.269C393.855 363.692 393.43 362.002 393.309 360.277C394.019 361.854 394.445 363.544 394.566 365.269V365.269Z" fill="#263238"/>
<path d="M397.381 362.919C396.927 361.918 396.612 360.859 396.446 359.773C396.132 358.715 395.967 357.619 395.955 356.515C396.406 357.521 396.721 358.582 396.893 359.67C397.201 360.726 397.365 361.819 397.381 362.919Z" fill="#263238"/>
<path d="M400.487 360.393C399.655 358.187 399.106 355.885 398.855 353.541C399.687 355.747 400.236 358.049 400.487 360.393V360.393Z" fill="#263238"/>
<path d="M403.977 357.405C403.083 355.059 402.471 352.615 402.155 350.125C403.049 352.471 403.661 354.914 403.977 357.405V357.405Z" fill="#263238"/>
<path d="M407.266 354.542C406.372 352.197 405.761 349.753 405.445 347.263C406.339 349.608 406.95 352.052 407.266 354.542V354.542Z" fill="#263238"/>
<path d="M410.746 351.189C410.28 350.15 409.95 349.055 409.763 347.932C409.441 346.842 409.261 345.715 409.23 344.58C409.699 345.615 410.028 346.707 410.21 347.829C410.539 348.92 410.719 350.05 410.746 351.189V351.189Z" fill="#263238"/>
<path d="M414.213 347.785C413.549 345.967 413.175 344.055 413.105 342.121C413.502 343.008 413.762 343.95 413.874 344.915C414.136 345.848 414.25 346.816 414.213 347.785V347.785Z" fill="#263238"/>
<path d="M349.761 370.685C350.061 370.913 348.229 373.775 345.678 377.088C343.126 380.401 340.816 382.887 340.557 382.642C340.297 382.397 342.097 379.549 344.649 376.236C347.2 372.923 349.47 370.454 349.761 370.685Z" fill="#263238"/>
<path d="M310.288 181.468L310.267 181.42C313.31 178.248 316.18 174.915 318.865 171.435C322.353 166.469 321.942 166.139 321.282 165.825C319.543 164.993 314.785 174.372 314.636 171.74C314.487 169.108 321.805 161.003 319.945 160.177C317.521 159.146 312.718 169.046 312.242 169.834C311.766 170.621 310.599 169.991 311.055 169.288C311.724 168.273 318.436 157.445 316.066 156.409C314.752 155.834 313.944 158.292 313.944 158.292C313.944 158.292 308.403 168.878 307.3 168.352C306.198 167.826 309.223 161.492 310.397 159.412C311.571 157.333 311.057 155.997 309.732 156.232C308.849 156.376 305.071 162.615 303.988 164.664C302.905 166.714 299.908 172.448 299.077 168.441C298.246 164.435 296.091 161.676 294.991 161.328C293.891 160.981 293.009 162.392 293.762 163.413C294.468 164.6 295.005 165.88 295.355 167.216C295.683 168.28 295.825 169.392 295.775 170.504C295.721 171.797 295.614 172.885 295.504 173.814C295.298 175.298 295.684 176.804 296.578 178.006C298.052 179.694 308.198 183.488 308.198 183.488L310.288 181.468Z" fill="#EDEDED"/>
<g opacity="0.7">
<path opacity="0.7" d="M310.288 181.468L310.267 181.42C313.31 178.248 316.18 174.915 318.865 171.435C322.353 166.469 321.942 166.139 321.282 165.825C319.543 164.993 314.785 174.372 314.636 171.74C314.487 169.108 321.805 161.003 319.945 160.177C317.521 159.146 312.718 169.046 312.242 169.834C311.766 170.621 310.599 169.991 311.055 169.288C311.724 168.273 318.436 157.445 316.066 156.409C314.752 155.834 313.944 158.292 313.944 158.292C313.944 158.292 308.403 168.878 307.3 168.352C306.198 167.826 309.223 161.492 310.397 159.412C311.571 157.333 311.057 155.997 309.732 156.232C308.849 156.376 305.071 162.615 303.988 164.664C302.905 166.714 299.908 172.448 299.077 168.441C298.246 164.435 296.091 161.676 294.991 161.328C293.891 160.981 293.009 162.392 293.762 163.413C294.468 164.6 295.005 165.88 295.355 167.216C295.683 168.28 295.825 169.392 295.775 170.504C295.721 171.797 295.614 172.885 295.504 173.814C295.298 175.298 295.684 176.804 296.578 178.006C298.052 179.694 308.198 183.488 308.198 183.488L310.288 181.468Z" fill="white"/>
</g>
<path d="M220.07 227.848C222.26 228.348 269.015 209.595 269.015 209.595L291.591 179.403L308.698 185.587C308.698 185.587 284.036 224.67 280.494 227.218C276.952 229.765 248.108 241.512 248.108 241.512L220.07 227.848Z" fill="#EDEDED"/>
<path d="M292.422 179.85L307.635 186.245C308.11 186.447 308.641 186.474 309.134 186.319C309.626 186.164 310.047 185.839 310.32 185.401L310.37 185.322C310.538 185.054 310.646 184.753 310.685 184.44C310.725 184.127 310.696 183.808 310.6 183.507C310.504 183.207 310.344 182.93 310.13 182.697C309.916 182.465 309.655 182.281 309.363 182.16L294.092 175.848C293.645 175.66 293.149 175.628 292.682 175.756C292.215 175.885 291.805 176.168 291.518 176.558V176.558C291.322 176.822 291.188 177.127 291.127 177.451C291.066 177.774 291.079 178.107 291.167 178.425C291.254 178.742 291.412 179.036 291.63 179.283C291.847 179.53 292.119 179.724 292.422 179.85V179.85Z" fill="#EDEDED"/>
<path opacity="0.5" d="M292.422 179.85L307.635 186.245C308.11 186.447 308.641 186.474 309.134 186.319C309.626 186.164 310.047 185.839 310.32 185.401L310.37 185.322C310.538 185.054 310.646 184.753 310.685 184.44C310.725 184.127 310.696 183.808 310.6 183.507C310.504 183.207 310.344 182.93 310.13 182.697C309.916 182.465 309.655 182.281 309.363 182.16L294.092 175.848C293.645 175.66 293.149 175.628 292.682 175.756C292.215 175.885 291.805 176.168 291.518 176.558V176.558C291.322 176.822 291.188 177.127 291.127 177.451C291.066 177.774 291.079 178.107 291.167 178.425C291.254 178.742 291.412 179.036 291.63 179.283C291.847 179.53 292.119 179.724 292.422 179.85V179.85Z" fill="white"/>
<path d="M280.578 227.152C280.273 227.163 279.968 227.128 279.672 227.05C278.881 226.857 278.11 226.589 277.369 226.25C274.892 225.139 272.773 223.361 271.25 221.114C269.727 218.868 268.859 216.241 268.744 213.529C268.704 212.717 268.741 211.902 268.854 211.096C268.875 210.796 268.943 210.501 269.054 210.222C269.126 210.19 268.896 211.494 269.067 213.51C269.26 216.143 270.141 218.679 271.622 220.864C273.103 223.05 275.132 224.807 277.507 225.962C279.346 226.825 280.622 227.057 280.578 227.152Z" fill="#263238"/>
<path d="M303.22 183.897C303.161 184.057 303.086 184.211 302.996 184.355L302.284 185.616C301.662 186.715 300.74 188.295 299.589 190.232C297.271 194.095 293.991 199.424 290.221 205.186C286.451 210.949 282.904 216.102 280.253 219.789C278.947 221.634 277.868 223.114 277.111 224.12L276.229 225.276C276.135 225.418 276.024 225.55 275.9 225.667C275.966 225.508 276.053 225.358 276.158 225.222L276.972 224.021L279.995 219.61C282.554 215.887 286.059 210.724 289.829 204.962C293.599 199.199 296.937 193.873 299.321 190.076L302.149 185.524L302.925 184.302C303.004 184.154 303.103 184.017 303.22 183.897Z" fill="#263238"/>
<path d="M275.705 225.138C275.754 225.249 269.62 227.823 261.979 230.799C254.338 233.774 248.132 236.162 248.083 236.051C248.035 235.941 254.168 233.366 261.813 230.38C269.459 227.393 275.667 225.032 275.705 225.138Z" fill="#263238"/>
<g opacity="0.2">
<path opacity="0.2" d="M256.458 238.063C252.362 233.757 247.635 230.099 242.44 227.212C237.564 224.442 228.473 224.583 223.449 227.075C232.227 227.148 246.267 232.793 253.413 239.483L256.458 238.063Z" fill="black"/>
</g>
<path d="M186.347 256.032C185.417 254.719 167.084 290.45 159.412 305.536C158.369 307.586 157.796 309.844 157.733 312.143C157.671 314.443 158.122 316.728 159.052 318.832V318.832C159.875 320.697 161.057 322.381 162.531 323.788C164.005 325.196 165.741 326.299 167.641 327.035C169.541 327.772 171.568 328.127 173.605 328.08C175.642 328.033 177.651 327.586 179.515 326.763L214.285 311.416L206.501 293.781L183.86 303.775L204.475 271.798L186.347 256.032Z" fill="#EDEDED"/>
<path d="M217.873 307.494L217.849 307.439C222.092 306.294 226.268 304.918 230.361 303.317C235.906 300.87 235.729 300.361 235.331 299.76C234.269 298.147 225.36 303.698 226.587 301.395C227.815 299.093 238.267 295.861 237.09 294.223C235.542 292.067 226.332 298.072 225.512 298.529C224.691 298.986 224.019 297.806 224.777 297.443C225.886 296.953 237.201 291.107 235.709 288.992C234.881 287.824 232.916 289.506 232.916 289.506C232.916 289.506 222.711 295.723 222.043 294.702C221.375 293.682 227.229 289.81 229.304 288.658C231.38 287.505 231.638 286.075 230.374 285.592C229.518 285.26 223.086 288.658 221.066 289.852C219.047 291.046 213.562 294.423 214.914 290.56C216.267 286.698 215.848 283.219 215.08 282.357C214.884 282.174 214.636 282.058 214.371 282.024C214.106 281.99 213.837 282.041 213.602 282.169C213.368 282.296 213.179 282.495 213.063 282.736C212.948 282.977 212.911 283.248 212.958 283.511C212.94 284.885 212.734 286.25 212.344 287.568C212.077 288.647 211.627 289.672 211.012 290.598C210.297 291.68 209.646 292.564 209.072 293.3C208.135 294.467 207.691 295.954 207.834 297.443C208.224 299.657 214.962 308.126 214.962 308.126L217.873 307.494Z" fill="#EDEDED"/>
<g opacity="0.7">
<path opacity="0.7" d="M217.873 307.494L217.849 307.439C222.092 306.294 226.268 304.918 230.361 303.317C235.906 300.87 235.729 300.361 235.331 299.76C234.269 298.147 225.36 303.698 226.587 301.395C227.815 299.093 238.267 295.861 237.09 294.223C235.542 292.067 226.332 298.072 225.512 298.529C224.691 298.986 224.019 297.806 224.777 297.443C225.886 296.953 237.201 291.107 235.709 288.992C234.881 287.824 232.916 289.506 232.916 289.506C232.916 289.506 222.711 295.723 222.043 294.702C221.375 293.682 227.229 289.81 229.304 288.658C231.38 287.505 231.638 286.075 230.374 285.592C229.518 285.26 223.086 288.658 221.066 289.852C219.047 291.046 213.562 294.423 214.914 290.56C216.267 286.698 215.848 283.219 215.08 282.357C214.884 282.174 214.636 282.058 214.371 282.024C214.106 281.99 213.837 282.041 213.602 282.169C213.368 282.296 213.179 282.495 213.063 282.736C212.948 282.977 212.911 283.248 212.958 283.511C212.94 284.885 212.734 286.25 212.344 287.568C212.077 288.647 211.627 289.672 211.012 290.598C210.297 291.68 209.646 292.564 209.072 293.3C208.135 294.467 207.691 295.954 207.834 297.443C208.224 299.657 214.962 308.126 214.962 308.126L217.873 307.494Z" fill="white"/>
</g>
<path d="M157.549 312.359C157.656 311.964 157.805 311.581 157.991 311.217C158.461 310.187 159.034 309.208 159.702 308.295C161.919 305.23 165.05 302.947 168.646 301.772C172.257 300.659 176.125 300.699 179.713 301.885C180.79 302.237 181.829 302.695 182.815 303.252C183.187 303.437 183.534 303.668 183.848 303.941C182.483 303.256 181.07 302.671 179.621 302.191C176.09 301.13 172.324 301.145 168.802 302.234C165.29 303.386 162.21 305.577 159.97 308.517C159.071 309.737 158.262 311.021 157.549 312.359Z" fill="#263238"/>
<path d="M198.154 268.52C198.255 268.58 193.914 276.071 188.459 285.351C183.004 294.63 178.49 302.008 178.377 301.945C178.263 301.881 182.616 294.394 188.071 285.115C193.526 275.835 198.04 268.457 198.154 268.52Z" fill="#263238"/>
<path d="M207.834 304.372C207.71 304.48 207.573 304.572 207.426 304.647L206.194 305.351C205.129 305.963 203.568 306.822 201.626 307.869C197.754 309.947 192.336 312.727 186.266 315.595C180.196 318.463 174.634 320.937 170.578 322.642C168.566 323.531 166.896 324.164 165.766 324.606L164.446 325.112C164.294 325.179 164.134 325.227 163.97 325.256C164.112 325.172 164.264 325.105 164.422 325.057L170.482 322.382C174.507 320.606 180.068 318.151 186.11 315.219C192.151 312.288 197.592 309.602 201.504 307.592L206.131 305.209L207.402 304.572C207.538 304.488 207.683 304.421 207.834 304.372V304.372Z" fill="#263238"/>
<g opacity="0.2">
<path opacity="0.2" d="M186.078 300.458C184.726 297.694 181.383 296.254 178.355 296.493C175.328 296.731 172.114 299.143 169.958 301.335C174.66 300.708 179.965 301.168 183.913 303.808L186.078 300.458Z" fill="black"/>
</g>
<path d="M204.133 295.536L211.183 310.457C211.403 310.922 211.78 311.293 212.249 311.506C212.717 311.719 213.245 311.759 213.74 311.619L213.827 311.58C214.132 311.493 214.414 311.34 214.653 311.132C214.893 310.925 215.084 310.668 215.214 310.379C215.344 310.09 215.41 309.776 215.406 309.459C215.403 309.142 215.331 308.83 215.194 308.544L208.051 293.646C207.839 293.208 207.486 292.854 207.048 292.64C206.61 292.426 206.114 292.366 205.638 292.468V292.468C205.316 292.537 205.014 292.678 204.755 292.88C204.495 293.083 204.285 293.341 204.14 293.637C203.996 293.932 203.92 294.257 203.918 294.586C203.917 294.915 203.991 295.24 204.133 295.536V295.536Z" fill="#EDEDED"/>
<path opacity="0.5" d="M204.133 295.536L211.183 310.457C211.403 310.922 211.78 311.293 212.249 311.506C212.717 311.719 213.245 311.759 213.74 311.619L213.827 311.58C214.132 311.493 214.414 311.34 214.653 311.132C214.893 310.925 215.084 310.668 215.214 310.379C215.344 310.09 215.41 309.776 215.406 309.459C215.403 309.142 215.331 308.83 215.194 308.544L208.051 293.646C207.839 293.208 207.486 292.854 207.048 292.64C206.61 292.426 206.114 292.366 205.638 292.468V292.468C205.316 292.537 205.014 292.678 204.755 292.88C204.495 293.083 204.285 293.341 204.14 293.637C203.996 293.932 203.92 294.257 203.918 294.586C203.917 294.915 203.991 295.24 204.133 295.536V295.536Z" fill="white"/>
<path d="M203.044 274.881C204.035 273.223 204.763 271.42 205.2 269.537C205.617 267.493 205.651 265.388 205.3 263.331C205.096 262.119 204.771 260.931 204.331 259.784C203.846 258.558 203.223 257.391 202.474 256.306C200.944 254.084 198.833 252.347 196.485 252.002C194.415 251.749 192.318 252.146 190.483 253.136C189.233 253.793 188.038 254.549 186.908 255.395C186.495 255.715 186.06 256.005 185.607 256.263C185.607 256.263 185.693 256.159 185.888 255.978C186.083 255.798 186.389 255.549 186.781 255.234C187.878 254.317 189.062 253.509 190.316 252.822C192.2 251.75 194.377 251.31 196.529 251.566C197.801 251.774 199.004 252.29 200.032 253.068C201.121 253.885 202.068 254.878 202.833 256.005C203.604 257.121 204.243 258.323 204.736 259.586C205.183 260.766 205.51 261.989 205.712 263.235C206.038 265.346 205.961 267.5 205.485 269.582C205.163 270.983 204.634 272.327 203.913 273.57C203.719 273.908 203.501 274.232 203.262 274.539C203.204 274.662 203.131 274.777 203.044 274.881V274.881Z" fill="#263238"/>
<path d="M346.744 244.357L332.645 287.022L312.451 282.958L324.448 241.514L273.143 306.403C270.742 309.382 267.308 311.348 263.524 311.912C259.74 312.476 255.882 311.596 252.716 309.446V309.446C250.94 308.241 249.438 306.673 248.31 304.847C247.181 303.021 246.45 300.977 246.166 298.849C245.882 296.721 246.05 294.557 246.66 292.499C247.27 290.44 248.307 288.534 249.705 286.904L306.752 220.379C310.769 215.69 316.285 212.536 322.363 211.452C328.442 210.369 334.708 211.423 340.098 214.436V214.436C350.934 220.501 351.546 231.646 346.744 244.357Z" fill="#EDEDED"/>
<path d="M327.498 230.153C327.498 230.153 327.481 230.114 327.36 230.053L326.968 229.725C326.486 229.287 325.955 228.905 325.387 228.586C324.49 228.043 323.468 227.744 322.42 227.719C321.013 227.728 319.659 228.252 318.612 229.191V229.191L289.736 265.42L264.74 296.52L257.131 305.917L255.024 308.456L254.469 309.108L254.269 309.319C254.269 309.319 254.316 309.232 254.428 309.079L254.95 308.394L256.97 305.808L264.474 296.325L289.362 265.131L318.39 229.033C319.49 228.059 320.913 227.529 322.382 227.546C323.457 227.586 324.503 227.912 325.411 228.49C325.977 228.831 326.504 229.234 326.982 229.69L327.345 230.041C327.469 230.109 327.506 230.15 327.498 230.153Z" fill="#263238"/>
<path d="M329.018 224.589C329.136 224.622 328.135 228.765 326.747 233.769C325.359 238.774 324.145 242.887 324.051 242.844C323.956 242.801 324.934 238.668 326.318 233.656C327.066 230.59 327.967 227.564 329.018 224.589V224.589Z" fill="#263238"/>
<path d="M339.783 265.47L332.559 288.82C332.559 288.82 345.297 295.011 344.416 296.791C343.536 298.571 311.165 288.107 311.165 288.107L317.794 261.952L339.783 265.47Z" fill="#EDEDED"/>
<path opacity="0.4" d="M339.783 265.47L332.559 288.82C332.559 288.82 345.297 295.011 344.416 296.791C343.536 298.571 311.165 288.107 311.165 288.107L317.794 261.952L339.783 265.47Z" fill="black"/>
<path d="M338.09 271.65C338.08 271.778 333.003 271.425 326.745 270.865C320.487 270.305 315.427 269.756 315.44 269.636C315.454 269.517 320.528 269.861 326.786 270.421C333.043 270.982 338.112 271.527 338.09 271.65Z" fill="#263238"/>
<path d="M318.919 280.586C318.919 280.586 318.903 280.763 318.904 281.066C318.915 281.48 319.05 281.882 319.291 282.22C319.454 282.469 319.671 282.679 319.926 282.833C320.181 282.988 320.467 283.083 320.764 283.113C321.115 283.096 321.455 282.981 321.744 282.781C322.034 282.581 322.261 282.304 322.401 281.981C322.54 281.658 322.586 281.302 322.534 280.955C322.481 280.607 322.332 280.281 322.103 280.013C321.878 279.819 321.614 279.677 321.328 279.597C321.043 279.517 320.743 279.501 320.45 279.55C320.039 279.605 319.651 279.776 319.333 280.043C319.11 280.246 319.029 280.405 318.991 280.383C318.953 280.362 319 280.19 319.207 279.929C319.504 279.563 319.919 279.313 320.381 279.221C320.727 279.139 321.088 279.14 321.435 279.221C321.782 279.303 322.105 279.465 322.378 279.693C322.68 280.016 322.88 280.42 322.955 280.856C323.03 281.291 322.977 281.739 322.801 282.145C322.625 282.55 322.334 282.895 321.965 283.138C321.595 283.38 321.163 283.51 320.721 283.51C320.368 283.466 320.03 283.34 319.734 283.142C319.437 282.944 319.192 282.68 319.016 282.37C318.764 281.97 318.658 281.495 318.716 281.026C318.781 280.722 318.905 280.573 318.919 280.586Z" fill="#263238"/>
<path opacity="0.2" d="M309.509 260.508L324.096 242.067L328.68 225.798L309.509 260.508Z" fill="black"/>
<path d="M293.406 142.65C304.328 137.521 309.024 124.509 303.895 113.587C298.765 102.666 285.754 97.9696 274.832 103.099C263.91 108.228 259.214 121.24 264.343 132.161C269.472 143.083 282.484 147.779 293.406 142.65Z" fill="#455A64"/>
<path d="M287.259 112.35C286.99 111.699 286.921 110.983 287.06 110.293C287.198 109.603 287.539 108.969 288.038 108.472C288.537 107.975 289.172 107.638 289.863 107.502C290.554 107.366 291.27 107.438 291.92 107.71C292.569 107.981 293.124 108.439 293.514 109.025C293.903 109.612 294.11 110.301 294.108 111.005C294.106 111.709 293.895 112.397 293.502 112.981C293.109 113.565 292.551 114.02 291.9 114.287C291.027 114.645 290.049 114.642 289.178 114.279C288.308 113.916 287.618 113.222 287.259 112.35V112.35Z" fill="#263238"/>
<path d="M297.141 117.113C296.983 116.733 296.941 116.315 297.021 115.911C297.101 115.508 297.298 115.137 297.589 114.846C297.88 114.555 298.25 114.356 298.654 114.276C299.057 114.195 299.475 114.236 299.855 114.394C300.235 114.551 300.56 114.818 300.789 115.16C301.017 115.502 301.139 115.905 301.138 116.316C301.138 116.727 301.015 117.129 300.786 117.471C300.557 117.813 300.232 118.079 299.852 118.235C299.6 118.34 299.33 118.395 299.058 118.395C298.785 118.395 298.515 118.342 298.263 118.237C298.011 118.133 297.783 117.98 297.59 117.787C297.398 117.594 297.245 117.365 297.141 117.113V117.113Z" fill="#263238"/>
<path d="M297.154 124.026C297.336 123.968 297.532 123.98 297.705 124.058C297.879 124.136 298.017 124.275 298.094 124.449C298.171 124.623 298.181 124.82 298.122 125.001C298.062 125.181 297.938 125.334 297.773 125.429C297.592 125.487 297.396 125.475 297.222 125.397C297.049 125.319 296.91 125.18 296.833 125.006C296.757 124.832 296.747 124.635 296.806 124.455C296.865 124.274 296.989 124.121 297.154 124.026V124.026Z" fill="#263238"/>
<path d="M388.227 127.342L389.012 127.942C389.899 128.62 390.96 129.032 392.073 129.128L393.057 129.214L392.461 130.007C391.782 130.893 391.371 131.955 391.275 133.067L391.189 134.052L390.403 133.452C389.517 132.773 388.455 132.362 387.343 132.266L386.355 132.172L386.955 131.386C387.634 130.5 388.045 129.438 388.141 128.326L388.227 127.342Z" fill="#455A64"/>
<path d="M94.8442 398.428L95.6375 399.024C96.5224 399.705 97.5849 400.117 98.6977 400.21L99.6823 400.296L99.0859 401.089C98.4047 401.974 97.9929 403.037 97.8998 404.15L97.8059 405.138L97.0205 404.538C96.1341 403.859 95.0725 403.448 93.9603 403.352L92.9722 403.258L93.5721 402.472C94.2508 401.586 94.6623 400.524 94.7582 399.412L94.8442 398.428Z" fill="#455A64"/>
<path d="M188.799 354.725L189.196 355.023C189.639 355.362 190.17 355.568 190.726 355.616L191.228 355.659L190.918 356.051C190.58 356.498 190.375 357.031 190.329 357.589L190.282 358.083L189.893 357.782C189.449 357.44 188.917 357.232 188.359 357.181L187.861 357.145L188.167 356.745C188.506 356.302 188.712 355.771 188.76 355.215L188.799 354.725Z" fill="#455A64"/>
<path d="M406.237 256.973L406.637 257.279C407.081 257.618 407.611 257.824 408.167 257.872L408.658 257.911L408.36 258.307C408.018 258.749 407.812 259.281 407.767 259.838L407.72 260.332L407.331 260.03C406.888 259.691 406.357 259.485 405.801 259.437L405.299 259.393L405.609 259.001C405.945 258.556 406.151 258.026 406.202 257.471L406.237 256.973Z" fill="#455A64"/>
<path d="M252.108 182.528L252.497 182.83C252.94 183.169 253.471 183.375 254.027 183.423L254.529 183.466L254.219 183.858C253.882 184.303 253.677 184.833 253.626 185.389L253.591 185.887L253.19 185.581C252.74 185.244 252.205 185.041 251.644 184.995L251.146 184.959L251.47 184.599C251.809 184.155 252.014 183.625 252.063 183.069L252.108 182.528Z" fill="#455A64"/>
<path d="M127.528 219.36L127.917 219.661C128.361 220.003 128.893 220.212 129.451 220.262L129.949 220.298L129.643 220.698C129.304 221.141 129.098 221.672 129.05 222.228L129.011 222.719L128.614 222.421C128.173 222.078 127.641 221.872 127.084 221.828L126.59 221.781L126.892 221.392C127.233 220.947 127.438 220.413 127.481 219.854L127.528 219.36Z" fill="#455A64"/>
<path d="M184.65 130.701L186.051 131.729C187.581 132.904 189.416 133.615 191.338 133.778L193.066 133.962L192.037 135.363C190.863 136.893 190.152 138.728 189.988 140.65L189.804 142.378L188.404 141.349C186.896 140.141 185.074 139.392 183.153 139.189L181.425 139.005L182.454 137.605C183.628 136.075 184.339 134.24 184.503 132.318L184.65 130.701Z" fill="#455A64"/>
<path d="M211.766 413.6L213.127 414.646C214.656 415.823 216.491 416.534 218.414 416.695L220.142 416.879L219.096 418.24C217.921 419.77 217.21 421.605 217.047 423.527L216.903 425.237L215.502 424.209C213.972 423.034 212.137 422.323 210.215 422.16L208.504 422.015L209.533 420.615C210.71 419.086 211.422 417.25 211.582 415.328L211.766 413.6Z" fill="#455A64"/>
</svg>
