<svg width="577" height="513" viewBox="0 0 577 513" fill="none" xmlns="http://www.w3.org/2000/svg">
<path d="M185.245 424.233C193.018 447.552 175.496 462.276 155.802 459.185C142.386 457.065 130.183 462.108 122.217 467.513C121.901 467.716 121.526 467.806 121.152 467.77C120.778 467.733 120.428 467.572 120.157 467.311C119.887 467.051 119.712 466.707 119.661 466.335C119.61 465.963 119.686 465.585 119.877 465.262C121.059 463.31 122.352 461.427 123.749 459.622C123.978 459.329 124.101 458.965 124.097 458.592C124.093 458.22 123.963 457.859 123.727 457.57C123.491 457.281 123.164 457.081 122.8 457.003C122.435 456.924 122.055 456.972 121.721 457.138C114.594 460.553 103.903 464.361 92.8969 463.476C92.5662 463.451 92.2507 463.327 91.9911 463.121C91.7315 462.914 91.5399 462.635 91.441 462.318C91.3422 462.002 91.3406 461.663 91.4365 461.345C91.5324 461.028 91.7214 460.746 91.979 460.537C101.64 452.641 115.327 433.671 129.689 426.005C130.041 425.817 130.313 425.508 130.455 425.135C130.597 424.762 130.6 424.351 130.463 423.976C130.326 423.601 130.059 423.289 129.71 423.095C129.361 422.902 128.954 422.841 128.564 422.924C126.19 423.424 123.852 424.078 121.563 424.881C121.194 425.035 120.782 425.05 120.403 424.924C120.024 424.798 119.703 424.539 119.5 424.195C119.296 423.851 119.224 423.445 119.296 423.052C119.369 422.659 119.581 422.306 119.893 422.056C139.165 405.614 175.311 394.453 185.245 424.233Z" fill="#EDEDED"/>
<path opacity="0.7" d="M185.245 424.233C193.018 447.552 175.496 462.276 155.802 459.185C142.386 457.065 130.183 462.108 122.217 467.513C121.901 467.716 121.526 467.806 121.152 467.77C120.778 467.733 120.428 467.572 120.157 467.311C119.887 467.051 119.712 466.707 119.661 466.335C119.61 465.963 119.686 465.585 119.877 465.262C121.059 463.31 122.352 461.427 123.749 459.622C123.978 459.329 124.101 458.965 124.097 458.592C124.093 458.22 123.963 457.859 123.727 457.57C123.491 457.281 123.164 457.081 122.8 457.003C122.435 456.924 122.055 456.972 121.721 457.138C114.594 460.553 103.903 464.361 92.8969 463.476C92.5662 463.451 92.2507 463.327 91.9911 463.121C91.7315 462.914 91.5399 462.635 91.441 462.318C91.3422 462.002 91.3406 461.663 91.4365 461.345C91.5324 461.028 91.7214 460.746 91.979 460.537C101.64 452.641 115.327 433.671 129.689 426.005C130.041 425.817 130.313 425.508 130.455 425.135C130.597 424.762 130.6 424.351 130.463 423.976C130.326 423.601 130.059 423.289 129.71 423.095C129.361 422.902 128.954 422.841 128.564 422.924C126.19 423.424 123.852 424.078 121.563 424.881C121.194 425.035 120.782 425.05 120.403 424.924C120.024 424.798 119.703 424.539 119.5 424.195C119.296 423.851 119.224 423.445 119.296 423.052C119.369 422.659 119.581 422.306 119.893 422.056C139.165 405.614 175.311 394.453 185.245 424.233Z" fill="white"/>
<path d="M164.446 463.147L146.816 401.809C146.723 401.479 146.704 401.133 146.76 400.795C146.816 400.456 146.946 400.135 147.14 399.852C147.333 399.569 147.587 399.333 147.882 399.159C148.177 398.984 148.507 398.877 148.848 398.844L188.702 395.671C189.238 395.628 189.772 395.772 190.215 396.078C190.657 396.384 190.98 396.834 191.129 397.351L204.34 443.487C204.475 443.999 204.43 444.542 204.215 445.025C204 445.509 203.626 445.905 203.156 446.149L167.695 464.602C167.39 464.749 167.056 464.828 166.717 464.832C166.378 464.837 166.042 464.767 165.733 464.629C165.424 464.49 165.148 464.286 164.926 464.03C164.704 463.774 164.54 463.473 164.446 463.147V463.147Z" fill="black"/>
<path d="M154.814 452.596L144.261 415.799C144.172 415.484 144.149 415.154 144.196 414.83C144.242 414.506 144.356 414.195 144.531 413.918C144.705 413.641 144.936 413.404 145.209 413.222C145.481 413.04 145.789 412.917 146.111 412.862L191.256 405.138C191.823 405.041 192.405 405.157 192.892 405.463C193.378 405.77 193.734 406.245 193.891 406.798L201.729 433.892C201.884 434.445 201.832 435.035 201.581 435.552C201.33 436.068 200.898 436.474 200.367 436.693L158.008 454.097C157.702 454.231 157.371 454.299 157.036 454.294C156.702 454.29 156.373 454.214 156.07 454.072C155.768 453.93 155.499 453.725 155.282 453.47C155.066 453.216 154.906 452.918 154.814 452.596V452.596Z" fill="#263238"/>
<path d="M351.186 415.899L328.125 423.386L328.511 424.576L351.573 417.09L351.186 415.899Z" fill="#EDEDED"/>
<path d="M322.128 425.338L315.348 427.539L315.734 428.73L322.515 426.528L322.128 425.338Z" fill="#EDEDED"/>
<path d="M414.096 358.229C414.096 358.229 376.834 332.624 331.024 345.774L185.949 382.04C183.289 382.704 180.79 383.898 178.601 385.549C176.412 387.199 174.578 389.274 173.208 391.649C171.838 394.025 170.961 396.651 170.628 399.373C170.295 402.094 170.514 404.855 171.272 407.49L182.128 445.308C182.885 447.944 184.164 450.4 185.89 452.531C187.616 454.661 189.754 456.422 192.176 457.708C194.597 458.994 197.253 459.78 199.985 460.017C202.716 460.255 205.468 459.94 208.075 459.091L350.296 412.857C396.094 399.709 414.096 358.229 414.096 358.229Z" fill="#EDEDED"/>
<path d="M338.299 384.566C336.817 370.644 324.33 360.559 310.408 362.041C296.486 363.522 286.401 376.01 287.882 389.932C289.364 403.854 301.851 413.938 315.773 412.457C329.695 410.975 339.78 398.488 338.299 384.566Z" fill="white"/>
<path opacity="0.3" d="M330.162 386.029C330.431 389.944 329.351 393.832 327.103 397.048C324.855 400.264 321.573 402.613 317.804 403.705C317.562 403.742 317.316 403.841 317.063 403.892C316.006 404.158 314.925 404.322 313.836 404.382C313.46 404.439 313.059 404.413 312.686 404.408L311.849 404.374C308.353 404.111 305.021 402.785 302.3 400.574C299.579 398.363 297.6 395.372 296.629 392.003C296.408 391.213 296.24 390.409 296.127 389.597C295.707 385.384 296.857 381.164 299.358 377.747C301.858 374.33 305.533 371.957 309.676 371.083C313.818 370.21 318.138 370.897 321.805 373.013C325.473 375.129 328.23 378.524 329.547 382.548C329.875 383.683 330.082 384.85 330.162 386.029V386.029Z" fill="#EDEDED"/>
<path opacity="0.3" d="M330.162 386.029C330.431 389.944 329.351 393.832 327.103 397.048C324.855 400.264 321.573 402.613 317.804 403.705C317.562 403.742 317.316 403.841 317.063 403.892C316.005 404.152 314.925 404.316 313.836 404.382C313.46 404.439 313.059 404.413 312.686 404.408L311.849 404.374C308.353 404.111 305.021 402.785 302.3 400.574C299.579 398.363 297.6 395.372 296.629 392.003C296.408 391.213 296.24 390.409 296.127 389.597C295.949 385.808 297.092 382.075 299.36 379.035C301.628 375.995 304.881 373.836 308.563 372.927C317.676 370.413 327.114 375.273 329.67 383.771C329.887 384.511 330.052 385.266 330.162 386.029V386.029Z" fill="#EDEDED"/>
<path d="M272.125 354.706L279.593 352.802L278.03 335.317L270.562 337.22L272.125 354.706Z" fill="#CF7A64"/>
<path d="M229.282 365.816L236.63 363.943L235.542 346.075L228.194 347.948L229.282 365.816Z" fill="#CF7A64"/>
<path d="M236.8 362.205L228.533 364.317C228.389 364.355 228.263 364.441 228.175 364.56C228.087 364.679 228.043 364.825 228.049 364.974L228.434 371.84C228.446 372.005 228.494 372.165 228.573 372.309C228.653 372.454 228.763 372.579 228.896 372.677C229.029 372.775 229.181 372.843 229.343 372.876C229.504 372.909 229.671 372.907 229.832 372.869C232.704 372.086 234.051 371.558 237.683 370.634C239.917 370.059 242.931 369.391 246.061 368.593C249.192 367.795 248.704 364.667 247.352 364.673C241.341 364.891 240.378 363.449 238.104 362.292C237.694 362.108 237.232 362.077 236.8 362.205V362.205Z" fill="#263238"/>
<path d="M279.574 351.204L271.547 353.267C271.401 353.3 271.272 353.385 271.183 353.506C271.094 353.626 271.052 353.774 271.063 353.924L271.448 360.79C271.458 360.956 271.504 361.117 271.583 361.262C271.662 361.408 271.772 361.534 271.906 361.632C272.039 361.731 272.192 361.798 272.355 361.831C272.517 361.863 272.685 361.859 272.845 361.819C275.73 361.034 279.859 359.786 283.504 358.86C287.768 357.766 287.828 357.993 292.821 356.713C295.83 355.934 295.809 352.685 294.476 352.739C288.366 352.959 287.32 353.093 281.478 351.324C280.865 351.117 280.208 351.076 279.574 351.204V351.204Z" fill="#263238"/>
<path d="M213.921 114.779C215.839 114.661 218.005 114.543 220.058 114.331C222.111 114.118 224.16 113.882 226.15 113.579C228.067 113.284 229.965 112.879 231.836 112.368C233.324 111.982 234.746 111.377 236.056 110.573L234.344 114.333C234.404 114.734 234.489 114.721 234.368 114.491C234.208 114.135 234.007 113.798 233.769 113.49C233.043 112.541 232.224 111.668 231.325 110.882C229.261 109.055 227.084 107.358 224.807 105.803C222.473 104.159 220.038 102.593 217.581 101.042C215.124 99.4918 212.584 97.9663 210.126 96.4903L212.348 91.5111C215.264 92.4832 218.04 93.6006 220.849 94.775C223.658 95.9494 226.391 97.2719 229.118 98.7195C231.928 100.175 234.624 101.84 237.184 103.7C238.61 104.761 239.933 105.951 241.138 107.257C241.878 108.063 242.521 108.952 243.054 109.908C243.819 111.244 244.243 112.748 244.29 114.287L244.348 116.463L242.559 118.087C240.395 119.976 237.883 121.424 235.164 122.35C232.84 123.206 230.452 123.876 228.022 124.353C225.688 124.844 223.368 125.172 221.058 125.411C218.749 125.65 216.503 125.817 214.022 125.822L213.921 114.779Z" fill="#CE7A63"/>
<path d="M215.252 93.5526L209.939 88.638L207.808 97.1652C207.808 97.1652 212.584 101.317 216.523 98.324L215.252 93.5526Z" fill="#CF7A64"/>
<path d="M203.573 86.6011L204.202 95.8137L207.799 97.1044L209.923 88.6154L203.573 86.6011Z" fill="#CF7A64"/>
<path d="M198.278 88.5968L204.644 84.7507C204.746 84.6766 204.862 84.6254 204.985 84.6003C205.108 84.5753 205.235 84.5772 205.357 84.6058C205.479 84.6343 205.594 84.689 205.693 84.766C205.792 84.8429 205.873 84.9404 205.931 85.0517L212.431 98.3497C212.521 98.5872 212.524 98.8489 212.44 99.0886C212.356 99.3283 212.191 99.5308 211.972 99.6605L205.606 103.507C205.505 103.581 205.389 103.632 205.266 103.657C205.143 103.682 205.016 103.68 204.894 103.652C204.772 103.623 204.657 103.568 204.558 103.491C204.459 103.414 204.377 103.317 204.319 103.206L197.833 89.9925C197.718 89.7464 197.7 89.4661 197.783 89.2075C197.865 88.9488 198.042 88.7308 198.278 88.5968V88.5968Z" fill="#263238"/>
<path d="M208.544 129.223C214.387 134.441 233.773 125.776 233.773 125.776L229.994 112.412C229.994 112.412 224.654 111.659 214.477 112.882C204.035 114.083 202.14 123.506 208.544 129.223Z" fill="#EDEDED"/>
<path opacity="0.2" d="M278.031 335.329L278.829 344.342L271.374 346.244L270.564 337.232L278.031 335.329Z" fill="black"/>
<path opacity="0.2" d="M228.184 347.962L235.542 346.075L236.097 355.287L228.751 357.172L228.184 347.962Z" fill="black"/>
<path d="M222.373 115.518C226.466 122.691 237.121 144.306 239.816 178.97L200.489 189.051C198.525 183.143 193.291 149.82 179.444 123.043C183.567 121.099 187.81 119.422 192.148 118.023C197.635 116.272 203.219 114.839 208.872 113.734C211.778 113.288 214.708 113.013 217.646 112.91C218.597 112.871 219.541 113.093 220.374 113.553C221.208 114.013 221.899 114.693 222.373 115.518V115.518Z" fill="#EDEDED"/>
<path opacity="0.2" d="M207.972 124.072L206.439 124.516C208.623 137.836 209.37 141.446 199.217 155.747C197.378 158.29 195.77 160.993 194.412 163.824C194.809 165.377 195.199 166.881 195.569 168.339C198.254 165.015 201.848 160.647 204.559 157.579C216.795 143.757 208.347 123.841 207.972 124.072Z" fill="black"/>
<path opacity="0.2" d="M189.965 127.837C191.887 132.323 193.634 143.824 192.782 157.829C189.732 146.795 185.72 136.05 180.794 125.717V125.717C183.288 124.731 188.111 123.638 189.965 127.837Z" fill="black"/>
<path d="M189.939 101.926C192.509 106.997 194.909 113.483 192.148 118.023C192.148 118.023 195.84 122.886 205.84 120.325C214.966 117.983 208.872 113.734 208.872 113.734C202.461 113.851 200.696 106.399 200.571 101.975L189.939 101.926Z" fill="#CF7A64"/>
<path d="M206.199 119.749L208.96 121.589C209.057 121.653 209.135 121.74 209.187 121.843C209.24 121.946 209.265 122.06 209.261 122.176L209.1 124.471C209.094 124.598 209.049 124.719 208.97 124.817C208.892 124.916 208.784 124.988 208.663 125.022L206.351 125.733C206.244 125.766 206.13 125.772 206.02 125.75C205.91 125.727 205.808 125.678 205.723 125.605L203.803 123.911C203.698 123.811 203.629 123.68 203.608 123.537C203.586 123.394 203.612 123.248 203.683 123.122L205.278 119.976C205.321 119.898 205.38 119.831 205.451 119.777C205.522 119.723 205.603 119.684 205.689 119.663C205.775 119.642 205.865 119.638 205.953 119.653C206.041 119.668 206.124 119.701 206.199 119.749V119.749Z" fill="#263238"/>
<path d="M205.436 119.791C204.82 122.595 203.861 125.312 202.581 127.882C202.581 127.882 192.037 124.891 190.466 118.552C190.437 118.436 190.438 118.315 190.468 118.2C190.499 118.085 190.557 117.979 190.639 117.892C190.971 117.544 191.569 116.907 192.131 116.276C192.195 116.196 192.277 116.132 192.369 116.088C192.461 116.044 192.562 116.021 192.664 116.021C192.767 116.021 192.868 116.044 192.96 116.088C193.052 116.132 193.134 116.196 193.198 116.275C194.199 117.55 197.159 119.881 205.436 119.791Z" fill="white"/>
<path d="M205.776 119.664C208.074 120.907 210.093 122.607 211.71 124.658C212.403 122.873 212.692 120.956 212.556 119.045C212.42 117.135 211.864 115.278 210.926 113.608C210.867 113.51 210.787 113.426 210.691 113.363C210.596 113.3 210.487 113.26 210.374 113.245C209.933 113.2 209.115 113.126 208.278 113.091C208.168 113.09 208.059 113.114 207.96 113.162C207.86 113.21 207.774 113.281 207.706 113.368C207.639 113.455 207.593 113.557 207.571 113.665C207.55 113.773 207.554 113.885 207.583 113.991C207.945 115.004 207.965 116.108 207.638 117.133C207.312 118.158 206.658 119.047 205.776 119.664V119.664Z" fill="white"/>
<path d="M207.887 123.998C208.249 123.769 214.998 141.733 203.147 155.063C198.313 160.501 190.668 170.064 190.679 170.05C191.008 166.661 192.84 161.233 198.352 153.644C208.32 139.93 207.816 136.693 206.459 124.488L207.887 123.998Z" fill="#263238"/>
<path opacity="0.2" d="M200.573 101.987C200.6 105.088 201.49 108.12 203.143 110.744C202.172 110.846 201.191 110.802 200.232 110.615C196.408 109.954 194.038 107.832 191.241 104.534C190.841 103.614 190.422 102.734 189.995 101.881L200.573 101.987Z" fill="black"/>
<path d="M193.721 84.411C193.431 72.7763 203.661 83.5841 202.194 89.6153C201.289 93.3022 193.787 87.2182 193.721 84.411Z" fill="#263238"/>
<path d="M183.745 96.5253C187.674 103.028 189.648 107.035 194.828 108.78C202.615 111.432 209.227 104.223 207.294 96.7221C205.562 89.973 199.427 80.467 191.502 81.0748C189.76 81.1932 188.079 81.7638 186.626 82.7303C185.172 83.6967 183.996 85.0256 183.212 86.5856C182.429 88.1457 182.066 89.8831 182.16 91.6262C182.253 93.3693 182.8 95.0579 183.745 96.5253Z" fill="#CF7A64"/>
<path d="M188.003 102.742C188.895 102.442 189.682 101.893 190.27 101.159C190.858 100.425 191.223 99.5371 191.321 98.6016C189.125 98.0848 187.119 96.9619 185.529 95.3607C185.529 95.3607 187.938 90.4649 187.222 87.9549C191.177 87.3544 199.865 82.1255 197.125 78.2226C194.385 74.3196 185.744 73.4847 181.345 77.2059C178.603 79.7549 175.145 81.4019 171.438 81.9249C172.64 82.4113 173.912 82.7041 175.206 82.7923C174.042 84.3357 173.216 86.1067 172.782 87.9902C172.347 89.8736 172.314 91.8274 172.684 93.7247C173.738 99.1123 171.122 101.744 171.122 101.744C171.122 101.744 174.844 101.737 175.717 99.966C175.488 101.813 179.428 107.569 186.146 107.43C193.667 107.268 188.003 102.742 188.003 102.742Z" fill="#263238"/>
<path d="M185.487 106.524C188.401 107.323 190.586 107.413 191.868 106.375C193.15 105.336 192.323 102.582 190.282 101.241C188.453 100.067 185.07 99.2032 183.462 101.036C181.854 102.869 182.477 105.666 185.487 106.524Z" fill="#CF7A64"/>
<path d="M239.816 178.97C239.816 178.97 265.571 232.845 270.028 254.024C274.913 277.198 280.975 339.834 280.975 339.834L267.681 343.255C267.681 343.255 256.175 284.487 249.279 262.127C241.796 237.858 214.762 185.456 214.762 185.456L239.816 178.97Z" fill="#263238"/>
<path opacity="0.2" d="M232.031 207.394L231.791 220.115C236.287 229.696 240.882 239.932 244.463 248.883C242.928 234.402 238.712 220.333 232.031 207.394V207.394Z" fill="black"/>
<path d="M266.052 340.052L267.246 344.972L282.119 341.162L281.699 335.455L266.052 340.052Z" fill="#EDEDED"/>
<path d="M225.862 182.542C225.862 182.542 239.124 232.195 240.481 254.291C241.933 278.483 238.956 351.961 238.956 351.961L225.492 355.408C225.492 355.408 222.56 285.434 219.012 262.069C215.153 236.654 200.485 189.101 200.485 189.101L225.862 182.542Z" fill="#263238"/>
<path d="M224.356 351.113L224.874 355.837L239.675 352.038L240.396 346.493L224.356 351.113Z" fill="#EDEDED"/>
<path d="M194.839 93.3262C195.122 93.879 195.65 94.1711 195.995 93.9945C196.341 93.8179 196.412 93.2238 196.127 92.7335C195.841 92.2432 195.328 91.8867 194.97 92.0652C194.613 92.2436 194.544 92.7752 194.839 93.3262Z" fill="#263238"/>
<path d="M200.974 90.2474C201.257 90.8002 201.785 91.0923 202.13 90.9157C202.476 90.7392 202.547 90.145 202.262 89.6547C201.976 89.1644 201.463 88.808 201.105 88.9864C200.748 89.1648 200.693 89.7067 200.974 90.2474Z" fill="#263238"/>
<path d="M199.167 91.5024C200.69 92.8435 202.386 93.9758 204.208 94.8697C203.978 95.324 203.648 95.721 203.244 96.0315C202.841 96.3419 202.372 96.558 201.874 96.6638L199.167 91.5024Z" fill="#BA4D3C"/>
<path d="M200.802 99.2469C200.841 99.2217 200.87 99.1823 200.882 99.1367C200.893 99.0911 200.887 99.0428 200.864 99.0017C200.839 98.9616 200.8 98.932 200.754 98.9183C200.709 98.9047 200.66 98.908 200.617 98.9275C199.952 99.3003 199.209 99.5131 198.448 99.5491C197.686 99.585 196.927 99.443 196.23 99.1345C196.191 99.1063 196.142 99.0946 196.095 99.1018C196.047 99.1091 196.004 99.1347 195.975 99.1732C195.95 99.2132 195.94 99.261 195.947 99.3078C195.954 99.3546 195.978 99.3973 196.014 99.428C196.767 99.7877 197.596 99.9592 198.43 99.9277C199.264 99.8962 200.078 99.6626 200.802 99.2469V99.2469Z" fill="#263238"/>
<path d="M191.947 92.2637C191.995 92.2386 192.037 92.2029 192.069 92.1593C192.101 92.1157 192.123 92.0654 192.132 92.0121C192.189 91.5696 192.352 91.1475 192.608 90.7821C192.863 90.4168 193.204 90.1192 193.601 89.915C193.645 89.8971 193.685 89.8702 193.718 89.8361C193.751 89.802 193.776 89.7614 193.793 89.7169C193.81 89.6724 193.817 89.6249 193.814 89.5775C193.811 89.5301 193.799 89.4838 193.777 89.4415C193.738 89.3546 193.666 89.2864 193.578 89.2512C193.489 89.2161 193.39 89.2167 193.302 89.253C192.798 89.5027 192.362 89.8719 192.034 90.3285C191.705 90.7852 191.493 91.3153 191.416 91.8727C191.404 91.9402 191.411 92.0097 191.437 92.0733C191.462 92.1369 191.505 92.1921 191.56 92.2328C191.616 92.2734 191.681 92.2978 191.749 92.3033C191.818 92.3087 191.886 92.295 191.947 92.2637V92.2637Z" fill="#263238"/>
<path d="M202.579 86.6777C202.628 86.649 202.668 86.6087 202.698 86.5604C202.751 86.4834 202.772 86.3892 202.758 86.2968C202.744 86.2044 202.696 86.1209 202.622 86.063C202.15 85.7369 201.609 85.5256 201.041 85.446C200.473 85.3663 199.894 85.4205 199.35 85.6042C199.308 85.6236 199.269 85.6512 199.237 85.6856C199.205 85.7199 199.18 85.7603 199.164 85.8043C199.147 85.8483 199.14 85.8951 199.142 85.9421C199.143 85.989 199.154 86.0352 199.174 86.0778C199.192 86.1219 199.219 86.1619 199.253 86.1954C199.287 86.2289 199.328 86.2552 199.372 86.2728C199.416 86.2903 199.464 86.2988 199.511 86.2977C199.559 86.2966 199.606 86.2859 199.65 86.2662V86.2662C200.075 86.1328 200.526 86.099 200.967 86.1677C201.408 86.2363 201.827 86.4055 202.192 86.662C202.249 86.7004 202.315 86.7222 202.383 86.7249C202.452 86.7277 202.519 86.7114 202.579 86.6777V86.6777Z" fill="#263238"/>
<path d="M176.559 136.078L187.349 138.647C187.349 138.647 182.759 164.811 185.079 167.909C188.201 172.126 195.875 178.445 200.508 182.718C200.429 184.604 199.851 186.435 198.832 188.024C190.066 185.384 175.331 175.148 173.955 170.579C170.869 160.151 176.559 136.078 176.559 136.078Z" fill="#CF7A64"/>
<path d="M179.444 123.043C171.544 126.998 173.185 145.651 173.185 145.651L187.046 150.297C190.075 145.335 191.942 139.752 192.509 133.966C193.329 124.248 186.388 119.568 179.444 123.043Z" fill="#EDEDED"/>
<path d="M239.599 362.897C240.105 362.813 240.567 362.554 240.902 362.165C241.004 362.02 241.067 361.851 241.085 361.674C241.104 361.498 241.078 361.32 241.01 361.156C240.98 361.056 240.924 360.966 240.848 360.895C240.771 360.823 240.678 360.774 240.576 360.75C239.651 360.543 237.678 362.593 237.453 362.826C237.441 362.858 237.437 362.893 237.442 362.927C237.447 362.961 237.461 362.993 237.483 363.02C237.496 363.052 237.518 363.079 237.548 363.097C237.578 363.115 237.612 363.122 237.647 363.119C238.304 363.124 238.959 363.049 239.599 362.897V362.897ZM240.258 361.109C240.335 361.078 240.418 361.065 240.501 361.072C240.541 361.084 240.577 361.106 240.606 361.137C240.635 361.167 240.654 361.205 240.664 361.246C240.712 361.357 240.732 361.478 240.722 361.599C240.712 361.719 240.673 361.835 240.607 361.937C239.882 362.519 238.963 362.805 238.035 362.737C238.657 362.038 239.409 361.469 240.251 361.06L240.258 361.109Z" fill="#EDEDED"/>
<path d="M237.629 363.084C237.629 363.084 237.629 363.084 237.714 363.071C238.366 362.463 239.381 360.485 238.991 359.712C238.929 359.592 238.828 359.497 238.704 359.441C238.581 359.386 238.443 359.373 238.312 359.406C238.175 359.422 238.043 359.467 237.925 359.539C237.808 359.61 237.707 359.706 237.63 359.82C236.973 360.726 237.4 362.883 237.413 362.968C237.415 363.001 237.428 363.033 237.45 363.059C237.472 363.085 237.501 363.103 237.534 363.111L237.629 363.084ZM238.275 359.734L238.359 359.721C238.59 359.686 238.643 359.79 238.661 359.825C238.892 360.286 238.294 361.742 237.695 362.454C237.509 361.611 237.588 360.733 237.921 359.937C238.017 359.824 238.152 359.75 238.299 359.731L238.275 359.734Z" fill="#EDEDED"/>
<path d="M283 351.701C283.64 351.602 284.224 351.281 284.649 350.793C284.743 350.661 284.801 350.507 284.818 350.346C284.835 350.184 284.81 350.021 284.745 349.873C284.712 349.778 284.657 349.693 284.584 349.624C284.511 349.555 284.422 349.505 284.325 349.477C283.292 349.212 280.754 351.459 280.47 351.713C280.445 351.741 280.428 351.774 280.421 351.81C280.413 351.846 280.415 351.884 280.427 351.919C280.442 351.953 280.467 351.981 280.499 352.001C280.53 352.021 280.567 352.03 280.605 352.028C281.412 351.994 282.214 351.885 283 351.701ZM283.896 349.84C284.004 349.796 284.12 349.779 284.236 349.789C284.275 349.798 284.311 349.819 284.339 349.847C284.368 349.876 284.388 349.911 284.397 349.95C284.44 350.048 284.457 350.154 284.447 350.26C284.437 350.366 284.4 350.467 284.34 350.555C284.01 351.077 282.812 351.445 281.111 351.604C281.951 350.854 282.914 350.254 283.957 349.831L283.896 349.84Z" fill="#EDEDED"/>
<path d="M280.641 352.022L280.714 352.011C281.489 351.397 282.794 349.362 282.438 348.572C282.348 348.387 282.143 348.183 281.646 348.258C281.469 348.28 281.3 348.34 281.149 348.433C280.999 348.527 280.87 348.652 280.772 348.8C280.321 349.77 280.199 350.861 280.425 351.906C280.43 351.936 280.442 351.963 280.461 351.987C280.48 352.01 280.504 352.028 280.532 352.039C280.55 352.045 280.569 352.046 280.588 352.043C280.607 352.041 280.625 352.033 280.641 352.022ZM281.598 348.6L281.707 348.584C282.035 348.534 282.09 348.65 282.108 348.684C282.329 349.16 281.485 350.715 280.721 351.489C280.566 350.63 280.683 349.744 281.057 348.956C281.191 348.779 281.382 348.653 281.598 348.6V348.6Z" fill="#EDEDED"/>
<path d="M198.518 181.953L205.7 181.11L202.476 189.22C202.476 189.22 196.164 189.745 194.793 184.964L198.518 181.953Z" fill="#CF7A64"/>
<path d="M209.426 183.089L206.09 190.298L202.415 189.23L205.7 181.111L209.426 183.089Z" fill="#CF7A64"/>
</svg>
