<svg width="507" height="424" viewBox="0 0 507 424" fill="none" xmlns="http://www.w3.org/2000/svg">
<path d="M74.2142 472.945C173.166 517.986 333.583 517.986 432.535 472.945C531.487 427.904 531.476 354.787 432.535 309.722C333.594 264.658 173.166 264.681 74.2142 309.722C-24.7381 354.764 -24.7381 427.904 74.2142 472.945Z" fill="#F5F5F5"/>
<path d="M424.601 411.608C457.2 411.608 483.628 399.012 483.628 383.474C483.628 367.937 457.2 355.341 424.601 355.341C392.001 355.341 365.573 367.937 365.573 383.474C365.573 399.012 392.001 411.608 424.601 411.608Z" fill="#E0E0E0"/>
<path d="M78.672 426.286C111.272 426.286 137.699 413.691 137.699 398.153C137.699 382.615 111.272 370.02 78.672 370.02C46.0721 370.02 19.6448 382.615 19.6448 398.153C19.6448 413.691 46.0721 426.286 78.672 426.286Z" fill="#E0E0E0"/>
<path d="M43.5977 392.194H54.4192V373.669H43.5977V392.194Z" fill="#B16668"/>
<path d="M87.842 378.173L98.6635 378.543L99.2063 358.944L87.842 358.575V378.173Z" fill="#B16668"/>
<path d="M46.8312 242.31C46.8312 252.635 47.374 312.505 47.374 312.505C47.1199 315.474 44.2673 320.763 44.0363 331.469C43.7129 346.991 43.1355 382.943 43.1355 382.943C45.0046 383.859 47.0517 384.354 49.1327 384.394C51.2138 384.434 53.2783 384.018 55.1812 383.174C55.1812 383.174 66.6494 332.046 68.5896 316.709C70.2758 303.289 73.2092 266.852 73.2092 266.852L81.4783 312.194C80.2081 317.832 79.7377 323.621 80.0809 329.39C80.5891 336.493 87.172 372.122 87.172 372.122C89.0578 373.186 91.1543 373.824 93.3135 373.99C95.4727 374.155 97.642 373.845 99.6681 373.08C99.6681 373.08 100.315 317.183 100.43 310.715C100.58 303.278 97.3352 239.308 97.3352 239.308L46.8312 242.31Z" fill="#37474F"/>
<path d="M54.4191 386.858V385.311C54.9966 385.311 55.3546 385.877 55.574 387.262C55.7276 388.293 55.9358 389.315 56.1977 390.323C56.6822 392.218 57.3155 394.071 58.0917 395.867C59.6162 399.631 60.8981 401.04 64.409 405.441C65.6062 406.661 66.7285 407.953 67.7698 409.31C68.4166 410.464 68.6475 413.71 67.5388 414.449C63.4505 417.175 57.2486 417.255 52.86 415.962C51.2247 415.507 49.7549 414.592 48.6264 413.324C47.4979 412.056 46.7584 410.49 46.4965 408.813C46.3348 407.808 46.3925 406.792 46.277 405.787C45.8973 403.505 44.97 401.349 43.5746 399.504C42.7557 398.43 42.0584 397.268 41.4957 396.04C40.5834 393.811 41.3109 391.316 41.8884 389.11C42.3966 387.193 42.9394 385.091 43.5861 385.276V386.431C45.13 387.64 47.0416 388.284 49.0026 388.256C50.5964 388.383 54.4307 388.059 54.4191 386.858Z" fill="#263238"/>
<path d="M98.779 375.206C99.3333 375.206 99.7953 376.026 101.089 377.365C102.94 379.246 105.091 380.807 107.452 381.985C111.506 384.017 119.382 387.136 122.94 388.741C125.169 389.746 125.065 392.437 122.766 393.961C120.468 395.486 114.901 396.594 108.238 395.116C104.6 394.308 99.8646 390.947 96.8734 391.132C93.8822 391.317 88.2693 391.27 86.0635 389.746C83.8576 388.221 84.7353 384.965 85.359 382.17C86.0404 379.109 86.895 374.351 87.8998 374.559V375.61C89.2048 377.585 95.9148 378.382 98.779 376.938V375.206Z" fill="#263238"/>
<path d="M73.1516 266.852C78.7257 265.1 83.8497 262.152 88.1654 258.213C88.1654 258.213 85.255 263.653 76.6163 268.723L80.7971 309.052L73.1516 266.852Z" fill="#263238"/>
<path d="M90.3481 217.595C83.2801 194.058 84.6775 174.125 83.3494 168.027L101.47 193.331C102.237 201.671 103.474 209.961 105.177 218.161C107.267 227.158 110.12 238.372 113.539 245.348C114.159 246.577 115.206 247.538 116.484 248.05C119.948 249.448 121.496 251.215 124.233 253.236C126.381 254.829 128.01 255.037 127.882 255.684C127.645 256.412 127.143 257.024 126.475 257.398C125.808 257.772 125.024 257.882 124.279 257.705C122.627 257.359 121.021 256.816 119.498 256.088C121.035 258.696 122.985 261.036 125.272 263.018C130.516 267.58 131.266 270.802 122.558 272.384C117.096 273.389 112.164 270.767 105.939 259.426C103.581 255.299 101.524 251.007 99.7837 246.583C95.626 235.034 92.4847 224.721 90.3481 217.595Z" fill="#B16668"/>
<path d="M81.8828 162.172C87.5072 163.165 93.0738 164.482 96.527 169.887C99.9802 175.292 104.969 200.803 104.969 200.803C104.969 200.803 97.7166 205.897 89.4012 205.677L81.8828 162.172Z" fill="#0097B7"/>
<path opacity="0.1" d="M81.8828 162.172C87.5072 163.165 93.0738 164.482 96.527 169.887C99.9802 175.292 104.969 200.803 104.969 200.803C104.969 200.803 97.7166 205.897 89.4012 205.677L81.8828 162.172Z" fill="black"/>
<path d="M43.1242 171.653C39.3477 174.344 19.4256 219.339 18.6634 222.469C17.6355 226.731 18.109 231.5 20.1994 233.048C22.2898 234.596 26.8978 232.378 29.3116 230.022C33.9312 225.403 50.0999 191.749 50.0999 191.749L43.1242 171.653Z" fill="#9A4A4D"/>
<path d="M62.9307 162.275C53.6914 164.493 42.1424 168.2 38.0194 176.654C33.8964 185.108 27.6252 198.84 27.6252 198.84C31.8986 203.009 37.1111 206.09 42.8238 207.825L47.4434 199.741L46.762 242.472C54.2112 247.9 81.5709 250.857 97.2545 239.4C97.2545 239.4 95.3373 188.168 95.3373 180.188C95.3373 172.208 90.9025 162.634 78.672 161.917L62.9307 162.275Z" fill="#0097B7"/>
<path opacity="0.1" d="M47.5128 199.637C47.5128 199.637 52.1325 191.656 53.1141 189.728L47.3396 209.361L47.5128 199.637Z" fill="black"/>
<path d="M80.4391 141.534C88.648 141.534 95.3027 134.879 95.3027 126.67C95.3027 118.461 88.648 111.807 80.4391 111.807C72.2301 111.807 65.5754 118.461 65.5754 126.67C65.5754 134.879 72.2301 141.534 80.4391 141.534Z" fill="#263238"/>
<path d="M54.731 137.237C54.731 137.237 57.1447 148.555 58.1148 150.415C58.7557 151.563 59.8148 152.419 61.0714 152.805L60.9097 144.848L54.731 137.237Z" fill="#263238"/>
<path d="M57.7569 121.022C56.9138 120.926 56.0599 121.022 55.2596 121.304C54.4593 121.587 53.7336 122.047 53.1372 122.65C51.1624 124.671 52.2711 131.023 54.731 137.237L59.2698 137.757L57.7569 121.022Z" fill="#263238"/>
<path d="M60.6326 137.769C59.7202 138.312 58.4267 136.556 57.3064 135.39C56.1862 134.223 52.5136 132.606 50.6888 136.452C48.8641 140.298 52.3057 145.565 55.193 146.477C60.1591 148.036 60.9675 144.848 60.9675 144.848L61.3255 163.327C67.5043 171.25 84.6546 170.58 77.4942 162.311V156.848C79.7077 157.207 81.9539 157.323 84.1926 157.194C87.8537 156.629 90.1519 153.73 91.2606 149.791C93.0392 143.439 93.7206 138.242 92.2077 125.804C90.5562 112.107 74.6185 111.945 66.0144 117.385C57.4104 122.824 60.6326 137.769 60.6326 137.769Z" fill="#B16668"/>
<path d="M60.6324 139.293C60.1705 139.293 58.4381 136.417 57.3063 135.39C55.7356 133.957 57.7567 121.023 57.7567 121.023C57.225 119.891 57.0443 118.627 57.2378 117.392C57.4313 116.157 57.9901 115.008 58.8423 114.093C60.9904 111.726 63.9932 108.827 73.7406 109.982C80.67 110.813 88.2693 112.973 94.3903 109.982C94.9592 111.977 94.9179 114.097 94.2716 116.069C93.6253 118.041 92.4037 119.774 90.7639 121.046C90.7639 121.046 88.5465 122.466 82.6795 123.182C77.2922 123.586 71.8787 123.482 66.5109 122.87C64.8247 122.639 64.4667 124.279 63.5543 128.749C62.8383 132.618 62.1684 139.27 60.6324 139.293Z" fill="#263238"/>
<path d="M57.7683 122.027L52.271 119.071C52.4476 118.702 52.6968 118.373 53.0038 118.103C53.3107 117.832 53.669 117.627 54.0573 117.499C54.4455 117.37 54.8557 117.322 55.2631 117.356C55.6706 117.39 56.0671 117.506 56.4287 117.697C57.1665 118.107 57.7176 118.787 57.9671 119.593C58.2167 120.4 58.1455 121.272 57.7683 122.027Z" fill="#263238"/>
<path d="M77.4365 156.836C77.4365 156.836 69.2829 155.196 66.4302 153.683C64.7519 152.808 63.3757 151.448 62.4805 149.78C62.9114 151.454 63.6732 153.025 64.721 154.399C66.8114 157.067 77.4249 159.019 77.4249 159.019L77.4365 156.836Z" fill="#9A4A4D"/>
<path d="M75.4613 135.713C75.4675 136.155 75.2986 136.582 74.9913 136.9C74.6841 137.218 74.2635 137.401 73.8214 137.411C73.3843 137.393 72.9713 137.205 72.6696 136.889C72.3679 136.572 72.2011 136.15 72.2045 135.713C72.1983 135.271 72.3673 134.844 72.6745 134.526C72.9818 134.208 73.4023 134.024 73.8445 134.015C74.2816 134.033 74.6945 134.22 74.9962 134.537C75.2979 134.854 75.4647 135.275 75.4613 135.713V135.713Z" fill="#263238"/>
<path d="M73.7409 129.545L70.2762 131.486C70.0244 131.005 69.968 130.447 70.1187 129.926C70.2693 129.405 70.6154 128.962 71.0846 128.691C71.3142 128.568 71.5661 128.493 71.8255 128.469C72.0848 128.446 72.3462 128.475 72.594 128.555C72.8419 128.634 73.0712 128.763 73.2682 128.933C73.4652 129.104 73.626 129.312 73.7409 129.545Z" fill="#263238"/>
<path d="M76.6971 147.02L80.439 148.417C80.3587 148.669 80.2281 148.901 80.0552 149.101C79.8824 149.301 79.6707 149.463 79.4332 149.579C79.1956 149.694 78.9371 149.761 78.6732 149.773C78.4094 149.786 78.1457 149.745 77.8982 149.653C77.3951 149.456 76.9883 149.071 76.7641 148.579C76.5399 148.088 76.5159 147.528 76.6971 147.02V147.02Z" fill="#9A4A4D"/>
<path d="M90.0596 130.909L86.8721 128.46C87.02 128.243 87.2112 128.058 87.4336 127.918C87.6561 127.777 87.9051 127.684 88.165 127.644C88.425 127.604 88.6905 127.618 88.9449 127.685C89.1993 127.752 89.4372 127.87 89.6438 128.033C90.0677 128.368 90.347 128.853 90.4243 129.388C90.5016 129.923 90.3711 130.467 90.0596 130.909Z" fill="#263238"/>
<path d="M89.0778 135.262C89.0642 135.584 88.9566 135.894 88.7683 136.154C88.5801 136.414 88.3195 136.614 88.0189 136.727C87.7183 136.841 87.3909 136.864 87.0775 136.793C86.7641 136.722 86.4784 136.56 86.2559 136.329C86.0334 136.097 85.884 135.805 85.8261 135.488C85.7683 135.172 85.8045 134.846 85.9304 134.551C86.0563 134.255 86.2663 134.003 86.5343 133.826C86.8023 133.648 87.1165 133.554 87.4378 133.553C87.6577 133.558 87.8746 133.606 88.0761 133.694C88.2775 133.782 88.4596 133.909 88.6119 134.068C88.7642 134.227 88.8837 134.414 88.9637 134.619C89.0436 134.824 89.0824 135.043 89.0778 135.262V135.262Z" fill="#263238"/>
<path d="M80.751 133.704L81.2822 143.543L86.4216 141.788L80.751 133.704Z" fill="#9A4A4D"/>
<path d="M37.2225 249.898C37.0693 249.898 36.9224 249.837 36.8142 249.729C36.7059 249.621 36.645 249.474 36.645 249.32V67.6771C36.645 67.5239 36.7059 67.377 36.8142 67.2687C36.9224 67.1605 37.0693 67.0996 37.2225 67.0996C37.3756 67.0996 37.5225 67.1605 37.6308 67.2687C37.7391 67.377 37.7999 67.5239 37.7999 67.6771V249.32C37.7999 249.474 37.7391 249.621 37.6308 249.729C37.5225 249.837 37.3756 249.898 37.2225 249.898Z" fill="#37474F"/>
<path d="M41.6111 83.488C41.6111 81.6286 37.7652 76.5586 36.9915 76.5586C36.2177 76.5586 32.7876 81.5362 32.7876 83.488C32.8227 83.8749 32.9598 84.2456 33.185 84.5621C33.4103 84.8787 33.7155 85.1297 34.0695 85.2897C35.0298 85.7794 36.0925 86.0347 37.1705 86.0347C38.2484 86.0347 39.3111 85.7794 40.2714 85.2897C40.6276 85.1313 40.9352 84.881 41.1625 84.5643C41.3898 84.2477 41.5287 83.8762 41.5649 83.488H41.6111Z" fill="#0097B7"/>
<path opacity="0.1" d="M41.6111 83.488C41.6111 81.6286 37.7652 76.5586 36.9915 76.5586C36.2177 76.5586 32.7876 81.5362 32.7876 83.488C32.8227 83.8749 32.9598 84.2456 33.185 84.5621C33.4103 84.8787 33.7155 85.1297 34.0695 85.2897C35.0298 85.7794 36.0925 86.0347 37.1705 86.0347C38.2484 86.0347 39.3111 85.7794 40.2714 85.2897C40.6276 85.1313 40.9352 84.881 41.1625 84.5643C41.3898 84.2477 41.5287 83.8762 41.5649 83.488H41.6111Z" fill="black"/>
<path d="M62.7579 43.182C62.7579 57.3874 51.6015 75.3346 37.0266 78.73C22.3362 74.6301 11.3069 57.3874 11.3069 43.182C11.3069 28.9767 20.4537 15.6953 37.0382 15.6953C53.6226 15.6953 62.7579 28.9652 62.7579 43.182Z" fill="#0097B7"/>
<path opacity="0.05" d="M12.2535 35.3867C11.6171 37.9362 11.299 40.5546 11.3065 43.1823C11.3065 57.3876 22.3705 74.6304 37.0378 78.7303C49.1528 75.9008 58.9002 63.0236 61.8452 50.5968C61.8452 50.5968 58.0109 64.2362 41.1377 65.3334C24.2646 66.4306 10.6482 47.1436 12.2535 35.3867Z" fill="black"/>
<path d="M20.7769 233.325C17.7049 232.447 14.552 223.254 14.783 217.364C15.0139 211.474 22.9366 185.997 24.0222 181.1C25.2579 175.695 25.1771 171.584 26.2743 168.777C27.8911 164.631 33.2037 162.356 33.2037 162.356C33.2037 162.356 40.1331 159.042 42.6277 158.545C45.1223 158.048 46.0924 159.7 45.8153 161.005C45.5381 162.31 44.6603 165.625 44.4294 167.426C44.2648 169.732 43.5903 171.973 42.4545 173.986C41.1494 176.076 35.8253 181.077 35.6174 183.861C35.4096 186.644 33.8735 201.75 32.9958 212.733C32.2682 221.718 31.3674 225.437 29.4156 227.816C27.4638 230.195 23.1676 233.995 20.7769 233.325Z" fill="#B16668"/>
<path d="M454.351 363.275H443.38V382.054H454.351V363.275Z" fill="#FFA8A7"/>
<path d="M416.32 362.282L405.36 362.652L404.817 342.787L416.32 342.406V362.282Z" fill="#FFA8A7"/>
<path d="M450.806 223.543C450.806 234.018 452.446 296.926 452.446 296.926C452.7 299.94 455.599 305.299 455.83 316.155C456.153 331.896 454.79 372.664 454.79 372.664C452.896 373.594 450.822 374.097 448.713 374.139C446.604 374.181 444.512 373.76 442.583 372.907C442.583 372.907 432.905 316.767 430.941 301.187C429.232 287.594 426.322 250.649 426.322 250.649L420.397 295.09C421.666 300.806 422.125 306.673 421.76 312.517C421.24 319.724 417.025 356.172 417.025 356.172C415.107 357.254 412.975 357.9 410.779 358.066C408.584 358.232 406.379 357.912 404.321 357.131C404.321 357.131 398.777 301.696 398.65 295.09C398.512 287.548 402.3 210.597 402.3 210.597L450.806 223.543Z" fill="#0097B7"/>
<path d="M407.82 201.912C414.888 178.364 413.491 158.43 414.819 152.332L396.698 177.636C395.931 185.98 394.693 194.274 392.991 202.478C390.901 211.475 388.048 222.689 384.63 229.664C384.009 230.89 382.961 231.847 381.685 232.355C378.22 233.753 376.672 235.52 373.935 237.552C371.787 239.135 370.159 239.343 370.286 239.989C370.532 240.708 371.038 241.31 371.705 241.675C372.371 242.04 373.15 242.143 373.889 241.964C375.541 241.616 377.146 241.073 378.67 240.347C377.131 242.953 375.181 245.293 372.896 247.277C367.652 251.827 366.902 255.049 375.61 256.631C381.072 257.636 386.004 255.015 392.229 243.673C394.598 239.539 396.667 235.239 398.419 230.808C402.542 219.282 405.683 209.026 407.82 201.912Z" fill="#FFA8A7"/>
<path d="M416.274 146.477C410.65 147.47 405.094 148.786 401.641 154.191C398.188 159.596 393.199 185.108 393.199 185.108C393.199 185.108 400.452 190.201 408.767 189.982L416.274 146.477Z" fill="#E0E0E0"/>
<path d="M455.032 155.97C458.809 158.649 478.731 203.644 479.493 206.786C480.51 211.047 480.048 215.828 477.957 217.364C475.867 218.9 471.259 216.695 468.845 214.339C464.225 209.719 447.999 176.077 447.999 176.077L455.032 155.97Z" fill="#F28F8F"/>
<path d="M435.422 146.465C444.604 148.682 456.21 152.39 460.322 160.843C464.433 169.297 470.716 183.018 470.716 183.018C466.44 187.189 461.223 190.27 455.506 192.003L450.886 183.918L451.568 226.592C444.119 232.02 416.759 234.965 401.075 223.52C401.075 223.52 403.004 172.277 403.004 164.308C403.004 156.339 407.427 146.754 419.669 146.038L435.422 146.465Z" fill="#F0F0F0"/>
<path d="M450.806 183.884C450.806 183.884 446.186 175.892 445.204 173.975L450.979 193.608L450.806 183.884Z" fill="#E0E0E0"/>
<path d="M443.38 376.638V375.067C442.329 375.529 439.915 384.826 435.538 388.799C432.073 391.952 427.361 395.601 426.16 399.112C424.959 402.623 432.731 404.794 435.965 404.217C439.718 403.558 446.232 400.914 447.861 398.442C449.489 395.971 450.263 392.379 451.591 390.589C452.919 388.799 455.98 386.778 456.696 384.699C457.088 383.544 456.626 381.061 456.072 378.924C455.518 376.788 455.009 374.847 454.351 375.032V376.187C452.787 377.411 450.851 378.064 448.865 378.035C447.26 378.243 443.368 377.862 443.38 376.638Z" fill="#263238"/>
<path d="M405.244 359.268C404.679 359.268 404.217 360.099 402.935 361.451C401.062 363.342 398.883 364.904 396.49 366.07C392.379 368.126 384.398 371.29 380.784 372.919C378.474 373.935 378.635 376.661 380.968 378.208C383.301 379.756 388.926 380.888 395.693 379.363C399.378 378.532 404.182 375.136 407.242 375.309C410.303 375.483 415.962 375.46 418.203 373.912C420.443 372.364 419.554 369.061 418.919 366.232C418.226 363.137 417.359 358.309 416.332 358.529V359.591C415.015 361.589 408.247 362.398 405.314 360.931L405.244 359.268Z" fill="#263238"/>
<path opacity="0.1" d="M426.345 250.649C420.674 248.88 415.459 245.892 411.065 241.895C411.065 241.895 414.022 247.415 422.776 252.543L420.905 291.244L426.345 250.649Z" fill="black"/>
<path d="M438.864 105.685C439.688 105.587 440.522 105.679 441.305 105.953C442.088 106.227 442.797 106.677 443.38 107.267C445.32 109.254 444.916 112.926 443.38 121.357L437.386 122.05L438.864 105.685Z" fill="#263238"/>
<path d="M403.928 103.214C402.638 103.219 401.36 102.96 400.175 102.451C398.338 101.389 397.865 103.479 398.858 105.292C399.523 106.589 400.509 107.695 401.722 108.503C402.935 109.312 404.334 109.797 405.787 109.912C405.787 109.658 407.508 105.292 407.508 105.292L403.928 103.214Z" fill="#263238"/>
<path d="M436.058 122.016C436.947 122.547 438.217 120.861 439.314 119.706C440.412 118.551 443.992 116.981 445.77 120.746C447.549 124.511 443.461 129.685 441.035 131.371C438.148 133.38 436.058 131.81 436.058 131.81L435.422 146.477C435.422 146.477 432.235 154.261 423.619 155.427C415.004 156.594 416.782 149.503 419.612 146.015V140.679C419.612 140.679 415.165 141.557 413.063 141.014C411.54 140.534 410.159 139.683 409.044 138.538C407.93 137.394 407.116 135.99 406.677 134.454C404.309 126.629 403.814 118.357 405.233 110.305C407.427 96.9892 422.441 96.7698 430.849 102.059C439.257 107.349 436.058 122.016 436.058 122.016Z" fill="#FFA8A7"/>
<path d="M436.057 123.517C436.496 123.517 438.205 120.699 439.314 119.694C440.85 118.297 438.864 105.651 438.864 105.651C438.864 105.651 440.423 100.858 437.385 97.6702C434.348 94.4826 428.469 95.0254 424.173 94.8753C418.896 94.9096 413.668 93.8601 408.813 91.7917C402.715 89.1354 402.253 88.8236 401.491 91.503C400.729 94.1823 400.451 100.326 404.101 104.438L407.127 105.593C407.127 105.593 408.767 107.036 414.46 107.729C419.713 108.127 424.991 108.027 430.225 107.429C431.876 107.21 432.234 108.803 433.124 113.204C433.898 116.98 434.544 123.482 436.057 123.517Z" fill="#263238"/>
<path d="M438.852 106.632L444.234 103.745C444.062 103.384 443.819 103.061 443.519 102.796C443.22 102.531 442.869 102.329 442.489 102.203C442.11 102.077 441.708 102.028 441.31 102.061C440.911 102.094 440.523 102.207 440.169 102.394C439.446 102.795 438.905 103.46 438.66 104.249C438.415 105.039 438.484 105.892 438.852 106.632V106.632Z" fill="#263238"/>
<path d="M419.623 140.667C419.623 140.667 427.603 139.062 430.387 137.583C432.03 136.729 433.375 135.396 434.244 133.761C433.824 135.395 433.077 136.927 432.05 138.265C430.017 140.875 419.623 142.792 419.623 142.792V140.667Z" fill="#F28F8F"/>
<path d="M421.529 119.752C421.54 120.067 421.644 120.372 421.827 120.628C422.01 120.884 422.265 121.081 422.559 121.194C422.853 121.306 423.174 121.33 423.481 121.262C423.789 121.193 424.069 121.036 424.288 120.81C424.507 120.583 424.654 120.297 424.711 119.987C424.769 119.677 424.734 119.358 424.611 119.068C424.488 118.778 424.282 118.53 424.02 118.356C423.757 118.182 423.449 118.09 423.134 118.089C422.919 118.092 422.707 118.138 422.51 118.223C422.313 118.309 422.134 118.432 421.985 118.587C421.836 118.741 421.719 118.924 421.64 119.124C421.562 119.324 421.524 119.538 421.529 119.752V119.752Z" fill="#263238"/>
<path d="M423.515 113.135L426.98 115.029C427.226 114.56 427.281 114.013 427.132 113.505C426.983 112.996 426.643 112.566 426.183 112.303C425.955 112.172 425.703 112.09 425.443 112.062C425.182 112.033 424.918 112.059 424.668 112.137C424.417 112.215 424.186 112.344 423.987 112.515C423.789 112.687 423.628 112.898 423.515 113.135V113.135Z" fill="#263238"/>
<path d="M421.656 130.863L418.006 132.249C418.085 132.494 418.213 132.721 418.382 132.916C418.551 133.111 418.758 133.27 418.99 133.383C419.222 133.497 419.474 133.562 419.732 133.575C419.989 133.589 420.247 133.55 420.489 133.461C420.986 133.267 421.386 132.887 421.604 132.401C421.822 131.915 421.841 131.362 421.656 130.863Z" fill="#F28F8F"/>
<path d="M406.538 115.421L409.656 113.019C409.51 112.804 409.321 112.622 409.1 112.484C408.88 112.346 408.633 112.255 408.376 112.217C408.119 112.179 407.857 112.195 407.606 112.264C407.355 112.332 407.122 112.451 406.919 112.615C406.51 112.946 406.243 113.421 406.173 113.942C406.102 114.464 406.233 114.993 406.538 115.421V115.421Z" fill="#263238"/>
<path d="M408.328 119.302C408.34 119.617 408.444 119.922 408.627 120.179C408.811 120.435 409.066 120.632 409.361 120.744C409.656 120.856 409.977 120.879 410.285 120.81C410.593 120.741 410.873 120.582 411.092 120.355C411.31 120.127 411.456 119.84 411.512 119.529C411.568 119.219 411.532 118.899 411.407 118.609C411.282 118.319 411.075 118.073 410.811 117.9C410.547 117.728 410.238 117.637 409.922 117.639C409.491 117.651 409.082 117.832 408.784 118.143C408.486 118.455 408.322 118.871 408.328 119.302V119.302Z" fill="#263238"/>
<path d="M417.071 118.055L416.539 127.663L411.527 125.954L417.071 118.055Z" fill="#F28F8F"/>
<path d="M460.946 234.203C460.792 234.203 460.646 234.142 460.537 234.034C460.429 233.925 460.368 233.778 460.368 233.625V51.9817C460.368 51.8286 460.429 51.6817 460.537 51.5734C460.646 51.4651 460.792 51.4043 460.946 51.4043C461.099 51.4043 461.246 51.4651 461.354 51.5734C461.462 51.6817 461.523 51.8286 461.523 51.9817V233.625C461.523 233.778 461.462 233.925 461.354 234.034C461.246 234.142 461.099 234.203 460.946 234.203Z" fill="#37474F"/>
<path d="M456.58 67.7927C456.58 65.9449 460.426 60.8633 461.2 60.8633C461.973 60.8633 465.404 65.8409 465.404 67.7927C465.37 68.18 465.233 68.5511 465.008 68.8679C464.782 69.1846 464.476 69.4354 464.122 69.5944C463.161 70.0841 462.099 70.3394 461.021 70.3394C459.943 70.3394 458.88 70.0841 457.92 69.5944C457.553 69.4446 457.235 69.1977 456.999 68.8801C456.763 68.5626 456.618 68.1866 456.58 67.7927V67.7927Z" fill="#0097B7"/>
<path opacity="0.1" d="M456.58 67.7927C456.58 65.9449 460.426 60.8633 461.2 60.8633C461.973 60.8633 465.404 65.8409 465.404 67.7927C465.37 68.18 465.233 68.5511 465.008 68.8679C464.782 69.1846 464.476 69.4354 464.122 69.5944C463.161 70.0841 462.099 70.3394 461.021 70.3394C459.943 70.3394 458.88 70.0841 457.92 69.5944C457.553 69.4446 457.235 69.1977 456.999 68.8801C456.763 68.5626 456.618 68.1866 456.58 67.7927V67.7927Z" fill="black"/>
<path d="M435.399 27.4867C435.399 41.6921 446.544 59.6393 461.13 63.0347C475.798 58.9348 486.862 41.6921 486.862 27.4867C486.862 13.2814 477.715 0 461.13 0C444.546 0 435.399 13.293 435.399 27.4867Z" fill="#0097B7"/>
<path opacity="0.05" d="M485.753 34.9129C485.753 34.9129 481.988 48.5407 465.046 49.6379C448.785 50.6889 435.561 32.834 436.058 21.0078C435.617 23.1392 435.396 25.3103 435.399 27.4868C435.399 41.6922 446.544 59.6394 461.13 63.0348C473.292 59.6394 482.958 47.2126 485.926 34.9706L485.753 34.9129Z" fill="black"/>
<path d="M477.368 217.63C480.44 216.753 483.593 207.571 483.362 201.669C483.131 195.768 475.209 170.314 474.123 165.405C472.887 160.001 472.968 155.889 471.871 153.083C470.254 148.948 464.942 146.673 464.942 146.673C464.942 146.673 458.012 143.347 455.518 142.85C453.023 142.354 452.053 144.005 452.33 145.31C452.607 146.615 453.485 149.93 453.716 151.731C453.879 154.038 454.554 156.278 455.691 158.291C456.996 160.382 462.32 165.382 462.528 168.166C462.736 170.949 464.272 186.067 465.149 197.038C465.877 206.023 466.778 209.742 468.73 212.121C470.681 214.5 475.059 218.312 477.368 217.63Z" fill="#FFA8A7"/>
<path d="M179.137 386.293C211.737 386.293 238.164 373.698 238.164 358.16C238.164 342.622 211.737 330.026 179.137 330.026C146.537 330.026 120.11 342.622 120.11 358.16C120.11 373.698 146.537 386.293 179.137 386.293Z" fill="#E0E0E0"/>
<path d="M304.56 394.85C337.16 394.85 363.587 382.255 363.587 366.717C363.587 351.179 337.16 338.583 304.56 338.583C271.96 338.583 245.533 351.179 245.533 366.717C245.533 382.255 271.96 394.85 304.56 394.85Z" fill="#E0E0E0"/>
<path d="M193.99 126.128C197.05 125.689 199.637 126.128 204.984 133.427C209.765 139.964 219.293 150.935 219.293 150.935C219.293 150.935 227.909 128.357 227.655 125.319C227.401 122.282 225.495 120.411 224.248 114.821C223.001 109.232 222.643 108.169 221.707 106.541C220.772 104.912 224.017 104.52 225.322 106.541C226.627 108.562 226.789 111.414 227.701 110.906C228.614 110.398 229.237 104.254 228.463 99.8423C227.69 95.4305 229.699 94.4373 230.612 95.8463C231.141 96.634 231.513 97.5163 231.709 98.4448C232.653 98.252 233.631 98.3128 234.544 98.6212C235.457 98.9296 236.272 99.4745 236.906 100.2C239.216 102.718 241.133 106.587 241.121 113.135C241.11 119.684 238.084 123.183 237.656 126.139C237.229 129.096 231.882 156.502 228.094 165.764C225.715 171.539 222.423 173.294 218.404 169.91C212.988 165.348 198.124 147.078 198.124 147.078L193.99 126.128Z" fill="#FFA8A7"/>
<path d="M193.99 126.128C196.75 125.308 199.764 125.955 202.559 129.304C205.354 132.653 215.586 145.611 215.586 145.611C215.586 145.611 215.286 152.24 206.728 158.384L196.969 147.875L193.99 126.128Z" fill="#0097B7"/>
<path d="M208.449 339.97L208.356 338.434C209.084 340.201 212.364 347.823 216.88 351.461C220.46 354.36 225.322 357.674 226.708 361.058C228.094 364.442 220.541 366.255 217.33 365.874C213.6 365.447 208.691 363.634 205.896 360.596C203.933 358.46 202.617 355.873 201.208 354.187C199.799 352.5 196.669 350.722 195.837 348.701C195.387 347.604 195.699 345.109 196.114 343.007C196.53 340.905 197.154 338.757 197.812 338.896C197.784 339.349 197.73 339.8 197.65 340.247C199.256 341.365 201.197 341.895 203.148 341.748C204.73 341.714 208.541 341.171 208.449 339.97Z" fill="#263238"/>
<path d="M220.125 353.99C218.97 353.113 217.896 352.258 216.88 351.438C213.727 348.886 211.175 344.393 209.673 341.321V341.263C208.524 338.776 208.024 336.039 208.218 333.306L208.357 329.668L196.808 329.899L197.651 340.224V340.489H197.708C198.367 342.695 203.668 348.366 206.717 352.038C208.749 354.522 212.491 357.628 216.845 357.94C220.98 358.333 222.943 356.924 220.125 353.99Z" fill="#FFA8A7"/>
<path d="M143.971 341.286C143.416 340.963 142.504 342.845 141.545 344.277C140.516 346.059 140.027 348.101 140.136 350.156C140.392 352.47 140.271 354.81 139.778 357.085C139.132 360.92 138.011 365.32 141.869 368.854C145.183 371.88 152.575 373.289 154.931 371.164C155.409 370.774 155.79 370.277 156.04 369.713C156.291 369.15 156.406 368.535 156.374 367.918C155.902 366.245 155.251 364.626 154.434 363.091C153.523 361.35 152.706 359.561 151.986 357.732L143.971 341.286Z" fill="#263238"/>
<path d="M154.388 334.796C153.88 334.369 152.783 348.551 152.471 351.923C152.159 355.296 152.748 357.063 153.302 360.654C153.578 361.503 153.516 362.426 153.129 363.23C152.836 363.602 152.46 363.901 152.031 364.102C151.602 364.302 151.131 364.399 150.658 364.385C148.209 364.385 146.269 363.484 144.213 361.163C143.197 360.008 143.128 356.947 143.185 355.838C143.353 353.98 143.387 352.112 143.289 350.249C143.104 348.274 142.527 345.952 142.781 344.474C142.998 343.329 143.388 342.223 143.936 341.194C144.871 339.058 145.495 333.214 145.495 333.214L154.388 334.796Z" fill="#FFA8A7"/>
<path d="M159.227 184.439C153.233 192.142 152.148 200.088 153.453 222.55C154.758 245.013 152.864 263.365 152.529 264.624C152.194 265.882 148.394 278.286 146.604 286.636C144.514 296.418 144.225 336.69 144.225 336.69C144.225 336.69 148.486 339 155.069 337.429C155.069 337.429 170.961 274.498 172.647 269.428C174.333 264.358 187.095 212.064 187.095 212.064L185.467 181.956L159.227 184.439Z" fill="#37474F"/>
<path d="M205.065 210.332C204.153 199.938 201.924 181.933 201.924 181.933L175.361 180.374C171.053 187.084 172.924 198.24 174.102 208.323L189.301 267.823C188.989 270.676 186.367 276.716 189.301 292.076C192.569 309.192 196.576 331.817 196.576 331.817C196.576 331.817 202.813 334.357 208.541 331.944C208.541 331.944 210.736 277.756 209.338 262.961C207.802 246.897 205.689 217.446 205.065 210.332Z" fill="#37474F"/>
<path d="M182.452 235.578L186.783 213.751C190.622 212.384 194.267 210.524 197.627 208.219C195.481 210.932 192.92 213.29 190.04 215.206L182.452 235.578Z" fill="#263238"/>
<path d="M160.832 131.579C157.853 133.299 152.921 134.87 150.866 140.668C148.059 148.752 140.61 169.748 137.746 177.29H151.512L161.04 157.772C168.409 151.443 167.415 133.854 160.832 131.579Z" fill="#FFA8A7"/>
<path d="M200.191 165.06C200.849 171.123 203.298 193.551 203.298 193.551C183.26 204.234 158.418 197.155 154.619 192.754C158.083 181.413 161.768 174.957 164.597 171.966L161.04 157.772C161.04 157.772 169.436 147.782 160.832 131.579L172 127.906L187.291 126.578L193.989 126.128C196.38 128.368 200.145 136.395 202.593 142.643C204.164 146.674 205.862 153.118 200.191 165.06Z" fill="#F5F5F5"/>
<path d="M160.832 131.579C154.249 132.872 151.293 136.106 148.66 143.289C145.819 151.062 142.412 159.458 142.412 159.458C144.256 162.123 146.83 164.2 149.825 165.439C152.819 166.678 156.108 167.028 159.296 166.445L163.558 154.561C163.558 154.561 169.275 144.075 160.832 131.579Z" fill="#0097B7"/>
<path d="M162.853 164.91C163.026 165.603 167.715 171.839 170.014 173.271C172.312 174.703 165.948 176.736 165.047 180.374C163.234 187.684 174.564 197.074 188.642 198.413C172.716 201.024 157.552 196.104 154.653 192.754C158.118 181.413 161.802 174.957 164.632 171.966L162.853 164.91Z" fill="#E6E6E6"/>
<path d="M204.984 124.707H183.584C180.144 124.709 176.737 124.032 173.558 122.717C170.38 121.401 167.492 119.472 165.059 117.039C162.626 114.606 160.697 111.718 159.381 108.54C158.066 105.361 157.389 101.954 157.391 98.5142V98.5142C157.391 92.2044 159.897 86.1531 164.359 81.6914C168.821 77.2297 174.872 74.7231 181.182 74.7231V74.7231C184.307 74.7216 187.402 75.3359 190.29 76.5308C193.177 77.7257 195.802 79.4779 198.012 81.6873C200.222 83.8966 201.976 86.5199 203.172 89.4071C204.368 92.2943 204.984 95.3889 204.984 98.5142V124.707Z" fill="#263238"/>
<path d="M196.484 85.0823C199.002 86.5721 202.109 92.8894 201.797 106.148C201.531 117.373 197.893 120.157 196.022 120.954C194.151 121.75 190.663 121.265 187.245 120.688V127.433C187.032 128.858 186.264 130.141 185.108 131.001C182.313 132.745 179.01 132.087 177.151 131.417C173.051 129.939 172.243 127.952 172.243 127.952L172.312 112.442C172.312 112.442 170.302 114.405 166.872 111.414C164.054 108.943 163.107 104.785 165.302 102.544C165.873 102.013 166.563 101.626 167.313 101.413C168.064 101.201 168.854 101.17 169.619 101.324C170.384 101.477 171.102 101.81 171.712 102.296C172.323 102.781 172.81 103.405 173.132 104.115C173.132 104.115 175.142 104.277 177.151 100.535C177.151 100.535 177.082 90.3948 179.345 89.0782C186.564 84.8975 191.668 85.0823 196.484 85.0823Z" fill="#FFA8A7"/>
<path d="M187.279 102.614C187.294 102.802 187.27 102.99 187.211 103.169C187.152 103.347 187.058 103.512 186.934 103.654C186.81 103.796 186.66 103.911 186.491 103.995C186.323 104.078 186.139 104.127 185.951 104.138C185.659 104.166 185.366 104.105 185.109 103.964C184.852 103.823 184.643 103.608 184.509 103.348C184.375 103.087 184.323 102.792 184.358 102.501C184.394 102.209 184.516 101.936 184.708 101.715C184.901 101.494 185.155 101.335 185.439 101.26C185.722 101.185 186.022 101.197 186.298 101.294C186.575 101.39 186.817 101.568 186.991 101.803C187.166 102.039 187.267 102.321 187.279 102.614V102.614Z" fill="#263238"/>
<g style="mix-blend-mode:multiply" opacity="0.5">
<g style="mix-blend-mode:multiply" opacity="0.5">
<path d="M189.636 112.847L192.916 113.886C192.855 114.105 192.751 114.309 192.609 114.486C192.468 114.663 192.292 114.81 192.093 114.918C191.893 115.026 191.674 115.092 191.448 115.113C191.223 115.134 190.995 115.11 190.779 115.041C190.344 114.89 189.984 114.579 189.771 114.171C189.558 113.763 189.51 113.289 189.636 112.847V112.847Z" fill="#F28F8F"/>
</g>
</g>
<path d="M200.053 98.2138L197.2 96.2389C197.318 96.0454 197.475 95.8783 197.66 95.7479C197.846 95.6176 198.056 95.5269 198.278 95.4814C198.5 95.4359 198.729 95.4366 198.951 95.4835C199.173 95.5303 199.383 95.6224 199.568 95.7539C199.95 96.0225 200.213 96.4282 200.304 96.8865C200.394 97.3448 200.304 97.8203 200.053 98.2138V98.2138Z" fill="#263238"/>
<path d="M185.316 97.6017L182.071 98.849C181.978 98.6423 181.928 98.4186 181.925 98.1918C181.922 97.965 181.966 97.7401 182.053 97.531C182.141 97.3219 182.271 97.133 182.435 96.9763C182.599 96.8196 182.793 96.6983 183.006 96.6201C183.444 96.4572 183.927 96.4681 184.357 96.6507C184.786 96.8334 185.13 97.1737 185.316 97.6017V97.6017Z" fill="#263238"/>
<path d="M199.279 102.302C199.283 102.581 199.205 102.855 199.055 103.089C198.904 103.324 198.688 103.51 198.433 103.622C198.178 103.735 197.895 103.77 197.62 103.723C197.345 103.677 197.09 103.55 196.887 103.359C196.684 103.168 196.541 102.922 196.476 102.65C196.412 102.379 196.429 102.095 196.525 101.833C196.622 101.571 196.793 101.344 197.018 101.178C197.242 101.013 197.511 100.918 197.789 100.904C198.171 100.895 198.542 101.036 198.821 101.298C199.099 101.559 199.264 101.92 199.279 102.302V102.302Z" fill="#263238"/>
<g style="mix-blend-mode:multiply" opacity="0.5">
<g style="mix-blend-mode:multiply" opacity="0.5">
<path d="M192.5 101.494L192.719 109.994L197.2 108.608L192.5 101.494Z" fill="#F28F8F"/>
</g>
</g>
<g style="mix-blend-mode:multiply" opacity="0.5">
<g style="mix-blend-mode:multiply" opacity="0.5">
<path d="M187.291 120.7C183.676 120.226 176.239 118.101 175.084 115.156C175.546 116.647 176.458 117.958 177.694 118.91C179.911 120.815 187.291 122.952 187.291 122.952V120.7Z" fill="#F28F8F"/>
</g>
</g>
<path d="M177.74 75.9934L177.197 69.7569C177.605 69.6954 178.022 69.7181 178.421 69.8237C178.821 69.9293 179.194 70.1155 179.518 70.3708C179.843 70.6261 180.112 70.9452 180.309 71.3084C180.505 71.6715 180.625 72.0711 180.662 72.4825C180.724 73.332 180.454 74.1725 179.909 74.8273C179.364 75.482 178.587 75.9 177.74 75.9934V75.9934Z" fill="#263238"/>
<path d="M177.405 76.6172L172.358 72.9215C172.584 72.5774 172.878 72.2828 173.221 72.0556C173.564 71.8285 173.95 71.6735 174.355 71.6C174.76 71.5266 175.176 71.5362 175.577 71.6284C175.978 71.7205 176.357 71.8933 176.689 72.1362C177.361 72.6485 177.809 73.3995 177.943 74.2336C178.076 75.0677 177.884 75.9211 177.405 76.6172V76.6172Z" fill="#263238"/>
<path d="M173.178 104.092V109.994C174.244 109.994 175.266 109.571 176.02 108.817C176.774 108.063 177.197 107.041 177.197 105.975V100.512L173.178 104.092Z" fill="#263238"/>
<path d="M189.254 76.1206C194.553 76.1206 199.635 78.2256 203.382 81.9726C207.129 85.7195 209.234 90.8015 209.234 96.1005V98.6874H199.464C197.264 98.6883 195.138 97.892 193.479 96.4461C191.821 95.0001 190.743 93.0023 190.444 90.8225L190.086 98.6874C188.278 98.6887 186.535 98.0122 185.2 96.7914C183.866 95.5706 183.038 93.8943 182.879 92.0929L182.764 90.7994C182.593 92.9461 181.619 94.9496 180.038 96.4113C178.456 97.8729 176.383 98.6856 174.229 98.6874H173.351L172.358 84.5745L189.254 76.1206Z" fill="#263238"/>
<path d="M325.06 355.515V353.99C324.448 355.803 321.595 363.611 317.333 367.514C313.926 370.621 309.249 374.213 308.094 377.677C306.939 381.142 314.562 382.493 317.749 381.927C321.445 381.281 326.238 379.179 328.836 375.98C330.673 373.728 331.839 371.06 333.144 369.293C334.449 367.526 337.463 365.539 338.168 363.518C338.561 362.363 338.099 359.926 337.556 357.848C337.013 355.769 336.516 353.84 335.858 354.013V355.168C334.32 356.381 332.411 357.026 330.453 356.993C328.882 357.039 325.048 356.727 325.06 355.515Z" fill="#263238"/>
<path d="M314.25 370.229C315.312 369.282 316.375 368.369 317.333 367.48C320.336 364.754 322.611 360.123 323.928 356.959C324.678 355.158 325.07 353.228 325.083 351.277V345.121H335.881V355.146V355.411H335.823C335.303 357.652 330.349 363.634 327.531 367.526C325.648 370.136 322.057 373.451 317.772 374.028C313.684 374.594 311.616 373.312 314.25 370.229Z" fill="#B16668"/>
<path d="M282.917 344.867V343.319C282.317 345.133 279.453 352.94 275.202 356.843C271.796 359.95 267.118 363.542 265.963 367.006C264.808 370.471 272.431 371.822 275.618 371.256C279.314 370.598 284.095 368.508 286.705 365.309C288.53 363.057 289.697 360.389 291.013 358.622C292.33 356.855 295.332 354.868 296.037 352.847C296.43 351.692 295.968 349.256 295.425 347.177C294.917 345.271 294.374 343.169 293.727 343.342V344.497C292.189 345.71 290.28 346.355 288.322 346.322C286.74 346.391 282.906 346.08 282.917 344.867Z" fill="#263238"/>
<path d="M272.119 359.58C273.17 358.633 274.232 357.721 275.202 356.832C278.194 354.106 280.48 349.475 281.785 346.31C282.542 344.511 282.935 342.58 282.94 340.628V334.473H293.739V344.486V344.751H293.681C293.161 346.992 288.207 352.963 285.389 356.866C283.495 359.476 279.914 362.791 275.63 363.368C271.553 363.946 269.486 362.664 272.119 359.58Z" fill="#B16668"/>
<path d="M333.71 187.684C342.083 205.978 333.409 270.41 333.409 270.41C333.664 273.378 337.047 279.222 338.318 292.284C339.808 307.713 336.008 346.472 336.008 346.472C334.362 347.428 332.507 347.967 330.605 348.043C328.704 348.12 326.812 347.731 325.094 346.911C325.094 346.911 314.758 288.484 312.829 273.147C311.131 259.762 307.898 230.312 307.898 230.312L298.658 273.043C300 277.361 300.973 281.785 301.569 286.267C302.446 295.298 293.704 337.325 293.704 337.325C293.704 337.325 289.973 338.688 282.894 337.649C282.894 337.649 279.81 281.867 278.99 270.999C277.616 252.728 282.455 195.745 285.816 184.936L333.71 187.684Z" fill="#37474F"/>
<path d="M307.898 230.3L305.172 213.311C305.172 213.311 293.623 210.921 288.461 206.024C288.461 206.024 293.924 212.826 302.054 215.055L305.115 228.106L299.779 267.707L307.898 230.3Z" fill="#263238"/>
<path d="M302.262 123.598C299.658 123.169 296.986 123.476 294.548 124.484C292.109 125.492 290.001 127.161 288.461 129.304C284.823 134.143 270.825 174.853 270.825 174.853H283.425L300.668 140.737L302.262 123.598Z" fill="#B16668"/>
<path d="M318.939 124.095C329.679 124.834 330.43 130.02 333.109 135.644C335.092 140.018 335.275 144.996 333.618 149.503L326.145 171.146C326.145 171.146 329.61 179.611 333.71 187.615C314.931 198.09 291.487 192.581 285.839 184.935C285.608 183.319 286.994 170.638 287.953 162.357C284.638 154.053 283.772 148.798 285.169 143.313C287.756 133.138 297.804 123.217 302.262 123.575L318.939 124.095Z" fill="#F5F5F5"/>
<path d="M314.134 189.671C315.609 189.332 317.001 188.703 318.228 187.819C319.455 186.934 320.493 185.814 321.281 184.522C322.069 183.231 322.59 181.795 322.815 180.299C323.039 178.803 322.962 177.277 322.588 175.812C322.54 175.61 322.475 175.413 322.392 175.223C322.135 174.435 321.62 173.758 320.931 173.299C320.241 172.84 319.418 172.627 318.592 172.693C319.798 171.898 320.834 170.871 321.639 169.671C322.444 168.471 323.002 167.124 323.281 165.706L325.591 154.261C325.591 154.261 321.352 140.818 321.78 136.21L332.555 136.834L333.952 137.804C335.097 141.633 334.988 145.728 333.641 149.491L326.168 171.134C326.168 171.134 329.633 179.6 333.733 187.603C327.624 190.889 320.882 192.826 313.96 193.284C307.039 193.743 300.1 192.711 293.612 190.26C300.428 191.359 307.392 191.159 314.134 189.671V189.671Z" fill="#E6E6E6"/>
<path d="M358.471 177.764C358.471 177.764 347.811 156.791 340.766 140.738C335.685 129.188 334.541 126.532 326.445 125.273L323.593 124.834C319.759 137.434 322.438 143.151 327.45 151.778L344.993 185.04C348.966 184.22 358.552 178.965 358.471 177.764Z" fill="#B16668"/>
<path d="M314.481 115.191H306.87C301.5 115.191 296.351 113.058 292.554 109.261C288.757 105.464 286.624 100.315 286.624 94.9454V91.55C286.624 86.15 288.77 80.9711 292.588 77.1526C296.406 73.3342 301.585 71.189 306.985 71.189H314.307C319.708 71.189 324.886 73.3342 328.705 77.1526C332.523 80.9711 334.668 86.15 334.668 91.55V94.9454C334.668 100.315 332.535 105.464 328.739 109.261C324.942 113.058 319.792 115.191 314.423 115.191H314.481Z" fill="#263238"/>
<path d="M294.57 80.9014C292.029 82.4027 288.888 88.7894 289.2 102.175C289.465 113.516 293.138 116.311 294.974 117.119C296.811 117.928 300.379 117.431 303.844 116.865V123.667C303.844 123.667 299.051 129.223 299.363 132.341C299.675 135.459 306.292 136.198 310.739 133.149C313.642 131.062 316.133 128.454 318.084 125.458V109.012C318.084 109.012 320.394 112.13 324.24 109.589C328.085 107.048 328.212 100.777 325.995 98.5137C323.778 96.2501 318.973 96.9776 318.084 100.096C318.084 100.096 312.563 100.292 305.218 96.2501C302.36 94.7115 299.905 92.5192 298.055 89.8519C296.204 87.1845 295.01 84.1177 294.57 80.9014Z" fill="#B16668"/>
<path d="M303.128 99.3223C303.124 99.6035 303.203 99.8797 303.354 100.116C303.506 100.353 303.724 100.54 303.981 100.654C304.238 100.767 304.523 100.803 304.801 100.755C305.078 100.708 305.335 100.58 305.54 100.388C305.745 100.196 305.889 99.9471 305.954 99.6734C306.018 99.3998 306.001 99.1131 305.904 98.8492C305.807 98.5853 305.634 98.3559 305.408 98.1894C305.181 98.023 304.91 97.927 304.629 97.9134C304.438 97.9072 304.248 97.9388 304.069 98.0063C303.89 98.0737 303.726 98.1758 303.587 98.3067C303.447 98.4375 303.335 98.5946 303.256 98.7689C303.178 98.9431 303.134 99.1312 303.128 99.3223V99.3223Z" fill="#263238"/>
<path d="M301.477 108.931L298.174 109.994C298.236 110.213 298.341 110.417 298.483 110.594C298.626 110.771 298.803 110.918 299.003 111.026C299.203 111.134 299.423 111.2 299.65 111.221C299.876 111.242 300.105 111.218 300.322 111.149C300.759 110.993 301.121 110.678 301.335 110.267C301.549 109.855 301.6 109.378 301.477 108.931V108.931Z" fill="#9A4A4D"/>
<path d="M291.429 94.9454L294.316 92.9359C294.193 92.7426 294.033 92.576 293.844 92.4463C293.656 92.3166 293.443 92.2264 293.218 92.1811C292.994 92.1357 292.763 92.1363 292.538 92.1826C292.314 92.229 292.102 92.3202 291.914 92.4508C291.527 92.7239 291.26 93.1358 291.17 93.6007C291.08 94.0655 291.172 94.5473 291.429 94.9454V94.9454Z" fill="#263238"/>
<path d="M292.099 98.2948C292.097 98.5754 292.177 98.8505 292.33 99.0858C292.484 99.3211 292.702 99.5061 292.96 99.618C293.217 99.7299 293.502 99.7637 293.778 99.7151C294.055 99.6665 294.311 99.5378 294.515 99.3449C294.719 99.1519 294.862 98.9034 294.925 98.63C294.989 98.3566 294.971 98.0706 294.874 97.8073C294.776 97.5441 294.604 97.3153 294.377 97.1494C294.151 96.9835 293.88 96.8878 293.6 96.8742C293.214 96.8679 292.84 97.013 292.56 97.2785C292.279 97.544 292.114 97.9088 292.099 98.2948V98.2948Z" fill="#263238"/>
<path d="M299.074 97.4746L298.843 106.056L294.328 104.658L299.074 97.4746Z" fill="#9A4A4D"/>
<path d="M303.855 116.865C307.493 116.38 315 114.221 316.167 111.264C315.704 112.763 314.788 114.083 313.545 115.041C311.305 116.969 303.855 119.129 303.855 119.129V116.865Z" fill="#9A4A4D"/>
<path d="M331.735 73.7642C327.046 75.7159 328.097 79.735 330.06 84.4239C332.024 89.1128 334.16 92.6815 338.78 90.672C340.02 90.3 341.168 89.6715 342.15 88.8272C343.132 87.9829 343.925 86.9417 344.478 85.7712C345.032 84.6006 345.333 83.3268 345.362 82.0323C345.392 80.7379 345.149 79.4517 344.649 78.2571C344.149 77.0626 343.404 75.9865 342.462 75.0984C341.52 74.2104 340.401 73.5303 339.179 73.1024C337.957 72.6744 336.659 72.508 335.369 72.6141C334.078 72.7201 332.824 73.0962 331.689 73.718L331.735 73.7642Z" fill="#263238"/>
<path d="M327.612 77.968L325.972 70.1493C326.474 70.0229 326.997 69.9985 327.509 70.0778C328.021 70.1571 328.511 70.3383 328.952 70.6108C329.392 70.8834 329.774 71.2416 330.073 71.6642C330.373 72.0868 330.584 72.5653 330.695 73.0712C330.912 74.1276 330.712 75.2268 330.138 76.1394C329.563 77.0519 328.658 77.707 327.612 77.968Z" fill="#263238"/>
<path d="M366.094 174.854H121.312V230.901H366.094V174.854Z" fill="#0097B7"/>
<path d="M154.607 215.806C154.395 215.61 154.243 215.358 154.168 215.079L148.221 195.769C148.2 195.65 148.2 195.529 148.221 195.411C148.221 195.03 148.452 194.845 148.925 194.845H152.321C152.579 194.818 152.84 194.879 153.06 195.018C153.233 195.178 153.344 195.396 153.371 195.63L157.206 209.108L161.56 197.559C161.643 197.318 161.781 197.101 161.964 196.924C162.165 196.771 162.417 196.701 162.668 196.727H164.563C164.803 196.707 165.043 196.768 165.244 196.901C165.416 197.089 165.542 197.314 165.613 197.559L169.933 209.108L173.802 195.63C173.859 195.406 173.966 195.197 174.114 195.018C174.337 194.876 174.602 194.815 174.864 194.845H178.248C178.722 194.845 178.953 195.03 178.953 195.411C178.967 195.53 178.967 195.65 178.953 195.769L172.912 215.056C172.851 215.341 172.706 215.602 172.497 215.806C172.262 215.941 171.992 216.001 171.723 215.98H169.009C168.758 215.999 168.509 215.929 168.304 215.783C168.112 215.571 167.963 215.324 167.866 215.056L163.465 203.206L159.054 215.056C158.958 215.331 158.8 215.58 158.592 215.783C158.378 215.928 158.122 215.997 157.864 215.98H155.358C155.096 215.993 154.836 215.933 154.607 215.806V215.806Z" fill="white"/>
<path d="M185.57 215.494C183.769 214.756 182.229 213.498 181.147 211.879C179.989 210.062 179.413 207.935 179.496 205.781C179.496 201.993 180.508 199.118 182.533 197.154C184.554 195.191 187.43 194.198 191.16 194.198C194.89 194.198 197.662 195.156 199.556 197.062C201.45 198.968 202.397 201.682 202.397 205.343C202.397 206.37 201.924 206.89 200.988 206.89H184.82C184.776 207.743 184.938 208.595 185.291 209.373C185.645 210.15 186.18 210.832 186.852 211.36C188.506 212.49 190.489 213.038 192.488 212.919C194.674 212.951 196.829 212.405 198.736 211.337C198.882 211.239 199.048 211.176 199.221 211.152C199.429 211.152 199.591 211.29 199.706 211.556L200.769 213.45C200.846 213.6 200.89 213.766 200.896 213.935C200.883 214.055 200.841 214.169 200.772 214.268C200.704 214.367 200.611 214.447 200.503 214.501C199.293 215.24 197.977 215.79 196.6 216.129C195.023 216.506 193.405 216.684 191.784 216.661C189.656 216.691 187.543 216.294 185.57 215.494V215.494ZM197.281 203.622C197.325 202.847 197.213 202.07 196.954 201.339C196.694 200.607 196.291 199.934 195.768 199.36C195.151 198.808 194.429 198.387 193.645 198.121C192.861 197.855 192.032 197.75 191.206 197.813C189.482 197.7 187.782 198.268 186.471 199.395C185.917 199.946 185.485 200.607 185.2 201.334C184.916 202.062 184.786 202.841 184.82 203.622H197.281Z" fill="white"/>
<path d="M207.121 215.609C206.854 215.286 206.718 214.874 206.74 214.455V187.684C206.704 187.238 206.84 186.796 207.121 186.448C207.29 186.3 207.489 186.189 207.703 186.121C207.918 186.053 208.144 186.031 208.368 186.055H210.678C211.14 186.012 211.601 186.153 211.96 186.448C212.104 186.618 212.212 186.815 212.28 187.027C212.347 187.239 212.372 187.462 212.353 187.684V214.42C212.378 214.837 212.246 215.249 211.983 215.575C211.616 215.871 211.148 216.012 210.678 215.967H208.368C208.147 215.994 207.923 215.976 207.708 215.914C207.494 215.853 207.295 215.749 207.121 215.609V215.609Z" fill="white"/>
<path d="M219.94 213.774C218.817 212.725 217.941 211.441 217.374 210.013C216.806 208.585 216.563 207.049 216.66 205.516C216.617 203.449 217.136 201.409 218.162 199.614C219.175 197.9 220.663 196.516 222.446 195.63C224.485 194.641 226.729 194.151 228.995 194.198C230.582 194.171 232.166 194.35 233.707 194.729C235.001 195.084 236.221 195.666 237.31 196.45C237.419 196.503 237.514 196.583 237.584 196.682C237.655 196.78 237.7 196.895 237.714 197.016C237.696 197.239 237.62 197.454 237.495 197.64L236.34 199.707C236.155 199.996 235.993 200.146 235.855 200.146C235.625 200.122 235.408 200.029 235.231 199.88C234.385 199.356 233.477 198.937 232.529 198.633C231.491 198.327 230.412 198.183 229.33 198.205C228.375 198.156 227.42 198.306 226.526 198.644C225.631 198.981 224.817 199.501 224.133 200.169C223.48 200.891 222.977 201.736 222.652 202.653C222.327 203.571 222.187 204.544 222.239 205.516C222.165 206.492 222.295 207.472 222.621 208.395C222.947 209.318 223.462 210.162 224.133 210.875C225.686 212.161 227.676 212.798 229.688 212.653C231.773 212.715 233.823 212.112 235.543 210.933C235.714 210.812 235.913 210.737 236.121 210.713C236.294 210.713 236.467 210.863 236.64 211.152L237.922 213.312C238.033 213.449 238.094 213.62 238.095 213.797C238.095 214.005 237.945 214.212 237.657 214.42C236.491 215.18 235.213 215.749 233.868 216.107C232.314 216.501 230.714 216.687 229.11 216.661C225.184 216.661 222.127 215.698 219.94 213.774Z" fill="white"/>
<path d="M244.644 213.646C242.641 211.38 241.536 208.459 241.536 205.435C241.536 202.411 242.641 199.49 244.644 197.224C246.711 195.214 249.656 194.198 253.479 194.198C257.301 194.198 260.246 195.214 262.325 197.224C264.341 199.484 265.456 202.406 265.456 205.435C265.456 208.464 264.341 211.386 262.325 213.646C260.246 215.656 257.29 216.661 253.479 216.661C249.667 216.661 246.711 215.656 244.644 213.646ZM258.225 210.713C259.418 209.223 260.004 207.338 259.865 205.435C260.003 203.55 259.416 201.683 258.225 200.215C256.915 199.061 255.23 198.424 253.484 198.424C251.739 198.424 250.053 199.061 248.743 200.215C247.544 201.679 246.953 203.548 247.092 205.435C246.959 207.332 247.549 209.21 248.743 210.69C250.043 211.865 251.732 212.516 253.484 212.516C255.236 212.516 256.926 211.865 258.225 210.69V210.713Z" fill="white"/>
<path d="M270.167 215.61C269.887 215.292 269.742 214.878 269.763 214.455V196.092C269.733 195.763 269.814 195.434 269.994 195.156C270.132 194.983 270.444 194.902 270.918 194.902H273.228C273.479 194.877 273.73 194.947 273.932 195.099C274.098 195.288 274.192 195.529 274.198 195.78L274.325 197.628C275.115 196.595 276.115 195.741 277.258 195.122C278.477 194.503 279.83 194.197 281.196 194.232C282.379 194.204 283.546 194.504 284.569 195.099C285.533 195.68 286.27 196.572 286.659 197.628C287.446 196.519 288.5 195.626 289.723 195.033C290.947 194.439 292.3 194.164 293.658 194.232C294.57 194.188 295.481 194.333 296.334 194.659C297.187 194.985 297.963 195.485 298.612 196.126C299.933 197.695 300.588 199.718 300.437 201.762V214.466C300.458 214.883 300.327 215.294 300.068 215.621C299.701 215.918 299.232 216.059 298.762 216.014H296.822C296.364 216.05 295.91 215.909 295.552 215.621C295.276 215.302 295.135 214.888 295.159 214.466V202.04C295.258 200.994 294.948 199.95 294.293 199.129C293.945 198.817 293.538 198.578 293.095 198.427C292.652 198.276 292.184 198.216 291.718 198.251C291.177 198.227 290.637 198.318 290.133 198.517C289.63 198.716 289.174 199.019 288.796 199.406C288.005 200.284 287.59 201.437 287.641 202.617V214.385C287.664 214.807 287.524 215.221 287.248 215.54C286.887 215.83 286.428 215.971 285.966 215.933H284.164C283.706 215.974 283.25 215.833 282.894 215.54C282.614 215.223 282.469 214.808 282.49 214.385V201.82C282.573 200.857 282.302 199.896 281.728 199.118C281.405 198.807 281.019 198.569 280.597 198.42C280.175 198.27 279.726 198.213 279.279 198.251C278.705 198.231 278.134 198.333 277.602 198.55C277.071 198.767 276.591 199.094 276.196 199.51C275.392 200.408 274.976 201.587 275.041 202.79V214.42C275.062 214.837 274.93 215.248 274.671 215.575C274.304 215.872 273.836 216.013 273.366 215.968H271.426C270.976 216.013 270.526 215.885 270.167 215.61V215.61Z" fill="white"/>
<path d="M310.635 215.495C308.841 214.772 307.302 213.534 306.212 211.937C305.053 210.12 304.477 207.993 304.56 205.84C304.56 202.051 305.573 199.176 307.597 197.212C309.619 195.249 312.494 194.256 316.225 194.256C319.955 194.256 322.727 195.214 324.621 197.12C326.515 199.026 327.462 201.74 327.462 205.401C327.462 206.429 326.988 206.948 326.053 206.948H309.907C309.863 207.802 310.025 208.653 310.379 209.431C310.733 210.208 311.268 210.89 311.94 211.418C313.593 212.55 315.576 213.098 317.576 212.977C319.761 213.008 321.916 212.462 323.824 211.395C323.969 211.297 324.135 211.234 324.309 211.21C324.517 211.21 324.679 211.348 324.794 211.614L325.856 213.508C325.934 213.659 325.977 213.824 325.984 213.993C325.971 214.113 325.928 214.228 325.86 214.326C325.791 214.425 325.699 214.505 325.591 214.559C324.381 215.298 323.064 215.848 321.687 216.187C320.11 216.564 318.492 216.743 316.871 216.719C314.731 216.734 312.61 216.317 310.635 215.495V215.495ZM322.346 203.622C322.389 202.847 322.278 202.071 322.018 201.339C321.758 200.607 321.355 199.935 320.833 199.361C320.215 198.809 319.493 198.388 318.709 198.122C317.926 197.856 317.096 197.751 316.271 197.813C314.546 197.698 312.845 198.267 311.536 199.395C310.986 199.948 310.557 200.61 310.277 201.337C309.997 202.065 309.871 202.843 309.907 203.622H322.346Z" fill="white"/>
<path d="M330.892 214.247V213.311C330.892 212.087 331.758 211.464 333.49 211.464H334.645C336.378 211.464 337.244 212.087 337.244 213.311V214.247C337.244 215.448 336.378 216.049 334.645 216.049H333.49C331.758 216.018 330.892 215.417 330.892 214.247ZM331.839 207.317C331.588 206.965 331.469 206.536 331.504 206.105L331.25 187.684C331.211 187.24 331.343 186.798 331.619 186.448C331.792 186.301 331.992 186.19 332.209 186.123C332.425 186.055 332.653 186.032 332.878 186.056H335.315C335.541 186.032 335.768 186.055 335.985 186.123C336.201 186.19 336.402 186.301 336.574 186.448C336.851 186.798 336.983 187.24 336.944 187.684L336.643 206.093C336.678 206.524 336.559 206.954 336.308 207.306C335.986 207.575 335.572 207.708 335.153 207.675H332.994C332.789 207.705 332.579 207.688 332.381 207.626C332.184 207.564 332.002 207.459 331.85 207.317H331.839Z" fill="white"/>
<path d="M121.311 184.97C120.595 186.968 119.002 187.915 117.847 189.902C116.692 191.888 116.207 197.824 117.512 200.296C118.507 202.03 119.905 203.498 121.587 204.578C123.27 205.657 125.187 206.316 127.178 206.498C128.848 206.566 130.498 206.105 131.89 205.181C132.539 204.746 133.113 204.207 133.588 203.587C134.022 202.923 134.35 202.194 134.558 201.428C134.575 201.367 134.606 201.311 134.651 201.266C134.713 201.226 134.784 201.202 134.858 201.197C135.364 201.124 135.84 200.912 136.233 200.585C136.428 200.421 136.586 200.216 136.693 199.984C136.801 199.753 136.857 199.5 136.856 199.245C136.818 198.92 136.702 198.609 136.52 198.338C136.337 198.067 136.092 197.843 135.805 197.686C135.222 197.385 134.606 197.153 133.969 196.993C132.433 196.496 131.013 195.722 129.511 195.156C126.469 194.074 123.676 192.389 121.3 190.202L121.311 184.97Z" fill="#FFA8A7"/>
<path d="M366.105 186.772C366.821 188.793 368.415 189.752 369.57 191.773C370.725 193.794 371.233 199.857 369.916 202.317C368.907 204.078 367.487 205.57 365.778 206.666C364.069 207.761 362.121 208.429 360.099 208.611C358.493 208.723 356.895 208.31 355.543 207.436C354.192 206.561 353.16 205.271 352.604 203.761C351.553 200.123 353.366 198.748 357.732 197.097C360.822 196.003 363.659 194.294 366.07 192.073L366.105 186.772Z" fill="#B16668"/>
<path d="M259.092 169.98C265.559 171.031 267.418 174.854 267.418 174.854H262.129C262.129 174.854 261.459 176.632 263.284 183.296C263.907 185.606 260.454 185.698 260.35 184.82C259.727 186.253 255.176 188.285 251.781 185.975C248.663 183.908 247.277 180.744 247.97 174.819C249.113 168.225 257.937 169.795 259.092 169.98Z" fill="#B16668"/>
</svg>
